<?xml version="1.0" encoding="UTF-8" standalone="no"?>
<!DOCTYPE svg PUBLIC "-//W3C//DTD SVG 1.1//EN"
 "http://www.w3.org/Graphics/SVG/1.1/DTD/svg11.dtd">
<!-- Generated by graphviz version 12.1.2 (20240928.0832)
 -->
<!-- Title: アーキテクチャ図 Pages: 1 -->
<svg width="410pt" height="171pt"
 viewBox="0.00 0.00 410.00 171.00" xmlns="http://www.w3.org/2000/svg" xmlns:xlink="http://www.w3.org/1999/xlink">
<g id="graph0" class="graph" transform="scale(1 1) rotate(0) translate(4 167)">
<title>アーキテクチャ図</title>
<polygon fill="white" stroke="none" points="-4,4 -4,-167 406,-167 406,4 -4,4"/>
<text text-anchor="middle" x="201" y="-5.7" font-family="Times,serif" font-size="14.00">アーキテクチャ図</text>
<g id="clust1" class="cluster">
<title>clusterArchitecture</title>
<polygon fill="lightyellow" stroke="#eedd82" points="8,-31 8,-155 394,-155 394,-31 8,-31"/>
</g>
<!-- com.practicalddd.cargotracker.booking -->
<g id="node1" class="node">
<title>com.practicalddd.cargotracker.booking</title>
<polygon fill="#eedd82" stroke="black" points="95.88,-147 16.12,-147 16.12,-143 12.12,-143 12.12,-139 16.12,-139 16.12,-119 12.12,-119 12.12,-115 16.12,-115 16.12,-111 95.88,-111 95.88,-147"/>
<polyline fill="none" stroke="black" points="16.12,-143 20.12,-143 20.12,-139 16.12,-139"/>
<polyline fill="none" stroke="black" points="16.12,-119 20.12,-119 20.12,-115 16.12,-115"/>
<text text-anchor="middle" x="56" y="-121.25" font-family="Times,serif" font-size="20.00">booking</text>
</g>
<!-- com.practicalddd.cargotracker.shareddomain -->
<g id="node4" class="node">
<title>com.practicalddd.cargotracker.shareddomain</title>
<polygon fill="#eedd82" stroke="black" points="267.5,-75 140.5,-75 140.5,-71 136.5,-71 136.5,-67 140.5,-67 140.5,-47 136.5,-47 136.5,-43 140.5,-43 140.5,-39 267.5,-39 267.5,-75"/>
<polyline fill="none" stroke="black" points="140.5,-71 144.5,-71 144.5,-67 140.5,-67"/>
<polyline fill="none" stroke="black" points="140.5,-47 144.5,-47 144.5,-43 140.5,-43"/>
<text text-anchor="middle" x="204" y="-49.25" font-family="Times,serif" font-size="20.00">shareddomain</text>
</g>
<!-- com.practicalddd.cargotracker.booking&#45;&gt;com.practicalddd.cargotracker.shareddomain -->
<g id="edge4" class="edge">
<title>com.practicalddd.cargotracker.booking&#45;&gt;com.practicalddd.cargotracker.shareddomain</title>
<path fill="none" stroke="black" d="M56,-110.83C56,-89.5 56,-57 56,-57 56,-57 128.86,-57 128.86,-57"/>
<polygon fill="black" stroke="black" points="128.86,-60.5 138.86,-57 128.86,-53.5 128.86,-60.5"/>
</g>
<!-- com.practicalddd.cargotracker.handling -->
<g id="node2" class="node">
<title>com.practicalddd.cargotracker.handling</title>
<polygon fill="#eedd82" stroke="black" points="198.12,-147 113.88,-147 113.88,-143 109.88,-143 109.88,-139 113.88,-139 113.88,-119 109.88,-119 109.88,-115 113.88,-115 113.88,-111 198.12,-111 198.12,-147"/>
<polyline fill="none" stroke="black" points="113.88,-143 117.88,-143 117.88,-139 113.88,-139"/>
<polyline fill="none" stroke="black" points="113.88,-119 117.88,-119 117.88,-115 113.88,-115"/>
<text text-anchor="middle" x="156" y="-121.25" font-family="Times,serif" font-size="20.00">handling</text>
</g>
<!-- com.practicalddd.cargotracker.handling&#45;&gt;com.practicalddd.cargotracker.shareddomain -->
<g id="edge2" class="edge">
<title>com.practicalddd.cargotracker.handling&#45;&gt;com.practicalddd.cargotracker.shareddomain</title>
<path fill="none" stroke="black" d="M169.31,-110.83C169.31,-110.83 169.31,-86.93 169.31,-86.93"/>
<polygon fill="black" stroke="black" points="172.81,-86.93 169.31,-76.93 165.81,-86.93 172.81,-86.93"/>
</g>
<!-- com.practicalddd.cargotracker.routing -->
<g id="node3" class="node">
<title>com.practicalddd.cargotracker.routing</title>
<polygon fill="#eedd82" stroke="black" points="288.12,-147 215.88,-147 215.88,-143 211.88,-143 211.88,-139 215.88,-139 215.88,-119 211.88,-119 211.88,-115 215.88,-115 215.88,-111 288.12,-111 288.12,-147"/>
<polyline fill="none" stroke="black" points="215.88,-143 219.88,-143 219.88,-139 215.88,-139"/>
<polyline fill="none" stroke="black" points="215.88,-119 219.88,-119 219.88,-115 215.88,-115"/>
<text text-anchor="middle" x="252" y="-121.25" font-family="Times,serif" font-size="20.00">routing</text>
</g>
<!-- com.practicalddd.cargotracker.routing&#45;&gt;com.practicalddd.cargotracker.shareddomain -->
<g id="edge3" class="edge">
<title>com.practicalddd.cargotracker.routing&#45;&gt;com.practicalddd.cargotracker.shareddomain</title>
<path fill="none" stroke="black" d="M241.69,-110.83C241.69,-110.83 241.69,-86.93 241.69,-86.93"/>
<polygon fill="black" stroke="black" points="245.19,-86.93 241.69,-76.93 238.19,-86.93 245.19,-86.93"/>
</g>
<!-- com.practicalddd.cargotracker.tracking -->
<g id="node5" class="node">
<title>com.practicalddd.cargotracker.tracking</title>
<polygon fill="#eedd82" stroke="black" points="386.25,-147 305.75,-147 305.75,-143 301.75,-143 301.75,-139 305.75,-139 305.75,-119 301.75,-119 301.75,-115 305.75,-115 305.75,-111 386.25,-111 386.25,-147"/>
<polyline fill="none" stroke="black" points="305.75,-143 309.75,-143 309.75,-139 305.75,-139"/>
<polyline fill="none" stroke="black" points="305.75,-119 309.75,-119 309.75,-115 305.75,-115"/>
<text text-anchor="middle" x="346" y="-121.25" font-family="Times,serif" font-size="20.00">tracking</text>
</g>
<!-- com.practicalddd.cargotracker.tracking&#45;&gt;com.practicalddd.cargotracker.shareddomain -->
<g id="edge1" class="edge">
<title>com.practicalddd.cargotracker.tracking&#45;&gt;com.practicalddd.cargotracker.shareddomain</title>
<path fill="none" stroke="black" d="M346,-110.83C346,-89.5 346,-57 346,-57 346,-57 279.45,-57 279.45,-57"/>
<polygon fill="black" stroke="black" points="279.45,-53.5 269.45,-57 279.45,-60.5 279.45,-53.5"/>
</g>
</g>
</svg>
