<?xml version="1.0" encoding="UTF-8" standalone="no"?>
<!DOCTYPE svg PUBLIC "-//W3C//DTD SVG 1.1//EN"
 "http://www.w3.org/Graphics/SVG/1.1/DTD/svg11.dtd">
<!-- Generated by graphviz version 12.2.0 (20241103.1931)
 -->
<!-- Title: アーキテクチャ図 Pages: 1 -->
<svg width="410pt" height="170pt"
 viewBox="0.00 0.00 410.00 170.25" xmlns="http://www.w3.org/2000/svg" xmlns:xlink="http://www.w3.org/1999/xlink">
<g id="graph0" class="graph" transform="scale(1 1) rotate(0) translate(4 166.25)">
<title>アーキテクチャ図</title>
<polygon fill="white" stroke="none" points="-4,4 -4,-166.25 406,-166.25 406,4 -4,4"/>
<text text-anchor="middle" x="201" y="-4.95" font-family="Times New Roman,serif" font-size="14.00">アーキテクチャ図</text>
<g id="clust1" class="cluster">
<title>clusterArchitecture</title>
<polygon fill="lightyellow" stroke="#eedd82" points="8,-30.25 8,-154.25 394,-154.25 394,-30.25 8,-30.25"/>
</g>
<!-- com.practicalddd.cargotracker.booking -->
<g id="node1" class="node">
<title>com.practicalddd.cargotracker.booking</title>
<polygon fill="#eedd82" stroke="black" points="95.88,-146.25 16.12,-146.25 16.12,-142.25 12.12,-142.25 12.12,-138.25 16.12,-138.25 16.12,-118.25 12.12,-118.25 12.12,-114.25 16.12,-114.25 16.12,-110.25 95.88,-110.25 95.88,-146.25"/>
<polyline fill="none" stroke="black" points="16.12,-142.25 20.12,-142.25 20.12,-138.25 16.12,-138.25"/>
<polyline fill="none" stroke="black" points="16.12,-118.25 20.12,-118.25 20.12,-114.25 16.12,-114.25"/>
<text text-anchor="middle" x="56" y="-120.5" font-family="Times New Roman,serif" font-size="20.00">booking</text>
</g>
<!-- com.practicalddd.cargotracker.shareddomain -->
<g id="node4" class="node">
<title>com.practicalddd.cargotracker.shareddomain</title>
<polygon fill="#eedd82" stroke="black" points="267.5,-74.25 140.5,-74.25 140.5,-70.25 136.5,-70.25 136.5,-66.25 140.5,-66.25 140.5,-46.25 136.5,-46.25 136.5,-42.25 140.5,-42.25 140.5,-38.25 267.5,-38.25 267.5,-74.25"/>
<polyline fill="none" stroke="black" points="140.5,-70.25 144.5,-70.25 144.5,-66.25 140.5,-66.25"/>
<polyline fill="none" stroke="black" points="140.5,-46.25 144.5,-46.25 144.5,-42.25 140.5,-42.25"/>
<text text-anchor="middle" x="204" y="-48.5" font-family="Times New Roman,serif" font-size="20.00">shareddomain</text>
</g>
<!-- com.practicalddd.cargotracker.booking&#45;&gt;com.practicalddd.cargotracker.shareddomain -->
<g id="edge4" class="edge">
<title>com.practicalddd.cargotracker.booking&#45;&gt;com.practicalddd.cargotracker.shareddomain</title>
<path fill="none" stroke="black" d="M56,-110.08C56,-88.75 56,-56.25 56,-56.25 56,-56.25 128.86,-56.25 128.86,-56.25"/>
<polygon fill="black" stroke="black" points="128.86,-59.75 138.86,-56.25 128.86,-52.75 128.86,-59.75"/>
</g>
<!-- com.practicalddd.cargotracker.handling -->
<g id="node2" class="node">
<title>com.practicalddd.cargotracker.handling</title>
<polygon fill="#eedd82" stroke="black" points="198.12,-146.25 113.88,-146.25 113.88,-142.25 109.88,-142.25 109.88,-138.25 113.88,-138.25 113.88,-118.25 109.88,-118.25 109.88,-114.25 113.88,-114.25 113.88,-110.25 198.12,-110.25 198.12,-146.25"/>
<polyline fill="none" stroke="black" points="113.88,-142.25 117.88,-142.25 117.88,-138.25 113.88,-138.25"/>
<polyline fill="none" stroke="black" points="113.88,-118.25 117.88,-118.25 117.88,-114.25 113.88,-114.25"/>
<text text-anchor="middle" x="156" y="-120.5" font-family="Times New Roman,serif" font-size="20.00">handling</text>
</g>
<!-- com.practicalddd.cargotracker.handling&#45;&gt;com.practicalddd.cargotracker.shareddomain -->
<g id="edge2" class="edge">
<title>com.practicalddd.cargotracker.handling&#45;&gt;com.practicalddd.cargotracker.shareddomain</title>
<path fill="none" stroke="black" d="M169.31,-110.08C169.31,-110.08 169.31,-86.18 169.31,-86.18"/>
<polygon fill="black" stroke="black" points="172.81,-86.18 169.31,-76.18 165.81,-86.18 172.81,-86.18"/>
</g>
<!-- com.practicalddd.cargotracker.routing -->
<g id="node3" class="node">
<title>com.practicalddd.cargotracker.routing</title>
<polygon fill="#eedd82" stroke="black" points="288.12,-146.25 215.88,-146.25 215.88,-142.25 211.88,-142.25 211.88,-138.25 215.88,-138.25 215.88,-118.25 211.88,-118.25 211.88,-114.25 215.88,-114.25 215.88,-110.25 288.12,-110.25 288.12,-146.25"/>
<polyline fill="none" stroke="black" points="215.88,-142.25 219.88,-142.25 219.88,-138.25 215.88,-138.25"/>
<polyline fill="none" stroke="black" points="215.88,-118.25 219.88,-118.25 219.88,-114.25 215.88,-114.25"/>
<text text-anchor="middle" x="252" y="-120.5" font-family="Times New Roman,serif" font-size="20.00">routing</text>
</g>
<!-- com.practicalddd.cargotracker.routing&#45;&gt;com.practicalddd.cargotracker.shareddomain -->
<g id="edge3" class="edge">
<title>com.practicalddd.cargotracker.routing&#45;&gt;com.practicalddd.cargotracker.shareddomain</title>
<path fill="none" stroke="black" d="M241.69,-110.08C241.69,-110.08 241.69,-86.18 241.69,-86.18"/>
<polygon fill="black" stroke="black" points="245.19,-86.18 241.69,-76.18 238.19,-86.18 245.19,-86.18"/>
</g>
<!-- com.practicalddd.cargotracker.tracking -->
<g id="node5" class="node">
<title>com.practicalddd.cargotracker.tracking</title>
<polygon fill="#eedd82" stroke="black" points="386.25,-146.25 305.75,-146.25 305.75,-142.25 301.75,-142.25 301.75,-138.25 305.75,-138.25 305.75,-118.25 301.75,-118.25 301.75,-114.25 305.75,-114.25 305.75,-110.25 386.25,-110.25 386.25,-146.25"/>
<polyline fill="none" stroke="black" points="305.75,-142.25 309.75,-142.25 309.75,-138.25 305.75,-138.25"/>
<polyline fill="none" stroke="black" points="305.75,-118.25 309.75,-118.25 309.75,-114.25 305.75,-114.25"/>
<text text-anchor="middle" x="346" y="-120.5" font-family="Times New Roman,serif" font-size="20.00">tracking</text>
</g>
<!-- com.practicalddd.cargotracker.tracking&#45;&gt;com.practicalddd.cargotracker.shareddomain -->
<g id="edge1" class="edge">
<title>com.practicalddd.cargotracker.tracking&#45;&gt;com.practicalddd.cargotracker.shareddomain</title>
<path fill="none" stroke="black" d="M346,-110.08C346,-88.75 346,-56.25 346,-56.25 346,-56.25 279.45,-56.25 279.45,-56.25"/>
<polygon fill="black" stroke="black" points="279.45,-52.75 269.45,-56.25 279.45,-59.75 279.45,-52.75"/>
</g>
</g>
</svg>
