<?xml version="1.0" encoding="UTF-8" standalone="no"?>
<!DOCTYPE svg PUBLIC "-//W3C//DTD SVG 1.1//EN"
 "http://www.w3.org/Graphics/SVG/1.1/DTD/svg11.dtd">
<!-- Generated by graphviz version 12.1.2 (20240928.0832)
 -->
<!-- Title: 区分使用図 Pages: 1 -->
<svg width="917pt" height="181pt"
 viewBox="0.00 0.00 917.00 180.50" xmlns="http://www.w3.org/2000/svg" xmlns:xlink="http://www.w3.org/1999/xlink">
<g id="graph0" class="graph" transform="scale(1 1) rotate(0) translate(4 176.5)">
<title>区分使用図</title>
<polygon fill="white" stroke="none" points="-4,4 -4,-176.5 913,-176.5 913,4 -4,4"/>
<text text-anchor="middle" x="454.5" y="-5.7" font-family="Times,serif" font-size="14.00">区分使用図</text>
<!-- com.practicalddd.cargotracker.booking.domain.model.valueobjects.RoutingStatus -->
<g id="node1" class="node">
<title>com.practicalddd.cargotracker.booking.domain.model.valueobjects.RoutingStatus</title>
<polygon fill="lemonchiffon" stroke="black" points="759.38,-113 670.88,-113 666.88,-109 666.88,-77 755.38,-77 759.38,-81 759.38,-113"/>
<polyline fill="none" stroke="black" points="755.38,-109 666.88,-109"/>
<polyline fill="none" stroke="black" points="755.38,-109 755.38,-77"/>
<polyline fill="none" stroke="black" points="755.38,-109 759.38,-113"/>
<text text-anchor="middle" x="713.12" y="-89.95" font-family="Times,serif" font-size="14.00">RoutingStatus</text>
</g>
<!-- com.practicalddd.cargotracker.booking.domain.model.valueobjects.TransportStatus -->
<g id="node2" class="node">
<title>com.practicalddd.cargotracker.booking.domain.model.valueobjects.TransportStatus</title>
<polygon fill="lemonchiffon" stroke="black" points="763.88,-59 666.38,-59 662.38,-55 662.38,-23 759.88,-23 763.88,-27 763.88,-59"/>
<polyline fill="none" stroke="black" points="759.88,-55 662.38,-55"/>
<polyline fill="none" stroke="black" points="759.88,-55 759.88,-23"/>
<polyline fill="none" stroke="black" points="759.88,-55 763.88,-59"/>
<text text-anchor="middle" x="713.12" y="-35.95" font-family="Times,serif" font-size="14.00">TransportStatus</text>
</g>
<!-- com.practicalddd.cargotracker.handling.domain.model.valueobjects.Type -->
<g id="node3" class="node">
<title>com.practicalddd.cargotracker.handling.domain.model.valueobjects.Type</title>
<polygon fill="#eedd82" stroke="black" points="909,-172.5 521.25,-172.5 517.25,-168.5 517.25,-131.5 905,-131.5 909,-135.5 909,-172.5"/>
<polyline fill="none" stroke="black" points="905,-168.5 517.25,-168.5"/>
<polyline fill="none" stroke="black" points="905,-168.5 905,-131.5"/>
<polyline fill="none" stroke="black" points="905,-168.5 909,-172.5"/>
<text text-anchor="middle" x="713.12" y="-155.2" font-family="Times,serif" font-size="14.00">Handling event type. Either requires or prohibits a carrier movement</text>
<text text-anchor="middle" x="713.12" y="-138.7" font-family="Times,serif" font-size="14.00">Type</text>
</g>
<!-- com.practicalddd.cargotracker.booking.domain.model.aggregates.Cargo -->
<g id="node4" class="node">
<title>com.practicalddd.cargotracker.booking.domain.model.aggregates.Cargo</title>
<g id="a_node4"><a xlink:href="./domain.html#com.practicalddd.cargotracker.booking.domain.model.aggregates.Cargo" xlink:title="Cargo">
<polygon fill="white" stroke="black" points="102.5,-86 48.5,-86 48.5,-50 102.5,-50 102.5,-86"/>
<text text-anchor="middle" x="75.5" y="-62.95" font-family="Times,serif" font-size="14.00">Cargo</text>
</a>
</g>
</g>
<!-- com.practicalddd.cargotracker.booking.domain.model.valueobjects.Delivery -->
<g id="node5" class="node">
<title>com.practicalddd.cargotracker.booking.domain.model.valueobjects.Delivery</title>
<g id="a_node5"><a xlink:href="./domain.html#com.practicalddd.cargotracker.booking.domain.model.valueobjects.Delivery" xlink:title="Delivery">
<polygon fill="white" stroke="black" points="365.75,-86 302.5,-86 302.5,-50 365.75,-50 365.75,-86"/>
<text text-anchor="middle" x="334.12" y="-62.95" font-family="Times,serif" font-size="14.00">Delivery</text>
</a>
</g>
</g>
<!-- com.practicalddd.cargotracker.booking.domain.model.aggregates.Cargo&#45;&gt;com.practicalddd.cargotracker.booking.domain.model.valueobjects.Delivery -->
<g id="edge4" class="edge">
<title>com.practicalddd.cargotracker.booking.domain.model.aggregates.Cargo&#45;&gt;com.practicalddd.cargotracker.booking.domain.model.valueobjects.Delivery</title>
<path fill="none" stroke="black" d="M103,-68C147.4,-68 237.22,-68 290.57,-68"/>
<polygon fill="black" stroke="black" points="290.5,-71.5 300.5,-68 290.5,-64.5 290.5,-71.5"/>
</g>
<!-- com.practicalddd.cargotracker.booking.domain.model.valueobjects.Delivery&#45;&gt;com.practicalddd.cargotracker.booking.domain.model.valueobjects.RoutingStatus -->
<g id="edge1" class="edge">
<title>com.practicalddd.cargotracker.booking.domain.model.valueobjects.Delivery&#45;&gt;com.practicalddd.cargotracker.booking.domain.model.valueobjects.RoutingStatus</title>
<path fill="none" stroke="black" d="M365.98,-70.21C429.17,-74.74 574.15,-85.12 655,-90.91"/>
<polygon fill="black" stroke="black" points="654.71,-94.4 664.94,-91.62 655.21,-87.42 654.71,-94.4"/>
</g>
<!-- com.practicalddd.cargotracker.booking.domain.model.valueobjects.Delivery&#45;&gt;com.practicalddd.cargotracker.booking.domain.model.valueobjects.TransportStatus -->
<g id="edge5" class="edge">
<title>com.practicalddd.cargotracker.booking.domain.model.valueobjects.Delivery&#45;&gt;com.practicalddd.cargotracker.booking.domain.model.valueobjects.TransportStatus</title>
<path fill="none" stroke="black" d="M365.98,-65.79C428.12,-61.34 569.38,-51.22 650.93,-45.38"/>
<polygon fill="black" stroke="black" points="650.8,-48.9 660.52,-44.7 650.3,-41.92 650.8,-48.9"/>
</g>
<!-- com.practicalddd.cargotracker.handling.domain.model.aggregates.HandlingActivity -->
<g id="node6" class="node">
<title>com.practicalddd.cargotracker.handling.domain.model.aggregates.HandlingActivity</title>
<g id="a_node6"><a xlink:href="./domain.html#com.practicalddd.cargotracker.handling.domain.model.aggregates.HandlingActivity" xlink:title="Root Aggregate for the Handling Bounded Context\nHandlingActivity">
<polygon fill="white" stroke="black" points="481.25,-172.5 187,-172.5 187,-131.5 481.25,-131.5 481.25,-172.5"/>
<text text-anchor="middle" x="334.12" y="-155.2" font-family="Times,serif" font-size="14.00">Root Aggregate for the Handling Bounded Context</text>
<text text-anchor="middle" x="334.12" y="-138.7" font-family="Times,serif" font-size="14.00">HandlingActivity</text>
</a>
</g>
</g>
<!-- com.practicalddd.cargotracker.handling.domain.model.aggregates.HandlingActivity&#45;&gt;com.practicalddd.cargotracker.handling.domain.model.valueobjects.Type -->
<g id="edge3" class="edge">
<title>com.practicalddd.cargotracker.handling.domain.model.aggregates.HandlingActivity&#45;&gt;com.practicalddd.cargotracker.handling.domain.model.valueobjects.Type</title>
<path fill="none" stroke="black" d="M481.69,-152C489.57,-152 497.54,-152 505.56,-152"/>
<polygon fill="black" stroke="black" points="505.41,-155.5 515.41,-152 505.41,-148.5 505.41,-155.5"/>
</g>
<!-- com.practicalddd.cargotracker.handling.domain.model.valueobjects.HandlingActivityHistory -->
<g id="node7" class="node">
<title>com.practicalddd.cargotracker.handling.domain.model.valueobjects.HandlingActivityHistory</title>
<g id="a_node7"><a xlink:href="./domain.html#com.practicalddd.cargotracker.handling.domain.model.valueobjects.HandlingActivityHistory" xlink:title="HandlingActivityHistory">
<polygon fill="white" stroke="black" points="151,-170 0,-170 0,-134 151,-134 151,-170"/>
<text text-anchor="middle" x="75.5" y="-146.95" font-family="Times,serif" font-size="14.00">HandlingActivityHistory</text>
</a>
</g>
</g>
<!-- com.practicalddd.cargotracker.handling.domain.model.valueobjects.HandlingActivityHistory&#45;&gt;com.practicalddd.cargotracker.handling.domain.model.aggregates.HandlingActivity -->
<g id="edge2" class="edge">
<title>com.practicalddd.cargotracker.handling.domain.model.valueobjects.HandlingActivityHistory&#45;&gt;com.practicalddd.cargotracker.handling.domain.model.aggregates.HandlingActivity</title>
<path fill="none" stroke="black" d="M151.42,-152C159.15,-152 167.19,-152 175.41,-152"/>
<polygon fill="black" stroke="black" points="175.19,-155.5 185.19,-152 175.19,-148.5 175.19,-155.5"/>
</g>
</g>
</svg>
