<?xml version="1.0" encoding="UTF-8" standalone="no"?>
<!DOCTYPE svg PUBLIC "-//W3C//DTD SVG 1.1//EN"
 "http://www.w3.org/Graphics/SVG/1.1/DTD/svg11.dtd">
<!-- Generated by graphviz version 12.2.0 (20241103.1931)
 -->
<!-- Title: 区分使用図 Pages: 1 -->
<svg width="478pt" height="199pt"
 viewBox="0.00 0.00 478.25 198.88" xmlns="http://www.w3.org/2000/svg" xmlns:xlink="http://www.w3.org/1999/xlink">
<g id="graph0" class="graph" transform="scale(1 1) rotate(0) translate(4 194.88)">
<title>区分使用図</title>
<polygon fill="white" stroke="none" points="-4,4 -4,-194.88 474.25,-194.88 474.25,4 -4,4"/>
<text text-anchor="middle" x="235.12" y="-4.95" font-family="Times New Roman,serif" font-size="14.00">区分使用図</text>
<!-- com.practicalddd.cargotracker.booking.domain.model.valueobjects.RoutingStatus -->
<g id="node1" class="node">
<title>com.practicalddd.cargotracker.booking.domain.model.valueobjects.RoutingStatus</title>
<polygon fill="lemonchiffon" stroke="black" points="470.25,-118 337.5,-118 333.5,-114 333.5,-79.25 466.25,-79.25 470.25,-83.25 470.25,-118"/>
<polyline fill="none" stroke="black" points="466.25,-114 333.5,-114"/>
<polyline fill="none" stroke="black" points="466.25,-114 466.25,-79.25"/>
<polyline fill="none" stroke="black" points="466.25,-114 470.25,-118"/>
<text text-anchor="middle" x="401.88" y="-100.7" font-family="Times New Roman,serif" font-size="14.00">経路ステータス</text>
<text text-anchor="middle" x="401.88" y="-86.45" font-family="Times New Roman,serif" font-size="14.00">RoutingStatus</text>
</g>
<!-- com.practicalddd.cargotracker.booking.domain.model.valueobjects.TransportStatus -->
<g id="node2" class="node">
<title>com.practicalddd.cargotracker.booking.domain.model.valueobjects.TransportStatus</title>
<polygon fill="lemonchiffon" stroke="black" points="470.25,-61 337.5,-61 333.5,-57 333.5,-22.25 466.25,-22.25 470.25,-26.25 470.25,-61"/>
<polyline fill="none" stroke="black" points="466.25,-57 333.5,-57"/>
<polyline fill="none" stroke="black" points="466.25,-57 466.25,-22.25"/>
<polyline fill="none" stroke="black" points="466.25,-57 470.25,-61"/>
<text text-anchor="middle" x="401.88" y="-43.7" font-family="Times New Roman,serif" font-size="14.00">輸送ステータス</text>
<text text-anchor="middle" x="401.88" y="-29.45" font-family="Times New Roman,serif" font-size="14.00">TransportStatus</text>
</g>
<!-- com.practicalddd.cargotracker.handling.domain.model.valueobjects.Type -->
<g id="node3" class="node">
<title>com.practicalddd.cargotracker.handling.domain.model.valueobjects.Type</title>
<polygon fill="#eedd82" stroke="black" points="453,-183 354.75,-183 350.75,-179 350.75,-144.25 449,-144.25 453,-148.25 453,-183"/>
<polyline fill="none" stroke="black" points="449,-179 350.75,-179"/>
<polyline fill="none" stroke="black" points="449,-179 449,-144.25"/>
<polyline fill="none" stroke="black" points="449,-179 453,-183"/>
<text text-anchor="middle" x="401.88" y="-165.7" font-family="Times New Roman,serif" font-size="14.00">荷役タイプ</text>
<text text-anchor="middle" x="401.88" y="-151.45" font-family="Times New Roman,serif" font-size="14.00">Type</text>
</g>
<!-- com.practicalddd.cargotracker.booking.domain.model.aggregates.Cargo -->
<g id="node4" class="node">
<title>com.practicalddd.cargotracker.booking.domain.model.aggregates.Cargo</title>
<g id="a_node4"><a xlink:href="./domain.html#com.practicalddd.cargotracker.booking.domain.model.aggregates.Cargo" xlink:title="貨物\nCargo">
<polygon fill="white" stroke="black" points="102.5,-86 48.5,-86 48.5,-47.25 102.5,-47.25 102.5,-86"/>
<text text-anchor="middle" x="75.5" y="-68.7" font-family="Times New Roman,serif" font-size="14.00">貨物</text>
<text text-anchor="middle" x="75.5" y="-54.45" font-family="Times New Roman,serif" font-size="14.00">Cargo</text>
</a>
</g>
</g>
<!-- com.practicalddd.cargotracker.booking.domain.model.valueobjects.Delivery -->
<g id="node5" class="node">
<title>com.practicalddd.cargotracker.booking.domain.model.valueobjects.Delivery</title>
<g id="a_node5"><a xlink:href="./domain.html#com.practicalddd.cargotracker.booking.domain.model.valueobjects.Delivery" xlink:title="配送&#13;\nDelivery">
<polygon fill="white" stroke="black" points="273.88,-93.88 210.62,-93.88 210.62,-39.38 273.88,-39.38 273.88,-93.88"/>
<text text-anchor="middle" x="242.25" y="-76.58" font-family="Times New Roman,serif" font-size="14.00">配送&#13;</text>
<text text-anchor="middle" x="242.25" y="-46.58" font-family="Times New Roman,serif" font-size="14.00">Delivery</text>
</a>
</g>
</g>
<!-- com.practicalddd.cargotracker.booking.domain.model.aggregates.Cargo&#45;&gt;com.practicalddd.cargotracker.booking.domain.model.valueobjects.Delivery -->
<g id="edge4" class="edge">
<title>com.practicalddd.cargotracker.booking.domain.model.aggregates.Cargo&#45;&gt;com.practicalddd.cargotracker.booking.domain.model.valueobjects.Delivery</title>
<path fill="none" stroke="black" d="M102.97,-66.62C128.83,-66.62 168.6,-66.62 198.86,-66.62"/>
<polygon fill="black" stroke="black" points="198.84,-70.13 208.84,-66.63 198.84,-63.13 198.84,-70.13"/>
</g>
<!-- com.practicalddd.cargotracker.booking.domain.model.valueobjects.Delivery&#45;&gt;com.practicalddd.cargotracker.booking.domain.model.valueobjects.RoutingStatus -->
<g id="edge1" class="edge">
<title>com.practicalddd.cargotracker.booking.domain.model.valueobjects.Delivery&#45;&gt;com.practicalddd.cargotracker.booking.domain.model.valueobjects.RoutingStatus</title>
<path fill="none" stroke="black" d="M274.02,-72.87C287.83,-75.68 304.84,-79.13 321.85,-82.58"/>
<polygon fill="black" stroke="black" points="321.02,-85.99 331.52,-84.54 322.42,-79.13 321.02,-85.99"/>
</g>
<!-- com.practicalddd.cargotracker.booking.domain.model.valueobjects.Delivery&#45;&gt;com.practicalddd.cargotracker.booking.domain.model.valueobjects.TransportStatus -->
<g id="edge5" class="edge">
<title>com.practicalddd.cargotracker.booking.domain.model.valueobjects.Delivery&#45;&gt;com.practicalddd.cargotracker.booking.domain.model.valueobjects.TransportStatus</title>
<path fill="none" stroke="black" d="M274.02,-61.75C287.83,-59.55 304.84,-56.86 321.85,-54.16"/>
<polygon fill="black" stroke="black" points="322.18,-57.65 331.51,-52.63 321.08,-50.74 322.18,-57.65"/>
</g>
<!-- com.practicalddd.cargotracker.handling.domain.model.aggregates.HandlingActivity -->
<g id="node6" class="node">
<title>com.practicalddd.cargotracker.handling.domain.model.aggregates.HandlingActivity</title>
<g id="a_node6"><a xlink:href="./domain.html#com.practicalddd.cargotracker.handling.domain.model.aggregates.HandlingActivity" xlink:title="荷役&#13;\nHandlingActivity">
<polygon fill="white" stroke="black" points="297.5,-190.88 187,-190.88 187,-136.38 297.5,-136.38 297.5,-190.88"/>
<text text-anchor="middle" x="242.25" y="-173.57" font-family="Times New Roman,serif" font-size="14.00">荷役&#13;</text>
<text text-anchor="middle" x="242.25" y="-143.57" font-family="Times New Roman,serif" font-size="14.00">HandlingActivity</text>
</a>
</g>
</g>
<!-- com.practicalddd.cargotracker.handling.domain.model.aggregates.HandlingActivity&#45;&gt;com.practicalddd.cargotracker.handling.domain.model.valueobjects.Type -->
<g id="edge3" class="edge">
<title>com.practicalddd.cargotracker.handling.domain.model.aggregates.HandlingActivity&#45;&gt;com.practicalddd.cargotracker.handling.domain.model.valueobjects.Type</title>
<path fill="none" stroke="black" d="M297.94,-163.62C311.21,-163.62 325.48,-163.62 339.06,-163.62"/>
<polygon fill="black" stroke="black" points="338.74,-167.13 348.74,-163.63 338.74,-160.13 338.74,-167.13"/>
</g>
<!-- com.practicalddd.cargotracker.handling.domain.model.valueobjects.HandlingActivityHistory -->
<g id="node7" class="node">
<title>com.practicalddd.cargotracker.handling.domain.model.valueobjects.HandlingActivityHistory</title>
<g id="a_node7"><a xlink:href="./domain.html#com.practicalddd.cargotracker.handling.domain.model.valueobjects.HandlingActivityHistory" xlink:title="荷役履歴\nHandlingActivityHistory">
<polygon fill="white" stroke="black" points="151,-183 0,-183 0,-144.25 151,-144.25 151,-183"/>
<text text-anchor="middle" x="75.5" y="-165.7" font-family="Times New Roman,serif" font-size="14.00">荷役履歴</text>
<text text-anchor="middle" x="75.5" y="-151.45" font-family="Times New Roman,serif" font-size="14.00">HandlingActivityHistory</text>
</a>
</g>
</g>
<!-- com.practicalddd.cargotracker.handling.domain.model.valueobjects.HandlingActivityHistory&#45;&gt;com.practicalddd.cargotracker.handling.domain.model.aggregates.HandlingActivity -->
<g id="edge2" class="edge">
<title>com.practicalddd.cargotracker.handling.domain.model.valueobjects.HandlingActivityHistory&#45;&gt;com.practicalddd.cargotracker.handling.domain.model.aggregates.HandlingActivity</title>
<path fill="none" stroke="black" d="M151.16,-163.62C159.17,-163.62 167.28,-163.62 175.18,-163.62"/>
<polygon fill="black" stroke="black" points="175.05,-167.13 185.05,-163.63 175.05,-160.13 175.05,-167.13"/>
</g>
</g>
</svg>
