<?xml version="1.0" encoding="UTF-8" standalone="no"?>
<!DOCTYPE svg PUBLIC "-//W3C//DTD SVG 1.1//EN"
 "http://www.w3.org/Graphics/SVG/1.1/DTD/svg11.dtd">
<!-- Generated by graphviz version 12.2.0 (20241103.1931)
 -->
<!-- Title: 区分図 Pages: 1 -->
<svg width="633pt" height="449pt"
 viewBox="0.00 0.00 633.31 449.25" xmlns="http://www.w3.org/2000/svg" xmlns:xlink="http://www.w3.org/1999/xlink">
<g id="graph0" class="graph" transform="scale(1 1) rotate(0) translate(4 423)">
<title>区分図</title>
<polygon fill="white" stroke="none" points="-4,26.25 -4,-423 629.31,-423 629.31,26.25 -4,26.25"/>
<text text-anchor="middle" x="312.66" y="17.3" font-family="Times New Roman,serif" font-size="14.00">区分図</text>
<g id="clust1" class="cluster">
<title>cluster_com.practicalddd.cargotracker.booking</title>
<polygon fill="none" stroke="lightgray" points="0,-70.25 0,-419 396.38,-419 396.38,-70.25 0,-70.25"/>
<text text-anchor="middle" x="198.19" y="-401.7" font-family="Times New Roman,serif" font-size="14.00">booking</text>
</g>
<g id="clust2" class="cluster">
<title>cluster_com.practicalddd.cargotracker.booking.domain</title>
<polygon fill="none" stroke="lightgray" points="8,-78.25 8,-386.5 388.37,-386.5 388.37,-78.25 8,-78.25"/>
<text text-anchor="middle" x="198.19" y="-369.2" font-family="Times New Roman,serif" font-size="14.00">domain</text>
</g>
<g id="clust3" class="cluster">
<title>cluster_com.practicalddd.cargotracker.booking.domain.model</title>
<polygon fill="none" stroke="lightgray" points="16,-86.25 16,-354 380.38,-354 380.38,-86.25 16,-86.25"/>
<text text-anchor="middle" x="198.19" y="-336.7" font-family="Times New Roman,serif" font-size="14.00">model</text>
</g>
<g id="clust4" class="cluster">
<title>cluster_com.practicalddd.cargotracker.booking.domain.model.valueobjects</title>
<polygon fill="none" stroke="lightgray" points="24,-94.25 24,-321.5 372.38,-321.5 372.38,-94.25 24,-94.25"/>
<text text-anchor="middle" x="198.19" y="-304.2" font-family="Times New Roman,serif" font-size="14.00">valueobjects</text>
</g>
<g id="clust5" class="cluster">
<title>cluster_com.practicalddd.cargotracker.handling</title>
<polygon fill="none" stroke="lightgray" points="455.06,0 455.06,-317.25 625.31,-317.25 625.31,0 455.06,0"/>
<text text-anchor="middle" x="540.19" y="-299.95" font-family="Times New Roman,serif" font-size="14.00">handling</text>
</g>
<g id="clust6" class="cluster">
<title>cluster_com.practicalddd.cargotracker.handling.domain</title>
<polygon fill="none" stroke="lightgray" points="463.06,-8 463.06,-284.75 617.31,-284.75 617.31,-8 463.06,-8"/>
<text text-anchor="middle" x="540.19" y="-267.45" font-family="Times New Roman,serif" font-size="14.00">domain</text>
</g>
<g id="clust7" class="cluster">
<title>cluster_com.practicalddd.cargotracker.handling.domain.model</title>
<polygon fill="none" stroke="lightgray" points="471.06,-16 471.06,-252.25 609.31,-252.25 609.31,-16 471.06,-16"/>
<text text-anchor="middle" x="540.19" y="-234.95" font-family="Times New Roman,serif" font-size="14.00">model</text>
</g>
<g id="clust8" class="cluster">
<title>cluster_com.practicalddd.cargotracker.handling.domain.model.valueobjects</title>
<polygon fill="none" stroke="lightgray" points="479.06,-24 479.06,-219.75 601.31,-219.75 601.31,-24 479.06,-24"/>
<text text-anchor="middle" x="540.19" y="-202.45" font-family="Times New Roman,serif" font-size="14.00">valueobjects</text>
</g>
<!-- com.practicalddd.cargotracker.booking.domain.model.valueobjects.TransportStatus -->
<g id="node1" class="node">
<title>com.practicalddd.cargotracker.booking.domain.model.valueobjects.TransportStatus</title>
<g id="a_node1"><a xlink:href="./enum.html#com.practicalddd.cargotracker.booking.domain.model.valueobjects.TransportStatus" xlink:title="&lt;TABLE&gt;">
<polygon fill="lemonchiffon" stroke="black" points="186,-289 32,-289 32,-133.75 186,-133.75 186,-289"/>
<text text-anchor="start" x="48.62" y="-269.7" font-family="Times New Roman,serif" font-size="14.00">輸送ステータス</text>
<text text-anchor="start" x="66.25" y="-253.2" font-family="Times New Roman,serif" font-size="14.00">TransportStatus</text>
<polygon fill="none" stroke="black" points="40,-227.75 40,-250.25 178,-250.25 178,-227.75 40,-227.75"/>
<text text-anchor="start" x="58.37" y="-233.95" font-family="Times New Roman,serif" font-size="14.00">NOT_RECEIVED</text>
<polygon fill="none" stroke="black" points="40,-205.25 40,-227.75 178,-227.75 178,-205.25 40,-205.25"/>
<text text-anchor="start" x="81.62" y="-211.45" font-family="Times New Roman,serif" font-size="14.00">IN_PORT</text>
<polygon fill="none" stroke="black" points="40,-182.75 40,-205.25 178,-205.25 178,-182.75 40,-182.75"/>
<text text-anchor="start" x="43" y="-188.95" font-family="Times New Roman,serif" font-size="14.00">ONBOARD_CARRIER</text>
<polygon fill="none" stroke="black" points="40,-160.25 40,-182.75 178,-182.75 178,-160.25 40,-160.25"/>
<text text-anchor="start" x="77.87" y="-166.45" font-family="Times New Roman,serif" font-size="14.00">CLAIMED</text>
<polygon fill="none" stroke="black" points="40,-137.75 40,-160.25 178,-160.25 178,-137.75 40,-137.75"/>
<text text-anchor="start" x="73" y="-143.95" font-family="Times New Roman,serif" font-size="14.00">UNKNOWN</text>
</a>
</g>
</g>
<!-- com.practicalddd.cargotracker.booking.domain.model.valueobjects.RoutingStatus -->
<g id="node2" class="node">
<title>com.practicalddd.cargotracker.booking.domain.model.valueobjects.RoutingStatus</title>
<g id="a_node2"><a xlink:href="./enum.html#com.practicalddd.cargotracker.booking.domain.model.valueobjects.RoutingStatus" xlink:title="&lt;TABLE&gt;">
<polygon fill="lemonchiffon" stroke="black" points="364.37,-212.5 223.62,-212.5 223.62,-102.25 364.37,-102.25 364.37,-212.5"/>
<text text-anchor="start" x="233.62" y="-193.2" font-family="Times New Roman,serif" font-size="14.00">経路ステータス</text>
<text text-anchor="start" x="255.75" y="-176.7" font-family="Times New Roman,serif" font-size="14.00">RoutingStatus</text>
<polygon fill="none" stroke="black" points="231.62,-151.25 231.62,-173.75 356.37,-173.75 356.37,-151.25 231.62,-151.25"/>
<text text-anchor="start" x="249.37" y="-157.45" font-family="Times New Roman,serif" font-size="14.00">NOT_ROUTED</text>
<polygon fill="none" stroke="black" points="231.62,-128.75 231.62,-151.25 356.37,-151.25 356.37,-128.75 231.62,-128.75"/>
<text text-anchor="start" x="266.62" y="-134.95" font-family="Times New Roman,serif" font-size="14.00">ROUTED</text>
<polygon fill="none" stroke="black" points="231.62,-106.25 231.62,-128.75 356.37,-128.75 356.37,-106.25 231.62,-106.25"/>
<text text-anchor="start" x="254.25" y="-112.45" font-family="Times New Roman,serif" font-size="14.00">MISROUTED</text>
</a>
</g>
</g>
<!-- com.practicalddd.cargotracker.handling.domain.model.valueobjects.Type -->
<g id="node3" class="node">
<title>com.practicalddd.cargotracker.handling.domain.model.valueobjects.Type</title>
<g id="a_node3"><a xlink:href="./enum.html#com.practicalddd.cargotracker.handling.domain.model.valueobjects.Type" xlink:title="&lt;TABLE&gt;">
<polygon fill="#eedd82" stroke="black" points="593.31,-187.25 487.06,-187.25 487.06,-32 593.31,-32 593.31,-187.25"/>
<text text-anchor="start" x="497.06" y="-167.95" font-family="Times New Roman,serif" font-size="14.00">荷役タイプ</text>
<text text-anchor="start" x="526.69" y="-151.45" font-family="Times New Roman,serif" font-size="14.00">Type</text>
<polygon fill="none" stroke="black" points="495.06,-126 495.06,-148.5 585.31,-148.5 585.31,-126 495.06,-126"/>
<text text-anchor="start" x="521.44" y="-132.2" font-family="Times New Roman,serif" font-size="14.00">LOAD</text>
<polygon fill="none" stroke="black" points="495.06,-103.5 495.06,-126 585.31,-126 585.31,-103.5 495.06,-103.5"/>
<text text-anchor="start" x="511.69" y="-109.7" font-family="Times New Roman,serif" font-size="14.00">UNLOAD</text>
<polygon fill="none" stroke="black" points="495.06,-81 495.06,-103.5 585.31,-103.5 585.31,-81 495.06,-81"/>
<text text-anchor="start" x="511.69" y="-87.2" font-family="Times New Roman,serif" font-size="14.00">RECEIVE</text>
<polygon fill="none" stroke="black" points="495.06,-58.5 495.06,-81 585.31,-81 585.31,-58.5 495.06,-58.5"/>
<text text-anchor="start" x="518.06" y="-64.7" font-family="Times New Roman,serif" font-size="14.00">CLAIM</text>
<polygon fill="none" stroke="black" points="495.06,-36 495.06,-58.5 585.31,-58.5 585.31,-36 495.06,-36"/>
<text text-anchor="start" x="507.94" y="-42.2" font-family="Times New Roman,serif" font-size="14.00">CUSTOMS</text>
</a>
</g>
</g>
</g>
</svg>
