<?xml version="1.0" encoding="UTF-8" standalone="no"?>
<!DOCTYPE svg PUBLIC "-//W3C//DTD SVG 1.1//EN"
 "http://www.w3.org/Graphics/SVG/1.1/DTD/svg11.dtd">
<!-- Generated by graphviz version 12.2.0 (20241103.1931)
 -->
<!-- Title: 区分図 Pages: 1 -->
<svg width="856pt" height="771pt"
 viewBox="0.00 0.00 856.19 771.25" xmlns="http://www.w3.org/2000/svg" xmlns:xlink="http://www.w3.org/1999/xlink">
<g id="graph0" class="graph" transform="scale(1 1) rotate(0) translate(4 745)">
<title>区分図</title>
<polygon fill="white" stroke="none" points="-4,26.25 -4,-745 852.19,-745 852.19,26.25 -4,26.25"/>
<text text-anchor="middle" x="424.09" y="17.3" font-family="Times New Roman,serif" font-size="14.00">区分図</text>
<g id="clust1" class="cluster">
<title>cluster_com.practicalddd.cargotracker.booking</title>
<polygon fill="none" stroke="lightgray" points="491.56,-410.5 491.56,-741 848.19,-741 848.19,-410.5 491.56,-410.5"/>
<text text-anchor="middle" x="669.88" y="-723.7" font-family="Times New Roman,serif" font-size="14.00">booking</text>
</g>
<g id="clust2" class="cluster">
<title>cluster_com.practicalddd.cargotracker.booking.domain</title>
<polygon fill="none" stroke="lightgray" points="499.56,-418.5 499.56,-708.5 840.19,-708.5 840.19,-418.5 499.56,-418.5"/>
<text text-anchor="middle" x="669.88" y="-691.2" font-family="Times New Roman,serif" font-size="14.00">domain</text>
</g>
<g id="clust3" class="cluster">
<title>cluster_com.practicalddd.cargotracker.booking.domain.model</title>
<polygon fill="none" stroke="lightgray" points="507.56,-426.5 507.56,-676 832.19,-676 832.19,-426.5 507.56,-426.5"/>
<text text-anchor="middle" x="669.88" y="-658.7" font-family="Times New Roman,serif" font-size="14.00">model</text>
</g>
<g id="clust4" class="cluster">
<title>cluster_com.practicalddd.cargotracker.booking.domain.model.valueobjects</title>
<polygon fill="none" stroke="lightgray" points="515.56,-434.5 515.56,-643.5 824.19,-643.5 824.19,-434.5 515.56,-434.5"/>
<text text-anchor="middle" x="669.88" y="-626.2" font-family="Times New Roman,serif" font-size="14.00">valueobjects</text>
</g>
<g id="clust5" class="cluster">
<title>cluster_com.practicalddd.cargotracker.handling</title>
<polygon fill="none" stroke="lightgray" points="0,0 0,-319.5 459.75,-319.5 459.75,0 0,0"/>
<text text-anchor="middle" x="229.87" y="-302.2" font-family="Times New Roman,serif" font-size="14.00">handling</text>
</g>
<g id="clust6" class="cluster">
<title>cluster_com.practicalddd.cargotracker.handling.domain</title>
<polygon fill="none" stroke="lightgray" points="8,-8 8,-287 451.75,-287 451.75,-8 8,-8"/>
<text text-anchor="middle" x="229.87" y="-269.7" font-family="Times New Roman,serif" font-size="14.00">domain</text>
</g>
<g id="clust7" class="cluster">
<title>cluster_com.practicalddd.cargotracker.handling.domain.model</title>
<polygon fill="none" stroke="lightgray" points="16,-16 16,-254.5 443.75,-254.5 443.75,-16 16,-16"/>
<text text-anchor="middle" x="229.87" y="-237.2" font-family="Times New Roman,serif" font-size="14.00">model</text>
</g>
<g id="clust8" class="cluster">
<title>cluster_com.practicalddd.cargotracker.handling.domain.model.valueobjects</title>
<polygon fill="none" stroke="lightgray" points="24,-24 24,-222 435.75,-222 435.75,-24 24,-24"/>
<text text-anchor="middle" x="229.87" y="-204.7" font-family="Times New Roman,serif" font-size="14.00">valueobjects</text>
</g>
<!-- com.practicalddd.cargotracker.booking.domain.model.valueobjects.TransportStatus -->
<g id="node1" class="node">
<title>com.practicalddd.cargotracker.booking.domain.model.valueobjects.TransportStatus</title>
<g id="a_node1"><a xlink:href="./enum.html#com.practicalddd.cargotracker.booking.domain.model.valueobjects.TransportStatus" xlink:title="&lt;TABLE&gt;">
<polygon fill="lemonchiffon" stroke="black" points="677.56,-611 523.56,-611 523.56,-470 677.56,-470 677.56,-611"/>
<text text-anchor="start" x="557.81" y="-591.7" font-family="Times New Roman,serif" font-size="14.00">TransportStatus</text>
<polygon fill="none" stroke="black" points="531.56,-564 531.56,-586.5 669.56,-586.5 669.56,-564 531.56,-564"/>
<text text-anchor="start" x="549.94" y="-570.2" font-family="Times New Roman,serif" font-size="14.00">NOT_RECEIVED</text>
<polygon fill="none" stroke="black" points="531.56,-541.5 531.56,-564 669.56,-564 669.56,-541.5 531.56,-541.5"/>
<text text-anchor="start" x="573.19" y="-547.7" font-family="Times New Roman,serif" font-size="14.00">IN_PORT</text>
<polygon fill="none" stroke="black" points="531.56,-519 531.56,-541.5 669.56,-541.5 669.56,-519 531.56,-519"/>
<text text-anchor="start" x="534.56" y="-525.2" font-family="Times New Roman,serif" font-size="14.00">ONBOARD_CARRIER</text>
<polygon fill="none" stroke="black" points="531.56,-496.5 531.56,-519 669.56,-519 669.56,-496.5 531.56,-496.5"/>
<text text-anchor="start" x="569.44" y="-502.7" font-family="Times New Roman,serif" font-size="14.00">CLAIMED</text>
<polygon fill="none" stroke="black" points="531.56,-474 531.56,-496.5 669.56,-496.5 669.56,-474 531.56,-474"/>
<text text-anchor="start" x="564.56" y="-480.2" font-family="Times New Roman,serif" font-size="14.00">UNKNOWN</text>
</a>
</g>
</g>
<!-- com.practicalddd.cargotracker.booking.domain.model.valueobjects.RoutingStatus -->
<g id="node2" class="node">
<title>com.practicalddd.cargotracker.booking.domain.model.valueobjects.RoutingStatus</title>
<g id="a_node2"><a xlink:href="./enum.html#com.practicalddd.cargotracker.booking.domain.model.valueobjects.RoutingStatus" xlink:title="&lt;TABLE&gt;">
<polygon fill="lemonchiffon" stroke="black" points="816.19,-538.5 704.94,-538.5 704.94,-442.5 816.19,-442.5 816.19,-538.5"/>
<text text-anchor="start" x="722.31" y="-519.2" font-family="Times New Roman,serif" font-size="14.00">RoutingStatus</text>
<polygon fill="none" stroke="black" points="712.94,-491.5 712.94,-514 808.19,-514 808.19,-491.5 712.94,-491.5"/>
<text text-anchor="start" x="715.94" y="-497.7" font-family="Times New Roman,serif" font-size="14.00">NOT_ROUTED</text>
<polygon fill="none" stroke="black" points="712.94,-469 712.94,-491.5 808.19,-491.5 808.19,-469 712.94,-469"/>
<text text-anchor="start" x="733.19" y="-475.2" font-family="Times New Roman,serif" font-size="14.00">ROUTED</text>
<polygon fill="none" stroke="black" points="712.94,-446.5 712.94,-469 808.19,-469 808.19,-446.5 712.94,-446.5"/>
<text text-anchor="start" x="720.81" y="-452.7" font-family="Times New Roman,serif" font-size="14.00">MISROUTED</text>
</a>
</g>
</g>
<!-- com.practicalddd.cargotracker.handling.domain.model.valueobjects.Type -->
<g id="node3" class="node">
<title>com.practicalddd.cargotracker.handling.domain.model.valueobjects.Type</title>
<g id="a_node3"><a xlink:href="./enum.html#com.practicalddd.cargotracker.handling.domain.model.valueobjects.Type" xlink:title="&lt;TABLE&gt;">
<polygon fill="#eedd82" stroke="black" points="427.75,-189.5 32,-189.5 32,-32 427.75,-32 427.75,-189.5"/>
<text text-anchor="start" x="42" y="-170.2" font-family="Times New Roman,serif" font-size="14.00">Handling event type. Either requires or prohibits a carrier movement</text>
<text text-anchor="start" x="216.37" y="-153.7" font-family="Times New Roman,serif" font-size="14.00">Type</text>
<polygon fill="none" stroke="black" points="40,-126 40,-148.5 419.75,-148.5 419.75,-126 40,-126"/>
<text text-anchor="start" x="211.12" y="-132.2" font-family="Times New Roman,serif" font-size="14.00">LOAD</text>
<polygon fill="none" stroke="black" points="40,-103.5 40,-126 419.75,-126 419.75,-103.5 40,-103.5"/>
<text text-anchor="start" x="201.37" y="-109.7" font-family="Times New Roman,serif" font-size="14.00">UNLOAD</text>
<polygon fill="none" stroke="black" points="40,-81 40,-103.5 419.75,-103.5 419.75,-81 40,-81"/>
<text text-anchor="start" x="201.37" y="-87.2" font-family="Times New Roman,serif" font-size="14.00">RECEIVE</text>
<polygon fill="none" stroke="black" points="40,-58.5 40,-81 419.75,-81 419.75,-58.5 40,-58.5"/>
<text text-anchor="start" x="207.75" y="-64.7" font-family="Times New Roman,serif" font-size="14.00">CLAIM</text>
<polygon fill="none" stroke="black" points="40,-36 40,-58.5 419.75,-58.5 419.75,-36 40,-36"/>
<text text-anchor="start" x="197.62" y="-42.2" font-family="Times New Roman,serif" font-size="14.00">CUSTOMS</text>
</a>
</g>
</g>
</g>
</svg>
