<?xml version="1.0" encoding="UTF-8" standalone="no"?>
<!DOCTYPE svg PUBLIC "-//W3C//DTD SVG 1.1//EN"
 "http://www.w3.org/Graphics/SVG/1.1/DTD/svg11.dtd">
<!-- Generated by graphviz version 12.2.0 (20241103.1931)
 -->
<!-- Title: 区分使用図 Pages: 1 -->
<svg width="917pt" height="195pt"
 viewBox="0.00 0.00 917.00 194.62" xmlns="http://www.w3.org/2000/svg" xmlns:xlink="http://www.w3.org/1999/xlink">
<g id="graph0" class="graph" transform="scale(1 1) rotate(0) translate(4 190.62)">
<title>区分使用図</title>
<polygon fill="white" stroke="none" points="-4,4 -4,-190.62 913,-190.62 913,4 -4,4"/>
<text text-anchor="middle" x="454.5" y="-4.95" font-family="Times New Roman,serif" font-size="14.00">区分使用図</text>
<!-- com.practicalddd.cargotracker.booking.domain.model.valueobjects.RoutingStatus -->
<g id="node1" class="node">
<title>com.practicalddd.cargotracker.booking.domain.model.valueobjects.RoutingStatus</title>
<polygon fill="lemonchiffon" stroke="black" points="759.38,-112.25 670.88,-112.25 666.88,-108.25 666.88,-76.25 755.38,-76.25 759.38,-80.25 759.38,-112.25"/>
<polyline fill="none" stroke="black" points="755.38,-108.25 666.88,-108.25"/>
<polyline fill="none" stroke="black" points="755.38,-108.25 755.38,-76.25"/>
<polyline fill="none" stroke="black" points="755.38,-108.25 759.38,-112.25"/>
<text text-anchor="middle" x="713.12" y="-89.2" font-family="Times New Roman,serif" font-size="14.00">RoutingStatus</text>
</g>
<!-- com.practicalddd.cargotracker.booking.domain.model.valueobjects.TransportStatus -->
<g id="node2" class="node">
<title>com.practicalddd.cargotracker.booking.domain.model.valueobjects.TransportStatus</title>
<polygon fill="lemonchiffon" stroke="black" points="763.88,-58.25 666.38,-58.25 662.38,-54.25 662.38,-22.25 759.88,-22.25 763.88,-26.25 763.88,-58.25"/>
<polyline fill="none" stroke="black" points="759.88,-54.25 662.38,-54.25"/>
<polyline fill="none" stroke="black" points="759.88,-54.25 759.88,-22.25"/>
<polyline fill="none" stroke="black" points="759.88,-54.25 763.88,-58.25"/>
<text text-anchor="middle" x="713.12" y="-35.2" font-family="Times New Roman,serif" font-size="14.00">TransportStatus</text>
</g>
<!-- com.practicalddd.cargotracker.handling.domain.model.valueobjects.Type -->
<g id="node3" class="node">
<title>com.practicalddd.cargotracker.handling.domain.model.valueobjects.Type</title>
<polygon fill="#eedd82" stroke="black" points="909,-186.62 521.25,-186.62 517.25,-182.62 517.25,-129.88 905,-129.88 909,-133.88 909,-186.62"/>
<polyline fill="none" stroke="black" points="905,-182.62 517.25,-182.62"/>
<polyline fill="none" stroke="black" points="905,-182.62 905,-129.88"/>
<polyline fill="none" stroke="black" points="905,-182.62 909,-186.62"/>
<text text-anchor="middle" x="713.12" y="-169.32" font-family="Times New Roman,serif" font-size="14.00">Handling event type. Either requires or prohibits a carrier movement&#13;</text>
<text text-anchor="middle" x="713.12" y="-137.07" font-family="Times New Roman,serif" font-size="14.00">Type</text>
</g>
<!-- com.practicalddd.cargotracker.booking.domain.model.aggregates.Cargo -->
<g id="node4" class="node">
<title>com.practicalddd.cargotracker.booking.domain.model.aggregates.Cargo</title>
<g id="a_node4"><a xlink:href="./domain.html#com.practicalddd.cargotracker.booking.domain.model.aggregates.Cargo" xlink:title="Cargo">
<polygon fill="white" stroke="black" points="102.5,-85.25 48.5,-85.25 48.5,-49.25 102.5,-49.25 102.5,-85.25"/>
<text text-anchor="middle" x="75.5" y="-62.2" font-family="Times New Roman,serif" font-size="14.00">Cargo</text>
</a>
</g>
</g>
<!-- com.practicalddd.cargotracker.booking.domain.model.valueobjects.Delivery -->
<g id="node5" class="node">
<title>com.practicalddd.cargotracker.booking.domain.model.valueobjects.Delivery</title>
<g id="a_node5"><a xlink:href="./domain.html#com.practicalddd.cargotracker.booking.domain.model.valueobjects.Delivery" xlink:title="Delivery">
<polygon fill="white" stroke="black" points="365.75,-85.25 302.5,-85.25 302.5,-49.25 365.75,-49.25 365.75,-85.25"/>
<text text-anchor="middle" x="334.12" y="-62.2" font-family="Times New Roman,serif" font-size="14.00">Delivery</text>
</a>
</g>
</g>
<!-- com.practicalddd.cargotracker.booking.domain.model.aggregates.Cargo&#45;&gt;com.practicalddd.cargotracker.booking.domain.model.valueobjects.Delivery -->
<g id="edge4" class="edge">
<title>com.practicalddd.cargotracker.booking.domain.model.aggregates.Cargo&#45;&gt;com.practicalddd.cargotracker.booking.domain.model.valueobjects.Delivery</title>
<path fill="none" stroke="black" d="M103,-67.25C147.4,-67.25 237.22,-67.25 290.57,-67.25"/>
<polygon fill="black" stroke="black" points="290.5,-70.75 300.5,-67.25 290.5,-63.75 290.5,-70.75"/>
</g>
<!-- com.practicalddd.cargotracker.booking.domain.model.valueobjects.Delivery&#45;&gt;com.practicalddd.cargotracker.booking.domain.model.valueobjects.RoutingStatus -->
<g id="edge1" class="edge">
<title>com.practicalddd.cargotracker.booking.domain.model.valueobjects.Delivery&#45;&gt;com.practicalddd.cargotracker.booking.domain.model.valueobjects.RoutingStatus</title>
<path fill="none" stroke="black" d="M365.98,-69.46C429.17,-73.99 574.15,-84.37 655,-90.16"/>
<polygon fill="black" stroke="black" points="654.71,-93.65 664.94,-90.87 655.21,-86.67 654.71,-93.65"/>
</g>
<!-- com.practicalddd.cargotracker.booking.domain.model.valueobjects.Delivery&#45;&gt;com.practicalddd.cargotracker.booking.domain.model.valueobjects.TransportStatus -->
<g id="edge5" class="edge">
<title>com.practicalddd.cargotracker.booking.domain.model.valueobjects.Delivery&#45;&gt;com.practicalddd.cargotracker.booking.domain.model.valueobjects.TransportStatus</title>
<path fill="none" stroke="black" d="M365.98,-65.04C428.12,-60.59 569.38,-50.47 650.93,-44.63"/>
<polygon fill="black" stroke="black" points="650.8,-48.15 660.52,-43.95 650.3,-41.17 650.8,-48.15"/>
</g>
<!-- com.practicalddd.cargotracker.handling.domain.model.aggregates.HandlingActivity -->
<g id="node6" class="node">
<title>com.practicalddd.cargotracker.handling.domain.model.aggregates.HandlingActivity</title>
<g id="a_node6"><a xlink:href="./domain.html#com.practicalddd.cargotracker.handling.domain.model.aggregates.HandlingActivity" xlink:title="Root Aggregate for the Handling Bounded Context\nHandlingActivity">
<polygon fill="white" stroke="black" points="481.25,-178.75 187,-178.75 187,-137.75 481.25,-137.75 481.25,-178.75"/>
<text text-anchor="middle" x="334.12" y="-161.45" font-family="Times New Roman,serif" font-size="14.00">Root Aggregate for the Handling Bounded Context</text>
<text text-anchor="middle" x="334.12" y="-144.95" font-family="Times New Roman,serif" font-size="14.00">HandlingActivity</text>
</a>
</g>
</g>
<!-- com.practicalddd.cargotracker.handling.domain.model.aggregates.HandlingActivity&#45;&gt;com.practicalddd.cargotracker.handling.domain.model.valueobjects.Type -->
<g id="edge3" class="edge">
<title>com.practicalddd.cargotracker.handling.domain.model.aggregates.HandlingActivity&#45;&gt;com.practicalddd.cargotracker.handling.domain.model.valueobjects.Type</title>
<path fill="none" stroke="black" d="M481.69,-158.25C489.57,-158.25 497.54,-158.25 505.56,-158.25"/>
<polygon fill="black" stroke="black" points="505.41,-161.75 515.41,-158.25 505.41,-154.75 505.41,-161.75"/>
</g>
<!-- com.practicalddd.cargotracker.handling.domain.model.valueobjects.HandlingActivityHistory -->
<g id="node7" class="node">
<title>com.practicalddd.cargotracker.handling.domain.model.valueobjects.HandlingActivityHistory</title>
<g id="a_node7"><a xlink:href="./domain.html#com.practicalddd.cargotracker.handling.domain.model.valueobjects.HandlingActivityHistory" xlink:title="HandlingActivityHistory">
<polygon fill="white" stroke="black" points="151,-176.25 0,-176.25 0,-140.25 151,-140.25 151,-176.25"/>
<text text-anchor="middle" x="75.5" y="-153.2" font-family="Times New Roman,serif" font-size="14.00">HandlingActivityHistory</text>
</a>
</g>
</g>
<!-- com.practicalddd.cargotracker.handling.domain.model.valueobjects.HandlingActivityHistory&#45;&gt;com.practicalddd.cargotracker.handling.domain.model.aggregates.HandlingActivity -->
<g id="edge2" class="edge">
<title>com.practicalddd.cargotracker.handling.domain.model.valueobjects.HandlingActivityHistory&#45;&gt;com.practicalddd.cargotracker.handling.domain.model.aggregates.HandlingActivity</title>
<path fill="none" stroke="black" d="M151.42,-158.25C159.15,-158.25 167.19,-158.25 175.41,-158.25"/>
<polygon fill="black" stroke="black" points="175.19,-161.75 185.19,-158.25 175.19,-154.75 175.19,-161.75"/>
</g>
</g>
</svg>
