<?xml version="1.0" encoding="UTF-8" standalone="no"?>
<!DOCTYPE svg PUBLIC "-//W3C//DTD SVG 1.1//EN"
 "http://www.w3.org/Graphics/SVG/1.1/DTD/svg11.dtd">
<!-- Generated by graphviz version 12.2.0 (20241103.1931)
 -->
<!-- Title: パッケージ関連図 Pages: 1 -->
<svg width="1007pt" height="278pt"
 viewBox="0.00 0.00 1006.50 277.50" xmlns="http://www.w3.org/2000/svg" xmlns:xlink="http://www.w3.org/1999/xlink">
<g id="graph0" class="graph" transform="scale(1 1) rotate(0) translate(4 273.5)">
<title>パッケージ関連図</title>
<polygon fill="white" stroke="none" points="-4,4 -4,-273.5 1002.5,-273.5 1002.5,4 -4,4"/>
<text text-anchor="middle" x="499.25" y="-4.95" font-family="Times New Roman,serif" font-size="14.00">パッケージ関連図</text>
<g id="clust1" class="cluster">
<title>cluster_com.practicalddd.cargotracker.handling.domain.model</title>
<polygon fill="lemonchiffon" stroke="#eedd82" stroke-width="2" points="806.5,-102.25 806.5,-261.5 990.5,-261.5 990.5,-102.25 806.5,-102.25"/>
<text text-anchor="middle" x="898.5" y="-244.2" font-family="Times New Roman,serif" font-size="14.00">handling.domain.model</text>
</g>
<g id="clust2" class="cluster">
<title>cluster_com.practicalddd.cargotracker.tracking.domain.model</title>
<polygon fill="lemonchiffon" stroke="#eedd82" stroke-width="2" points="219.5,-30.25 219.5,-261.5 405.5,-261.5 405.5,-30.25 219.5,-30.25"/>
<text text-anchor="middle" x="312.5" y="-244.2" font-family="Times New Roman,serif" font-size="14.00">tracking.domain.model</text>
</g>
<g id="clust3" class="cluster">
<title>cluster_com.practicalddd.cargotracker.booking.domain.model</title>
<polygon fill="lemonchiffon" stroke="#eedd82" stroke-width="2" points="413.5,-30.25 413.5,-261.5 627.5,-261.5 627.5,-30.25 413.5,-30.25"/>
<text text-anchor="middle" x="520.5" y="-244.2" font-family="Times New Roman,serif" font-size="14.00">booking.domain.model</text>
</g>
<g id="clust4" class="cluster">
<title>cluster_com.practicalddd.cargotracker.routing.domain.model</title>
<polygon fill="lemonchiffon" stroke="#eedd82" stroke-width="2" points="635.5,-102.25 635.5,-261.5 798.5,-261.5 798.5,-102.25 635.5,-102.25"/>
<text text-anchor="middle" x="717" y="-244.2" font-family="Times New Roman,serif" font-size="14.00">routing.domain.model</text>
</g>
<!-- summary -->
<g id="node1" class="node">
<title>summary</title>
<polygon fill="none" stroke="black" points="205,-239.75 0,-239.75 0,-182.25 211,-182.25 211,-233.75 205,-239.75"/>
<polyline fill="none" stroke="black" points="205,-239.75 205,-233.75"/>
<polyline fill="none" stroke="black" points="211,-233.75 205,-233.75"/>
<text text-anchor="start" x="8" y="-222.45" font-family="Times New Roman,serif" font-size="14.00">root: com.practicalddd.cargotracker</text>
<text text-anchor="start" x="8" y="-205.95" font-family="Times New Roman,serif" font-size="14.00">パッケージ数: 14</text>
<text text-anchor="start" x="8" y="-189.45" font-family="Times New Roman,serif" font-size="14.00">関連数: 13</text>
</g>
<!-- com.practicalddd.cargotracker.tracking.domain.model.entities -->
<g id="node2" class="node">
<title>com.practicalddd.cargotracker.tracking.domain.model.entities</title>
<g id="a_node2"><a xlink:href="./domain.html#com.practicalddd.cargotracker.tracking.domain.model.entities" xlink:title="entities">
<polygon fill="#eedd82" stroke="black" points="283,-146.25 228,-146.25 228,-110.25 283,-110.25 283,-146.25"/>
<text text-anchor="middle" x="255.5" y="-123.2" font-family="Times New Roman,serif" font-size="14.00">entities</text>
</a>
</g>
</g>
<!-- com.practicalddd.cargotracker.tracking.domain.model.valueobjects -->
<g id="node3" class="node">
<title>com.practicalddd.cargotracker.tracking.domain.model.valueobjects</title>
<g id="a_node3"><a xlink:href="./domain.html#com.practicalddd.cargotracker.tracking.domain.model.valueobjects" xlink:title="valueobjects">
<polygon fill="#eedd82" stroke="black" points="327.25,-74.25 243.75,-74.25 243.75,-38.25 327.25,-38.25 327.25,-74.25"/>
<text text-anchor="middle" x="285.5" y="-51.2" font-family="Times New Roman,serif" font-size="14.00">valueobjects</text>
</a>
</g>
</g>
<!-- com.practicalddd.cargotracker.tracking.domain.model.entities&#45;&gt;com.practicalddd.cargotracker.tracking.domain.model.valueobjects -->
<g id="edge1" class="edge">
<title>com.practicalddd.cargotracker.tracking.domain.model.entities&#45;&gt;com.practicalddd.cargotracker.tracking.domain.model.valueobjects</title>
<path fill="none" stroke="black" d="M262.92,-109.95C266.15,-102.4 270.02,-93.37 273.64,-84.93"/>
<polygon fill="black" stroke="black" points="276.85,-86.32 277.57,-75.75 270.42,-83.56 276.85,-86.32"/>
</g>
<!-- com.practicalddd.cargotracker.booking.domain.model.aggregates -->
<g id="node4" class="node">
<title>com.practicalddd.cargotracker.booking.domain.model.aggregates</title>
<g id="a_node4"><a xlink:href="./domain.html#com.practicalddd.cargotracker.booking.domain.model.aggregates" xlink:title="aggregates">
<polygon fill="#eedd82" stroke="black" points="520.38,-229 446.62,-229 446.62,-193 520.38,-193 520.38,-229"/>
<text text-anchor="middle" x="483.5" y="-205.95" font-family="Times New Roman,serif" font-size="14.00">aggregates</text>
</a>
</g>
</g>
<!-- com.practicalddd.cargotracker.booking.domain.model.entities -->
<g id="node5" class="node">
<title>com.practicalddd.cargotracker.booking.domain.model.entities</title>
<g id="a_node5"><a xlink:href="./domain.html#com.practicalddd.cargotracker.booking.domain.model.entities" xlink:title="entities">
<polygon fill="#eedd82" stroke="black" points="494,-74.25 439,-74.25 439,-38.25 494,-38.25 494,-74.25"/>
<text text-anchor="middle" x="466.5" y="-51.2" font-family="Times New Roman,serif" font-size="14.00">entities</text>
</a>
</g>
</g>
<!-- com.practicalddd.cargotracker.booking.domain.model.aggregates&#45;&gt;com.practicalddd.cargotracker.booking.domain.model.entities -->
<g id="edge2" class="edge">
<title>com.practicalddd.cargotracker.booking.domain.model.aggregates&#45;&gt;com.practicalddd.cargotracker.booking.domain.model.entities</title>
<path fill="none" stroke="black" d="M464.07,-192.58C452.47,-180.8 438.79,-164.17 432.5,-146.25 426.03,-127.8 426.28,-120.79 432.5,-102.25 434.69,-95.71 438.26,-89.36 442.27,-83.59"/>
<polygon fill="black" stroke="black" points="445.02,-85.75 448.35,-75.7 439.48,-81.48 445.02,-85.75"/>
</g>
<!-- com.practicalddd.cargotracker.booking.domain.model.valueobjects -->
<g id="node6" class="node">
<title>com.practicalddd.cargotracker.booking.domain.model.valueobjects</title>
<g id="a_node6"><a xlink:href="./domain.html#com.practicalddd.cargotracker.booking.domain.model.valueobjects" xlink:title="valueobjects">
<polygon fill="#eedd82" stroke="black" points="525.25,-146.25 441.75,-146.25 441.75,-110.25 525.25,-110.25 525.25,-146.25"/>
<text text-anchor="middle" x="483.5" y="-123.2" font-family="Times New Roman,serif" font-size="14.00">valueobjects</text>
</a>
</g>
</g>
<!-- com.practicalddd.cargotracker.booking.domain.model.aggregates&#45;&gt;com.practicalddd.cargotracker.booking.domain.model.valueobjects -->
<g id="edge3" class="edge">
<title>com.practicalddd.cargotracker.booking.domain.model.aggregates&#45;&gt;com.practicalddd.cargotracker.booking.domain.model.valueobjects</title>
<path fill="none" stroke="black" d="M483.5,-192.88C483.5,-182.77 483.5,-169.73 483.5,-158.08"/>
<polygon fill="black" stroke="black" points="487,-158.14 483.5,-148.14 480,-158.14 487,-158.14"/>
</g>
<!-- com.practicalddd.cargotracker.booking.domain.model.commands -->
<g id="node9" class="node">
<title>com.practicalddd.cargotracker.booking.domain.model.commands</title>
<g id="a_node9"><a xlink:href="./domain.html#com.practicalddd.cargotracker.booking.domain.model.commands" xlink:title="commands">
<polygon fill="#eedd82" stroke="black" points="619.5,-146.25 543.5,-146.25 543.5,-110.25 619.5,-110.25 619.5,-146.25"/>
<text text-anchor="middle" x="581.5" y="-123.2" font-family="Times New Roman,serif" font-size="14.00">commands</text>
</a>
</g>
</g>
<!-- com.practicalddd.cargotracker.booking.domain.model.aggregates&#45;&gt;com.practicalddd.cargotracker.booking.domain.model.commands -->
<g id="edge5" class="edge">
<title>com.practicalddd.cargotracker.booking.domain.model.aggregates&#45;&gt;com.practicalddd.cargotracker.booking.domain.model.commands</title>
<path fill="none" stroke="black" d="M504.28,-192.88C518.09,-181.5 536.44,-166.38 551.78,-153.74"/>
<polygon fill="black" stroke="black" points="553.75,-156.65 559.24,-147.59 549.3,-151.25 553.75,-156.65"/>
</g>
<!-- com.practicalddd.cargotracker.booking.domain.model.valueobjects&#45;&gt;com.practicalddd.cargotracker.booking.domain.model.entities -->
<g id="edge7" class="edge">
<title>com.practicalddd.cargotracker.booking.domain.model.valueobjects&#45;&gt;com.practicalddd.cargotracker.booking.domain.model.entities</title>
<path fill="none" stroke="black" d="M479.3,-109.95C477.51,-102.57 475.37,-93.77 473.36,-85.5"/>
<polygon fill="black" stroke="black" points="476.77,-84.72 471.01,-75.83 469.97,-86.37 476.77,-84.72"/>
</g>
<!-- com.practicalddd.cargotracker.routing.domain.model.aggregates -->
<g id="node7" class="node">
<title>com.practicalddd.cargotracker.routing.domain.model.aggregates</title>
<g id="a_node7"><a xlink:href="./domain.html#com.practicalddd.cargotracker.routing.domain.model.aggregates" xlink:title="aggregates">
<polygon fill="#eedd82" stroke="black" points="717.38,-229 643.62,-229 643.62,-193 717.38,-193 717.38,-229"/>
<text text-anchor="middle" x="680.5" y="-205.95" font-family="Times New Roman,serif" font-size="14.00">aggregates</text>
</a>
</g>
</g>
<!-- com.practicalddd.cargotracker.routing.domain.model.valueobjects -->
<g id="node8" class="node">
<title>com.practicalddd.cargotracker.routing.domain.model.valueobjects</title>
<g id="a_node8"><a xlink:href="./domain.html#com.practicalddd.cargotracker.routing.domain.model.valueobjects" xlink:title="valueobjects">
<polygon fill="#eedd82" stroke="black" points="758.25,-146.25 674.75,-146.25 674.75,-110.25 758.25,-110.25 758.25,-146.25"/>
<text text-anchor="middle" x="716.5" y="-123.2" font-family="Times New Roman,serif" font-size="14.00">valueobjects</text>
</a>
</g>
</g>
<!-- com.practicalddd.cargotracker.routing.domain.model.aggregates&#45;&gt;com.practicalddd.cargotracker.routing.domain.model.valueobjects -->
<g id="edge4" class="edge">
<title>com.practicalddd.cargotracker.routing.domain.model.aggregates&#45;&gt;com.practicalddd.cargotracker.routing.domain.model.valueobjects</title>
<path fill="none" stroke="black" d="M688.13,-192.88C692.78,-182.45 698.82,-168.9 704.14,-156.98"/>
<polygon fill="black" stroke="black" points="707.26,-158.57 708.14,-148.01 700.87,-155.72 707.26,-158.57"/>
</g>
<!-- com.practicalddd.cargotracker.tracking.domain.model.aggregates -->
<g id="node10" class="node">
<title>com.practicalddd.cargotracker.tracking.domain.model.aggregates</title>
<g id="a_node10"><a xlink:href="./domain.html#com.practicalddd.cargotracker.tracking.domain.model.aggregates" xlink:title="aggregates">
<polygon fill="#eedd82" stroke="black" points="339.38,-229 265.62,-229 265.62,-193 339.38,-193 339.38,-229"/>
<text text-anchor="middle" x="302.5" y="-205.95" font-family="Times New Roman,serif" font-size="14.00">aggregates</text>
</a>
</g>
</g>
<!-- com.practicalddd.cargotracker.tracking.domain.model.aggregates&#45;&gt;com.practicalddd.cargotracker.tracking.domain.model.entities -->
<g id="edge6" class="edge">
<title>com.practicalddd.cargotracker.tracking.domain.model.aggregates&#45;&gt;com.practicalddd.cargotracker.tracking.domain.model.entities</title>
<path fill="none" stroke="black" d="M292.53,-192.88C286.34,-182.24 278.25,-168.34 271.22,-156.25"/>
<polygon fill="black" stroke="black" points="274.43,-154.82 266.38,-147.94 268.38,-158.34 274.43,-154.82"/>
</g>
<!-- com.practicalddd.cargotracker.tracking.domain.model.aggregates&#45;&gt;com.practicalddd.cargotracker.tracking.domain.model.valueobjects -->
<g id="edge8" class="edge">
<title>com.practicalddd.cargotracker.tracking.domain.model.aggregates&#45;&gt;com.practicalddd.cargotracker.tracking.domain.model.valueobjects</title>
<path fill="none" stroke="black" d="M301.23,-192.8C299.59,-171.5 296.46,-134.13 292.5,-102.25 291.85,-96.99 291.06,-91.39 290.24,-86.01"/>
<polygon fill="black" stroke="black" points="293.72,-85.57 288.71,-76.23 286.8,-86.66 293.72,-85.57"/>
</g>
<!-- com.practicalddd.cargotracker.tracking.domain.model.commands -->
<g id="node11" class="node">
<title>com.practicalddd.cargotracker.tracking.domain.model.commands</title>
<g id="a_node11"><a xlink:href="./domain.html#com.practicalddd.cargotracker.tracking.domain.model.commands" xlink:title="commands">
<polygon fill="#eedd82" stroke="black" points="397.5,-146.25 321.5,-146.25 321.5,-110.25 397.5,-110.25 397.5,-146.25"/>
<text text-anchor="middle" x="359.5" y="-123.2" font-family="Times New Roman,serif" font-size="14.00">commands</text>
</a>
</g>
</g>
<!-- com.practicalddd.cargotracker.tracking.domain.model.aggregates&#45;&gt;com.practicalddd.cargotracker.tracking.domain.model.commands -->
<g id="edge9" class="edge">
<title>com.practicalddd.cargotracker.tracking.domain.model.aggregates&#45;&gt;com.practicalddd.cargotracker.tracking.domain.model.commands</title>
<path fill="none" stroke="black" d="M314.59,-192.88C322.17,-182.14 332.1,-168.07 340.7,-155.89"/>
<polygon fill="black" stroke="black" points="343.45,-158.05 346.36,-147.87 337.73,-154.02 343.45,-158.05"/>
</g>
<!-- com.practicalddd.cargotracker.handling.domain.model.aggregates -->
<g id="node12" class="node">
<title>com.practicalddd.cargotracker.handling.domain.model.aggregates</title>
<g id="a_node12"><a xlink:href="./domain.html#com.practicalddd.cargotracker.handling.domain.model.aggregates" xlink:title="aggregates">
<polygon fill="#eedd82" stroke="black" points="888.38,-229 814.62,-229 814.62,-193 888.38,-193 888.38,-229"/>
<text text-anchor="middle" x="851.5" y="-205.95" font-family="Times New Roman,serif" font-size="14.00">aggregates</text>
</a>
</g>
</g>
<!-- com.practicalddd.cargotracker.handling.domain.model.valueobjects -->
<g id="node13" class="node">
<title>com.practicalddd.cargotracker.handling.domain.model.valueobjects</title>
<g id="a_node13"><a xlink:href="./domain.html#com.practicalddd.cargotracker.handling.domain.model.valueobjects" xlink:title="valueobjects">
<polygon fill="#eedd82" stroke="black" points="898.25,-146.25 814.75,-146.25 814.75,-110.25 898.25,-110.25 898.25,-146.25"/>
<text text-anchor="middle" x="856.5" y="-123.2" font-family="Times New Roman,serif" font-size="14.00">valueobjects</text>
</a>
</g>
</g>
<!-- com.practicalddd.cargotracker.handling.domain.model.aggregates&#45;&gt;com.practicalddd.cargotracker.handling.domain.model.valueobjects -->
<g id="edge10" class="edge">
<title>com.practicalddd.cargotracker.handling.domain.model.aggregates&#45;&gt;com.practicalddd.cargotracker.handling.domain.model.valueobjects</title>
<path fill="none" stroke="red" stroke-width="2" d="M853.27,-181.46C853.74,-173.84 854.25,-165.59 854.72,-157.95"/>
<polygon fill="red" stroke="red" stroke-width="2" points="849.87,-179.66 852.75,-189.85 856.86,-180.09 849.87,-179.66"/>
<polygon fill="red" stroke="red" stroke-width="2" points="858.11,-159.85 855.24,-149.65 851.13,-159.41 858.11,-159.85"/>
</g>
<!-- com.practicalddd.cargotracker.routing.domain.model.entities -->
<g id="node14" class="node">
<title>com.practicalddd.cargotracker.routing.domain.model.entities</title>
<g id="a_node14"><a xlink:href="./domain.html#com.practicalddd.cargotracker.routing.domain.model.entities" xlink:title="entities">
<polygon fill="#eedd82" stroke="black" points="790,-229 735,-229 735,-193 790,-193 790,-229"/>
<text text-anchor="middle" x="762.5" y="-205.95" font-family="Times New Roman,serif" font-size="14.00">entities</text>
</a>
</g>
</g>
<!-- com.practicalddd.cargotracker.routing.domain.model.entities&#45;&gt;com.practicalddd.cargotracker.routing.domain.model.valueobjects -->
<g id="edge11" class="edge">
<title>com.practicalddd.cargotracker.routing.domain.model.entities&#45;&gt;com.practicalddd.cargotracker.routing.domain.model.valueobjects</title>
<path fill="none" stroke="red" stroke-width="2" d="M747.08,-182.92C742.22,-174.41 736.87,-165 732.01,-156.48"/>
<polygon fill="red" stroke="red" stroke-width="2" points="743.26,-183.29 751.25,-190.24 749.34,-179.82 743.26,-183.29"/>
<polygon fill="red" stroke="red" stroke-width="2" points="735.89,-156.22 727.9,-149.26 729.81,-159.68 735.89,-156.22"/>
</g>
<!-- com.practicalddd.cargotracker.handling.domain.model.commands -->
<g id="node15" class="node">
<title>com.practicalddd.cargotracker.handling.domain.model.commands</title>
<g id="a_node15"><a xlink:href="./domain.html#com.practicalddd.cargotracker.handling.domain.model.commands" xlink:title="commands">
<polygon fill="#eedd82" stroke="black" points="982.5,-229 906.5,-229 906.5,-193 982.5,-193 982.5,-229"/>
<text text-anchor="middle" x="944.5" y="-205.95" font-family="Times New Roman,serif" font-size="14.00">commands</text>
</a>
</g>
</g>
</g>
</svg>
