<?xml version="1.0" encoding="UTF-8" standalone="no"?>
<!DOCTYPE svg PUBLIC "-//W3C//DTD SVG 1.1//EN"
 "http://www.w3.org/Graphics/SVG/1.1/DTD/svg11.dtd">
<!-- Generated by graphviz version 12.2.0 (20241103.1931)
 -->
<!-- Title: パッケージ関連図 Pages: 1 -->
<svg width="1148pt" height="284pt"
 viewBox="0.00 0.00 1147.50 284.38" xmlns="http://www.w3.org/2000/svg" xmlns:xlink="http://www.w3.org/1999/xlink">
<g id="graph0" class="graph" transform="scale(1 1) rotate(0) translate(4 280.38)">
<title>パッケージ関連図</title>
<polygon fill="white" stroke="none" points="-4,4 -4,-280.38 1143.5,-280.38 1143.5,4 -4,4"/>
<text text-anchor="middle" x="569.75" y="-4.95" font-family="Times New Roman,serif" font-size="14.00">パッケージ関連図</text>
<g id="clust1" class="cluster">
<title>cluster_com.practicalddd.cargotracker.handling.domain.model</title>
<polygon fill="lemonchiffon" stroke="#eedd82" stroke-width="2" points="938.5,-105 938.5,-268.38 1131.5,-268.38 1131.5,-105 938.5,-105"/>
<text text-anchor="middle" x="1035" y="-251.07" font-family="Times New Roman,serif" font-size="14.00">handling.domain.model</text>
</g>
<g id="clust2" class="cluster">
<title>cluster_com.practicalddd.cargotracker.tracking.domain.model</title>
<polygon fill="lemonchiffon" stroke="#eedd82" stroke-width="2" points="219.5,-30.25 219.5,-268.38 445.5,-268.38 445.5,-30.25 219.5,-30.25"/>
<text text-anchor="middle" x="332.5" y="-251.07" font-family="Times New Roman,serif" font-size="14.00">tracking.domain.model</text>
</g>
<g id="clust3" class="cluster">
<title>cluster_com.practicalddd.cargotracker.booking.domain.model</title>
<polygon fill="lemonchiffon" stroke="#eedd82" stroke-width="2" points="453.5,-30.25 453.5,-268.38 729.5,-268.38 729.5,-30.25 453.5,-30.25"/>
<text text-anchor="middle" x="591.5" y="-251.07" font-family="Times New Roman,serif" font-size="14.00">booking.domain.model</text>
</g>
<g id="clust4" class="cluster">
<title>cluster_com.practicalddd.cargotracker.routing.domain.model</title>
<polygon fill="lemonchiffon" stroke="#eedd82" stroke-width="2" points="737.5,-105 737.5,-268.38 930.5,-268.38 930.5,-105 737.5,-105"/>
<text text-anchor="middle" x="834" y="-251.07" font-family="Times New Roman,serif" font-size="14.00">routing.domain.model</text>
</g>
<!-- summary -->
<g id="node1" class="node">
<title>summary</title>
<polygon fill="none" stroke="black" points="205,-245.25 0,-245.25 0,-187.75 211,-187.75 211,-239.25 205,-245.25"/>
<polyline fill="none" stroke="black" points="205,-245.25 205,-239.25"/>
<polyline fill="none" stroke="black" points="211,-239.25 205,-239.25"/>
<text text-anchor="start" x="8" y="-227.95" font-family="Times New Roman,serif" font-size="14.00">root: com.practicalddd.cargotracker</text>
<text text-anchor="start" x="8" y="-211.45" font-family="Times New Roman,serif" font-size="14.00">パッケージ数: 14</text>
<text text-anchor="start" x="8" y="-194.95" font-family="Times New Roman,serif" font-size="14.00">関連数: 13</text>
</g>
<!-- com.practicalddd.cargotracker.tracking.domain.model.entities -->
<g id="node2" class="node">
<title>com.practicalddd.cargotracker.tracking.domain.model.entities</title>
<g id="a_node2"><a xlink:href="./domain.html#com.practicalddd.cargotracker.tracking.domain.model.entities" xlink:title="コマンド\nentities">
<polygon fill="#eedd82" stroke="black" points="313,-151.75 228,-151.75 228,-113 313,-113 313,-151.75"/>
<text text-anchor="middle" x="270.5" y="-134.45" font-family="Times New Roman,serif" font-size="14.00">コマンド</text>
<text text-anchor="middle" x="270.5" y="-120.2" font-family="Times New Roman,serif" font-size="14.00">entities</text>
</a>
</g>
</g>
<!-- com.practicalddd.cargotracker.tracking.domain.model.valueobjects -->
<g id="node3" class="node">
<title>com.practicalddd.cargotracker.tracking.domain.model.valueobjects</title>
<g id="a_node3"><a xlink:href="./domain.html#com.practicalddd.cargotracker.tracking.domain.model.valueobjects" xlink:title="値オブジェクト\nvalueobjects">
<polygon fill="#eedd82" stroke="black" points="381.88,-77 245.12,-77 245.12,-38.25 381.88,-38.25 381.88,-77"/>
<text text-anchor="middle" x="313.5" y="-59.7" font-family="Times New Roman,serif" font-size="14.00">値オブジェクト</text>
<text text-anchor="middle" x="313.5" y="-45.45" font-family="Times New Roman,serif" font-size="14.00">valueobjects</text>
</a>
</g>
</g>
<!-- com.practicalddd.cargotracker.tracking.domain.model.entities&#45;&gt;com.practicalddd.cargotracker.tracking.domain.model.valueobjects -->
<g id="edge1" class="edge">
<title>com.practicalddd.cargotracker.tracking.domain.model.entities&#45;&gt;com.practicalddd.cargotracker.tracking.domain.model.valueobjects</title>
<path fill="none" stroke="black" d="M281.57,-112.64C286.19,-104.83 291.65,-95.6 296.74,-86.99"/>
<polygon fill="black" stroke="black" points="299.62,-88.99 301.69,-78.6 293.59,-85.43 299.62,-88.99"/>
</g>
<!-- com.practicalddd.cargotracker.booking.domain.model.aggregates -->
<g id="node4" class="node">
<title>com.practicalddd.cargotracker.booking.domain.model.aggregates</title>
<g id="a_node4"><a xlink:href="./domain.html#com.practicalddd.cargotracker.booking.domain.model.aggregates" xlink:title="集約\naggregates">
<polygon fill="#eedd82" stroke="black" points="586.38,-235.88 512.62,-235.88 512.62,-197.12 586.38,-197.12 586.38,-235.88"/>
<text text-anchor="middle" x="549.5" y="-218.57" font-family="Times New Roman,serif" font-size="14.00">集約</text>
<text text-anchor="middle" x="549.5" y="-204.32" font-family="Times New Roman,serif" font-size="14.00">aggregates</text>
</a>
</g>
</g>
<!-- com.practicalddd.cargotracker.booking.domain.model.entities -->
<g id="node5" class="node">
<title>com.practicalddd.cargotracker.booking.domain.model.entities</title>
<g id="a_node5"><a xlink:href="./domain.html#com.practicalddd.cargotracker.booking.domain.model.entities" xlink:title="エンティティ\nentities">
<polygon fill="#eedd82" stroke="black" points="595.25,-77 475.75,-77 475.75,-38.25 595.25,-38.25 595.25,-77"/>
<text text-anchor="middle" x="535.5" y="-59.7" font-family="Times New Roman,serif" font-size="14.00">エンティティ</text>
<text text-anchor="middle" x="535.5" y="-45.45" font-family="Times New Roman,serif" font-size="14.00">entities</text>
</a>
</g>
</g>
<!-- com.practicalddd.cargotracker.booking.domain.model.aggregates&#45;&gt;com.practicalddd.cargotracker.booking.domain.model.entities -->
<g id="edge2" class="edge">
<title>com.practicalddd.cargotracker.booking.domain.model.aggregates&#45;&gt;com.practicalddd.cargotracker.booking.domain.model.entities</title>
<path fill="none" stroke="black" d="M515.3,-196.87C499.13,-186.03 481.44,-170.75 472.5,-151.75 463.66,-132.95 463.12,-123.54 472.5,-105 476.51,-97.07 482.58,-90.17 489.4,-84.29"/>
<polygon fill="black" stroke="black" points="491.37,-87.19 497.14,-78.3 487.08,-81.65 491.37,-87.19"/>
</g>
<!-- com.practicalddd.cargotracker.booking.domain.model.valueobjects -->
<g id="node6" class="node">
<title>com.practicalddd.cargotracker.booking.domain.model.valueobjects</title>
<g id="a_node6"><a xlink:href="./domain.html#com.practicalddd.cargotracker.booking.domain.model.valueobjects" xlink:title="値オブジェクト\nvalueobjects">
<polygon fill="#eedd82" stroke="black" points="617.88,-151.75 481.12,-151.75 481.12,-113 617.88,-113 617.88,-151.75"/>
<text text-anchor="middle" x="549.5" y="-134.45" font-family="Times New Roman,serif" font-size="14.00">値オブジェクト</text>
<text text-anchor="middle" x="549.5" y="-120.2" font-family="Times New Roman,serif" font-size="14.00">valueobjects</text>
</a>
</g>
</g>
<!-- com.practicalddd.cargotracker.booking.domain.model.aggregates&#45;&gt;com.practicalddd.cargotracker.booking.domain.model.valueobjects -->
<g id="edge3" class="edge">
<title>com.practicalddd.cargotracker.booking.domain.model.aggregates&#45;&gt;com.practicalddd.cargotracker.booking.domain.model.valueobjects</title>
<path fill="none" stroke="black" d="M549.5,-196.86C549.5,-187.06 549.5,-174.8 549.5,-163.68"/>
<polygon fill="black" stroke="black" points="553,-163.73 549.5,-153.73 546,-163.73 553,-163.73"/>
</g>
<!-- com.practicalddd.cargotracker.booking.domain.model.commands -->
<g id="node9" class="node">
<title>com.practicalddd.cargotracker.booking.domain.model.commands</title>
<g id="a_node9"><a xlink:href="./domain.html#com.practicalddd.cargotracker.booking.domain.model.commands" xlink:title="コマンド\ncommands">
<polygon fill="#eedd82" stroke="black" points="721,-151.75 636,-151.75 636,-113 721,-113 721,-151.75"/>
<text text-anchor="middle" x="678.5" y="-134.45" font-family="Times New Roman,serif" font-size="14.00">コマンド</text>
<text text-anchor="middle" x="678.5" y="-120.2" font-family="Times New Roman,serif" font-size="14.00">commands</text>
</a>
</g>
</g>
<!-- com.practicalddd.cargotracker.booking.domain.model.aggregates&#45;&gt;com.practicalddd.cargotracker.booking.domain.model.commands -->
<g id="edge5" class="edge">
<title>com.practicalddd.cargotracker.booking.domain.model.aggregates&#45;&gt;com.practicalddd.cargotracker.booking.domain.model.commands</title>
<path fill="none" stroke="black" d="M579.1,-196.66C597.04,-185.23 620.14,-170.53 639.56,-158.17"/>
<polygon fill="black" stroke="black" points="641.21,-161.26 647.77,-152.94 637.45,-155.36 641.21,-161.26"/>
</g>
<!-- com.practicalddd.cargotracker.booking.domain.model.valueobjects&#45;&gt;com.practicalddd.cargotracker.booking.domain.model.entities -->
<g id="edge7" class="edge">
<title>com.practicalddd.cargotracker.booking.domain.model.valueobjects&#45;&gt;com.practicalddd.cargotracker.booking.domain.model.entities</title>
<path fill="none" stroke="black" d="M545.89,-112.64C544.47,-105.26 542.81,-96.6 541.23,-88.4"/>
<polygon fill="black" stroke="black" points="544.71,-87.94 539.38,-78.78 537.83,-89.26 544.71,-87.94"/>
</g>
<!-- com.practicalddd.cargotracker.routing.domain.model.aggregates -->
<g id="node7" class="node">
<title>com.practicalddd.cargotracker.routing.domain.model.aggregates</title>
<g id="a_node7"><a xlink:href="./domain.html#com.practicalddd.cargotracker.routing.domain.model.aggregates" xlink:title="集約\naggregates">
<polygon fill="#eedd82" stroke="black" points="819.38,-235.88 745.62,-235.88 745.62,-197.12 819.38,-197.12 819.38,-235.88"/>
<text text-anchor="middle" x="782.5" y="-218.57" font-family="Times New Roman,serif" font-size="14.00">集約</text>
<text text-anchor="middle" x="782.5" y="-204.32" font-family="Times New Roman,serif" font-size="14.00">aggregates</text>
</a>
</g>
</g>
<!-- com.practicalddd.cargotracker.routing.domain.model.valueobjects -->
<g id="node8" class="node">
<title>com.practicalddd.cargotracker.routing.domain.model.valueobjects</title>
<g id="a_node8"><a xlink:href="./domain.html#com.practicalddd.cargotracker.routing.domain.model.valueobjects" xlink:title="値オブジェクト\nvalueobjects">
<polygon fill="#eedd82" stroke="black" points="901.88,-151.75 765.12,-151.75 765.12,-113 901.88,-113 901.88,-151.75"/>
<text text-anchor="middle" x="833.5" y="-134.45" font-family="Times New Roman,serif" font-size="14.00">値オブジェクト</text>
<text text-anchor="middle" x="833.5" y="-120.2" font-family="Times New Roman,serif" font-size="14.00">valueobjects</text>
</a>
</g>
</g>
<!-- com.practicalddd.cargotracker.routing.domain.model.aggregates&#45;&gt;com.practicalddd.cargotracker.routing.domain.model.valueobjects -->
<g id="edge4" class="edge">
<title>com.practicalddd.cargotracker.routing.domain.model.aggregates&#45;&gt;com.practicalddd.cargotracker.routing.domain.model.valueobjects</title>
<path fill="none" stroke="black" d="M794.07,-196.86C800.48,-186.54 808.59,-173.49 815.78,-161.91"/>
<polygon fill="black" stroke="black" points="818.7,-163.85 821,-153.51 812.75,-160.16 818.7,-163.85"/>
</g>
<!-- com.practicalddd.cargotracker.tracking.domain.model.aggregates -->
<g id="node10" class="node">
<title>com.practicalddd.cargotracker.tracking.domain.model.aggregates</title>
<g id="a_node10"><a xlink:href="./domain.html#com.practicalddd.cargotracker.tracking.domain.model.aggregates" xlink:title="集約\naggregates">
<polygon fill="#eedd82" stroke="black" points="369.38,-235.88 295.62,-235.88 295.62,-197.12 369.38,-197.12 369.38,-235.88"/>
<text text-anchor="middle" x="332.5" y="-218.57" font-family="Times New Roman,serif" font-size="14.00">集約</text>
<text text-anchor="middle" x="332.5" y="-204.32" font-family="Times New Roman,serif" font-size="14.00">aggregates</text>
</a>
</g>
</g>
<!-- com.practicalddd.cargotracker.tracking.domain.model.aggregates&#45;&gt;com.practicalddd.cargotracker.tracking.domain.model.entities -->
<g id="edge6" class="edge">
<title>com.practicalddd.cargotracker.tracking.domain.model.aggregates&#45;&gt;com.practicalddd.cargotracker.tracking.domain.model.entities</title>
<path fill="none" stroke="black" d="M318.43,-196.86C310.48,-186.33 300.39,-172.96 291.52,-161.21"/>
<polygon fill="black" stroke="black" points="294.46,-159.3 285.64,-153.43 288.87,-163.52 294.46,-159.3"/>
</g>
<!-- com.practicalddd.cargotracker.tracking.domain.model.aggregates&#45;&gt;com.practicalddd.cargotracker.tracking.domain.model.valueobjects -->
<g id="edge8" class="edge">
<title>com.practicalddd.cargotracker.tracking.domain.model.aggregates&#45;&gt;com.practicalddd.cargotracker.tracking.domain.model.valueobjects</title>
<path fill="none" stroke="black" d="M331.38,-196.66C329.93,-174.62 327.05,-137.04 322.5,-105 321.72,-99.5 320.72,-93.67 319.68,-88.07"/>
<polygon fill="black" stroke="black" points="323.17,-87.68 317.81,-78.54 316.3,-89.03 323.17,-87.68"/>
</g>
<!-- com.practicalddd.cargotracker.tracking.domain.model.commands -->
<g id="node11" class="node">
<title>com.practicalddd.cargotracker.tracking.domain.model.commands</title>
<g id="a_node11"><a xlink:href="./domain.html#com.practicalddd.cargotracker.tracking.domain.model.commands" xlink:title="コマンド\ncommands">
<polygon fill="#eedd82" stroke="black" points="437,-151.75 352,-151.75 352,-113 437,-113 437,-151.75"/>
<text text-anchor="middle" x="394.5" y="-134.45" font-family="Times New Roman,serif" font-size="14.00">コマンド</text>
<text text-anchor="middle" x="394.5" y="-120.2" font-family="Times New Roman,serif" font-size="14.00">commands</text>
</a>
</g>
</g>
<!-- com.practicalddd.cargotracker.tracking.domain.model.aggregates&#45;&gt;com.practicalddd.cargotracker.tracking.domain.model.commands -->
<g id="edge9" class="edge">
<title>com.practicalddd.cargotracker.tracking.domain.model.aggregates&#45;&gt;com.practicalddd.cargotracker.tracking.domain.model.commands</title>
<path fill="none" stroke="black" d="M346.57,-196.86C354.52,-186.33 364.61,-172.96 373.48,-161.21"/>
<polygon fill="black" stroke="black" points="376.13,-163.52 379.36,-153.43 370.54,-159.3 376.13,-163.52"/>
</g>
<!-- com.practicalddd.cargotracker.handling.domain.model.aggregates -->
<g id="node12" class="node">
<title>com.practicalddd.cargotracker.handling.domain.model.aggregates</title>
<g id="a_node12"><a xlink:href="./domain.html#com.practicalddd.cargotracker.handling.domain.model.aggregates" xlink:title="集約\naggregates">
<polygon fill="#eedd82" stroke="black" points="1020.38,-235.88 946.62,-235.88 946.62,-197.12 1020.38,-197.12 1020.38,-235.88"/>
<text text-anchor="middle" x="983.5" y="-218.57" font-family="Times New Roman,serif" font-size="14.00">集約</text>
<text text-anchor="middle" x="983.5" y="-204.32" font-family="Times New Roman,serif" font-size="14.00">aggregates</text>
</a>
</g>
</g>
<!-- com.practicalddd.cargotracker.handling.domain.model.valueobjects -->
<g id="node13" class="node">
<title>com.practicalddd.cargotracker.handling.domain.model.valueobjects</title>
<g id="a_node13"><a xlink:href="./domain.html#com.practicalddd.cargotracker.handling.domain.model.valueobjects" xlink:title="値オブジェクト\nvalueobjects">
<polygon fill="#eedd82" stroke="black" points="1082.88,-151.75 946.12,-151.75 946.12,-113 1082.88,-113 1082.88,-151.75"/>
<text text-anchor="middle" x="1014.5" y="-134.45" font-family="Times New Roman,serif" font-size="14.00">値オブジェクト</text>
<text text-anchor="middle" x="1014.5" y="-120.2" font-family="Times New Roman,serif" font-size="14.00">valueobjects</text>
</a>
</g>
</g>
<!-- com.practicalddd.cargotracker.handling.domain.model.aggregates&#45;&gt;com.practicalddd.cargotracker.handling.domain.model.valueobjects -->
<g id="edge10" class="edge">
<title>com.practicalddd.cargotracker.handling.domain.model.aggregates&#45;&gt;com.practicalddd.cargotracker.handling.domain.model.valueobjects</title>
<path fill="none" stroke="red" stroke-width="2" d="M994.58,-186.14C997.45,-178.55 1000.53,-170.38 1003.4,-162.79"/>
<polygon fill="red" stroke="red" stroke-width="2" points="991.86,-183.44 991.6,-194.03 998.41,-185.91 991.86,-183.44"/>
<polygon fill="red" stroke="red" stroke-width="2" points="1006.06,-165.64 1006.32,-155.05 999.51,-163.17 1006.06,-165.64"/>
</g>
<!-- com.practicalddd.cargotracker.routing.domain.model.entities -->
<g id="node14" class="node">
<title>com.practicalddd.cargotracker.routing.domain.model.entities</title>
<g id="a_node14"><a xlink:href="./domain.html#com.practicalddd.cargotracker.routing.domain.model.entities" xlink:title="コマンド\nentities">
<polygon fill="#eedd82" stroke="black" points="922,-235.88 837,-235.88 837,-197.12 922,-197.12 922,-235.88"/>
<text text-anchor="middle" x="879.5" y="-218.57" font-family="Times New Roman,serif" font-size="14.00">コマンド</text>
<text text-anchor="middle" x="879.5" y="-204.32" font-family="Times New Roman,serif" font-size="14.00">entities</text>
</a>
</g>
</g>
<!-- com.practicalddd.cargotracker.routing.domain.model.entities&#45;&gt;com.practicalddd.cargotracker.routing.domain.model.valueobjects -->
<g id="edge11" class="edge">
<title>com.practicalddd.cargotracker.routing.domain.model.entities&#45;&gt;com.practicalddd.cargotracker.routing.domain.model.valueobjects</title>
<path fill="none" stroke="red" stroke-width="2" d="M863.45,-186.85C858.98,-178.87 854.13,-170.2 849.65,-162.22"/>
<polygon fill="red" stroke="red" stroke-width="2" points="859.64,-187.21 867.58,-194.22 865.75,-183.79 859.64,-187.21"/>
<polygon fill="red" stroke="red" stroke-width="2" points="853.48,-161.88 845.54,-154.86 847.37,-165.3 853.48,-161.88"/>
</g>
<!-- com.practicalddd.cargotracker.handling.domain.model.commands -->
<g id="node15" class="node">
<title>com.practicalddd.cargotracker.handling.domain.model.commands</title>
<g id="a_node15"><a xlink:href="./domain.html#com.practicalddd.cargotracker.handling.domain.model.commands" xlink:title="コマンド\ncommands">
<polygon fill="#eedd82" stroke="black" points="1123,-235.88 1038,-235.88 1038,-197.12 1123,-197.12 1123,-235.88"/>
<text text-anchor="middle" x="1080.5" y="-218.57" font-family="Times New Roman,serif" font-size="14.00">コマンド</text>
<text text-anchor="middle" x="1080.5" y="-204.32" font-family="Times New Roman,serif" font-size="14.00">commands</text>
</a>
</g>
</g>
</g>
</svg>
