<?xml version="1.0" encoding="UTF-8" standalone="no"?>
<!DOCTYPE svg PUBLIC "-//W3C//DTD SVG 1.1//EN"
 "http://www.w3.org/Graphics/SVG/1.1/DTD/svg11.dtd">
<!-- Generated by graphviz version 12.1.2 (20240928.0832)
 -->
<!-- Title: パッケージ関連図 Pages: 1 -->
<svg width="1007pt" height="278pt"
 viewBox="0.00 0.00 1006.50 278.25" xmlns="http://www.w3.org/2000/svg" xmlns:xlink="http://www.w3.org/1999/xlink">
<g id="graph0" class="graph" transform="scale(1 1) rotate(0) translate(4 274.25)">
<title>パッケージ関連図</title>
<polygon fill="white" stroke="none" points="-4,4 -4,-274.25 1002.5,-274.25 1002.5,4 -4,4"/>
<text text-anchor="middle" x="499.25" y="-5.7" font-family="Times,serif" font-size="14.00">パッケージ関連図</text>
<g id="clust1" class="cluster">
<title>cluster_com.practicalddd.cargotracker.handling.domain.model</title>
<polygon fill="lemonchiffon" stroke="#eedd82" stroke-width="2" points="806.5,-103 806.5,-262.25 990.5,-262.25 990.5,-103 806.5,-103"/>
<text text-anchor="middle" x="898.5" y="-244.95" font-family="Times,serif" font-size="14.00">handling.domain.model</text>
</g>
<g id="clust2" class="cluster">
<title>cluster_com.practicalddd.cargotracker.tracking.domain.model</title>
<polygon fill="lemonchiffon" stroke="#eedd82" stroke-width="2" points="219.5,-31 219.5,-262.25 405.5,-262.25 405.5,-31 219.5,-31"/>
<text text-anchor="middle" x="312.5" y="-244.95" font-family="Times,serif" font-size="14.00">tracking.domain.model</text>
</g>
<g id="clust3" class="cluster">
<title>cluster_com.practicalddd.cargotracker.booking.domain.model</title>
<polygon fill="lemonchiffon" stroke="#eedd82" stroke-width="2" points="413.5,-31 413.5,-262.25 627.5,-262.25 627.5,-31 413.5,-31"/>
<text text-anchor="middle" x="520.5" y="-244.95" font-family="Times,serif" font-size="14.00">booking.domain.model</text>
</g>
<g id="clust4" class="cluster">
<title>cluster_com.practicalddd.cargotracker.routing.domain.model</title>
<polygon fill="lemonchiffon" stroke="#eedd82" stroke-width="2" points="635.5,-103 635.5,-262.25 798.5,-262.25 798.5,-103 635.5,-103"/>
<text text-anchor="middle" x="717" y="-244.95" font-family="Times,serif" font-size="14.00">routing.domain.model</text>
</g>
<!-- summary -->
<g id="node1" class="node">
<title>summary</title>
<polygon fill="none" stroke="black" points="205,-240.5 0,-240.5 0,-183 211,-183 211,-234.5 205,-240.5"/>
<polyline fill="none" stroke="black" points="205,-240.5 205,-234.5"/>
<polyline fill="none" stroke="black" points="211,-234.5 205,-234.5"/>
<text text-anchor="start" x="8" y="-223.2" font-family="Times,serif" font-size="14.00">root: com.practicalddd.cargotracker</text>
<text text-anchor="start" x="8" y="-206.7" font-family="Times,serif" font-size="14.00">パッケージ数: 14</text>
<text text-anchor="start" x="8" y="-190.2" font-family="Times,serif" font-size="14.00">関連数: 13</text>
</g>
<!-- com.practicalddd.cargotracker.tracking.domain.model.entities -->
<g id="node2" class="node">
<title>com.practicalddd.cargotracker.tracking.domain.model.entities</title>
<g id="a_node2"><a xlink:href="./domain.html#com.practicalddd.cargotracker.tracking.domain.model.entities" xlink:title="entities">
<polygon fill="#eedd82" stroke="black" points="283,-147 228,-147 228,-111 283,-111 283,-147"/>
<text text-anchor="middle" x="255.5" y="-123.95" font-family="Times,serif" font-size="14.00">entities</text>
</a>
</g>
</g>
<!-- com.practicalddd.cargotracker.tracking.domain.model.valueobjects -->
<g id="node3" class="node">
<title>com.practicalddd.cargotracker.tracking.domain.model.valueobjects</title>
<g id="a_node3"><a xlink:href="./domain.html#com.practicalddd.cargotracker.tracking.domain.model.valueobjects" xlink:title="valueobjects">
<polygon fill="#eedd82" stroke="black" points="327.25,-75 243.75,-75 243.75,-39 327.25,-39 327.25,-75"/>
<text text-anchor="middle" x="285.5" y="-51.95" font-family="Times,serif" font-size="14.00">valueobjects</text>
</a>
</g>
</g>
<!-- com.practicalddd.cargotracker.tracking.domain.model.entities&#45;&gt;com.practicalddd.cargotracker.tracking.domain.model.valueobjects -->
<g id="edge1" class="edge">
<title>com.practicalddd.cargotracker.tracking.domain.model.entities&#45;&gt;com.practicalddd.cargotracker.tracking.domain.model.valueobjects</title>
<path fill="none" stroke="black" d="M262.92,-110.7C266.15,-103.15 270.02,-94.12 273.64,-85.68"/>
<polygon fill="black" stroke="black" points="276.85,-87.07 277.57,-76.5 270.42,-84.31 276.85,-87.07"/>
</g>
<!-- com.practicalddd.cargotracker.booking.domain.model.aggregates -->
<g id="node4" class="node">
<title>com.practicalddd.cargotracker.booking.domain.model.aggregates</title>
<g id="a_node4"><a xlink:href="./domain.html#com.practicalddd.cargotracker.booking.domain.model.aggregates" xlink:title="aggregates">
<polygon fill="#eedd82" stroke="black" points="520.38,-229.75 446.62,-229.75 446.62,-193.75 520.38,-193.75 520.38,-229.75"/>
<text text-anchor="middle" x="483.5" y="-206.7" font-family="Times,serif" font-size="14.00">aggregates</text>
</a>
</g>
</g>
<!-- com.practicalddd.cargotracker.booking.domain.model.entities -->
<g id="node5" class="node">
<title>com.practicalddd.cargotracker.booking.domain.model.entities</title>
<g id="a_node5"><a xlink:href="./domain.html#com.practicalddd.cargotracker.booking.domain.model.entities" xlink:title="entities">
<polygon fill="#eedd82" stroke="black" points="494,-75 439,-75 439,-39 494,-39 494,-75"/>
<text text-anchor="middle" x="466.5" y="-51.95" font-family="Times,serif" font-size="14.00">entities</text>
</a>
</g>
</g>
<!-- com.practicalddd.cargotracker.booking.domain.model.aggregates&#45;&gt;com.practicalddd.cargotracker.booking.domain.model.entities -->
<g id="edge2" class="edge">
<title>com.practicalddd.cargotracker.booking.domain.model.aggregates&#45;&gt;com.practicalddd.cargotracker.booking.domain.model.entities</title>
<path fill="none" stroke="black" d="M464.07,-193.33C452.47,-181.55 438.79,-164.92 432.5,-147 426.03,-128.55 426.28,-121.54 432.5,-103 434.69,-96.46 438.26,-90.11 442.27,-84.34"/>
<polygon fill="black" stroke="black" points="445.02,-86.5 448.35,-76.45 439.48,-82.23 445.02,-86.5"/>
</g>
<!-- com.practicalddd.cargotracker.booking.domain.model.valueobjects -->
<g id="node6" class="node">
<title>com.practicalddd.cargotracker.booking.domain.model.valueobjects</title>
<g id="a_node6"><a xlink:href="./domain.html#com.practicalddd.cargotracker.booking.domain.model.valueobjects" xlink:title="valueobjects">
<polygon fill="#eedd82" stroke="black" points="525.25,-147 441.75,-147 441.75,-111 525.25,-111 525.25,-147"/>
<text text-anchor="middle" x="483.5" y="-123.95" font-family="Times,serif" font-size="14.00">valueobjects</text>
</a>
</g>
</g>
<!-- com.practicalddd.cargotracker.booking.domain.model.aggregates&#45;&gt;com.practicalddd.cargotracker.booking.domain.model.valueobjects -->
<g id="edge3" class="edge">
<title>com.practicalddd.cargotracker.booking.domain.model.aggregates&#45;&gt;com.practicalddd.cargotracker.booking.domain.model.valueobjects</title>
<path fill="none" stroke="black" d="M483.5,-193.63C483.5,-183.52 483.5,-170.48 483.5,-158.83"/>
<polygon fill="black" stroke="black" points="487,-158.89 483.5,-148.89 480,-158.89 487,-158.89"/>
</g>
<!-- com.practicalddd.cargotracker.booking.domain.model.commands -->
<g id="node9" class="node">
<title>com.practicalddd.cargotracker.booking.domain.model.commands</title>
<g id="a_node9"><a xlink:href="./domain.html#com.practicalddd.cargotracker.booking.domain.model.commands" xlink:title="commands">
<polygon fill="#eedd82" stroke="black" points="619.5,-147 543.5,-147 543.5,-111 619.5,-111 619.5,-147"/>
<text text-anchor="middle" x="581.5" y="-123.95" font-family="Times,serif" font-size="14.00">commands</text>
</a>
</g>
</g>
<!-- com.practicalddd.cargotracker.booking.domain.model.aggregates&#45;&gt;com.practicalddd.cargotracker.booking.domain.model.commands -->
<g id="edge5" class="edge">
<title>com.practicalddd.cargotracker.booking.domain.model.aggregates&#45;&gt;com.practicalddd.cargotracker.booking.domain.model.commands</title>
<path fill="none" stroke="black" d="M504.28,-193.63C518.09,-182.25 536.44,-167.13 551.78,-154.49"/>
<polygon fill="black" stroke="black" points="553.75,-157.4 559.24,-148.34 549.3,-152 553.75,-157.4"/>
</g>
<!-- com.practicalddd.cargotracker.booking.domain.model.valueobjects&#45;&gt;com.practicalddd.cargotracker.booking.domain.model.entities -->
<g id="edge7" class="edge">
<title>com.practicalddd.cargotracker.booking.domain.model.valueobjects&#45;&gt;com.practicalddd.cargotracker.booking.domain.model.entities</title>
<path fill="none" stroke="black" d="M479.3,-110.7C477.51,-103.32 475.37,-94.52 473.36,-86.25"/>
<polygon fill="black" stroke="black" points="476.77,-85.47 471.01,-76.58 469.97,-87.12 476.77,-85.47"/>
</g>
<!-- com.practicalddd.cargotracker.routing.domain.model.aggregates -->
<g id="node7" class="node">
<title>com.practicalddd.cargotracker.routing.domain.model.aggregates</title>
<g id="a_node7"><a xlink:href="./domain.html#com.practicalddd.cargotracker.routing.domain.model.aggregates" xlink:title="aggregates">
<polygon fill="#eedd82" stroke="black" points="717.38,-229.75 643.62,-229.75 643.62,-193.75 717.38,-193.75 717.38,-229.75"/>
<text text-anchor="middle" x="680.5" y="-206.7" font-family="Times,serif" font-size="14.00">aggregates</text>
</a>
</g>
</g>
<!-- com.practicalddd.cargotracker.routing.domain.model.valueobjects -->
<g id="node8" class="node">
<title>com.practicalddd.cargotracker.routing.domain.model.valueobjects</title>
<g id="a_node8"><a xlink:href="./domain.html#com.practicalddd.cargotracker.routing.domain.model.valueobjects" xlink:title="valueobjects">
<polygon fill="#eedd82" stroke="black" points="758.25,-147 674.75,-147 674.75,-111 758.25,-111 758.25,-147"/>
<text text-anchor="middle" x="716.5" y="-123.95" font-family="Times,serif" font-size="14.00">valueobjects</text>
</a>
</g>
</g>
<!-- com.practicalddd.cargotracker.routing.domain.model.aggregates&#45;&gt;com.practicalddd.cargotracker.routing.domain.model.valueobjects -->
<g id="edge4" class="edge">
<title>com.practicalddd.cargotracker.routing.domain.model.aggregates&#45;&gt;com.practicalddd.cargotracker.routing.domain.model.valueobjects</title>
<path fill="none" stroke="black" d="M688.13,-193.63C692.78,-183.2 698.82,-169.65 704.14,-157.73"/>
<polygon fill="black" stroke="black" points="707.26,-159.32 708.14,-148.76 700.87,-156.47 707.26,-159.32"/>
</g>
<!-- com.practicalddd.cargotracker.tracking.domain.model.aggregates -->
<g id="node10" class="node">
<title>com.practicalddd.cargotracker.tracking.domain.model.aggregates</title>
<g id="a_node10"><a xlink:href="./domain.html#com.practicalddd.cargotracker.tracking.domain.model.aggregates" xlink:title="aggregates">
<polygon fill="#eedd82" stroke="black" points="339.38,-229.75 265.62,-229.75 265.62,-193.75 339.38,-193.75 339.38,-229.75"/>
<text text-anchor="middle" x="302.5" y="-206.7" font-family="Times,serif" font-size="14.00">aggregates</text>
</a>
</g>
</g>
<!-- com.practicalddd.cargotracker.tracking.domain.model.aggregates&#45;&gt;com.practicalddd.cargotracker.tracking.domain.model.entities -->
<g id="edge6" class="edge">
<title>com.practicalddd.cargotracker.tracking.domain.model.aggregates&#45;&gt;com.practicalddd.cargotracker.tracking.domain.model.entities</title>
<path fill="none" stroke="black" d="M292.53,-193.63C286.34,-182.99 278.25,-169.09 271.22,-157"/>
<polygon fill="black" stroke="black" points="274.43,-155.57 266.38,-148.69 268.38,-159.09 274.43,-155.57"/>
</g>
<!-- com.practicalddd.cargotracker.tracking.domain.model.aggregates&#45;&gt;com.practicalddd.cargotracker.tracking.domain.model.valueobjects -->
<g id="edge8" class="edge">
<title>com.practicalddd.cargotracker.tracking.domain.model.aggregates&#45;&gt;com.practicalddd.cargotracker.tracking.domain.model.valueobjects</title>
<path fill="none" stroke="black" d="M301.23,-193.55C299.59,-172.25 296.46,-134.88 292.5,-103 291.85,-97.74 291.06,-92.14 290.24,-86.76"/>
<polygon fill="black" stroke="black" points="293.72,-86.32 288.71,-76.98 286.8,-87.41 293.72,-86.32"/>
</g>
<!-- com.practicalddd.cargotracker.tracking.domain.model.commands -->
<g id="node11" class="node">
<title>com.practicalddd.cargotracker.tracking.domain.model.commands</title>
<g id="a_node11"><a xlink:href="./domain.html#com.practicalddd.cargotracker.tracking.domain.model.commands" xlink:title="commands">
<polygon fill="#eedd82" stroke="black" points="397.5,-147 321.5,-147 321.5,-111 397.5,-111 397.5,-147"/>
<text text-anchor="middle" x="359.5" y="-123.95" font-family="Times,serif" font-size="14.00">commands</text>
</a>
</g>
</g>
<!-- com.practicalddd.cargotracker.tracking.domain.model.aggregates&#45;&gt;com.practicalddd.cargotracker.tracking.domain.model.commands -->
<g id="edge9" class="edge">
<title>com.practicalddd.cargotracker.tracking.domain.model.aggregates&#45;&gt;com.practicalddd.cargotracker.tracking.domain.model.commands</title>
<path fill="none" stroke="black" d="M314.59,-193.63C322.17,-182.89 332.1,-168.82 340.7,-156.64"/>
<polygon fill="black" stroke="black" points="343.45,-158.8 346.36,-148.62 337.73,-154.77 343.45,-158.8"/>
</g>
<!-- com.practicalddd.cargotracker.handling.domain.model.aggregates -->
<g id="node12" class="node">
<title>com.practicalddd.cargotracker.handling.domain.model.aggregates</title>
<g id="a_node12"><a xlink:href="./domain.html#com.practicalddd.cargotracker.handling.domain.model.aggregates" xlink:title="aggregates">
<polygon fill="#eedd82" stroke="black" points="888.38,-229.75 814.62,-229.75 814.62,-193.75 888.38,-193.75 888.38,-229.75"/>
<text text-anchor="middle" x="851.5" y="-206.7" font-family="Times,serif" font-size="14.00">aggregates</text>
</a>
</g>
</g>
<!-- com.practicalddd.cargotracker.handling.domain.model.valueobjects -->
<g id="node13" class="node">
<title>com.practicalddd.cargotracker.handling.domain.model.valueobjects</title>
<g id="a_node13"><a xlink:href="./domain.html#com.practicalddd.cargotracker.handling.domain.model.valueobjects" xlink:title="valueobjects">
<polygon fill="#eedd82" stroke="black" points="898.25,-147 814.75,-147 814.75,-111 898.25,-111 898.25,-147"/>
<text text-anchor="middle" x="856.5" y="-123.95" font-family="Times,serif" font-size="14.00">valueobjects</text>
</a>
</g>
</g>
<!-- com.practicalddd.cargotracker.handling.domain.model.aggregates&#45;&gt;com.practicalddd.cargotracker.handling.domain.model.valueobjects -->
<g id="edge10" class="edge">
<title>com.practicalddd.cargotracker.handling.domain.model.aggregates&#45;&gt;com.practicalddd.cargotracker.handling.domain.model.valueobjects</title>
<path fill="none" stroke="red" stroke-width="2" d="M853.27,-182.21C853.74,-174.59 854.25,-166.34 854.72,-158.7"/>
<polygon fill="red" stroke="red" stroke-width="2" points="849.87,-180.41 852.75,-190.6 856.86,-180.84 849.87,-180.41"/>
<polygon fill="red" stroke="red" stroke-width="2" points="858.11,-160.6 855.24,-150.4 851.13,-160.16 858.11,-160.6"/>
</g>
<!-- com.practicalddd.cargotracker.routing.domain.model.entities -->
<g id="node14" class="node">
<title>com.practicalddd.cargotracker.routing.domain.model.entities</title>
<g id="a_node14"><a xlink:href="./domain.html#com.practicalddd.cargotracker.routing.domain.model.entities" xlink:title="entities">
<polygon fill="#eedd82" stroke="black" points="790,-229.75 735,-229.75 735,-193.75 790,-193.75 790,-229.75"/>
<text text-anchor="middle" x="762.5" y="-206.7" font-family="Times,serif" font-size="14.00">entities</text>
</a>
</g>
</g>
<!-- com.practicalddd.cargotracker.routing.domain.model.entities&#45;&gt;com.practicalddd.cargotracker.routing.domain.model.valueobjects -->
<g id="edge11" class="edge">
<title>com.practicalddd.cargotracker.routing.domain.model.entities&#45;&gt;com.practicalddd.cargotracker.routing.domain.model.valueobjects</title>
<path fill="none" stroke="red" stroke-width="2" d="M747.08,-183.67C742.22,-175.16 736.87,-165.75 732.01,-157.23"/>
<polygon fill="red" stroke="red" stroke-width="2" points="743.26,-184.04 751.25,-190.99 749.34,-180.57 743.26,-184.04"/>
<polygon fill="red" stroke="red" stroke-width="2" points="735.89,-156.97 727.9,-150.01 729.81,-160.43 735.89,-156.97"/>
</g>
<!-- com.practicalddd.cargotracker.handling.domain.model.commands -->
<g id="node15" class="node">
<title>com.practicalddd.cargotracker.handling.domain.model.commands</title>
<g id="a_node15"><a xlink:href="./domain.html#com.practicalddd.cargotracker.handling.domain.model.commands" xlink:title="commands">
<polygon fill="#eedd82" stroke="black" points="982.5,-229.75 906.5,-229.75 906.5,-193.75 982.5,-193.75 982.5,-229.75"/>
<text text-anchor="middle" x="944.5" y="-206.7" font-family="Times,serif" font-size="14.00">commands</text>
</a>
</g>
</g>
</g>
</svg>
