<?xml version="1.0" encoding="UTF-8" standalone="no"?>
<!DOCTYPE svg PUBLIC "-//W3C//DTD SVG 1.1//EN"
 "http://www.w3.org/Graphics/SVG/1.1/DTD/svg11.dtd">
<!-- Generated by graphviz version 12.2.0 (20241103.1931)
 -->
<!-- Title: アーキテクチャ図 Pages: 1 -->
<svg width="312pt" height="314pt"
 viewBox="0.00 0.00 312.25 314.25" xmlns="http://www.w3.org/2000/svg" xmlns:xlink="http://www.w3.org/1999/xlink">
<g id="graph0" class="graph" transform="scale(1 1) rotate(0) translate(4 310.25)">
<title>アーキテクチャ図</title>
<polygon fill="white" stroke="none" points="-4,4 -4,-310.25 308.25,-310.25 308.25,4 -4,4"/>
<text text-anchor="middle" x="152.12" y="-4.95" font-family="Times New Roman,serif" font-size="14.00">アーキテクチャ図</text>
<g id="clust1" class="cluster">
<title>clusterArchitecture</title>
<polygon fill="lightyellow" stroke="#eedd82" points="8,-30.25 8,-298.25 186,-298.25 186,-30.25 8,-30.25"/>
</g>
<!-- com.practicalddd.cargotracker.booking.application -->
<g id="node1" class="node">
<title>com.practicalddd.cargotracker.booking.application</title>
<polygon fill="#eedd82" stroke="black" points="153.5,-218.25 50.5,-218.25 50.5,-214.25 46.5,-214.25 46.5,-210.25 50.5,-210.25 50.5,-190.25 46.5,-190.25 46.5,-186.25 50.5,-186.25 50.5,-182.25 153.5,-182.25 153.5,-218.25"/>
<polyline fill="none" stroke="black" points="50.5,-214.25 54.5,-214.25 54.5,-210.25 50.5,-210.25"/>
<polyline fill="none" stroke="black" points="50.5,-190.25 54.5,-190.25 54.5,-186.25 50.5,-186.25"/>
<text text-anchor="middle" x="102" y="-192.5" font-family="Times New Roman,serif" font-size="20.00">application</text>
</g>
<!-- com.practicalddd.cargotracker.booking.domain -->
<g id="node2" class="node">
<title>com.practicalddd.cargotracker.booking.domain</title>
<polygon fill="#eedd82" stroke="black" points="91.62,-74.25 16.38,-74.25 16.38,-70.25 12.38,-70.25 12.38,-66.25 16.38,-66.25 16.38,-46.25 12.38,-46.25 12.38,-42.25 16.38,-42.25 16.38,-38.25 91.62,-38.25 91.62,-74.25"/>
<polyline fill="none" stroke="black" points="16.38,-70.25 20.38,-70.25 20.38,-66.25 16.38,-66.25"/>
<polyline fill="none" stroke="black" points="16.38,-46.25 20.38,-46.25 20.38,-42.25 16.38,-42.25"/>
<text text-anchor="middle" x="54" y="-48.5" font-family="Times New Roman,serif" font-size="20.00">domain</text>
</g>
<!-- com.practicalddd.cargotracker.booking.application&#45;&gt;com.practicalddd.cargotracker.booking.domain -->
<g id="edge1" class="edge">
<title>com.practicalddd.cargotracker.booking.application&#45;&gt;com.practicalddd.cargotracker.booking.domain</title>
<path fill="none" stroke="black" d="M50.34,-200.25C45.94,-200.25 43.12,-200.25 43.12,-200.25 43.12,-200.25 43.12,-86 43.12,-86"/>
<polygon fill="black" stroke="black" points="46.63,-86 43.13,-76 39.63,-86 46.63,-86"/>
</g>
<!-- com.practicalddd.cargotracker.booking.infrastructure -->
<g id="node3" class="node">
<title>com.practicalddd.cargotracker.booking.infrastructure</title>
<polygon fill="#eedd82" stroke="black" points="178.25,-146.25 55.75,-146.25 55.75,-142.25 51.75,-142.25 51.75,-138.25 55.75,-138.25 55.75,-118.25 51.75,-118.25 51.75,-114.25 55.75,-114.25 55.75,-110.25 178.25,-110.25 178.25,-146.25"/>
<polyline fill="none" stroke="black" points="55.75,-142.25 59.75,-142.25 59.75,-138.25 55.75,-138.25"/>
<polyline fill="none" stroke="black" points="55.75,-118.25 59.75,-118.25 59.75,-114.25 55.75,-114.25"/>
<text text-anchor="middle" x="117" y="-120.5" font-family="Times New Roman,serif" font-size="20.00">infrastructure</text>
</g>
<!-- com.practicalddd.cargotracker.booking.application&#45;&gt;com.practicalddd.cargotracker.booking.infrastructure -->
<g id="edge5" class="edge">
<title>com.practicalddd.cargotracker.booking.application&#45;&gt;com.practicalddd.cargotracker.booking.infrastructure</title>
<path fill="none" stroke="black" d="M104.62,-182.08C104.62,-182.08 104.62,-158.18 104.62,-158.18"/>
<polygon fill="black" stroke="black" points="108.13,-158.18 104.63,-148.18 101.13,-158.18 108.13,-158.18"/>
</g>
<!-- com.practicalddd -->
<g id="node5" class="node">
<title>com.practicalddd</title>
<polygon fill="lightgrey" stroke="black" points="304.25,-74.25 193.75,-74.25 193.75,-70.25 189.75,-70.25 189.75,-66.25 193.75,-66.25 193.75,-46.25 189.75,-46.25 189.75,-42.25 193.75,-42.25 193.75,-38.25 304.25,-38.25 304.25,-74.25"/>
<polyline fill="none" stroke="black" points="193.75,-70.25 197.75,-70.25 197.75,-66.25 193.75,-66.25"/>
<polyline fill="none" stroke="black" points="193.75,-46.25 197.75,-46.25 197.75,-42.25 193.75,-42.25"/>
<text text-anchor="middle" x="249" y="-51.2" font-family="Times New Roman,serif" font-size="14.00">com.practicalddd</text>
</g>
<!-- com.practicalddd.cargotracker.booking.application&#45;&gt;com.practicalddd -->
<g id="edge6" class="edge">
<title>com.practicalddd.cargotracker.booking.application&#45;&gt;com.practicalddd</title>
<path fill="none" stroke="black" d="M153.83,-200.25C196.15,-200.25 249,-200.25 249,-200.25 249,-200.25 249,-86 249,-86"/>
<polygon fill="black" stroke="black" points="252.5,-86 249,-76 245.5,-86 252.5,-86"/>
</g>
<!-- com.practicalddd.cargotracker.booking.infrastructure&#45;&gt;com.practicalddd.cargotracker.booking.domain -->
<g id="edge4" class="edge">
<title>com.practicalddd.cargotracker.booking.infrastructure&#45;&gt;com.practicalddd.cargotracker.booking.domain</title>
<path fill="none" stroke="black" d="M73.69,-110.08C73.69,-110.08 73.69,-86.18 73.69,-86.18"/>
<polygon fill="black" stroke="black" points="77.19,-86.18 73.69,-76.18 70.19,-86.18 77.19,-86.18"/>
</g>
<!-- com.practicalddd.cargotracker.booking.infrastructure&#45;&gt;com.practicalddd -->
<g id="edge2" class="edge">
<title>com.practicalddd.cargotracker.booking.infrastructure&#45;&gt;com.practicalddd</title>
<path fill="none" stroke="black" d="M134.94,-110.08C134.94,-88.75 134.94,-56.25 134.94,-56.25 134.94,-56.25 181.79,-56.25 181.79,-56.25"/>
<polygon fill="black" stroke="black" points="181.79,-59.75 191.79,-56.25 181.79,-52.75 181.79,-59.75"/>
</g>
<!-- com.practicalddd.cargotracker.booking.interfaces -->
<g id="node4" class="node">
<title>com.practicalddd.cargotracker.booking.interfaces</title>
<polygon fill="#eedd82" stroke="black" points="121.62,-290.25 28.38,-290.25 28.38,-286.25 24.38,-286.25 24.38,-282.25 28.38,-282.25 28.38,-262.25 24.38,-262.25 24.38,-258.25 28.38,-258.25 28.38,-254.25 121.62,-254.25 121.62,-290.25"/>
<polyline fill="none" stroke="black" points="28.38,-286.25 32.38,-286.25 32.38,-282.25 28.38,-282.25"/>
<polyline fill="none" stroke="black" points="28.38,-262.25 32.38,-262.25 32.38,-258.25 28.38,-258.25"/>
<text text-anchor="middle" x="75" y="-264.5" font-family="Times New Roman,serif" font-size="20.00">interfaces</text>
</g>
<!-- com.practicalddd.cargotracker.booking.interfaces&#45;&gt;com.practicalddd.cargotracker.booking.application -->
<g id="edge3" class="edge">
<title>com.practicalddd.cargotracker.booking.interfaces&#45;&gt;com.practicalddd.cargotracker.booking.application</title>
<path fill="none" stroke="black" d="M86.06,-254.08C86.06,-254.08 86.06,-230.18 86.06,-230.18"/>
<polygon fill="black" stroke="black" points="89.56,-230.18 86.06,-220.18 82.56,-230.18 89.56,-230.18"/>
</g>
<!-- com.practicalddd.cargotracker.booking.interfaces&#45;&gt;com.practicalddd.cargotracker.booking.domain -->
<g id="edge7" class="edge">
<title>com.practicalddd.cargotracker.booking.interfaces&#45;&gt;com.practicalddd.cargotracker.booking.domain</title>
<path fill="none" stroke="black" d="M35.75,-253.83C35.75,-253.83 35.75,-86.13 35.75,-86.13"/>
<polygon fill="black" stroke="black" points="39.25,-86.13 35.75,-76.13 32.25,-86.13 39.25,-86.13"/>
</g>
</g>
</svg>
