<?xml version="1.0" encoding="UTF-8" standalone="no"?>
<!DOCTYPE svg PUBLIC "-//W3C//DTD SVG 1.1//EN"
 "http://www.w3.org/Graphics/SVG/1.1/DTD/svg11.dtd">
<!-- Generated by graphviz version 12.1.2 (20240928.0832)
 -->
<!-- Title: アーキテクチャ図 Pages: 1 -->
<svg width="312pt" height="315pt"
 viewBox="0.00 0.00 312.25 315.00" xmlns="http://www.w3.org/2000/svg" xmlns:xlink="http://www.w3.org/1999/xlink">
<g id="graph0" class="graph" transform="scale(1 1) rotate(0) translate(4 311)">
<title>アーキテクチャ図</title>
<polygon fill="white" stroke="none" points="-4,4 -4,-311 308.25,-311 308.25,4 -4,4"/>
<text text-anchor="middle" x="152.12" y="-5.7" font-family="Times,serif" font-size="14.00">アーキテクチャ図</text>
<g id="clust1" class="cluster">
<title>clusterArchitecture</title>
<polygon fill="lightyellow" stroke="#eedd82" points="8,-31 8,-299 186,-299 186,-31 8,-31"/>
</g>
<!-- com.practicalddd.cargotracker.booking.application -->
<g id="node1" class="node">
<title>com.practicalddd.cargotracker.booking.application</title>
<polygon fill="#eedd82" stroke="black" points="153.5,-219 50.5,-219 50.5,-215 46.5,-215 46.5,-211 50.5,-211 50.5,-191 46.5,-191 46.5,-187 50.5,-187 50.5,-183 153.5,-183 153.5,-219"/>
<polyline fill="none" stroke="black" points="50.5,-215 54.5,-215 54.5,-211 50.5,-211"/>
<polyline fill="none" stroke="black" points="50.5,-191 54.5,-191 54.5,-187 50.5,-187"/>
<text text-anchor="middle" x="102" y="-193.25" font-family="Times,serif" font-size="20.00">application</text>
</g>
<!-- com.practicalddd.cargotracker.booking.domain -->
<g id="node2" class="node">
<title>com.practicalddd.cargotracker.booking.domain</title>
<polygon fill="#eedd82" stroke="black" points="91.62,-75 16.38,-75 16.38,-71 12.38,-71 12.38,-67 16.38,-67 16.38,-47 12.38,-47 12.38,-43 16.38,-43 16.38,-39 91.62,-39 91.62,-75"/>
<polyline fill="none" stroke="black" points="16.38,-71 20.38,-71 20.38,-67 16.38,-67"/>
<polyline fill="none" stroke="black" points="16.38,-47 20.38,-47 20.38,-43 16.38,-43"/>
<text text-anchor="middle" x="54" y="-49.25" font-family="Times,serif" font-size="20.00">domain</text>
</g>
<!-- com.practicalddd.cargotracker.booking.application&#45;&gt;com.practicalddd.cargotracker.booking.domain -->
<g id="edge1" class="edge">
<title>com.practicalddd.cargotracker.booking.application&#45;&gt;com.practicalddd.cargotracker.booking.domain</title>
<path fill="none" stroke="black" d="M50.34,-201C45.94,-201 43.12,-201 43.12,-201 43.12,-201 43.12,-86.75 43.12,-86.75"/>
<polygon fill="black" stroke="black" points="46.63,-86.75 43.13,-76.75 39.63,-86.75 46.63,-86.75"/>
</g>
<!-- com.practicalddd.cargotracker.booking.infrastructure -->
<g id="node3" class="node">
<title>com.practicalddd.cargotracker.booking.infrastructure</title>
<polygon fill="#eedd82" stroke="black" points="178.25,-147 55.75,-147 55.75,-143 51.75,-143 51.75,-139 55.75,-139 55.75,-119 51.75,-119 51.75,-115 55.75,-115 55.75,-111 178.25,-111 178.25,-147"/>
<polyline fill="none" stroke="black" points="55.75,-143 59.75,-143 59.75,-139 55.75,-139"/>
<polyline fill="none" stroke="black" points="55.75,-119 59.75,-119 59.75,-115 55.75,-115"/>
<text text-anchor="middle" x="117" y="-121.25" font-family="Times,serif" font-size="20.00">infrastructure</text>
</g>
<!-- com.practicalddd.cargotracker.booking.application&#45;&gt;com.practicalddd.cargotracker.booking.infrastructure -->
<g id="edge5" class="edge">
<title>com.practicalddd.cargotracker.booking.application&#45;&gt;com.practicalddd.cargotracker.booking.infrastructure</title>
<path fill="none" stroke="black" d="M104.62,-182.83C104.62,-182.83 104.62,-158.93 104.62,-158.93"/>
<polygon fill="black" stroke="black" points="108.13,-158.93 104.63,-148.93 101.13,-158.93 108.13,-158.93"/>
</g>
<!-- com.practicalddd -->
<g id="node5" class="node">
<title>com.practicalddd</title>
<polygon fill="lightgrey" stroke="black" points="304.25,-75 193.75,-75 193.75,-71 189.75,-71 189.75,-67 193.75,-67 193.75,-47 189.75,-47 189.75,-43 193.75,-43 193.75,-39 304.25,-39 304.25,-75"/>
<polyline fill="none" stroke="black" points="193.75,-71 197.75,-71 197.75,-67 193.75,-67"/>
<polyline fill="none" stroke="black" points="193.75,-47 197.75,-47 197.75,-43 193.75,-43"/>
<text text-anchor="middle" x="249" y="-51.95" font-family="Times,serif" font-size="14.00">com.practicalddd</text>
</g>
<!-- com.practicalddd.cargotracker.booking.application&#45;&gt;com.practicalddd -->
<g id="edge6" class="edge">
<title>com.practicalddd.cargotracker.booking.application&#45;&gt;com.practicalddd</title>
<path fill="none" stroke="black" d="M153.83,-201C196.15,-201 249,-201 249,-201 249,-201 249,-86.75 249,-86.75"/>
<polygon fill="black" stroke="black" points="252.5,-86.75 249,-76.75 245.5,-86.75 252.5,-86.75"/>
</g>
<!-- com.practicalddd.cargotracker.booking.infrastructure&#45;&gt;com.practicalddd.cargotracker.booking.domain -->
<g id="edge4" class="edge">
<title>com.practicalddd.cargotracker.booking.infrastructure&#45;&gt;com.practicalddd.cargotracker.booking.domain</title>
<path fill="none" stroke="black" d="M73.69,-110.83C73.69,-110.83 73.69,-86.93 73.69,-86.93"/>
<polygon fill="black" stroke="black" points="77.19,-86.93 73.69,-76.93 70.19,-86.93 77.19,-86.93"/>
</g>
<!-- com.practicalddd.cargotracker.booking.infrastructure&#45;&gt;com.practicalddd -->
<g id="edge2" class="edge">
<title>com.practicalddd.cargotracker.booking.infrastructure&#45;&gt;com.practicalddd</title>
<path fill="none" stroke="black" d="M134.94,-110.83C134.94,-89.5 134.94,-57 134.94,-57 134.94,-57 181.79,-57 181.79,-57"/>
<polygon fill="black" stroke="black" points="181.79,-60.5 191.79,-57 181.79,-53.5 181.79,-60.5"/>
</g>
<!-- com.practicalddd.cargotracker.booking.interfaces -->
<g id="node4" class="node">
<title>com.practicalddd.cargotracker.booking.interfaces</title>
<polygon fill="#eedd82" stroke="black" points="121.62,-291 28.38,-291 28.38,-287 24.38,-287 24.38,-283 28.38,-283 28.38,-263 24.38,-263 24.38,-259 28.38,-259 28.38,-255 121.62,-255 121.62,-291"/>
<polyline fill="none" stroke="black" points="28.38,-287 32.38,-287 32.38,-283 28.38,-283"/>
<polyline fill="none" stroke="black" points="28.38,-263 32.38,-263 32.38,-259 28.38,-259"/>
<text text-anchor="middle" x="75" y="-265.25" font-family="Times,serif" font-size="20.00">interfaces</text>
</g>
<!-- com.practicalddd.cargotracker.booking.interfaces&#45;&gt;com.practicalddd.cargotracker.booking.application -->
<g id="edge3" class="edge">
<title>com.practicalddd.cargotracker.booking.interfaces&#45;&gt;com.practicalddd.cargotracker.booking.application</title>
<path fill="none" stroke="black" d="M86.06,-254.83C86.06,-254.83 86.06,-230.93 86.06,-230.93"/>
<polygon fill="black" stroke="black" points="89.56,-230.93 86.06,-220.93 82.56,-230.93 89.56,-230.93"/>
</g>
<!-- com.practicalddd.cargotracker.booking.interfaces&#45;&gt;com.practicalddd.cargotracker.booking.domain -->
<g id="edge7" class="edge">
<title>com.practicalddd.cargotracker.booking.interfaces&#45;&gt;com.practicalddd.cargotracker.booking.domain</title>
<path fill="none" stroke="black" d="M35.75,-254.58C35.75,-254.58 35.75,-86.88 35.75,-86.88"/>
<polygon fill="black" stroke="black" points="39.25,-86.88 35.75,-76.88 32.25,-86.88 39.25,-86.88"/>
</g>
</g>
</svg>
