<?xml version="1.0" encoding="UTF-8" standalone="no"?>
<!DOCTYPE svg PUBLIC "-//W3C//DTD SVG 1.1//EN"
 "http://www.w3.org/Graphics/SVG/1.1/DTD/svg11.dtd">
<!-- Generated by graphviz version 12.1.2 (20240928.0832)
 -->
<!-- Title: ビジネスルール関連図 Pages: 1 -->
<svg width="1477pt" height="441pt"
 viewBox="0.00 0.00 1477.00 440.50" xmlns="http://www.w3.org/2000/svg" xmlns:xlink="http://www.w3.org/1999/xlink">
<g id="graph0" class="graph" transform="scale(1 1) rotate(0) translate(4 436.5)">
<title>ビジネスルール関連図</title>
<polygon fill="white" stroke="none" points="-4,4 -4,-436.5 1473,-436.5 1473,4 -4,4"/>
<text text-anchor="middle" x="734.5" y="-5.7" font-family="Times,serif" font-size="14.00">ビジネスルール関連図</text>
<g id="clust1" class="cluster">
<title>cluster_com.practicalddd.cargotracker.booking.domain.model.aggregates</title>
<polygon fill="lemonchiffon" stroke="#eedd82" stroke-width="2" points="704,-261.5 704,-422 1077,-422 1077,-261.5 704,-261.5"/>
<text text-anchor="middle" x="890.5" y="-404.7" font-family="Times,serif" font-size="14.00">com.practicalddd.cargotracker.booking.domain.model.aggregates</text>
</g>
<g id="clust2" class="cluster">
<title>cluster_com.practicalddd.cargotracker.booking.domain.model.commands</title>
<polygon fill="lemonchiffon" stroke="#eedd82" stroke-width="2" points="1085,-261.5 1085,-424.5 1461,-424.5 1461,-261.5 1085,-261.5"/>
<text text-anchor="middle" x="1273" y="-407.2" font-family="Times,serif" font-size="14.00">com.practicalddd.cargotracker.booking.domain.model.commands</text>
</g>
<g id="clust3" class="cluster">
<title>cluster_com.practicalddd.cargotracker.booking.domain.model.entities</title>
<polygon fill="lemonchiffon" stroke="#eedd82" stroke-width="2" points="704,-31 704,-112.5 1100,-112.5 1100,-31 704,-31"/>
<text text-anchor="middle" x="902" y="-95.2" font-family="Times,serif" font-size="14.00">com.practicalddd.cargotracker.booking.domain.model.entities</text>
</g>
<g id="clust4" class="cluster">
<title>cluster_com.practicalddd.cargotracker.booking.domain.model.valueobjects</title>
<polygon fill="lemonchiffon" stroke="#eedd82" stroke-width="2" points="8,-31 8,-343 696,-343 696,-31 8,-31"/>
<text text-anchor="middle" x="352" y="-325.7" font-family="Times,serif" font-size="14.00">com.practicalddd.cargotracker.booking.domain.model.valueobjects</text>
</g>
<!-- com.practicalddd.cargotracker.booking.domain.model.aggregates.BookingId -->
<g id="node1" class="node">
<title>com.practicalddd.cargotracker.booking.domain.model.aggregates.BookingId</title>
<g id="a_node1"><a xlink:href="./domain.html#com.practicalddd.cargotracker.booking.domain.model.aggregates.BookingId" xlink:title="Aggregate Identifier for the Cargo Aggregate\nBookingId">
<polygon fill="#eedd82" stroke="black" points="1069,-310.5 807,-310.5 807,-269.5 1069,-269.5 1069,-310.5"/>
<text text-anchor="middle" x="938" y="-293.2" font-family="Times,serif" font-size="14.00">Aggregate Identifier for the Cargo Aggregate</text>
<text text-anchor="middle" x="938" y="-276.7" font-family="Times,serif" font-size="14.00">BookingId</text>
</a>
</g>
</g>
<!-- com.practicalddd.cargotracker.booking.domain.model.aggregates.Cargo -->
<g id="node2" class="node">
<title>com.practicalddd.cargotracker.booking.domain.model.aggregates.Cargo</title>
<g id="a_node2"><a xlink:href="./domain.html#com.practicalddd.cargotracker.booking.domain.model.aggregates.Cargo" xlink:title="Cargo">
<polygon fill="#eedd82" stroke="black" points="766,-389.5 712,-389.5 712,-353.5 766,-353.5 766,-389.5"/>
<text text-anchor="middle" x="739" y="-366.45" font-family="Times,serif" font-size="14.00">Cargo</text>
</a>
</g>
</g>
<!-- com.practicalddd.cargotracker.booking.domain.model.aggregates.Cargo&#45;&gt;com.practicalddd.cargotracker.booking.domain.model.aggregates.BookingId -->
<g id="edge1" class="edge">
<title>com.practicalddd.cargotracker.booking.domain.model.aggregates.Cargo&#45;&gt;com.practicalddd.cargotracker.booking.domain.model.aggregates.BookingId</title>
<path fill="none" stroke="black" d="M766.25,-359.61C794.86,-348.18 840.75,-329.85 877.9,-315.01"/>
<polygon fill="black" stroke="black" points="878.73,-318.45 886.72,-311.49 876.14,-311.95 878.73,-318.45"/>
</g>
<!-- com.practicalddd.cargotracker.booking.domain.model.commands.BookCargoCommand -->
<g id="node3" class="node">
<title>com.practicalddd.cargotracker.booking.domain.model.commands.BookCargoCommand</title>
<g id="a_node3"><a xlink:href="./domain.html#com.practicalddd.cargotracker.booking.domain.model.commands.BookCargoCommand" xlink:title="Book Cargo Command class\nBookCargoCommand">
<polygon fill="#eedd82" stroke="black" points="1266.75,-310.5 1093.25,-310.5 1093.25,-269.5 1266.75,-269.5 1266.75,-310.5"/>
<text text-anchor="middle" x="1180" y="-293.2" font-family="Times,serif" font-size="14.00">Book Cargo Command class</text>
<text text-anchor="middle" x="1180" y="-276.7" font-family="Times,serif" font-size="14.00">BookCargoCommand</text>
</a>
</g>
</g>
<!-- com.practicalddd.cargotracker.booking.domain.model.aggregates.Cargo&#45;&gt;com.practicalddd.cargotracker.booking.domain.model.commands.BookCargoCommand -->
<g id="edge2" class="edge">
<title>com.practicalddd.cargotracker.booking.domain.model.aggregates.Cargo&#45;&gt;com.practicalddd.cargotracker.booking.domain.model.commands.BookCargoCommand</title>
<path fill="none" stroke="black" d="M766.3,-369.72C836.53,-367.47 1022.07,-360.07 1081,-343 1101.58,-337.04 1122.81,-326.56 1140.31,-316.56"/>
<polygon fill="black" stroke="black" points="1142,-319.62 1148.84,-311.53 1138.45,-313.59 1142,-319.62"/>
</g>
<!-- com.practicalddd.cargotracker.booking.domain.model.entities.Location -->
<g id="node5" class="node">
<title>com.practicalddd.cargotracker.booking.domain.model.entities.Location</title>
<g id="a_node5"><a xlink:href="./domain.html#com.practicalddd.cargotracker.booking.domain.model.entities.Location" xlink:title="Location class represented by a unique 5&#45;diigit UN Location code.\nLocation">
<polygon fill="#eedd82" stroke="black" points="1091.5,-80 712.5,-80 712.5,-39 1091.5,-39 1091.5,-80"/>
<text text-anchor="middle" x="902" y="-62.7" font-family="Times,serif" font-size="14.00">Location class represented by a unique 5&#45;diigit UN Location code.</text>
<text text-anchor="middle" x="902" y="-46.2" font-family="Times,serif" font-size="14.00">Location</text>
</a>
</g>
</g>
<!-- com.practicalddd.cargotracker.booking.domain.model.aggregates.Cargo&#45;&gt;com.practicalddd.cargotracker.booking.domain.model.entities.Location -->
<g id="edge3" class="edge">
<title>com.practicalddd.cargotracker.booking.domain.model.aggregates.Cargo&#45;&gt;com.practicalddd.cargotracker.booking.domain.model.entities.Location</title>
<path fill="none" stroke="black" d="M748,-353.39C774.55,-302.89 852.83,-154.02 886.41,-90.15"/>
<polygon fill="black" stroke="black" points="889.32,-92.13 890.88,-81.65 883.13,-88.87 889.32,-92.13"/>
</g>
<!-- com.practicalddd.cargotracker.booking.domain.model.valueobjects.BookingAmount -->
<g id="node6" class="node">
<title>com.practicalddd.cargotracker.booking.domain.model.valueobjects.BookingAmount</title>
<g id="a_node6"><a xlink:href="./domain.html#com.practicalddd.cargotracker.booking.domain.model.valueobjects.BookingAmount" xlink:title="Domain model representation of the Booking Amount for a new Cargo.\nBookingAmount">
<polygon fill="#eedd82" stroke="black" points="599.12,-310.5 190.88,-310.5 190.88,-269.5 599.12,-269.5 599.12,-310.5"/>
<text text-anchor="middle" x="395" y="-293.2" font-family="Times,serif" font-size="14.00">Domain model representation of the Booking Amount for a new Cargo.</text>
<text text-anchor="middle" x="395" y="-276.7" font-family="Times,serif" font-size="14.00">BookingAmount</text>
</a>
</g>
</g>
<!-- com.practicalddd.cargotracker.booking.domain.model.aggregates.Cargo&#45;&gt;com.practicalddd.cargotracker.booking.domain.model.valueobjects.BookingAmount -->
<g id="edge4" class="edge">
<title>com.practicalddd.cargotracker.booking.domain.model.aggregates.Cargo&#45;&gt;com.practicalddd.cargotracker.booking.domain.model.valueobjects.BookingAmount</title>
<path fill="none" stroke="black" d="M711.6,-365.02C685.05,-359.64 643.69,-351.1 608,-343 567.63,-333.84 523.11,-323.07 485.26,-313.72"/>
<polygon fill="black" stroke="black" points="486.27,-310.37 475.73,-311.36 484.59,-317.16 486.27,-310.37"/>
</g>
<!-- com.practicalddd.cargotracker.booking.domain.model.valueobjects.CargoItinerary -->
<g id="node8" class="node">
<title>com.practicalddd.cargotracker.booking.domain.model.valueobjects.CargoItinerary</title>
<g id="a_node8"><a xlink:href="./domain.html#com.practicalddd.cargotracker.booking.domain.model.valueobjects.CargoItinerary" xlink:title="CargoItinerary">
<polygon fill="#eedd82" stroke="black" points="111.75,-233.5 16.25,-233.5 16.25,-197.5 111.75,-197.5 111.75,-233.5"/>
<text text-anchor="middle" x="64" y="-210.45" font-family="Times,serif" font-size="14.00">CargoItinerary</text>
</a>
</g>
</g>
<!-- com.practicalddd.cargotracker.booking.domain.model.aggregates.Cargo&#45;&gt;com.practicalddd.cargotracker.booking.domain.model.valueobjects.CargoItinerary -->
<g id="edge5" class="edge">
<title>com.practicalddd.cargotracker.booking.domain.model.aggregates.Cargo&#45;&gt;com.practicalddd.cargotracker.booking.domain.model.valueobjects.CargoItinerary</title>
<path fill="none" stroke="black" d="M711.72,-370.73C601.35,-371.45 191.45,-372.12 142,-343 105.13,-321.29 83.3,-274.63 72.49,-244.45"/>
<polygon fill="black" stroke="black" points="75.89,-243.57 69.37,-235.21 69.26,-245.81 75.89,-243.57"/>
</g>
<!-- com.practicalddd.cargotracker.booking.domain.model.valueobjects.Delivery -->
<g id="node9" class="node">
<title>com.practicalddd.cargotracker.booking.domain.model.valueobjects.Delivery</title>
<g id="a_node9"><a xlink:href="./domain.html#com.practicalddd.cargotracker.booking.domain.model.valueobjects.Delivery" xlink:title="Delivery">
<polygon fill="#eedd82" stroke="black" points="680.62,-308 617.38,-308 617.38,-272 680.62,-272 680.62,-308"/>
<text text-anchor="middle" x="649" y="-284.95" font-family="Times,serif" font-size="14.00">Delivery</text>
</a>
</g>
</g>
<!-- com.practicalddd.cargotracker.booking.domain.model.aggregates.Cargo&#45;&gt;com.practicalddd.cargotracker.booking.domain.model.valueobjects.Delivery -->
<g id="edge6" class="edge">
<title>com.practicalddd.cargotracker.booking.domain.model.aggregates.Cargo&#45;&gt;com.practicalddd.cargotracker.booking.domain.model.valueobjects.Delivery</title>
<path fill="none" stroke="black" d="M712.91,-353.09C708.5,-349.87 704.04,-346.43 700,-343 690.46,-334.89 680.67,-325.28 672.26,-316.54"/>
<polygon fill="black" stroke="black" points="674.81,-314.14 665.39,-309.27 669.72,-318.94 674.81,-314.14"/>
</g>
<!-- com.practicalddd.cargotracker.booking.domain.model.valueobjects.LastCargoHandledEvent -->
<g id="node10" class="node">
<title>com.practicalddd.cargotracker.booking.domain.model.valueobjects.LastCargoHandledEvent</title>
<g id="a_node10"><a xlink:href="./domain.html#com.practicalddd.cargotracker.booking.domain.model.valueobjects.LastCargoHandledEvent" xlink:title="LastCargoHandledEvent">
<polygon fill="#eedd82" stroke="black" points="417.75,-233.5 268.25,-233.5 268.25,-197.5 417.75,-197.5 417.75,-233.5"/>
<text text-anchor="middle" x="343" y="-210.45" font-family="Times,serif" font-size="14.00">LastCargoHandledEvent</text>
</a>
</g>
</g>
<!-- com.practicalddd.cargotracker.booking.domain.model.aggregates.Cargo&#45;&gt;com.practicalddd.cargotracker.booking.domain.model.valueobjects.LastCargoHandledEvent -->
<g id="edge7" class="edge">
<title>com.practicalddd.cargotracker.booking.domain.model.aggregates.Cargo&#45;&gt;com.practicalddd.cargotracker.booking.domain.model.valueobjects.LastCargoHandledEvent</title>
<path fill="none" stroke="black" d="M711.65,-370.18C602.15,-368.79 200.44,-362.37 182,-343 157.03,-316.76 160.1,-290.36 182,-261.5 187.15,-254.72 221.41,-244.7 257.01,-235.83"/>
<polygon fill="black" stroke="black" points="257.73,-239.26 266.61,-233.48 256.06,-232.46 257.73,-239.26"/>
</g>
<!-- com.practicalddd.cargotracker.booking.domain.model.valueobjects.RouteSpecification -->
<g id="node12" class="node">
<title>com.practicalddd.cargotracker.booking.domain.model.valueobjects.RouteSpecification</title>
<g id="a_node12"><a xlink:href="./domain.html#com.practicalddd.cargotracker.booking.domain.model.valueobjects.RouteSpecification" xlink:title="RouteSpecification">
<polygon fill="#eedd82" stroke="black" points="249.75,-233.5 130.25,-233.5 130.25,-197.5 249.75,-197.5 249.75,-233.5"/>
<text text-anchor="middle" x="190" y="-210.45" font-family="Times,serif" font-size="14.00">RouteSpecification</text>
</a>
</g>
</g>
<!-- com.practicalddd.cargotracker.booking.domain.model.aggregates.Cargo&#45;&gt;com.practicalddd.cargotracker.booking.domain.model.valueobjects.RouteSpecification -->
<g id="edge8" class="edge">
<title>com.practicalddd.cargotracker.booking.domain.model.aggregates.Cargo&#45;&gt;com.practicalddd.cargotracker.booking.domain.model.valueobjects.RouteSpecification</title>
<path fill="none" stroke="black" d="M711.72,-370.24C599.59,-369.04 179.25,-363.19 160,-343 135,-316.79 149.5,-296.17 160,-261.5 161.95,-255.05 165.17,-248.68 168.78,-242.86"/>
<polygon fill="black" stroke="black" points="171.48,-245.12 174.24,-234.89 165.7,-241.16 171.48,-245.12"/>
</g>
<!-- com.practicalddd.cargotracker.booking.domain.model.commands.RouteCargoCommand -->
<g id="node4" class="node">
<title>com.practicalddd.cargotracker.booking.domain.model.commands.RouteCargoCommand</title>
<g id="a_node4"><a xlink:href="./domain.html#com.practicalddd.cargotracker.booking.domain.model.commands.RouteCargoCommand" xlink:title="Command Class to assign a route to a booked cargo\nRouteCargoCommand">
<polygon fill="#eedd82" stroke="red" points="1423.5,-392 1122.5,-392 1122.5,-351 1423.5,-351 1423.5,-392"/>
<text text-anchor="middle" x="1273" y="-374.7" font-family="Times,serif" font-size="14.00">Command Class to assign a route to a booked cargo</text>
<text text-anchor="middle" x="1273" y="-358.2" font-family="Times,serif" font-size="14.00">RouteCargoCommand</text>
</a>
</g>
</g>
<!-- com.practicalddd.cargotracker.booking.domain.model.valueobjects.CargoHandlingActivity -->
<g id="node7" class="node">
<title>com.practicalddd.cargotracker.booking.domain.model.valueobjects.CargoHandlingActivity</title>
<g id="a_node7"><a xlink:href="./domain.html#com.practicalddd.cargotracker.booking.domain.model.valueobjects.CargoHandlingActivity" xlink:title="A handling activity represents how and where a cargo can be handled, and can\nCargoHandlingActivity">
<polygon fill="#eedd82" stroke="black" points="688.12,-161.5 243.88,-161.5 243.88,-120.5 688.12,-120.5 688.12,-161.5"/>
<text text-anchor="middle" x="466" y="-144.2" font-family="Times,serif" font-size="14.00">A handling activity represents how and where a cargo can be handled, and can</text>
<text text-anchor="middle" x="466" y="-127.7" font-family="Times,serif" font-size="14.00">CargoHandlingActivity</text>
</a>
</g>
</g>
<!-- com.practicalddd.cargotracker.booking.domain.model.valueobjects.CargoHandlingActivity&#45;&gt;com.practicalddd.cargotracker.booking.domain.model.entities.Location -->
<g id="edge17" class="edge">
<title>com.practicalddd.cargotracker.booking.domain.model.valueobjects.CargoHandlingActivity&#45;&gt;com.practicalddd.cargotracker.booking.domain.model.entities.Location</title>
<path fill="none" stroke="black" d="M655.03,-120.01C670.28,-117.72 685.42,-115.22 700,-112.5 741.15,-104.82 786.32,-93.48 823.49,-83.34"/>
<polygon fill="black" stroke="black" points="824.08,-86.81 832.8,-80.78 822.23,-80.06 824.08,-86.81"/>
</g>
<!-- com.practicalddd.cargotracker.booking.domain.model.valueobjects.Voyage -->
<g id="node15" class="node">
<title>com.practicalddd.cargotracker.booking.domain.model.valueobjects.Voyage</title>
<g id="a_node15"><a xlink:href="./domain.html#com.practicalddd.cargotracker.booking.domain.model.valueobjects.Voyage" xlink:title=" Class representing the Cargo Voyage\nVoyage">
<polygon fill="#eedd82" stroke="black" points="335,-80 115,-80 115,-39 335,-39 335,-80"/>
<text text-anchor="middle" x="225" y="-62.7" font-family="Times,serif" font-size="14.00"> Class representing the Cargo Voyage</text>
<text text-anchor="middle" x="225" y="-46.2" font-family="Times,serif" font-size="14.00">Voyage</text>
</a>
</g>
</g>
<!-- com.practicalddd.cargotracker.booking.domain.model.valueobjects.CargoHandlingActivity&#45;&gt;com.practicalddd.cargotracker.booking.domain.model.valueobjects.Voyage -->
<g id="edge18" class="edge">
<title>com.practicalddd.cargotracker.booking.domain.model.valueobjects.CargoHandlingActivity&#45;&gt;com.practicalddd.cargotracker.booking.domain.model.valueobjects.Voyage</title>
<path fill="none" stroke="black" d="M405.5,-120.04C372.26,-109.08 330.86,-95.42 296.09,-83.95"/>
<polygon fill="black" stroke="black" points="297.56,-80.75 286.97,-80.94 295.37,-87.4 297.56,-80.75"/>
</g>
<!-- com.practicalddd.cargotracker.booking.domain.model.valueobjects.Leg -->
<g id="node11" class="node">
<title>com.practicalddd.cargotracker.booking.domain.model.valueobjects.Leg</title>
<g id="a_node11"><a xlink:href="./domain.html#com.practicalddd.cargotracker.booking.domain.model.valueobjects.Leg" xlink:title="Leg">
<polygon fill="#eedd82" stroke="black" points="206,-159 152,-159 152,-123 206,-123 206,-159"/>
<text text-anchor="middle" x="179" y="-135.95" font-family="Times,serif" font-size="14.00">Leg</text>
</a>
</g>
</g>
<!-- com.practicalddd.cargotracker.booking.domain.model.valueobjects.CargoItinerary&#45;&gt;com.practicalddd.cargotracker.booking.domain.model.valueobjects.Leg -->
<g id="edge20" class="edge">
<title>com.practicalddd.cargotracker.booking.domain.model.valueobjects.CargoItinerary&#45;&gt;com.practicalddd.cargotracker.booking.domain.model.valueobjects.Leg</title>
<path fill="none" stroke="black" d="M91.55,-197.13C106.77,-187.54 125.87,-175.5 142.34,-165.11"/>
<polygon fill="black" stroke="black" points="143.81,-168.32 150.4,-160.03 140.07,-162.4 143.81,-168.32"/>
</g>
<!-- com.practicalddd.cargotracker.booking.domain.model.valueobjects.Delivery&#45;&gt;com.practicalddd.cargotracker.booking.domain.model.entities.Location -->
<g id="edge9" class="edge">
<title>com.practicalddd.cargotracker.booking.domain.model.valueobjects.Delivery&#45;&gt;com.practicalddd.cargotracker.booking.domain.model.entities.Location</title>
<path fill="none" stroke="black" d="M664.55,-271.85C674.15,-261.05 686.59,-246.71 697,-233.5 735.25,-184.97 730.73,-160.3 778,-120.5 795.06,-106.14 816.14,-94.28 836.06,-85"/>
<polygon fill="black" stroke="black" points="837.26,-88.3 844.95,-81.01 834.4,-81.91 837.26,-88.3"/>
</g>
<!-- com.practicalddd.cargotracker.booking.domain.model.valueobjects.Delivery&#45;&gt;com.practicalddd.cargotracker.booking.domain.model.valueobjects.CargoHandlingActivity -->
<g id="edge10" class="edge">
<title>com.practicalddd.cargotracker.booking.domain.model.valueobjects.Delivery&#45;&gt;com.practicalddd.cargotracker.booking.domain.model.valueobjects.CargoHandlingActivity</title>
<path fill="none" stroke="black" d="M626.49,-271.61C620.71,-267.8 614.33,-264.13 608,-261.5 548.99,-237.01 507.81,-282.66 467,-233.5 453.32,-217.02 453.77,-192.53 457.26,-173.03"/>
<polygon fill="black" stroke="black" points="460.65,-173.93 459.34,-163.42 453.81,-172.46 460.65,-173.93"/>
</g>
<!-- com.practicalddd.cargotracker.booking.domain.model.valueobjects.Delivery&#45;&gt;com.practicalddd.cargotracker.booking.domain.model.valueobjects.CargoItinerary -->
<g id="edge11" class="edge">
<title>com.practicalddd.cargotracker.booking.domain.model.valueobjects.Delivery&#45;&gt;com.practicalddd.cargotracker.booking.domain.model.valueobjects.CargoItinerary</title>
<path fill="none" stroke="black" d="M627.59,-271.54C621.58,-267.54 614.82,-263.79 608,-261.5 508.45,-228.06 244.94,-250.71 123.33,-233.47"/>
<polygon fill="black" stroke="black" points="123.93,-230.02 113.51,-231.91 122.84,-236.94 123.93,-230.02"/>
</g>
<!-- com.practicalddd.cargotracker.booking.domain.model.valueobjects.Delivery&#45;&gt;com.practicalddd.cargotracker.booking.domain.model.valueobjects.LastCargoHandledEvent -->
<g id="edge12" class="edge">
<title>com.practicalddd.cargotracker.booking.domain.model.valueobjects.Delivery&#45;&gt;com.practicalddd.cargotracker.booking.domain.model.valueobjects.LastCargoHandledEvent</title>
<path fill="none" stroke="black" d="M626.99,-271.72C621.1,-267.81 614.54,-264.07 608,-261.5 534.28,-232.54 510.02,-247.15 432,-233.5 431.16,-233.35 430.31,-233.2 429.46,-233.05"/>
<polygon fill="black" stroke="black" points="430.18,-229.63 419.72,-231.31 428.95,-236.52 430.18,-229.63"/>
</g>
<!-- com.practicalddd.cargotracker.booking.domain.model.valueobjects.Delivery&#45;&gt;com.practicalddd.cargotracker.booking.domain.model.valueobjects.RouteSpecification -->
<g id="edge13" class="edge">
<title>com.practicalddd.cargotracker.booking.domain.model.valueobjects.Delivery&#45;&gt;com.practicalddd.cargotracker.booking.domain.model.valueobjects.RouteSpecification</title>
<path fill="none" stroke="black" d="M627.55,-271.65C621.55,-267.65 614.8,-263.87 608,-261.5 464.51,-211.48 414.93,-256.21 261.33,-233.65"/>
<polygon fill="black" stroke="black" points="262.01,-230.22 251.59,-232.14 260.93,-237.13 262.01,-230.22"/>
</g>
<!-- com.practicalddd.cargotracker.booking.domain.model.valueobjects.RoutingStatus -->
<g id="node13" class="node">
<title>com.practicalddd.cargotracker.booking.domain.model.valueobjects.RoutingStatus</title>
<g id="a_node13"><a xlink:href="./domain.html#com.practicalddd.cargotracker.booking.domain.model.valueobjects.RoutingStatus" xlink:title="RoutingStatus">
<polygon fill="#eedd82" stroke="black" points="688.25,-233.5 595.75,-233.5 595.75,-197.5 688.25,-197.5 688.25,-233.5"/>
<text text-anchor="middle" x="642" y="-210.45" font-family="Times,serif" font-size="14.00">RoutingStatus</text>
</a>
</g>
</g>
<!-- com.practicalddd.cargotracker.booking.domain.model.valueobjects.Delivery&#45;&gt;com.practicalddd.cargotracker.booking.domain.model.valueobjects.RoutingStatus -->
<g id="edge14" class="edge">
<title>com.practicalddd.cargotracker.booking.domain.model.valueobjects.Delivery&#45;&gt;com.practicalddd.cargotracker.booking.domain.model.valueobjects.RoutingStatus</title>
<path fill="none" stroke="black" d="M647.34,-271.82C646.57,-263.78 645.62,-254 644.74,-244.91"/>
<polygon fill="black" stroke="black" points="648.24,-244.68 643.79,-235.06 641.27,-245.35 648.24,-244.68"/>
</g>
<!-- com.practicalddd.cargotracker.booking.domain.model.valueobjects.TransportStatus -->
<g id="node14" class="node">
<title>com.practicalddd.cargotracker.booking.domain.model.valueobjects.TransportStatus</title>
<g id="a_node14"><a xlink:href="./domain.html#com.practicalddd.cargotracker.booking.domain.model.valueobjects.TransportStatus" xlink:title="TransportStatus">
<polygon fill="#eedd82" stroke="black" points="577.75,-233.5 476.25,-233.5 476.25,-197.5 577.75,-197.5 577.75,-233.5"/>
<text text-anchor="middle" x="527" y="-210.45" font-family="Times,serif" font-size="14.00">TransportStatus</text>
</a>
</g>
</g>
<!-- com.practicalddd.cargotracker.booking.domain.model.valueobjects.Delivery&#45;&gt;com.practicalddd.cargotracker.booking.domain.model.valueobjects.TransportStatus -->
<g id="edge15" class="edge">
<title>com.practicalddd.cargotracker.booking.domain.model.valueobjects.Delivery&#45;&gt;com.practicalddd.cargotracker.booking.domain.model.valueobjects.TransportStatus</title>
<path fill="none" stroke="black" d="M623.63,-271.5C618.5,-268.11 613.12,-264.63 608,-261.5 595.66,-253.95 581.99,-246.15 569.45,-239.21"/>
<polygon fill="black" stroke="black" points="571.45,-236.32 561,-234.57 568.09,-242.45 571.45,-236.32"/>
</g>
<!-- com.practicalddd.cargotracker.booking.domain.model.valueobjects.Delivery&#45;&gt;com.practicalddd.cargotracker.booking.domain.model.valueobjects.Voyage -->
<g id="edge16" class="edge">
<title>com.practicalddd.cargotracker.booking.domain.model.valueobjects.Delivery&#45;&gt;com.practicalddd.cargotracker.booking.domain.model.valueobjects.Voyage</title>
<path fill="none" stroke="black" d="M626.53,-271.52C620.75,-267.71 614.36,-264.07 608,-261.5 542.27,-234.97 510.3,-272.32 451,-233.5 434.91,-222.97 443.04,-208.1 427,-197.5 354.57,-149.63 293.67,-225.49 235,-161.5 218.04,-143 216.86,-113.83 219.14,-91.59"/>
<polygon fill="black" stroke="black" points="222.59,-92.24 220.44,-81.86 215.65,-91.31 222.59,-92.24"/>
</g>
<!-- com.practicalddd.cargotracker.booking.domain.model.valueobjects.Leg&#45;&gt;com.practicalddd.cargotracker.booking.domain.model.entities.Location -->
<g id="edge21" class="edge">
<title>com.practicalddd.cargotracker.booking.domain.model.valueobjects.Leg&#45;&gt;com.practicalddd.cargotracker.booking.domain.model.entities.Location</title>
<path fill="none" stroke="black" d="M206.45,-128.49C215.39,-125.28 225.47,-122.2 235,-120.5 336.75,-102.39 597.59,-126.37 700,-112.5 743.6,-106.6 791.32,-94.58 829.42,-83.59"/>
<polygon fill="black" stroke="black" points="830.35,-86.96 838.96,-80.79 828.38,-80.25 830.35,-86.96"/>
</g>
<!-- com.practicalddd.cargotracker.booking.domain.model.valueobjects.Leg&#45;&gt;com.practicalddd.cargotracker.booking.domain.model.valueobjects.Voyage -->
<g id="edge22" class="edge">
<title>com.practicalddd.cargotracker.booking.domain.model.valueobjects.Leg&#45;&gt;com.practicalddd.cargotracker.booking.domain.model.valueobjects.Voyage</title>
<path fill="none" stroke="black" d="M188.98,-122.75C194.52,-113.17 201.57,-100.99 207.96,-89.95"/>
<polygon fill="black" stroke="black" points="210.84,-91.95 212.82,-81.55 204.78,-88.45 210.84,-91.95"/>
</g>
<!-- com.practicalddd.cargotracker.booking.domain.model.valueobjects.RouteSpecification&#45;&gt;com.practicalddd.cargotracker.booking.domain.model.entities.Location -->
<g id="edge19" class="edge">
<title>com.practicalddd.cargotracker.booking.domain.model.valueobjects.RouteSpecification&#45;&gt;com.practicalddd.cargotracker.booking.domain.model.entities.Location</title>
<path fill="none" stroke="black" d="M250.09,-199.1C253.1,-198.51 256.08,-197.98 259,-197.5 355.39,-181.77 607.9,-201.48 697,-161.5 721.09,-150.69 717.6,-134.49 740,-120.5 764.04,-105.49 792.4,-93.39 818.62,-84.09"/>
<polygon fill="black" stroke="black" points="819.57,-87.47 827.88,-80.9 817.29,-80.85 819.57,-87.47"/>
</g>
</g>
</svg>
