<?xml version="1.0" encoding="UTF-8" standalone="no"?>
<!DOCTYPE svg PUBLIC "-//W3C//DTD SVG 1.1//EN"
 "http://www.w3.org/Graphics/SVG/1.1/DTD/svg11.dtd">
<!-- Generated by graphviz version 12.2.0 (20241103.1931)
 -->
<!-- Title: ビジネスルール関連図 Pages: 1 -->
<svg width="1477pt" height="471pt"
 viewBox="0.00 0.00 1477.00 471.25" xmlns="http://www.w3.org/2000/svg" xmlns:xlink="http://www.w3.org/1999/xlink">
<g id="graph0" class="graph" transform="scale(1 1) rotate(0) translate(4 467.25)">
<title>ビジネスルール関連図</title>
<polygon fill="white" stroke="none" points="-4,4 -4,-467.25 1473,-467.25 1473,4 -4,4"/>
<text text-anchor="middle" x="734.5" y="-4.95" font-family="Times New Roman,serif" font-size="14.00">ビジネスルール関連図</text>
<g id="clust1" class="cluster">
<title>cluster_com.practicalddd.cargotracker.booking.domain.model.aggregates</title>
<polygon fill="lemonchiffon" stroke="#eedd82" stroke-width="2" points="704,-284.38 704,-452.75 1077,-452.75 1077,-284.38 704,-284.38"/>
<text text-anchor="middle" x="890.5" y="-435.45" font-family="Times New Roman,serif" font-size="14.00">com.practicalddd.cargotracker.booking.domain.model.aggregates</text>
</g>
<g id="clust2" class="cluster">
<title>cluster_com.practicalddd.cargotracker.booking.domain.model.commands</title>
<polygon fill="lemonchiffon" stroke="#eedd82" stroke-width="2" points="1085,-284.38 1085,-455.25 1461,-455.25 1461,-284.38 1085,-284.38"/>
<text text-anchor="middle" x="1273" y="-437.95" font-family="Times New Roman,serif" font-size="14.00">com.practicalddd.cargotracker.booking.domain.model.commands</text>
</g>
<g id="clust3" class="cluster">
<title>cluster_com.practicalddd.cargotracker.booking.domain.model.entities</title>
<polygon fill="lemonchiffon" stroke="#eedd82" stroke-width="2" points="704,-30.25 704,-111.75 1100,-111.75 1100,-30.25 704,-30.25"/>
<text text-anchor="middle" x="902" y="-94.45" font-family="Times New Roman,serif" font-size="14.00">com.practicalddd.cargotracker.booking.domain.model.entities</text>
</g>
<g id="clust4" class="cluster">
<title>cluster_com.practicalddd.cargotracker.booking.domain.model.valueobjects</title>
<polygon fill="lemonchiffon" stroke="#eedd82" stroke-width="2" points="8,-30.25 8,-373.75 696,-373.75 696,-30.25 8,-30.25"/>
<text text-anchor="middle" x="352" y="-356.45" font-family="Times New Roman,serif" font-size="14.00">com.practicalddd.cargotracker.booking.domain.model.valueobjects</text>
</g>
<!-- com.practicalddd.cargotracker.booking.domain.model.aggregates.BookingId -->
<g id="node1" class="node">
<title>com.practicalddd.cargotracker.booking.domain.model.aggregates.BookingId</title>
<g id="a_node1"><a xlink:href="./domain.html#com.practicalddd.cargotracker.booking.domain.model.aggregates.BookingId" xlink:title="Aggregate Identifier for the Cargo Aggregate\nBookingId">
<polygon fill="#eedd82" stroke="black" points="1069,-333.38 807,-333.38 807,-292.38 1069,-292.38 1069,-333.38"/>
<text text-anchor="middle" x="938" y="-316.07" font-family="Times New Roman,serif" font-size="14.00">Aggregate Identifier for the Cargo Aggregate</text>
<text text-anchor="middle" x="938" y="-299.57" font-family="Times New Roman,serif" font-size="14.00">BookingId</text>
</a>
</g>
</g>
<!-- com.practicalddd.cargotracker.booking.domain.model.aggregates.Cargo -->
<g id="node2" class="node">
<title>com.practicalddd.cargotracker.booking.domain.model.aggregates.Cargo</title>
<g id="a_node2"><a xlink:href="./domain.html#com.practicalddd.cargotracker.booking.domain.model.aggregates.Cargo" xlink:title="Cargo">
<polygon fill="#eedd82" stroke="black" points="766,-420.25 712,-420.25 712,-384.25 766,-384.25 766,-420.25"/>
<text text-anchor="middle" x="739" y="-397.2" font-family="Times New Roman,serif" font-size="14.00">Cargo</text>
</a>
</g>
</g>
<!-- com.practicalddd.cargotracker.booking.domain.model.aggregates.Cargo&#45;&gt;com.practicalddd.cargotracker.booking.domain.model.aggregates.BookingId -->
<g id="edge1" class="edge">
<title>com.practicalddd.cargotracker.booking.domain.model.aggregates.Cargo&#45;&gt;com.practicalddd.cargotracker.booking.domain.model.aggregates.BookingId</title>
<path fill="none" stroke="black" d="M766.25,-389.28C796.03,-376.21 844.53,-354.92 882.41,-338.28"/>
<polygon fill="black" stroke="black" points="883.65,-341.56 891.4,-334.34 880.83,-335.15 883.65,-341.56"/>
</g>
<!-- com.practicalddd.cargotracker.booking.domain.model.commands.BookCargoCommand -->
<g id="node3" class="node">
<title>com.practicalddd.cargotracker.booking.domain.model.commands.BookCargoCommand</title>
<g id="a_node3"><a xlink:href="./domain.html#com.practicalddd.cargotracker.booking.domain.model.commands.BookCargoCommand" xlink:title="Book Cargo Command class\nBookCargoCommand">
<polygon fill="#eedd82" stroke="black" points="1266.75,-333.38 1093.25,-333.38 1093.25,-292.38 1266.75,-292.38 1266.75,-333.38"/>
<text text-anchor="middle" x="1180" y="-316.07" font-family="Times New Roman,serif" font-size="14.00">Book Cargo Command class</text>
<text text-anchor="middle" x="1180" y="-299.57" font-family="Times New Roman,serif" font-size="14.00">BookCargoCommand</text>
</a>
</g>
</g>
<!-- com.practicalddd.cargotracker.booking.domain.model.aggregates.Cargo&#45;&gt;com.practicalddd.cargotracker.booking.domain.model.commands.BookCargoCommand -->
<g id="edge2" class="edge">
<title>com.practicalddd.cargotracker.booking.domain.model.aggregates.Cargo&#45;&gt;com.practicalddd.cargotracker.booking.domain.model.commands.BookCargoCommand</title>
<path fill="none" stroke="black" d="M766.36,-400.67C836.74,-398.92 1022.61,-392.59 1081,-373.75 1104.01,-366.33 1127.27,-352.65 1145.45,-340.24"/>
<polygon fill="black" stroke="black" points="1147.33,-343.19 1153.5,-334.58 1143.31,-337.47 1147.33,-343.19"/>
</g>
<!-- com.practicalddd.cargotracker.booking.domain.model.entities.Location -->
<g id="node5" class="node">
<title>com.practicalddd.cargotracker.booking.domain.model.entities.Location</title>
<g id="a_node5"><a xlink:href="./domain.html#com.practicalddd.cargotracker.booking.domain.model.entities.Location" xlink:title="Location class represented by a unique 5&#45;diigit UN Location code.\nLocation">
<polygon fill="#eedd82" stroke="black" points="1091.5,-79.25 712.5,-79.25 712.5,-38.25 1091.5,-38.25 1091.5,-79.25"/>
<text text-anchor="middle" x="902" y="-61.95" font-family="Times New Roman,serif" font-size="14.00">Location class represented by a unique 5&#45;diigit UN Location code.</text>
<text text-anchor="middle" x="902" y="-45.45" font-family="Times New Roman,serif" font-size="14.00">Location</text>
</a>
</g>
</g>
<!-- com.practicalddd.cargotracker.booking.domain.model.aggregates.Cargo&#45;&gt;com.practicalddd.cargotracker.booking.domain.model.entities.Location -->
<g id="edge3" class="edge">
<title>com.practicalddd.cargotracker.booking.domain.model.aggregates.Cargo&#45;&gt;com.practicalddd.cargotracker.booking.domain.model.entities.Location</title>
<path fill="none" stroke="black" d="M747.31,-383.85C773.48,-329.01 854.45,-159.38 887.61,-89.9"/>
<polygon fill="black" stroke="black" points="890.71,-91.54 891.85,-81.01 884.39,-88.52 890.71,-91.54"/>
</g>
<!-- com.practicalddd.cargotracker.booking.domain.model.valueobjects.BookingAmount -->
<g id="node6" class="node">
<title>com.practicalddd.cargotracker.booking.domain.model.valueobjects.BookingAmount</title>
<g id="a_node6"><a xlink:href="./domain.html#com.practicalddd.cargotracker.booking.domain.model.valueobjects.BookingAmount" xlink:title="Domain model representation of the Booking Amount for a new Cargo.&#13;\nBookingAmount">
<polygon fill="#eedd82" stroke="black" points="599.12,-341.25 190.88,-341.25 190.88,-284.5 599.12,-284.5 599.12,-341.25"/>
<text text-anchor="middle" x="395" y="-323.95" font-family="Times New Roman,serif" font-size="14.00">Domain model representation of the Booking Amount for a new Cargo.&#13;</text>
<text text-anchor="middle" x="395" y="-291.7" font-family="Times New Roman,serif" font-size="14.00">BookingAmount</text>
</a>
</g>
</g>
<!-- com.practicalddd.cargotracker.booking.domain.model.aggregates.Cargo&#45;&gt;com.practicalddd.cargotracker.booking.domain.model.valueobjects.BookingAmount -->
<g id="edge4" class="edge">
<title>com.practicalddd.cargotracker.booking.domain.model.aggregates.Cargo&#45;&gt;com.practicalddd.cargotracker.booking.domain.model.valueobjects.BookingAmount</title>
<path fill="none" stroke="black" d="M711.53,-396.04C684.94,-390.87 643.55,-382.47 608,-373.75 572.57,-365.06 534.11,-354.58 499.75,-344.83"/>
<polygon fill="black" stroke="black" points="500.78,-341.48 490.2,-342.11 498.86,-348.22 500.78,-341.48"/>
</g>
<!-- com.practicalddd.cargotracker.booking.domain.model.valueobjects.CargoItinerary -->
<g id="node8" class="node">
<title>com.practicalddd.cargotracker.booking.domain.model.valueobjects.CargoItinerary</title>
<g id="a_node8"><a xlink:href="./domain.html#com.practicalddd.cargotracker.booking.domain.model.valueobjects.CargoItinerary" xlink:title="CargoItinerary">
<polygon fill="#eedd82" stroke="black" points="111.75,-248.5 16.25,-248.5 16.25,-212.5 111.75,-212.5 111.75,-248.5"/>
<text text-anchor="middle" x="64" y="-225.45" font-family="Times New Roman,serif" font-size="14.00">CargoItinerary</text>
</a>
</g>
</g>
<!-- com.practicalddd.cargotracker.booking.domain.model.aggregates.Cargo&#45;&gt;com.practicalddd.cargotracker.booking.domain.model.valueobjects.CargoItinerary -->
<g id="edge5" class="edge">
<title>com.practicalddd.cargotracker.booking.domain.model.aggregates.Cargo&#45;&gt;com.practicalddd.cargotracker.booking.domain.model.valueobjects.CargoItinerary</title>
<path fill="none" stroke="black" d="M711.63,-401.56C600.89,-402.58 189.7,-404.3 141,-373.75 100.36,-348.25 79.67,-293.43 70.4,-259.78"/>
<polygon fill="black" stroke="black" points="73.84,-259.12 67.96,-250.31 67.07,-260.86 73.84,-259.12"/>
</g>
<!-- com.practicalddd.cargotracker.booking.domain.model.valueobjects.Delivery -->
<g id="node9" class="node">
<title>com.practicalddd.cargotracker.booking.domain.model.valueobjects.Delivery</title>
<g id="a_node9"><a xlink:href="./domain.html#com.practicalddd.cargotracker.booking.domain.model.valueobjects.Delivery" xlink:title="Delivery">
<polygon fill="#eedd82" stroke="black" points="680.62,-330.88 617.38,-330.88 617.38,-294.88 680.62,-294.88 680.62,-330.88"/>
<text text-anchor="middle" x="649" y="-307.82" font-family="Times New Roman,serif" font-size="14.00">Delivery</text>
</a>
</g>
</g>
<!-- com.practicalddd.cargotracker.booking.domain.model.aggregates.Cargo&#45;&gt;com.practicalddd.cargotracker.booking.domain.model.valueobjects.Delivery -->
<g id="edge6" class="edge">
<title>com.practicalddd.cargotracker.booking.domain.model.aggregates.Cargo&#45;&gt;com.practicalddd.cargotracker.booking.domain.model.valueobjects.Delivery</title>
<path fill="none" stroke="black" d="M712.29,-383.77C708.04,-380.61 703.79,-377.21 700,-373.75 688.81,-363.54 677.74,-350.93 668.79,-339.93"/>
<polygon fill="black" stroke="black" points="671.72,-337.98 662.75,-332.33 666.23,-342.34 671.72,-337.98"/>
</g>
<!-- com.practicalddd.cargotracker.booking.domain.model.valueobjects.LastCargoHandledEvent -->
<g id="node10" class="node">
<title>com.practicalddd.cargotracker.booking.domain.model.valueobjects.LastCargoHandledEvent</title>
<g id="a_node10"><a xlink:href="./domain.html#com.practicalddd.cargotracker.booking.domain.model.valueobjects.LastCargoHandledEvent" xlink:title="LastCargoHandledEvent">
<polygon fill="#eedd82" stroke="black" points="417.75,-248.5 268.25,-248.5 268.25,-212.5 417.75,-212.5 417.75,-248.5"/>
<text text-anchor="middle" x="343" y="-225.45" font-family="Times New Roman,serif" font-size="14.00">LastCargoHandledEvent</text>
</a>
</g>
</g>
<!-- com.practicalddd.cargotracker.booking.domain.model.aggregates.Cargo&#45;&gt;com.practicalddd.cargotracker.booking.domain.model.valueobjects.LastCargoHandledEvent -->
<g id="edge7" class="edge">
<title>com.practicalddd.cargotracker.booking.domain.model.aggregates.Cargo&#45;&gt;com.practicalddd.cargotracker.booking.domain.model.valueobjects.LastCargoHandledEvent</title>
<path fill="none" stroke="black" d="M711.65,-400.93C602.15,-399.54 200.44,-393.12 182,-373.75 154.61,-344.98 158.7,-316.55 182,-284.38 191.73,-270.94 224.14,-259.08 257.36,-250.01"/>
<polygon fill="black" stroke="black" points="257.9,-253.49 266.68,-247.55 256.12,-246.72 257.9,-253.49"/>
</g>
<!-- com.practicalddd.cargotracker.booking.domain.model.valueobjects.RouteSpecification -->
<g id="node12" class="node">
<title>com.practicalddd.cargotracker.booking.domain.model.valueobjects.RouteSpecification</title>
<g id="a_node12"><a xlink:href="./domain.html#com.practicalddd.cargotracker.booking.domain.model.valueobjects.RouteSpecification" xlink:title="RouteSpecification">
<polygon fill="#eedd82" stroke="black" points="249.75,-248.5 130.25,-248.5 130.25,-212.5 249.75,-212.5 249.75,-248.5"/>
<text text-anchor="middle" x="190" y="-225.45" font-family="Times New Roman,serif" font-size="14.00">RouteSpecification</text>
</a>
</g>
</g>
<!-- com.practicalddd.cargotracker.booking.domain.model.aggregates.Cargo&#45;&gt;com.practicalddd.cargotracker.booking.domain.model.valueobjects.RouteSpecification -->
<g id="edge8" class="edge">
<title>com.practicalddd.cargotracker.booking.domain.model.aggregates.Cargo&#45;&gt;com.practicalddd.cargotracker.booking.domain.model.valueobjects.RouteSpecification</title>
<path fill="none" stroke="black" d="M711.67,-400.99C599.35,-399.79 178.28,-393.97 159,-373.75 129.41,-342.72 152.65,-290.35 171.69,-258.55"/>
<polygon fill="black" stroke="black" points="174.53,-260.62 176.86,-250.28 168.59,-256.91 174.53,-260.62"/>
</g>
<!-- com.practicalddd.cargotracker.booking.domain.model.commands.RouteCargoCommand -->
<g id="node4" class="node">
<title>com.practicalddd.cargotracker.booking.domain.model.commands.RouteCargoCommand</title>
<g id="a_node4"><a xlink:href="./domain.html#com.practicalddd.cargotracker.booking.domain.model.commands.RouteCargoCommand" xlink:title="Command Class to assign a route to a booked cargo\nRouteCargoCommand">
<polygon fill="#eedd82" stroke="red" points="1423.5,-422.75 1122.5,-422.75 1122.5,-381.75 1423.5,-381.75 1423.5,-422.75"/>
<text text-anchor="middle" x="1273" y="-405.45" font-family="Times New Roman,serif" font-size="14.00">Command Class to assign a route to a booked cargo</text>
<text text-anchor="middle" x="1273" y="-388.95" font-family="Times New Roman,serif" font-size="14.00">RouteCargoCommand</text>
</a>
</g>
</g>
<!-- com.practicalddd.cargotracker.booking.domain.model.valueobjects.CargoHandlingActivity -->
<g id="node7" class="node">
<title>com.practicalddd.cargotracker.booking.domain.model.valueobjects.CargoHandlingActivity</title>
<g id="a_node7"><a xlink:href="./domain.html#com.practicalddd.cargotracker.booking.domain.model.valueobjects.CargoHandlingActivity" xlink:title="A handling activity represents how and where a cargo can be handled, and can&#13;\nCargoHandlingActivity">
<polygon fill="#eedd82" stroke="black" points="688.12,-176.5 243.88,-176.5 243.88,-119.75 688.12,-119.75 688.12,-176.5"/>
<text text-anchor="middle" x="466" y="-159.2" font-family="Times New Roman,serif" font-size="14.00">A handling activity represents how and where a cargo can be handled, and can&#13;</text>
<text text-anchor="middle" x="466" y="-126.95" font-family="Times New Roman,serif" font-size="14.00">CargoHandlingActivity</text>
</a>
</g>
</g>
<!-- com.practicalddd.cargotracker.booking.domain.model.valueobjects.CargoHandlingActivity&#45;&gt;com.practicalddd.cargotracker.booking.domain.model.entities.Location -->
<g id="edge9" class="edge">
<title>com.practicalddd.cargotracker.booking.domain.model.valueobjects.CargoHandlingActivity&#45;&gt;com.practicalddd.cargotracker.booking.domain.model.entities.Location</title>
<path fill="none" stroke="black" d="M660.35,-119.3C673.8,-116.9 687.12,-114.37 700,-111.75 740.21,-103.56 784.4,-92.43 821.17,-82.57"/>
<polygon fill="black" stroke="black" points="821.63,-86.07 830.37,-80.09 819.8,-79.31 821.63,-86.07"/>
</g>
<!-- com.practicalddd.cargotracker.booking.domain.model.valueobjects.Voyage -->
<g id="node15" class="node">
<title>com.practicalddd.cargotracker.booking.domain.model.valueobjects.Voyage</title>
<g id="a_node15"><a xlink:href="./domain.html#com.practicalddd.cargotracker.booking.domain.model.valueobjects.Voyage" xlink:title=" Class representing the Cargo Voyage\nVoyage">
<polygon fill="#eedd82" stroke="black" points="335,-79.25 115,-79.25 115,-38.25 335,-38.25 335,-79.25"/>
<text text-anchor="middle" x="225" y="-61.95" font-family="Times New Roman,serif" font-size="14.00"> Class representing the Cargo Voyage</text>
<text text-anchor="middle" x="225" y="-45.45" font-family="Times New Roman,serif" font-size="14.00">Voyage</text>
</a>
</g>
</g>
<!-- com.practicalddd.cargotracker.booking.domain.model.valueobjects.CargoHandlingActivity&#45;&gt;com.practicalddd.cargotracker.booking.domain.model.valueobjects.Voyage -->
<g id="edge10" class="edge">
<title>com.practicalddd.cargotracker.booking.domain.model.valueobjects.CargoHandlingActivity&#45;&gt;com.practicalddd.cargotracker.booking.domain.model.valueobjects.Voyage</title>
<path fill="none" stroke="black" d="M389.41,-119.36C357.61,-107.83 321.07,-94.58 290.52,-83.51"/>
<polygon fill="black" stroke="black" points="292.01,-80.32 281.41,-80.2 289.62,-86.9 292.01,-80.32"/>
</g>
<!-- com.practicalddd.cargotracker.booking.domain.model.valueobjects.Leg -->
<g id="node11" class="node">
<title>com.practicalddd.cargotracker.booking.domain.model.valueobjects.Leg</title>
<g id="a_node11"><a xlink:href="./domain.html#com.practicalddd.cargotracker.booking.domain.model.valueobjects.Leg" xlink:title="Leg">
<polygon fill="#eedd82" stroke="black" points="206,-166.12 152,-166.12 152,-130.12 206,-130.12 206,-166.12"/>
<text text-anchor="middle" x="179" y="-143.07" font-family="Times New Roman,serif" font-size="14.00">Leg</text>
</a>
</g>
</g>
<!-- com.practicalddd.cargotracker.booking.domain.model.valueobjects.CargoItinerary&#45;&gt;com.practicalddd.cargotracker.booking.domain.model.valueobjects.Leg -->
<g id="edge11" class="edge">
<title>com.practicalddd.cargotracker.booking.domain.model.valueobjects.CargoItinerary&#45;&gt;com.practicalddd.cargotracker.booking.domain.model.valueobjects.Leg</title>
<path fill="none" stroke="black" d="M88.95,-212.06C105.38,-200.58 127.09,-185.41 145.08,-172.83"/>
<polygon fill="black" stroke="black" points="146.66,-176 152.85,-167.4 142.65,-170.26 146.66,-176"/>
</g>
<!-- com.practicalddd.cargotracker.booking.domain.model.valueobjects.Delivery&#45;&gt;com.practicalddd.cargotracker.booking.domain.model.entities.Location -->
<g id="edge12" class="edge">
<title>com.practicalddd.cargotracker.booking.domain.model.valueobjects.Delivery&#45;&gt;com.practicalddd.cargotracker.booking.domain.model.entities.Location</title>
<path fill="none" stroke="black" d="M662.87,-294.42C672.69,-281.86 686.01,-264.39 697,-248.5 735.44,-192.89 727.62,-164.83 778,-119.75 794.16,-105.29 814.44,-93.54 833.88,-84.4"/>
<polygon fill="black" stroke="black" points="835.2,-87.65 842.88,-80.35 832.32,-81.26 835.2,-87.65"/>
</g>
<!-- com.practicalddd.cargotracker.booking.domain.model.valueobjects.Delivery&#45;&gt;com.practicalddd.cargotracker.booking.domain.model.valueobjects.CargoHandlingActivity -->
<g id="edge13" class="edge">
<title>com.practicalddd.cargotracker.booking.domain.model.valueobjects.Delivery&#45;&gt;com.practicalddd.cargotracker.booking.domain.model.valueobjects.CargoHandlingActivity</title>
<path fill="none" stroke="black" d="M625.95,-294.43C620.3,-290.72 614.1,-287.1 608,-284.38 548.96,-258.01 506.94,-299.35 467,-248.5 453.9,-231.83 453.15,-208.26 455.91,-188.27"/>
<polygon fill="black" stroke="black" points="459.34,-188.93 457.61,-178.47 452.45,-187.73 459.34,-188.93"/>
</g>
<!-- com.practicalddd.cargotracker.booking.domain.model.valueobjects.Delivery&#45;&gt;com.practicalddd.cargotracker.booking.domain.model.valueobjects.CargoItinerary -->
<g id="edge14" class="edge">
<title>com.practicalddd.cargotracker.booking.domain.model.valueobjects.Delivery&#45;&gt;com.practicalddd.cargotracker.booking.domain.model.valueobjects.CargoItinerary</title>
<path fill="none" stroke="black" d="M627.56,-294.49C621.56,-290.49 614.81,-286.72 608,-284.38 406.34,-214.81 336.84,-285.22 123.29,-248.63"/>
<polygon fill="black" stroke="black" points="123.97,-245.19 113.51,-246.88 122.75,-252.08 123.97,-245.19"/>
</g>
<!-- com.practicalddd.cargotracker.booking.domain.model.valueobjects.Delivery&#45;&gt;com.practicalddd.cargotracker.booking.domain.model.valueobjects.LastCargoHandledEvent -->
<g id="edge15" class="edge">
<title>com.practicalddd.cargotracker.booking.domain.model.valueobjects.Delivery&#45;&gt;com.practicalddd.cargotracker.booking.domain.model.valueobjects.LastCargoHandledEvent</title>
<path fill="none" stroke="black" d="M626.49,-294.48C620.71,-290.68 614.33,-287.01 608,-284.38 603.74,-282.61 504.71,-263.06 428.95,-248.24"/>
<polygon fill="black" stroke="black" points="429.93,-244.86 419.44,-246.38 428.58,-251.73 429.93,-244.86"/>
</g>
<!-- com.practicalddd.cargotracker.booking.domain.model.valueobjects.Delivery&#45;&gt;com.practicalddd.cargotracker.booking.domain.model.valueobjects.RouteSpecification -->
<g id="edge16" class="edge">
<title>com.practicalddd.cargotracker.booking.domain.model.valueobjects.Delivery&#45;&gt;com.practicalddd.cargotracker.booking.domain.model.valueobjects.RouteSpecification</title>
<path fill="none" stroke="black" d="M627.52,-294.63C621.51,-290.62 614.77,-286.82 608,-284.38 464.78,-232.64 414.97,-273.19 261.35,-248.71"/>
<polygon fill="black" stroke="black" points="262.04,-245.28 251.6,-247.08 260.89,-252.18 262.04,-245.28"/>
</g>
<!-- com.practicalddd.cargotracker.booking.domain.model.valueobjects.RoutingStatus -->
<g id="node13" class="node">
<title>com.practicalddd.cargotracker.booking.domain.model.valueobjects.RoutingStatus</title>
<g id="a_node13"><a xlink:href="./domain.html#com.practicalddd.cargotracker.booking.domain.model.valueobjects.RoutingStatus" xlink:title="RoutingStatus">
<polygon fill="#eedd82" stroke="black" points="688.25,-248.5 595.75,-248.5 595.75,-212.5 688.25,-212.5 688.25,-248.5"/>
<text text-anchor="middle" x="642" y="-225.45" font-family="Times New Roman,serif" font-size="14.00">RoutingStatus</text>
</a>
</g>
</g>
<!-- com.practicalddd.cargotracker.booking.domain.model.valueobjects.Delivery&#45;&gt;com.practicalddd.cargotracker.booking.domain.model.valueobjects.RoutingStatus -->
<g id="edge17" class="edge">
<title>com.practicalddd.cargotracker.booking.domain.model.valueobjects.Delivery&#45;&gt;com.practicalddd.cargotracker.booking.domain.model.valueobjects.RoutingStatus</title>
<path fill="none" stroke="black" d="M647.48,-294.43C646.61,-284.43 645.49,-271.62 644.5,-260.17"/>
<polygon fill="black" stroke="black" points="648,-260.07 643.65,-250.41 641.03,-260.68 648,-260.07"/>
</g>
<!-- com.practicalddd.cargotracker.booking.domain.model.valueobjects.TransportStatus -->
<g id="node14" class="node">
<title>com.practicalddd.cargotracker.booking.domain.model.valueobjects.TransportStatus</title>
<g id="a_node14"><a xlink:href="./domain.html#com.practicalddd.cargotracker.booking.domain.model.valueobjects.TransportStatus" xlink:title="TransportStatus">
<polygon fill="#eedd82" stroke="black" points="577.75,-248.5 476.25,-248.5 476.25,-212.5 577.75,-212.5 577.75,-248.5"/>
<text text-anchor="middle" x="527" y="-225.45" font-family="Times New Roman,serif" font-size="14.00">TransportStatus</text>
</a>
</g>
</g>
<!-- com.practicalddd.cargotracker.booking.domain.model.valueobjects.Delivery&#45;&gt;com.practicalddd.cargotracker.booking.domain.model.valueobjects.TransportStatus -->
<g id="edge18" class="edge">
<title>com.practicalddd.cargotracker.booking.domain.model.valueobjects.Delivery&#45;&gt;com.practicalddd.cargotracker.booking.domain.model.valueobjects.TransportStatus</title>
<path fill="none" stroke="black" d="M623.44,-294.66C618.34,-291.24 613,-287.69 608,-284.38 593.32,-274.66 577.08,-264.04 563.03,-254.88"/>
<polygon fill="black" stroke="black" points="565.25,-252.15 554.96,-249.63 561.43,-258.02 565.25,-252.15"/>
</g>
<!-- com.practicalddd.cargotracker.booking.domain.model.valueobjects.Delivery&#45;&gt;com.practicalddd.cargotracker.booking.domain.model.valueobjects.Voyage -->
<g id="edge19" class="edge">
<title>com.practicalddd.cargotracker.booking.domain.model.valueobjects.Delivery&#45;&gt;com.practicalddd.cargotracker.booking.domain.model.valueobjects.Voyage</title>
<path fill="none" stroke="black" d="M626.43,-294.61C620.66,-290.8 614.29,-287.09 608,-284.38 542.29,-255.99 509.92,-289.13 451,-248.5 435.17,-237.58 443.04,-223.1 427,-212.5 354.57,-164.63 293.25,-240.88 235,-176.5 214.29,-153.61 214.62,-116.83 218.32,-90.67"/>
<polygon fill="black" stroke="black" points="221.74,-91.42 219.95,-80.98 214.84,-90.27 221.74,-91.42"/>
</g>
<!-- com.practicalddd.cargotracker.booking.domain.model.valueobjects.Leg&#45;&gt;com.practicalddd.cargotracker.booking.domain.model.entities.Location -->
<g id="edge20" class="edge">
<title>com.practicalddd.cargotracker.booking.domain.model.valueobjects.Leg&#45;&gt;com.practicalddd.cargotracker.booking.domain.model.entities.Location</title>
<path fill="none" stroke="black" d="M206.3,-130.82C215.15,-126.36 225.21,-122.1 235,-119.75 285.24,-107.67 648.79,-118.68 700,-111.75 743.6,-105.85 791.32,-93.83 829.42,-82.84"/>
<polygon fill="black" stroke="black" points="830.35,-86.21 838.96,-80.04 828.38,-79.5 830.35,-86.21"/>
</g>
<!-- com.practicalddd.cargotracker.booking.domain.model.valueobjects.Leg&#45;&gt;com.practicalddd.cargotracker.booking.domain.model.valueobjects.Voyage -->
<g id="edge21" class="edge">
<title>com.practicalddd.cargotracker.booking.domain.model.valueobjects.Leg&#45;&gt;com.practicalddd.cargotracker.booking.domain.model.valueobjects.Voyage</title>
<path fill="none" stroke="black" d="M188.09,-129.86C194.14,-118.37 202.25,-102.97 209.32,-89.53"/>
<polygon fill="black" stroke="black" points="212.22,-91.55 213.78,-81.07 206.02,-88.29 212.22,-91.55"/>
</g>
<!-- com.practicalddd.cargotracker.booking.domain.model.valueobjects.RouteSpecification&#45;&gt;com.practicalddd.cargotracker.booking.domain.model.entities.Location -->
<g id="edge22" class="edge">
<title>com.practicalddd.cargotracker.booking.domain.model.valueobjects.RouteSpecification&#45;&gt;com.practicalddd.cargotracker.booking.domain.model.entities.Location</title>
<path fill="none" stroke="black" d="M250.09,-214.1C253.1,-213.51 256.08,-212.98 259,-212.5 355.39,-196.77 611.4,-223.51 697,-176.5 724.74,-161.27 714.59,-138.61 740,-119.75 760.87,-104.26 786.18,-92.38 810.53,-83.44"/>
<polygon fill="black" stroke="black" points="811.56,-86.79 819.83,-80.16 809.24,-80.18 811.56,-86.79"/>
</g>
</g>
</svg>
