<?xml version="1.0" encoding="UTF-8" standalone="no"?>
<!DOCTYPE svg PUBLIC "-//W3C//DTD SVG 1.1//EN"
 "http://www.w3.org/Graphics/SVG/1.1/DTD/svg11.dtd">
<!-- Generated by graphviz version 12.2.0 (20241103.1931)
 -->
<!-- Title: ビジネスルール関連図 Pages: 1 -->
<svg width="1594pt" height="482pt"
 viewBox="0.00 0.00 1594.00 481.88" xmlns="http://www.w3.org/2000/svg" xmlns:xlink="http://www.w3.org/1999/xlink">
<g id="graph0" class="graph" transform="scale(1 1) rotate(0) translate(4 477.88)">
<title>ビジネスルール関連図</title>
<polygon fill="white" stroke="none" points="-4,4 -4,-477.88 1590,-477.88 1590,4 -4,4"/>
<text text-anchor="middle" x="793" y="-4.95" font-family="Times New Roman,serif" font-size="14.00">ビジネスルール関連図</text>
<g id="clust1" class="cluster">
<title>cluster_com.practicalddd.cargotracker.booking.domain.model.aggregates</title>
<polygon fill="lemonchiffon" stroke="#eedd82" stroke-width="2" points="821,-290.5 821,-465.88 1194,-465.88 1194,-290.5 821,-290.5"/>
<text text-anchor="middle" x="1007.5" y="-448.57" font-family="Times New Roman,serif" font-size="14.00">com.practicalddd.cargotracker.booking.domain.model.aggregates</text>
</g>
<g id="clust2" class="cluster">
<title>cluster_com.practicalddd.cargotracker.booking.domain.model.commands</title>
<polygon fill="lemonchiffon" stroke="#eedd82" stroke-width="2" points="1202,-299.5 1202,-465.88 1578,-465.88 1578,-299.5 1202,-299.5"/>
<text text-anchor="middle" x="1390" y="-448.57" font-family="Times New Roman,serif" font-size="14.00">com.practicalddd.cargotracker.booking.domain.model.commands</text>
</g>
<g id="clust3" class="cluster">
<title>cluster_com.practicalddd.cargotracker.booking.domain.model.entities</title>
<polygon fill="lemonchiffon" stroke="#eedd82" stroke-width="2" points="821,-30.25 821,-125.25 1176,-125.25 1176,-30.25 821,-30.25"/>
<text text-anchor="middle" x="998.5" y="-107.95" font-family="Times New Roman,serif" font-size="14.00">com.practicalddd.cargotracker.booking.domain.model.entities</text>
</g>
<g id="clust4" class="cluster">
<title>cluster_com.practicalddd.cargotracker.booking.domain.model.valueobjects</title>
<polygon fill="lemonchiffon" stroke="#eedd82" stroke-width="2" points="8,-38.12 8,-386.62 813,-386.62 813,-38.12 8,-38.12"/>
<text text-anchor="middle" x="410.5" y="-369.32" font-family="Times New Roman,serif" font-size="14.00">com.practicalddd.cargotracker.booking.domain.model.valueobjects</text>
</g>
<!-- com.practicalddd.cargotracker.booking.domain.model.aggregates.BookingId -->
<g id="node1" class="node">
<title>com.practicalddd.cargotracker.booking.domain.model.aggregates.BookingId</title>
<g id="a_node1"><a xlink:href="./domain.html#com.practicalddd.cargotracker.booking.domain.model.aggregates.BookingId" xlink:title="予約ID&#13;\nBookingId">
<polygon fill="#eedd82" stroke="black" points="972.88,-355.25 899.12,-355.25 899.12,-298.5 972.88,-298.5 972.88,-355.25"/>
<text text-anchor="middle" x="936" y="-337.95" font-family="Times New Roman,serif" font-size="14.00">予約ID&#13;</text>
<text text-anchor="middle" x="936" y="-305.7" font-family="Times New Roman,serif" font-size="14.00">BookingId</text>
</a>
</g>
</g>
<!-- com.practicalddd.cargotracker.booking.domain.model.aggregates.Cargo -->
<g id="node2" class="node">
<title>com.practicalddd.cargotracker.booking.domain.model.aggregates.Cargo</title>
<g id="a_node2"><a xlink:href="./domain.html#com.practicalddd.cargotracker.booking.domain.model.aggregates.Cargo" xlink:title="貨物\nCargo">
<polygon fill="#eedd82" stroke="black" points="883,-433.38 829,-433.38 829,-394.62 883,-394.62 883,-433.38"/>
<text text-anchor="middle" x="856" y="-416.07" font-family="Times New Roman,serif" font-size="14.00">貨物</text>
<text text-anchor="middle" x="856" y="-401.82" font-family="Times New Roman,serif" font-size="14.00">Cargo</text>
</a>
</g>
</g>
<!-- com.practicalddd.cargotracker.booking.domain.model.aggregates.Cargo&#45;&gt;com.practicalddd.cargotracker.booking.domain.model.aggregates.BookingId -->
<g id="edge1" class="edge">
<title>com.practicalddd.cargotracker.booking.domain.model.aggregates.Cargo&#45;&gt;com.practicalddd.cargotracker.booking.domain.model.aggregates.BookingId</title>
<path fill="none" stroke="black" d="M877.18,-394.27C879.86,-391.75 882.53,-389.16 885,-386.62 891.85,-379.61 898.92,-371.85 905.53,-364.33"/>
<polygon fill="black" stroke="black" points="908.14,-366.67 912.04,-356.82 902.85,-362.08 908.14,-366.67"/>
</g>
<!-- com.practicalddd.cargotracker.booking.domain.model.commands.BookCargoCommand -->
<g id="node3" class="node">
<title>com.practicalddd.cargotracker.booking.domain.model.commands.BookCargoCommand</title>
<g id="a_node3"><a xlink:href="./domain.html#com.practicalddd.cargotracker.booking.domain.model.commands.BookCargoCommand" xlink:title="貨物予約\nBookCargoCommand">
<polygon fill="#eedd82" stroke="black" points="1346,-346.25 1210,-346.25 1210,-307.5 1346,-307.5 1346,-346.25"/>
<text text-anchor="middle" x="1278" y="-328.95" font-family="Times New Roman,serif" font-size="14.00">貨物予約</text>
<text text-anchor="middle" x="1278" y="-314.7" font-family="Times New Roman,serif" font-size="14.00">BookCargoCommand</text>
</a>
</g>
</g>
<!-- com.practicalddd.cargotracker.booking.domain.model.aggregates.Cargo&#45;&gt;com.practicalddd.cargotracker.booking.domain.model.commands.BookCargoCommand -->
<g id="edge2" class="edge">
<title>com.practicalddd.cargotracker.booking.domain.model.aggregates.Cargo&#45;&gt;com.practicalddd.cargotracker.booking.domain.model.commands.BookCargoCommand</title>
<path fill="none" stroke="black" d="M883.46,-412.82C954.08,-412.04 1140.49,-407.96 1198,-386.62 1217.4,-379.43 1236.2,-366.06 1250.7,-353.89"/>
<polygon fill="black" stroke="black" points="1252.76,-356.74 1257.99,-347.53 1248.16,-351.46 1252.76,-356.74"/>
</g>
<!-- com.practicalddd.cargotracker.booking.domain.model.entities.Location -->
<g id="node5" class="node">
<title>com.practicalddd.cargotracker.booking.domain.model.entities.Location</title>
<g id="a_node5"><a xlink:href="./domain.html#com.practicalddd.cargotracker.booking.domain.model.entities.Location" xlink:title="位置&#13;\nLocation">
<polygon fill="#eedd82" stroke="black" points="893,-92.75 829,-92.75 829,-38.25 893,-38.25 893,-92.75"/>
<text text-anchor="middle" x="861" y="-75.45" font-family="Times New Roman,serif" font-size="14.00">位置&#13;</text>
<text text-anchor="middle" x="861" y="-45.45" font-family="Times New Roman,serif" font-size="14.00">Location</text>
</a>
</g>
</g>
<!-- com.practicalddd.cargotracker.booking.domain.model.aggregates.Cargo&#45;&gt;com.practicalddd.cargotracker.booking.domain.model.entities.Location -->
<g id="edge3" class="edge">
<title>com.practicalddd.cargotracker.booking.domain.model.aggregates.Cargo&#45;&gt;com.practicalddd.cargotracker.booking.domain.model.entities.Location</title>
<path fill="none" stroke="black" d="M856.27,-394.37C857.06,-339.53 859.39,-177.9 860.46,-104.06"/>
<polygon fill="black" stroke="black" points="863.95,-104.56 860.6,-94.51 856.95,-104.46 863.95,-104.56"/>
</g>
<!-- com.practicalddd.cargotracker.booking.domain.model.valueobjects.BookingAmount -->
<g id="node6" class="node">
<title>com.practicalddd.cargotracker.booking.domain.model.valueobjects.BookingAmount</title>
<g id="a_node6"><a xlink:href="./domain.html#com.practicalddd.cargotracker.booking.domain.model.valueobjects.BookingAmount" xlink:title="予約数量&#13;\nBookingAmount">
<polygon fill="#eedd82" stroke="black" points="527.75,-354.12 420.25,-354.12 420.25,-299.62 527.75,-299.62 527.75,-354.12"/>
<text text-anchor="middle" x="474" y="-336.82" font-family="Times New Roman,serif" font-size="14.00">予約数量&#13;</text>
<text text-anchor="middle" x="474" y="-306.82" font-family="Times New Roman,serif" font-size="14.00">BookingAmount</text>
</a>
</g>
</g>
<!-- com.practicalddd.cargotracker.booking.domain.model.aggregates.Cargo&#45;&gt;com.practicalddd.cargotracker.booking.domain.model.valueobjects.BookingAmount -->
<g id="edge4" class="edge">
<title>com.practicalddd.cargotracker.booking.domain.model.aggregates.Cargo&#45;&gt;com.practicalddd.cargotracker.booking.domain.model.valueobjects.BookingAmount</title>
<path fill="none" stroke="black" d="M828.68,-413.05C761.14,-412.81 588.04,-409.89 536,-386.62 523.64,-381.1 512.22,-372.05 502.63,-362.69"/>
<polygon fill="black" stroke="black" points="505.21,-360.32 495.75,-355.55 500.17,-365.18 505.21,-360.32"/>
</g>
<!-- com.practicalddd.cargotracker.booking.domain.model.valueobjects.CargoItinerary -->
<g id="node8" class="node">
<title>com.practicalddd.cargotracker.booking.domain.model.valueobjects.CargoItinerary</title>
<g id="a_node8"><a xlink:href="./domain.html#com.practicalddd.cargotracker.booking.domain.model.valueobjects.CargoItinerary" xlink:title="貨物旅程\nCargoItinerary">
<polygon fill="#eedd82" stroke="black" points="111.75,-262.5 16.25,-262.5 16.25,-223.75 111.75,-223.75 111.75,-262.5"/>
<text text-anchor="middle" x="64" y="-245.2" font-family="Times New Roman,serif" font-size="14.00">貨物旅程</text>
<text text-anchor="middle" x="64" y="-230.95" font-family="Times New Roman,serif" font-size="14.00">CargoItinerary</text>
</a>
</g>
</g>
<!-- com.practicalddd.cargotracker.booking.domain.model.aggregates.Cargo&#45;&gt;com.practicalddd.cargotracker.booking.domain.model.valueobjects.CargoItinerary -->
<g id="edge5" class="edge">
<title>com.practicalddd.cargotracker.booking.domain.model.aggregates.Cargo&#45;&gt;com.practicalddd.cargotracker.booking.domain.model.valueobjects.CargoItinerary</title>
<path fill="none" stroke="black" d="M828.52,-412.83C716.33,-411.99 296.38,-407.49 241,-386.62 176.95,-362.49 118.42,-305.62 87.35,-271.47"/>
<polygon fill="black" stroke="black" points="89.97,-269.15 80.7,-264.02 84.75,-273.81 89.97,-269.15"/>
</g>
<!-- com.practicalddd.cargotracker.booking.domain.model.valueobjects.Delivery -->
<g id="node9" class="node">
<title>com.practicalddd.cargotracker.booking.domain.model.valueobjects.Delivery</title>
<g id="a_node9"><a xlink:href="./domain.html#com.practicalddd.cargotracker.booking.domain.model.valueobjects.Delivery" xlink:title="配送&#13;\nDelivery">
<polygon fill="#eedd82" stroke="black" points="608.62,-354.12 545.38,-354.12 545.38,-299.62 608.62,-299.62 608.62,-354.12"/>
<text text-anchor="middle" x="577" y="-336.82" font-family="Times New Roman,serif" font-size="14.00">配送&#13;</text>
<text text-anchor="middle" x="577" y="-306.82" font-family="Times New Roman,serif" font-size="14.00">Delivery</text>
</a>
</g>
</g>
<!-- com.practicalddd.cargotracker.booking.domain.model.aggregates.Cargo&#45;&gt;com.practicalddd.cargotracker.booking.domain.model.valueobjects.Delivery -->
<g id="edge6" class="edge">
<title>com.practicalddd.cargotracker.booking.domain.model.aggregates.Cargo&#45;&gt;com.practicalddd.cargotracker.booking.domain.model.valueobjects.Delivery</title>
<path fill="none" stroke="black" d="M828.74,-404.68C780.05,-389.83 677.8,-358.63 619.71,-340.91"/>
<polygon fill="black" stroke="black" points="621.09,-337.67 610.5,-338.1 619.04,-344.36 621.09,-337.67"/>
</g>
<!-- com.practicalddd.cargotracker.booking.domain.model.valueobjects.LastCargoHandledEvent -->
<g id="node10" class="node">
<title>com.practicalddd.cargotracker.booking.domain.model.valueobjects.LastCargoHandledEvent</title>
<g id="a_node10"><a xlink:href="./domain.html#com.practicalddd.cargotracker.booking.domain.model.valueobjects.LastCargoHandledEvent" xlink:title="最終荷役イベント\nLastCargoHandledEvent">
<polygon fill="#eedd82" stroke="black" points="456,-262.5 302,-262.5 302,-223.75 456,-223.75 456,-262.5"/>
<text text-anchor="middle" x="379" y="-245.2" font-family="Times New Roman,serif" font-size="14.00">最終荷役イベント</text>
<text text-anchor="middle" x="379" y="-230.95" font-family="Times New Roman,serif" font-size="14.00">LastCargoHandledEvent</text>
</a>
</g>
</g>
<!-- com.practicalddd.cargotracker.booking.domain.model.aggregates.Cargo&#45;&gt;com.practicalddd.cargotracker.booking.domain.model.valueobjects.LastCargoHandledEvent -->
<g id="edge7" class="edge">
<title>com.practicalddd.cargotracker.booking.domain.model.aggregates.Cargo&#45;&gt;com.practicalddd.cargotracker.booking.domain.model.valueobjects.LastCargoHandledEvent</title>
<path fill="none" stroke="black" d="M828.82,-413.25C737.07,-413.86 442.8,-413.66 411,-386.62 378.83,-359.27 374.97,-307.2 376.21,-274.14"/>
<polygon fill="black" stroke="black" points="379.68,-274.6 376.76,-264.42 372.7,-274.2 379.68,-274.6"/>
</g>
<!-- com.practicalddd.cargotracker.booking.domain.model.valueobjects.RouteSpecification -->
<g id="node12" class="node">
<title>com.practicalddd.cargotracker.booking.domain.model.valueobjects.RouteSpecification</title>
<g id="a_node12"><a xlink:href="./domain.html#com.practicalddd.cargotracker.booking.domain.model.valueobjects.RouteSpecification" xlink:title="貨物のルート仕様\nRouteSpecification">
<polygon fill="#eedd82" stroke="black" points="284,-262.5 130,-262.5 130,-223.75 284,-223.75 284,-262.5"/>
<text text-anchor="middle" x="207" y="-245.2" font-family="Times New Roman,serif" font-size="14.00">貨物のルート仕様</text>
<text text-anchor="middle" x="207" y="-230.95" font-family="Times New Roman,serif" font-size="14.00">RouteSpecification</text>
</a>
</g>
</g>
<!-- com.practicalddd.cargotracker.booking.domain.model.aggregates.Cargo&#45;&gt;com.practicalddd.cargotracker.booking.domain.model.valueobjects.RouteSpecification -->
<g id="edge8" class="edge">
<title>com.practicalddd.cargotracker.booking.domain.model.aggregates.Cargo&#45;&gt;com.practicalddd.cargotracker.booking.domain.model.valueobjects.RouteSpecification</title>
<path fill="none" stroke="black" d="M828.67,-412.54C732.66,-410.78 414.34,-403.7 372,-386.62 311.1,-362.06 256.96,-305.34 228.39,-271.33"/>
<polygon fill="black" stroke="black" points="231.38,-269.46 222.32,-263.97 225.98,-273.91 231.38,-269.46"/>
</g>
<!-- com.practicalddd.cargotracker.booking.domain.model.commands.RouteCargoCommand -->
<g id="node4" class="node">
<title>com.practicalddd.cargotracker.booking.domain.model.commands.RouteCargoCommand</title>
<g id="a_node4"><a xlink:href="./domain.html#com.practicalddd.cargotracker.booking.domain.model.commands.RouteCargoCommand" xlink:title="貨物経路\nRouteCargoCommand">
<polygon fill="#eedd82" stroke="red" points="1459.5,-433.38 1320.5,-433.38 1320.5,-394.62 1459.5,-394.62 1459.5,-433.38"/>
<text text-anchor="middle" x="1390" y="-416.07" font-family="Times New Roman,serif" font-size="14.00">貨物経路</text>
<text text-anchor="middle" x="1390" y="-401.82" font-family="Times New Roman,serif" font-size="14.00">RouteCargoCommand</text>
</a>
</g>
</g>
<!-- com.practicalddd.cargotracker.booking.domain.model.valueobjects.CargoHandlingActivity -->
<g id="node7" class="node">
<title>com.practicalddd.cargotracker.booking.domain.model.valueobjects.CargoHandlingActivity</title>
<g id="a_node7"><a xlink:href="./domain.html#com.practicalddd.cargotracker.booking.domain.model.valueobjects.CargoHandlingActivity" xlink:title="荷役&#13;\nCargoHandlingActivity">
<polygon fill="#eedd82" stroke="black" points="637.75,-187.75 494.25,-187.75 494.25,-133.25 637.75,-133.25 637.75,-187.75"/>
<text text-anchor="middle" x="566" y="-170.45" font-family="Times New Roman,serif" font-size="14.00">荷役&#13;</text>
<text text-anchor="middle" x="566" y="-140.45" font-family="Times New Roman,serif" font-size="14.00">CargoHandlingActivity</text>
</a>
</g>
</g>
<!-- com.practicalddd.cargotracker.booking.domain.model.valueobjects.CargoHandlingActivity&#45;&gt;com.practicalddd.cargotracker.booking.domain.model.entities.Location -->
<g id="edge9" class="edge">
<title>com.practicalddd.cargotracker.booking.domain.model.valueobjects.CargoHandlingActivity&#45;&gt;com.practicalddd.cargotracker.booking.domain.model.entities.Location</title>
<path fill="none" stroke="black" d="M637.99,-145.59C662.94,-141.14 691.13,-136.53 717,-133.25 739.12,-130.45 797.48,-136.01 817,-125.25 826.77,-119.86 835.01,-111.28 841.62,-102.33"/>
<polygon fill="black" stroke="black" points="844.38,-104.49 847.06,-94.24 838.57,-100.58 844.38,-104.49"/>
</g>
<!-- com.practicalddd.cargotracker.booking.domain.model.valueobjects.Voyage -->
<g id="node15" class="node">
<title>com.practicalddd.cargotracker.booking.domain.model.valueobjects.Voyage</title>
<g id="a_node15"><a xlink:href="./domain.html#com.practicalddd.cargotracker.booking.domain.model.valueobjects.Voyage" xlink:title="航海\nVoyage">
<polygon fill="#eedd82" stroke="black" points="503.25,-84.88 446.75,-84.88 446.75,-46.12 503.25,-46.12 503.25,-84.88"/>
<text text-anchor="middle" x="475" y="-67.58" font-family="Times New Roman,serif" font-size="14.00">航海</text>
<text text-anchor="middle" x="475" y="-53.33" font-family="Times New Roman,serif" font-size="14.00">Voyage</text>
</a>
</g>
</g>
<!-- com.practicalddd.cargotracker.booking.domain.model.valueobjects.CargoHandlingActivity&#45;&gt;com.practicalddd.cargotracker.booking.domain.model.valueobjects.Voyage -->
<g id="edge10" class="edge">
<title>com.practicalddd.cargotracker.booking.domain.model.valueobjects.CargoHandlingActivity&#45;&gt;com.practicalddd.cargotracker.booking.domain.model.valueobjects.Voyage</title>
<path fill="none" stroke="black" d="M540.17,-133.1C528.04,-120.71 513.61,-105.96 501.41,-93.49"/>
<polygon fill="black" stroke="black" points="503.93,-91.07 494.44,-86.37 498.93,-95.96 503.93,-91.07"/>
</g>
<!-- com.practicalddd.cargotracker.booking.domain.model.valueobjects.Leg -->
<g id="node11" class="node">
<title>com.practicalddd.cargotracker.booking.domain.model.valueobjects.Leg</title>
<g id="a_node11"><a xlink:href="./domain.html#com.practicalddd.cargotracker.booking.domain.model.valueobjects.Leg" xlink:title="旅程\nLeg">
<polygon fill="#eedd82" stroke="black" points="456,-179.88 402,-179.88 402,-141.12 456,-141.12 456,-179.88"/>
<text text-anchor="middle" x="429" y="-162.57" font-family="Times New Roman,serif" font-size="14.00">旅程</text>
<text text-anchor="middle" x="429" y="-148.32" font-family="Times New Roman,serif" font-size="14.00">Leg</text>
</a>
</g>
</g>
<!-- com.practicalddd.cargotracker.booking.domain.model.valueobjects.CargoItinerary&#45;&gt;com.practicalddd.cargotracker.booking.domain.model.valueobjects.Leg -->
<g id="edge11" class="edge">
<title>com.practicalddd.cargotracker.booking.domain.model.valueobjects.CargoItinerary&#45;&gt;com.practicalddd.cargotracker.booking.domain.model.valueobjects.Leg</title>
<path fill="none" stroke="black" d="M112.09,-226.2C115.1,-225.34 118.08,-224.51 121,-223.75 216.79,-198.71 331.57,-177.89 390.26,-167.89"/>
<polygon fill="black" stroke="black" points="390.8,-171.35 400.08,-166.23 389.64,-164.44 390.8,-171.35"/>
</g>
<!-- com.practicalddd.cargotracker.booking.domain.model.valueobjects.Delivery&#45;&gt;com.practicalddd.cargotracker.booking.domain.model.entities.Location -->
<g id="edge12" class="edge">
<title>com.practicalddd.cargotracker.booking.domain.model.valueobjects.Delivery&#45;&gt;com.practicalddd.cargotracker.booking.domain.model.entities.Location</title>
<path fill="none" stroke="black" d="M608.68,-321.46C666.42,-312.79 785.47,-291.78 814,-262.5 835.65,-240.28 849.85,-154.84 856.54,-104.39"/>
<polygon fill="black" stroke="black" points="860.01,-104.85 857.81,-94.49 853.07,-103.96 860.01,-104.85"/>
</g>
<!-- com.practicalddd.cargotracker.booking.domain.model.valueobjects.Delivery&#45;&gt;com.practicalddd.cargotracker.booking.domain.model.valueobjects.CargoHandlingActivity -->
<g id="edge13" class="edge">
<title>com.practicalddd.cargotracker.booking.domain.model.valueobjects.Delivery&#45;&gt;com.practicalddd.cargotracker.booking.domain.model.valueobjects.CargoHandlingActivity</title>
<path fill="none" stroke="black" d="M546.87,-299.2C543.54,-296.26 540.2,-293.32 537,-290.5 522.81,-278.02 512.81,-279.71 505,-262.5 497.88,-246.82 498.49,-239.69 505,-223.75 509.12,-213.66 515.74,-204.33 523.14,-196.12"/>
<polygon fill="black" stroke="black" points="525.53,-198.68 530,-189.07 520.52,-193.8 525.53,-198.68"/>
</g>
<!-- com.practicalddd.cargotracker.booking.domain.model.valueobjects.Delivery&#45;&gt;com.practicalddd.cargotracker.booking.domain.model.valueobjects.CargoItinerary -->
<g id="edge14" class="edge">
<title>com.practicalddd.cargotracker.booking.domain.model.valueobjects.Delivery&#45;&gt;com.practicalddd.cargotracker.booking.domain.model.valueobjects.CargoItinerary</title>
<path fill="none" stroke="black" d="M551.59,-299.19C547.06,-295.73 542.13,-292.64 537,-290.5 454.51,-256.05 228.64,-278.26 123.04,-262.4"/>
<polygon fill="black" stroke="black" points="123.93,-259 113.48,-260.76 122.74,-265.9 123.93,-259"/>
</g>
<!-- com.practicalddd.cargotracker.booking.domain.model.valueobjects.Delivery&#45;&gt;com.practicalddd.cargotracker.booking.domain.model.valueobjects.LastCargoHandledEvent -->
<g id="edge15" class="edge">
<title>com.practicalddd.cargotracker.booking.domain.model.valueobjects.Delivery&#45;&gt;com.practicalddd.cargotracker.booking.domain.model.valueobjects.LastCargoHandledEvent</title>
<path fill="none" stroke="black" d="M550.23,-299.44C546.01,-296.12 541.54,-293.01 537,-290.5 515.62,-278.68 490.9,-269.59 467.46,-262.71"/>
<polygon fill="black" stroke="black" points="468.47,-259.36 457.89,-260.02 466.57,-266.1 468.47,-259.36"/>
</g>
<!-- com.practicalddd.cargotracker.booking.domain.model.valueobjects.Delivery&#45;&gt;com.practicalddd.cargotracker.booking.domain.model.valueobjects.RouteSpecification -->
<g id="edge16" class="edge">
<title>com.practicalddd.cargotracker.booking.domain.model.valueobjects.Delivery&#45;&gt;com.practicalddd.cargotracker.booking.domain.model.valueobjects.RouteSpecification</title>
<path fill="none" stroke="black" d="M551.5,-299.4C546.98,-295.91 542.08,-292.76 537,-290.5 440.61,-247.55 403.22,-277.97 295.63,-262.74"/>
<polygon fill="black" stroke="black" points="296.2,-259.29 285.78,-261.23 295.14,-266.21 296.2,-259.29"/>
</g>
<!-- com.practicalddd.cargotracker.booking.domain.model.valueobjects.RoutingStatus -->
<g id="node13" class="node">
<title>com.practicalddd.cargotracker.booking.domain.model.valueobjects.RoutingStatus</title>
<g id="a_node13"><a xlink:href="./domain.html#com.practicalddd.cargotracker.booking.domain.model.valueobjects.RoutingStatus" xlink:title="経路ステータス\nRoutingStatus">
<polygon fill="#eedd82" stroke="black" points="805.38,-262.5 668.62,-262.5 668.62,-223.75 805.38,-223.75 805.38,-262.5"/>
<text text-anchor="middle" x="737" y="-245.2" font-family="Times New Roman,serif" font-size="14.00">経路ステータス</text>
<text text-anchor="middle" x="737" y="-230.95" font-family="Times New Roman,serif" font-size="14.00">RoutingStatus</text>
</a>
</g>
</g>
<!-- com.practicalddd.cargotracker.booking.domain.model.valueobjects.Delivery&#45;&gt;com.practicalddd.cargotracker.booking.domain.model.valueobjects.RoutingStatus -->
<g id="edge17" class="edge">
<title>com.practicalddd.cargotracker.booking.domain.model.valueobjects.Delivery&#45;&gt;com.practicalddd.cargotracker.booking.domain.model.valueobjects.RoutingStatus</title>
<path fill="none" stroke="black" d="M608.99,-309.53C632.26,-297.64 664.12,-281.36 690.24,-268.02"/>
<polygon fill="black" stroke="black" points="691.64,-271.23 698.96,-263.56 688.46,-265 691.64,-271.23"/>
</g>
<!-- com.practicalddd.cargotracker.booking.domain.model.valueobjects.TransportStatus -->
<g id="node14" class="node">
<title>com.practicalddd.cargotracker.booking.domain.model.valueobjects.TransportStatus</title>
<g id="a_node14"><a xlink:href="./domain.html#com.practicalddd.cargotracker.booking.domain.model.valueobjects.TransportStatus" xlink:title="輸送ステータス\nTransportStatus">
<polygon fill="#eedd82" stroke="black" points="650.38,-262.5 513.62,-262.5 513.62,-223.75 650.38,-223.75 650.38,-262.5"/>
<text text-anchor="middle" x="582" y="-245.2" font-family="Times New Roman,serif" font-size="14.00">輸送ステータス</text>
<text text-anchor="middle" x="582" y="-230.95" font-family="Times New Roman,serif" font-size="14.00">TransportStatus</text>
</a>
</g>
</g>
<!-- com.practicalddd.cargotracker.booking.domain.model.valueobjects.Delivery&#45;&gt;com.practicalddd.cargotracker.booking.domain.model.valueobjects.TransportStatus -->
<g id="edge18" class="edge">
<title>com.practicalddd.cargotracker.booking.domain.model.valueobjects.Delivery&#45;&gt;com.practicalddd.cargotracker.booking.domain.model.valueobjects.TransportStatus</title>
<path fill="none" stroke="black" d="M578.61,-299.56C579.11,-291.44 579.66,-282.43 580.17,-274.09"/>
<polygon fill="black" stroke="black" points="583.64,-274.59 580.76,-264.39 576.66,-274.16 583.64,-274.59"/>
</g>
<!-- com.practicalddd.cargotracker.booking.domain.model.valueobjects.Delivery&#45;&gt;com.practicalddd.cargotracker.booking.domain.model.valueobjects.Voyage -->
<g id="edge19" class="edge">
<title>com.practicalddd.cargotracker.booking.domain.model.valueobjects.Delivery&#45;&gt;com.practicalddd.cargotracker.booking.domain.model.valueobjects.Voyage</title>
<path fill="none" stroke="black" d="M547.64,-299.18C544.11,-296.19 540.51,-293.23 537,-290.5 519.59,-276.94 507.7,-281.21 496,-262.5 463.95,-211.24 466.13,-137.4 470.56,-96.55"/>
<polygon fill="black" stroke="black" points="474.02,-97.08 471.76,-86.73 467.08,-96.23 474.02,-97.08"/>
</g>
<!-- com.practicalddd.cargotracker.booking.domain.model.valueobjects.Leg&#45;&gt;com.practicalddd.cargotracker.booking.domain.model.entities.Location -->
<g id="edge20" class="edge">
<title>com.practicalddd.cargotracker.booking.domain.model.valueobjects.Leg&#45;&gt;com.practicalddd.cargotracker.booking.domain.model.entities.Location</title>
<path fill="none" stroke="black" d="M456.38,-143.91C465.23,-139.63 475.28,-135.54 485,-133.25 520.92,-124.79 784.2,-142.16 817,-125.25 827,-120.09 835.34,-111.5 841.97,-102.46"/>
<polygon fill="black" stroke="black" points="844.8,-104.52 847.43,-94.26 838.97,-100.65 844.8,-104.52"/>
</g>
<!-- com.practicalddd.cargotracker.booking.domain.model.valueobjects.Leg&#45;&gt;com.practicalddd.cargotracker.booking.domain.model.valueobjects.Voyage -->
<g id="edge21" class="edge">
<title>com.practicalddd.cargotracker.booking.domain.model.valueobjects.Leg&#45;&gt;com.practicalddd.cargotracker.booking.domain.model.valueobjects.Voyage</title>
<path fill="none" stroke="black" d="M438.31,-140.68C444.73,-127.7 453.39,-110.19 460.69,-95.44"/>
<polygon fill="black" stroke="black" points="463.74,-97.16 465.03,-86.65 457.46,-94.06 463.74,-97.16"/>
</g>
<!-- com.practicalddd.cargotracker.booking.domain.model.valueobjects.RouteSpecification&#45;&gt;com.practicalddd.cargotracker.booking.domain.model.entities.Location -->
<g id="edge22" class="edge">
<title>com.practicalddd.cargotracker.booking.domain.model.valueobjects.RouteSpecification&#45;&gt;com.practicalddd.cargotracker.booking.domain.model.entities.Location</title>
<path fill="none" stroke="black" d="M284.28,-225.2C287.22,-224.69 290.13,-224.2 293,-223.75 449.23,-199.19 492.91,-223.31 647,-187.75 725.44,-169.65 752.44,-173.33 817,-125.25 825.39,-119 832.93,-110.72 839.29,-102.35"/>
<polygon fill="black" stroke="black" points="842.14,-104.38 845.08,-94.2 836.44,-100.32 842.14,-104.38"/>
</g>
</g>
</svg>
