<?xml version="1.0" encoding="UTF-8" standalone="no"?>
<!DOCTYPE svg PUBLIC "-//W3C//DTD SVG 1.1//EN"
 "http://www.w3.org/Graphics/SVG/1.1/DTD/svg11.dtd">
<!-- Generated by graphviz version 12.2.0 (20241103.1931)
 -->
<!-- Title: 区分図 Pages: 1 -->
<svg width="301pt" height="199pt"
 viewBox="0.00 0.00 300.62 198.75" xmlns="http://www.w3.org/2000/svg" xmlns:xlink="http://www.w3.org/1999/xlink">
<g id="graph0" class="graph" transform="scale(1 1) rotate(0) translate(4 172.5)">
<title>区分図</title>
<polygon fill="white" stroke="none" points="-4,26.25 -4,-172.5 296.62,-172.5 296.62,26.25 -4,26.25"/>
<text text-anchor="middle" x="146.31" y="17.3" font-family="Times New Roman,serif" font-size="14.00">区分図</text>
<!-- com.practicalddd.cargotracker.booking.domain.model.valueobjects.TransportStatus -->
<g id="node1" class="node">
<title>com.practicalddd.cargotracker.booking.domain.model.valueobjects.TransportStatus</title>
<g id="a_node1"><a xlink:href="./enum.html#com.practicalddd.cargotracker.booking.domain.model.valueobjects.TransportStatus" xlink:title="&lt;TABLE&gt;">
<polygon fill="lemonchiffon" stroke="black" points="154,-168.5 0,-168.5 0,-27.5 154,-27.5 154,-168.5"/>
<text text-anchor="start" x="34.25" y="-149.2" font-family="Times New Roman,serif" font-size="14.00">TransportStatus</text>
<polygon fill="none" stroke="black" points="8,-121.5 8,-144 146,-144 146,-121.5 8,-121.5"/>
<text text-anchor="start" x="26.38" y="-127.7" font-family="Times New Roman,serif" font-size="14.00">NOT_RECEIVED</text>
<polygon fill="none" stroke="black" points="8,-99 8,-121.5 146,-121.5 146,-99 8,-99"/>
<text text-anchor="start" x="49.63" y="-105.2" font-family="Times New Roman,serif" font-size="14.00">IN_PORT</text>
<polygon fill="none" stroke="black" points="8,-76.5 8,-99 146,-99 146,-76.5 8,-76.5"/>
<text text-anchor="start" x="11" y="-82.7" font-family="Times New Roman,serif" font-size="14.00">ONBOARD_CARRIER</text>
<polygon fill="none" stroke="black" points="8,-54 8,-76.5 146,-76.5 146,-54 8,-54"/>
<text text-anchor="start" x="45.88" y="-60.2" font-family="Times New Roman,serif" font-size="14.00">CLAIMED</text>
<polygon fill="none" stroke="black" points="8,-31.5 8,-54 146,-54 146,-31.5 8,-31.5"/>
<text text-anchor="start" x="41" y="-37.7" font-family="Times New Roman,serif" font-size="14.00">UNKNOWN</text>
</a>
</g>
</g>
<!-- com.practicalddd.cargotracker.booking.domain.model.valueobjects.RoutingStatus -->
<g id="node2" class="node">
<title>com.practicalddd.cargotracker.booking.domain.model.valueobjects.RoutingStatus</title>
<g id="a_node2"><a xlink:href="./enum.html#com.practicalddd.cargotracker.booking.domain.model.valueobjects.RoutingStatus" xlink:title="&lt;TABLE&gt;">
<polygon fill="lemonchiffon" stroke="black" points="292.62,-96 181.38,-96 181.38,0 292.62,0 292.62,-96"/>
<text text-anchor="start" x="198.75" y="-76.7" font-family="Times New Roman,serif" font-size="14.00">RoutingStatus</text>
<polygon fill="none" stroke="black" points="189.38,-49 189.38,-71.5 284.62,-71.5 284.62,-49 189.38,-49"/>
<text text-anchor="start" x="192.38" y="-55.2" font-family="Times New Roman,serif" font-size="14.00">NOT_ROUTED</text>
<polygon fill="none" stroke="black" points="189.38,-26.5 189.38,-49 284.62,-49 284.62,-26.5 189.38,-26.5"/>
<text text-anchor="start" x="209.63" y="-32.7" font-family="Times New Roman,serif" font-size="14.00">ROUTED</text>
<polygon fill="none" stroke="black" points="189.38,-4 189.38,-26.5 284.62,-26.5 284.62,-4 189.38,-4"/>
<text text-anchor="start" x="197.25" y="-10.2" font-family="Times New Roman,serif" font-size="14.00">MISROUTED</text>
</a>
</g>
</g>
</g>
</svg>
