<?xml version="1.0" encoding="UTF-8" standalone="no"?>
<!DOCTYPE svg PUBLIC "-//W3C//DTD SVG 1.1//EN"
 "http://www.w3.org/Graphics/SVG/1.1/DTD/svg11.dtd">
<!-- Generated by graphviz version 12.1.2 (20240928.0832)
 -->
<!-- Title: 区分使用図 Pages: 1 -->
<svg width="299pt" height="121pt"
 viewBox="0.00 0.00 298.75 121.00" xmlns="http://www.w3.org/2000/svg" xmlns:xlink="http://www.w3.org/1999/xlink">
<g id="graph0" class="graph" transform="scale(1 1) rotate(0) translate(4 117)">
<title>区分使用図</title>
<polygon fill="white" stroke="none" points="-4,4 -4,-117 294.75,-117 294.75,4 -4,4"/>
<text text-anchor="middle" x="145.38" y="-5.7" font-family="Times,serif" font-size="14.00">区分使用図</text>
<!-- com.practicalddd.cargotracker.booking.domain.model.valueobjects.RoutingStatus -->
<g id="node1" class="node">
<title>com.practicalddd.cargotracker.booking.domain.model.valueobjects.RoutingStatus</title>
<polygon fill="lemonchiffon" stroke="black" points="286.25,-113 197.75,-113 193.75,-109 193.75,-77 282.25,-77 286.25,-81 286.25,-113"/>
<polyline fill="none" stroke="black" points="282.25,-109 193.75,-109"/>
<polyline fill="none" stroke="black" points="282.25,-109 282.25,-77"/>
<polyline fill="none" stroke="black" points="282.25,-109 286.25,-113"/>
<text text-anchor="middle" x="240" y="-89.95" font-family="Times,serif" font-size="14.00">RoutingStatus</text>
</g>
<!-- com.practicalddd.cargotracker.booking.domain.model.valueobjects.TransportStatus -->
<g id="node2" class="node">
<title>com.practicalddd.cargotracker.booking.domain.model.valueobjects.TransportStatus</title>
<polygon fill="lemonchiffon" stroke="black" points="290.75,-59 193.25,-59 189.25,-55 189.25,-23 286.75,-23 290.75,-27 290.75,-59"/>
<polyline fill="none" stroke="black" points="286.75,-55 189.25,-55"/>
<polyline fill="none" stroke="black" points="286.75,-55 286.75,-23"/>
<polyline fill="none" stroke="black" points="286.75,-55 290.75,-59"/>
<text text-anchor="middle" x="240" y="-35.95" font-family="Times,serif" font-size="14.00">TransportStatus</text>
</g>
<!-- com.practicalddd.cargotracker.booking.domain.model.aggregates.Cargo -->
<g id="node3" class="node">
<title>com.practicalddd.cargotracker.booking.domain.model.aggregates.Cargo</title>
<g id="a_node3"><a xlink:href="./domain.html#com.practicalddd.cargotracker.booking.domain.model.aggregates.Cargo" xlink:title="Cargo">
<polygon fill="white" stroke="black" points="54,-86 0,-86 0,-50 54,-50 54,-86"/>
<text text-anchor="middle" x="27" y="-62.95" font-family="Times,serif" font-size="14.00">Cargo</text>
</a>
</g>
</g>
<!-- com.practicalddd.cargotracker.booking.domain.model.valueobjects.Delivery -->
<g id="node4" class="node">
<title>com.practicalddd.cargotracker.booking.domain.model.valueobjects.Delivery</title>
<g id="a_node4"><a xlink:href="./domain.html#com.practicalddd.cargotracker.booking.domain.model.valueobjects.Delivery" xlink:title="Delivery">
<polygon fill="white" stroke="black" points="153.25,-86 90,-86 90,-50 153.25,-50 153.25,-86"/>
<text text-anchor="middle" x="121.62" y="-62.95" font-family="Times,serif" font-size="14.00">Delivery</text>
</a>
</g>
</g>
<!-- com.practicalddd.cargotracker.booking.domain.model.aggregates.Cargo&#45;&gt;com.practicalddd.cargotracker.booking.domain.model.valueobjects.Delivery -->
<g id="edge2" class="edge">
<title>com.practicalddd.cargotracker.booking.domain.model.aggregates.Cargo&#45;&gt;com.practicalddd.cargotracker.booking.domain.model.valueobjects.Delivery</title>
<path fill="none" stroke="black" d="M54.29,-68C61.78,-68 70.14,-68 78.32,-68"/>
<polygon fill="black" stroke="black" points="78.16,-71.5 88.16,-68 78.16,-64.5 78.16,-71.5"/>
</g>
<!-- com.practicalddd.cargotracker.booking.domain.model.valueobjects.Delivery&#45;&gt;com.practicalddd.cargotracker.booking.domain.model.valueobjects.RoutingStatus -->
<g id="edge1" class="edge">
<title>com.practicalddd.cargotracker.booking.domain.model.valueobjects.Delivery&#45;&gt;com.practicalddd.cargotracker.booking.domain.model.valueobjects.RoutingStatus</title>
<path fill="none" stroke="black" d="M153.51,-75.16C162.41,-77.23 172.42,-79.55 182.36,-81.86"/>
<polygon fill="black" stroke="black" points="181.5,-85.25 192.03,-84.1 183.08,-78.43 181.5,-85.25"/>
</g>
<!-- com.practicalddd.cargotracker.booking.domain.model.valueobjects.Delivery&#45;&gt;com.practicalddd.cargotracker.booking.domain.model.valueobjects.TransportStatus -->
<g id="edge3" class="edge">
<title>com.practicalddd.cargotracker.booking.domain.model.valueobjects.Delivery&#45;&gt;com.practicalddd.cargotracker.booking.domain.model.valueobjects.TransportStatus</title>
<path fill="none" stroke="black" d="M153.51,-60.84C161.09,-59.08 169.48,-57.13 177.94,-55.17"/>
<polygon fill="black" stroke="black" points="178.63,-58.6 187.59,-52.93 177.05,-51.78 178.63,-58.6"/>
</g>
</g>
</svg>
