<?xml version="1.0" encoding="UTF-8" standalone="no"?>
<!DOCTYPE svg PUBLIC "-//W3C//DTD SVG 1.1//EN"
 "http://www.w3.org/Graphics/SVG/1.1/DTD/svg11.dtd">
<!-- Generated by graphviz version 12.2.0 (20241103.1931)
 -->
<!-- Title: 区分図 Pages: 1 -->
<svg width="340pt" height="217pt"
 viewBox="0.00 0.00 340.38 217.00" xmlns="http://www.w3.org/2000/svg" xmlns:xlink="http://www.w3.org/1999/xlink">
<g id="graph0" class="graph" transform="scale(1 1) rotate(0) translate(4 190.75)">
<title>区分図</title>
<polygon fill="white" stroke="none" points="-4,26.25 -4,-190.75 336.38,-190.75 336.38,26.25 -4,26.25"/>
<text text-anchor="middle" x="166.19" y="17.3" font-family="Times New Roman,serif" font-size="14.00">区分図</text>
<!-- com.practicalddd.cargotracker.booking.domain.model.valueobjects.TransportStatus -->
<g id="node1" class="node">
<title>com.practicalddd.cargotracker.booking.domain.model.valueobjects.TransportStatus</title>
<g id="a_node1"><a xlink:href="./enum.html#com.practicalddd.cargotracker.booking.domain.model.valueobjects.TransportStatus" xlink:title="&lt;TABLE&gt;">
<polygon fill="lemonchiffon" stroke="black" points="154,-186.75 0,-186.75 0,-31.5 154,-31.5 154,-186.75"/>
<text text-anchor="start" x="16.63" y="-167.45" font-family="Times New Roman,serif" font-size="14.00">輸送ステータス</text>
<text text-anchor="start" x="34.25" y="-150.95" font-family="Times New Roman,serif" font-size="14.00">TransportStatus</text>
<polygon fill="none" stroke="black" points="8,-125.5 8,-148 146,-148 146,-125.5 8,-125.5"/>
<text text-anchor="start" x="26.38" y="-131.7" font-family="Times New Roman,serif" font-size="14.00">NOT_RECEIVED</text>
<polygon fill="none" stroke="black" points="8,-103 8,-125.5 146,-125.5 146,-103 8,-103"/>
<text text-anchor="start" x="49.63" y="-109.2" font-family="Times New Roman,serif" font-size="14.00">IN_PORT</text>
<polygon fill="none" stroke="black" points="8,-80.5 8,-103 146,-103 146,-80.5 8,-80.5"/>
<text text-anchor="start" x="11" y="-86.7" font-family="Times New Roman,serif" font-size="14.00">ONBOARD_CARRIER</text>
<polygon fill="none" stroke="black" points="8,-58 8,-80.5 146,-80.5 146,-58 8,-58"/>
<text text-anchor="start" x="45.88" y="-64.2" font-family="Times New Roman,serif" font-size="14.00">CLAIMED</text>
<polygon fill="none" stroke="black" points="8,-35.5 8,-58 146,-58 146,-35.5 8,-35.5"/>
<text text-anchor="start" x="41" y="-41.7" font-family="Times New Roman,serif" font-size="14.00">UNKNOWN</text>
</a>
</g>
</g>
<!-- com.practicalddd.cargotracker.booking.domain.model.valueobjects.RoutingStatus -->
<g id="node2" class="node">
<title>com.practicalddd.cargotracker.booking.domain.model.valueobjects.RoutingStatus</title>
<g id="a_node2"><a xlink:href="./enum.html#com.practicalddd.cargotracker.booking.domain.model.valueobjects.RoutingStatus" xlink:title="&lt;TABLE&gt;">
<polygon fill="lemonchiffon" stroke="black" points="332.38,-110.25 191.62,-110.25 191.62,0 332.38,0 332.38,-110.25"/>
<text text-anchor="start" x="201.62" y="-90.95" font-family="Times New Roman,serif" font-size="14.00">経路ステータス</text>
<text text-anchor="start" x="223.75" y="-74.45" font-family="Times New Roman,serif" font-size="14.00">RoutingStatus</text>
<polygon fill="none" stroke="black" points="199.62,-49 199.62,-71.5 324.38,-71.5 324.38,-49 199.62,-49"/>
<text text-anchor="start" x="217.38" y="-55.2" font-family="Times New Roman,serif" font-size="14.00">NOT_ROUTED</text>
<polygon fill="none" stroke="black" points="199.62,-26.5 199.62,-49 324.38,-49 324.38,-26.5 199.62,-26.5"/>
<text text-anchor="start" x="234.62" y="-32.7" font-family="Times New Roman,serif" font-size="14.00">ROUTED</text>
<polygon fill="none" stroke="black" points="199.62,-4 199.62,-26.5 324.38,-26.5 324.38,-4 199.62,-4"/>
<text text-anchor="start" x="222.25" y="-10.2" font-family="Times New Roman,serif" font-size="14.00">MISROUTED</text>
</a>
</g>
</g>
</g>
</svg>
