<?xml version="1.0" encoding="UTF-8" standalone="no"?>
<!DOCTYPE svg PUBLIC "-//W3C//DTD SVG 1.1//EN"
 "http://www.w3.org/Graphics/SVG/1.1/DTD/svg11.dtd">
<!-- Generated by graphviz version 12.2.0 (20241103.1931)
 -->
<!-- Title: 区分使用図 Pages: 1 -->
<svg width="334pt" height="126pt"
 viewBox="0.00 0.00 334.00 126.00" xmlns="http://www.w3.org/2000/svg" xmlns:xlink="http://www.w3.org/1999/xlink">
<g id="graph0" class="graph" transform="scale(1 1) rotate(0) translate(4 122)">
<title>区分使用図</title>
<polygon fill="white" stroke="none" points="-4,4 -4,-122 330,-122 330,4 -4,4"/>
<text text-anchor="middle" x="163" y="-4.95" font-family="Times New Roman,serif" font-size="14.00">区分使用図</text>
<!-- com.practicalddd.cargotracker.booking.domain.model.valueobjects.RoutingStatus -->
<g id="node1" class="node">
<title>com.practicalddd.cargotracker.booking.domain.model.valueobjects.RoutingStatus</title>
<polygon fill="lemonchiffon" stroke="black" points="326,-118 193.25,-118 189.25,-114 189.25,-79.25 322,-79.25 326,-83.25 326,-118"/>
<polyline fill="none" stroke="black" points="322,-114 189.25,-114"/>
<polyline fill="none" stroke="black" points="322,-114 322,-79.25"/>
<polyline fill="none" stroke="black" points="322,-114 326,-118"/>
<text text-anchor="middle" x="257.62" y="-100.7" font-family="Times New Roman,serif" font-size="14.00">経路ステータス</text>
<text text-anchor="middle" x="257.62" y="-86.45" font-family="Times New Roman,serif" font-size="14.00">RoutingStatus</text>
</g>
<!-- com.practicalddd.cargotracker.booking.domain.model.valueobjects.TransportStatus -->
<g id="node2" class="node">
<title>com.practicalddd.cargotracker.booking.domain.model.valueobjects.TransportStatus</title>
<polygon fill="lemonchiffon" stroke="black" points="326,-61 193.25,-61 189.25,-57 189.25,-22.25 322,-22.25 326,-26.25 326,-61"/>
<polyline fill="none" stroke="black" points="322,-57 189.25,-57"/>
<polyline fill="none" stroke="black" points="322,-57 322,-22.25"/>
<polyline fill="none" stroke="black" points="322,-57 326,-61"/>
<text text-anchor="middle" x="257.62" y="-43.7" font-family="Times New Roman,serif" font-size="14.00">輸送ステータス</text>
<text text-anchor="middle" x="257.62" y="-29.45" font-family="Times New Roman,serif" font-size="14.00">TransportStatus</text>
</g>
<!-- com.practicalddd.cargotracker.booking.domain.model.aggregates.Cargo -->
<g id="node3" class="node">
<title>com.practicalddd.cargotracker.booking.domain.model.aggregates.Cargo</title>
<g id="a_node3"><a xlink:href="./domain.html#com.practicalddd.cargotracker.booking.domain.model.aggregates.Cargo" xlink:title="貨物\nCargo">
<polygon fill="white" stroke="black" points="54,-89 0,-89 0,-50.25 54,-50.25 54,-89"/>
<text text-anchor="middle" x="27" y="-71.7" font-family="Times New Roman,serif" font-size="14.00">貨物</text>
<text text-anchor="middle" x="27" y="-57.45" font-family="Times New Roman,serif" font-size="14.00">Cargo</text>
</a>
</g>
</g>
<!-- com.practicalddd.cargotracker.booking.domain.model.valueobjects.Delivery -->
<g id="node4" class="node">
<title>com.practicalddd.cargotracker.booking.domain.model.valueobjects.Delivery</title>
<g id="a_node4"><a xlink:href="./domain.html#com.practicalddd.cargotracker.booking.domain.model.valueobjects.Delivery" xlink:title="配送&#13;\nDelivery">
<polygon fill="white" stroke="black" points="153.25,-96.88 90,-96.88 90,-42.38 153.25,-42.38 153.25,-96.88"/>
<text text-anchor="middle" x="121.62" y="-79.58" font-family="Times New Roman,serif" font-size="14.00">配送&#13;</text>
<text text-anchor="middle" x="121.62" y="-49.58" font-family="Times New Roman,serif" font-size="14.00">Delivery</text>
</a>
</g>
</g>
<!-- com.practicalddd.cargotracker.booking.domain.model.aggregates.Cargo&#45;&gt;com.practicalddd.cargotracker.booking.domain.model.valueobjects.Delivery -->
<g id="edge2" class="edge">
<title>com.practicalddd.cargotracker.booking.domain.model.aggregates.Cargo&#45;&gt;com.practicalddd.cargotracker.booking.domain.model.valueobjects.Delivery</title>
<path fill="none" stroke="black" d="M54.29,-69.62C61.78,-69.62 70.14,-69.62 78.32,-69.62"/>
<polygon fill="black" stroke="black" points="78.16,-73.13 88.16,-69.63 78.16,-66.13 78.16,-73.13"/>
</g>
<!-- com.practicalddd.cargotracker.booking.domain.model.valueobjects.Delivery&#45;&gt;com.practicalddd.cargotracker.booking.domain.model.valueobjects.RoutingStatus -->
<g id="edge1" class="edge">
<title>com.practicalddd.cargotracker.booking.domain.model.valueobjects.Delivery&#45;&gt;com.practicalddd.cargotracker.booking.domain.model.valueobjects.RoutingStatus</title>
<path fill="none" stroke="black" d="M153.7,-76.35C161.07,-77.94 169.26,-79.72 177.7,-81.55"/>
<polygon fill="black" stroke="black" points="176.92,-84.96 187.43,-83.65 178.4,-78.11 176.92,-84.96"/>
</g>
<!-- com.practicalddd.cargotracker.booking.domain.model.valueobjects.Delivery&#45;&gt;com.practicalddd.cargotracker.booking.domain.model.valueobjects.TransportStatus -->
<g id="edge3" class="edge">
<title>com.practicalddd.cargotracker.booking.domain.model.valueobjects.Delivery&#45;&gt;com.practicalddd.cargotracker.booking.domain.model.valueobjects.TransportStatus</title>
<path fill="none" stroke="black" d="M153.7,-63.13C161.07,-61.59 169.26,-59.88 177.7,-58.12"/>
<polygon fill="black" stroke="black" points="178.36,-61.55 187.43,-56.08 176.93,-54.7 178.36,-61.55"/>
</g>
</g>
</svg>
