<?xml version="1.0" encoding="UTF-8" standalone="no"?>
<!DOCTYPE svg PUBLIC "-//W3C//DTD SVG 1.1//EN"
 "http://www.w3.org/Graphics/SVG/1.1/DTD/svg11.dtd">
<!-- Generated by graphviz version 12.2.0 (20241103.1931)
 -->
<!-- Title: 区分使用図 Pages: 1 -->
<svg width="299pt" height="120pt"
 viewBox="0.00 0.00 298.75 120.25" xmlns="http://www.w3.org/2000/svg" xmlns:xlink="http://www.w3.org/1999/xlink">
<g id="graph0" class="graph" transform="scale(1 1) rotate(0) translate(4 116.25)">
<title>区分使用図</title>
<polygon fill="white" stroke="none" points="-4,4 -4,-116.25 294.75,-116.25 294.75,4 -4,4"/>
<text text-anchor="middle" x="145.38" y="-4.95" font-family="Times New Roman,serif" font-size="14.00">区分使用図</text>
<!-- com.practicalddd.cargotracker.booking.domain.model.valueobjects.RoutingStatus -->
<g id="node1" class="node">
<title>com.practicalddd.cargotracker.booking.domain.model.valueobjects.RoutingStatus</title>
<polygon fill="lemonchiffon" stroke="black" points="286.25,-112.25 197.75,-112.25 193.75,-108.25 193.75,-76.25 282.25,-76.25 286.25,-80.25 286.25,-112.25"/>
<polyline fill="none" stroke="black" points="282.25,-108.25 193.75,-108.25"/>
<polyline fill="none" stroke="black" points="282.25,-108.25 282.25,-76.25"/>
<polyline fill="none" stroke="black" points="282.25,-108.25 286.25,-112.25"/>
<text text-anchor="middle" x="240" y="-89.2" font-family="Times New Roman,serif" font-size="14.00">RoutingStatus</text>
</g>
<!-- com.practicalddd.cargotracker.booking.domain.model.valueobjects.TransportStatus -->
<g id="node2" class="node">
<title>com.practicalddd.cargotracker.booking.domain.model.valueobjects.TransportStatus</title>
<polygon fill="lemonchiffon" stroke="black" points="290.75,-58.25 193.25,-58.25 189.25,-54.25 189.25,-22.25 286.75,-22.25 290.75,-26.25 290.75,-58.25"/>
<polyline fill="none" stroke="black" points="286.75,-54.25 189.25,-54.25"/>
<polyline fill="none" stroke="black" points="286.75,-54.25 286.75,-22.25"/>
<polyline fill="none" stroke="black" points="286.75,-54.25 290.75,-58.25"/>
<text text-anchor="middle" x="240" y="-35.2" font-family="Times New Roman,serif" font-size="14.00">TransportStatus</text>
</g>
<!-- com.practicalddd.cargotracker.booking.domain.model.aggregates.Cargo -->
<g id="node3" class="node">
<title>com.practicalddd.cargotracker.booking.domain.model.aggregates.Cargo</title>
<g id="a_node3"><a xlink:href="./domain.html#com.practicalddd.cargotracker.booking.domain.model.aggregates.Cargo" xlink:title="Cargo">
<polygon fill="white" stroke="black" points="54,-85.25 0,-85.25 0,-49.25 54,-49.25 54,-85.25"/>
<text text-anchor="middle" x="27" y="-62.2" font-family="Times New Roman,serif" font-size="14.00">Cargo</text>
</a>
</g>
</g>
<!-- com.practicalddd.cargotracker.booking.domain.model.valueobjects.Delivery -->
<g id="node4" class="node">
<title>com.practicalddd.cargotracker.booking.domain.model.valueobjects.Delivery</title>
<g id="a_node4"><a xlink:href="./domain.html#com.practicalddd.cargotracker.booking.domain.model.valueobjects.Delivery" xlink:title="Delivery">
<polygon fill="white" stroke="black" points="153.25,-85.25 90,-85.25 90,-49.25 153.25,-49.25 153.25,-85.25"/>
<text text-anchor="middle" x="121.62" y="-62.2" font-family="Times New Roman,serif" font-size="14.00">Delivery</text>
</a>
</g>
</g>
<!-- com.practicalddd.cargotracker.booking.domain.model.aggregates.Cargo&#45;&gt;com.practicalddd.cargotracker.booking.domain.model.valueobjects.Delivery -->
<g id="edge2" class="edge">
<title>com.practicalddd.cargotracker.booking.domain.model.aggregates.Cargo&#45;&gt;com.practicalddd.cargotracker.booking.domain.model.valueobjects.Delivery</title>
<path fill="none" stroke="black" d="M54.29,-67.25C61.78,-67.25 70.14,-67.25 78.32,-67.25"/>
<polygon fill="black" stroke="black" points="78.16,-70.75 88.16,-67.25 78.16,-63.75 78.16,-70.75"/>
</g>
<!-- com.practicalddd.cargotracker.booking.domain.model.valueobjects.Delivery&#45;&gt;com.practicalddd.cargotracker.booking.domain.model.valueobjects.RoutingStatus -->
<g id="edge1" class="edge">
<title>com.practicalddd.cargotracker.booking.domain.model.valueobjects.Delivery&#45;&gt;com.practicalddd.cargotracker.booking.domain.model.valueobjects.RoutingStatus</title>
<path fill="none" stroke="black" d="M153.51,-74.41C162.41,-76.48 172.42,-78.8 182.36,-81.11"/>
<polygon fill="black" stroke="black" points="181.5,-84.5 192.03,-83.35 183.08,-77.68 181.5,-84.5"/>
</g>
<!-- com.practicalddd.cargotracker.booking.domain.model.valueobjects.Delivery&#45;&gt;com.practicalddd.cargotracker.booking.domain.model.valueobjects.TransportStatus -->
<g id="edge3" class="edge">
<title>com.practicalddd.cargotracker.booking.domain.model.valueobjects.Delivery&#45;&gt;com.practicalddd.cargotracker.booking.domain.model.valueobjects.TransportStatus</title>
<path fill="none" stroke="black" d="M153.51,-60.09C161.09,-58.33 169.48,-56.38 177.94,-54.42"/>
<polygon fill="black" stroke="black" points="178.63,-57.85 187.59,-52.18 177.05,-51.03 178.63,-57.85"/>
</g>
</g>
</svg>
