<?xml version="1.0" encoding="UTF-8" standalone="no"?>
<!DOCTYPE svg PUBLIC "-//W3C//DTD SVG 1.1//EN"
 "http://www.w3.org/Graphics/SVG/1.1/DTD/svg11.dtd">
<!-- Generated by graphviz version 12.1.2 (20240928.0832)
 -->
<!-- Title: 区分図 Pages: 1 -->
<svg width="301pt" height="201pt"
 viewBox="0.00 0.00 300.62 200.50" xmlns="http://www.w3.org/2000/svg" xmlns:xlink="http://www.w3.org/1999/xlink">
<g id="graph0" class="graph" transform="scale(1 1) rotate(0) translate(4 173.5)">
<title>区分図</title>
<polygon fill="white" stroke="none" points="-4,27 -4,-173.5 296.62,-173.5 296.62,27 -4,27"/>
<text text-anchor="middle" x="146.31" y="17.3" font-family="Times,serif" font-size="14.00">区分図</text>
<!-- com.practicalddd.cargotracker.booking.domain.model.valueobjects.TransportStatus -->
<g id="node1" class="node">
<title>com.practicalddd.cargotracker.booking.domain.model.valueobjects.TransportStatus</title>
<g id="a_node1"><a xlink:href="./enum.html#com.practicalddd.cargotracker.booking.domain.model.valueobjects.TransportStatus" xlink:title="&lt;TABLE&gt;">
<polygon fill="lemonchiffon" stroke="black" points="154,-169.5 0,-169.5 0,-28.5 154,-28.5 154,-169.5"/>
<text text-anchor="start" x="34.25" y="-150.2" font-family="Times,serif" font-size="14.00">TransportStatus</text>
<polygon fill="none" stroke="black" points="8,-122.5 8,-145 146,-145 146,-122.5 8,-122.5"/>
<text text-anchor="start" x="26.37" y="-128.7" font-family="Times,serif" font-size="14.00">NOT_RECEIVED</text>
<polygon fill="none" stroke="black" points="8,-100 8,-122.5 146,-122.5 146,-100 8,-100"/>
<text text-anchor="start" x="49.25" y="-106.2" font-family="Times,serif" font-size="14.00">IN_PORT</text>
<polygon fill="none" stroke="black" points="8,-77.5 8,-100 146,-100 146,-77.5 8,-77.5"/>
<text text-anchor="start" x="11" y="-83.7" font-family="Times,serif" font-size="14.00">ONBOARD_CARRIER</text>
<polygon fill="none" stroke="black" points="8,-55 8,-77.5 146,-77.5 146,-55 8,-55"/>
<text text-anchor="start" x="45.87" y="-61.2" font-family="Times,serif" font-size="14.00">CLAIMED</text>
<polygon fill="none" stroke="black" points="8,-32.5 8,-55 146,-55 146,-32.5 8,-32.5"/>
<text text-anchor="start" x="41" y="-38.7" font-family="Times,serif" font-size="14.00">UNKNOWN</text>
</a>
</g>
</g>
<!-- com.practicalddd.cargotracker.booking.domain.model.valueobjects.RoutingStatus -->
<g id="node2" class="node">
<title>com.practicalddd.cargotracker.booking.domain.model.valueobjects.RoutingStatus</title>
<g id="a_node2"><a xlink:href="./enum.html#com.practicalddd.cargotracker.booking.domain.model.valueobjects.RoutingStatus" xlink:title="&lt;TABLE&gt;">
<polygon fill="lemonchiffon" stroke="black" points="292.62,-96 181.37,-96 181.37,0 292.62,0 292.62,-96"/>
<text text-anchor="start" x="198.75" y="-76.7" font-family="Times,serif" font-size="14.00">RoutingStatus</text>
<polygon fill="none" stroke="black" points="189.37,-49 189.37,-71.5 284.62,-71.5 284.62,-49 189.37,-49"/>
<text text-anchor="start" x="192.37" y="-55.2" font-family="Times,serif" font-size="14.00">NOT_ROUTED</text>
<polygon fill="none" stroke="black" points="189.37,-26.5 189.37,-49 284.62,-49 284.62,-26.5 189.37,-26.5"/>
<text text-anchor="start" x="209.62" y="-32.7" font-family="Times,serif" font-size="14.00">ROUTED</text>
<polygon fill="none" stroke="black" points="189.37,-4 189.37,-26.5 284.62,-26.5 284.62,-4 189.37,-4"/>
<text text-anchor="start" x="197.25" y="-10.2" font-family="Times,serif" font-size="14.00">MISROUTED</text>
</a>
</g>
</g>
</g>
</svg>
