<?xml version="1.0" encoding="UTF-8" standalone="no"?>
<!DOCTYPE svg PUBLIC "-//W3C//DTD SVG 1.1//EN"
 "http://www.w3.org/Graphics/SVG/1.1/DTD/svg11.dtd">
<!-- Generated by graphviz version 12.2.0 (20241103.1931)
 -->
<!-- Title: パッケージ関連図 Pages: 1 -->
<svg width="541pt" height="232pt"
 viewBox="0.00 0.00 540.75 231.75" xmlns="http://www.w3.org/2000/svg" xmlns:xlink="http://www.w3.org/1999/xlink">
<g id="graph0" class="graph" transform="scale(1 1) rotate(0) translate(4 227.75)">
<title>パッケージ関連図</title>
<polygon fill="white" stroke="none" points="-4,4 -4,-227.75 536.75,-227.75 536.75,4 -4,4"/>
<text text-anchor="middle" x="266.38" y="-4.95" font-family="Times New Roman,serif" font-size="14.00">パッケージ関連図</text>
<!-- summary -->
<g id="node1" class="node">
<title>summary</title>
<polygon fill="none" stroke="black" points="335.5,-223.75 0,-223.75 0,-166.25 341.5,-166.25 341.5,-217.75 335.5,-223.75"/>
<polyline fill="none" stroke="black" points="335.5,-223.75 335.5,-217.75"/>
<polyline fill="none" stroke="black" points="341.5,-217.75 335.5,-217.75"/>
<text text-anchor="start" x="8" y="-206.45" font-family="Times New Roman,serif" font-size="14.00">root: com.practicalddd.cargotracker.booking.domain.model</text>
<text text-anchor="start" x="8" y="-189.95" font-family="Times New Roman,serif" font-size="14.00">パッケージ数: 4</text>
<text text-anchor="start" x="8" y="-173.45" font-family="Times New Roman,serif" font-size="14.00">関連数: 4</text>
</g>
<!-- com.practicalddd.cargotracker.booking.domain.model.aggregates -->
<g id="node2" class="node">
<title>com.practicalddd.cargotracker.booking.domain.model.aggregates</title>
<g id="a_node2"><a xlink:href="./domain.html#com.practicalddd.cargotracker.booking.domain.model.aggregates" xlink:title="aggregates">
<polygon fill="#eedd82" stroke="black" points="433.62,-213 359.88,-213 359.88,-177 433.62,-177 433.62,-213"/>
<text text-anchor="middle" x="396.75" y="-189.95" font-family="Times New Roman,serif" font-size="14.00">aggregates</text>
</a>
</g>
</g>
<!-- com.practicalddd.cargotracker.booking.domain.model.entities -->
<g id="node3" class="node">
<title>com.practicalddd.cargotracker.booking.domain.model.entities</title>
<g id="a_node3"><a xlink:href="./domain.html#com.practicalddd.cargotracker.booking.domain.model.entities" xlink:title="entities">
<polygon fill="#eedd82" stroke="black" points="389.25,-58.25 334.25,-58.25 334.25,-22.25 389.25,-22.25 389.25,-58.25"/>
<text text-anchor="middle" x="361.75" y="-35.2" font-family="Times New Roman,serif" font-size="14.00">entities</text>
</a>
</g>
</g>
<!-- com.practicalddd.cargotracker.booking.domain.model.aggregates&#45;&gt;com.practicalddd.cargotracker.booking.domain.model.entities -->
<g id="edge1" class="edge">
<title>com.practicalddd.cargotracker.booking.domain.model.aggregates&#45;&gt;com.practicalddd.cargotracker.booking.domain.model.entities</title>
<path fill="none" stroke="black" d="M377.32,-176.58C365.72,-164.8 352.04,-148.17 345.75,-130.25 338.81,-110.47 343.46,-87.11 349.5,-69.29"/>
<polygon fill="black" stroke="black" points="352.7,-70.74 352.93,-60.15 346.14,-68.28 352.7,-70.74"/>
</g>
<!-- com.practicalddd.cargotracker.booking.domain.model.valueobjects -->
<g id="node4" class="node">
<title>com.practicalddd.cargotracker.booking.domain.model.valueobjects</title>
<g id="a_node4"><a xlink:href="./domain.html#com.practicalddd.cargotracker.booking.domain.model.valueobjects" xlink:title="valueobjects">
<polygon fill="#eedd82" stroke="black" points="438.5,-130.25 355,-130.25 355,-94.25 438.5,-94.25 438.5,-130.25"/>
<text text-anchor="middle" x="396.75" y="-107.2" font-family="Times New Roman,serif" font-size="14.00">valueobjects</text>
</a>
</g>
</g>
<!-- com.practicalddd.cargotracker.booking.domain.model.aggregates&#45;&gt;com.practicalddd.cargotracker.booking.domain.model.valueobjects -->
<g id="edge2" class="edge">
<title>com.practicalddd.cargotracker.booking.domain.model.aggregates&#45;&gt;com.practicalddd.cargotracker.booking.domain.model.valueobjects</title>
<path fill="none" stroke="black" d="M396.75,-176.88C396.75,-166.77 396.75,-153.73 396.75,-142.08"/>
<polygon fill="black" stroke="black" points="400.25,-142.14 396.75,-132.14 393.25,-142.14 400.25,-142.14"/>
</g>
<!-- com.practicalddd.cargotracker.booking.domain.model.commands -->
<g id="node5" class="node">
<title>com.practicalddd.cargotracker.booking.domain.model.commands</title>
<g id="a_node5"><a xlink:href="./domain.html#com.practicalddd.cargotracker.booking.domain.model.commands" xlink:title="commands">
<polygon fill="#eedd82" stroke="black" points="532.75,-130.25 456.75,-130.25 456.75,-94.25 532.75,-94.25 532.75,-130.25"/>
<text text-anchor="middle" x="494.75" y="-107.2" font-family="Times New Roman,serif" font-size="14.00">commands</text>
</a>
</g>
</g>
<!-- com.practicalddd.cargotracker.booking.domain.model.aggregates&#45;&gt;com.practicalddd.cargotracker.booking.domain.model.commands -->
<g id="edge3" class="edge">
<title>com.practicalddd.cargotracker.booking.domain.model.aggregates&#45;&gt;com.practicalddd.cargotracker.booking.domain.model.commands</title>
<path fill="none" stroke="black" d="M417.53,-176.88C431.34,-165.5 449.69,-150.38 465.03,-137.74"/>
<polygon fill="black" stroke="black" points="467,-140.65 472.49,-131.59 462.55,-135.25 467,-140.65"/>
</g>
<!-- com.practicalddd.cargotracker.booking.domain.model.valueobjects&#45;&gt;com.practicalddd.cargotracker.booking.domain.model.entities -->
<g id="edge4" class="edge">
<title>com.practicalddd.cargotracker.booking.domain.model.valueobjects&#45;&gt;com.practicalddd.cargotracker.booking.domain.model.entities</title>
<path fill="none" stroke="black" d="M388.1,-93.95C384.28,-86.32 379.71,-77.17 375.45,-68.65"/>
<polygon fill="black" stroke="black" points="378.58,-67.09 370.98,-59.71 372.32,-70.22 378.58,-67.09"/>
</g>
</g>
</svg>
