<?xml version="1.0" encoding="UTF-8" standalone="no"?>
<!DOCTYPE svg PUBLIC "-//W3C//DTD SVG 1.1//EN"
 "http://www.w3.org/Graphics/SVG/1.1/DTD/svg11.dtd">
<!-- Generated by graphviz version 12.2.0 (20241103.1931)
 -->
<!-- Title: パッケージ関連図 Pages: 1 -->
<svg width="576pt" height="237pt"
 viewBox="0.00 0.00 576.25 237.25" xmlns="http://www.w3.org/2000/svg" xmlns:xlink="http://www.w3.org/1999/xlink">
<g id="graph0" class="graph" transform="scale(1 1) rotate(0) translate(4 233.25)">
<title>パッケージ関連図</title>
<polygon fill="white" stroke="none" points="-4,4 -4,-233.25 572.25,-233.25 572.25,4 -4,4"/>
<text text-anchor="middle" x="284.12" y="-4.95" font-family="Times New Roman,serif" font-size="14.00">パッケージ関連図</text>
<!-- summary -->
<g id="node1" class="node">
<title>summary</title>
<polygon fill="none" stroke="black" points="335.5,-229.25 0,-229.25 0,-171.75 341.5,-171.75 341.5,-223.25 335.5,-229.25"/>
<polyline fill="none" stroke="black" points="335.5,-229.25 335.5,-223.25"/>
<polyline fill="none" stroke="black" points="341.5,-223.25 335.5,-223.25"/>
<text text-anchor="start" x="8" y="-211.95" font-family="Times New Roman,serif" font-size="14.00">root: com.practicalddd.cargotracker.booking.domain.model</text>
<text text-anchor="start" x="8" y="-195.45" font-family="Times New Roman,serif" font-size="14.00">パッケージ数: 4</text>
<text text-anchor="start" x="8" y="-178.95" font-family="Times New Roman,serif" font-size="14.00">関連数: 4</text>
</g>
<!-- com.practicalddd.cargotracker.booking.domain.model.aggregates -->
<g id="node2" class="node">
<title>com.practicalddd.cargotracker.booking.domain.model.aggregates</title>
<g id="a_node2"><a xlink:href="./domain.html#com.practicalddd.cargotracker.booking.domain.model.aggregates" xlink:title="集約\naggregates">
<polygon fill="#eedd82" stroke="black" points="433.62,-219.88 359.88,-219.88 359.88,-181.12 433.62,-181.12 433.62,-219.88"/>
<text text-anchor="middle" x="396.75" y="-202.57" font-family="Times New Roman,serif" font-size="14.00">集約</text>
<text text-anchor="middle" x="396.75" y="-188.32" font-family="Times New Roman,serif" font-size="14.00">aggregates</text>
</a>
</g>
</g>
<!-- com.practicalddd.cargotracker.booking.domain.model.entities -->
<g id="node3" class="node">
<title>com.practicalddd.cargotracker.booking.domain.model.entities</title>
<g id="a_node3"><a xlink:href="./domain.html#com.practicalddd.cargotracker.booking.domain.model.entities" xlink:title="エンティティ\nentities">
<polygon fill="#eedd82" stroke="black" points="408.5,-61 289,-61 289,-22.25 408.5,-22.25 408.5,-61"/>
<text text-anchor="middle" x="348.75" y="-43.7" font-family="Times New Roman,serif" font-size="14.00">エンティティ</text>
<text text-anchor="middle" x="348.75" y="-29.45" font-family="Times New Roman,serif" font-size="14.00">entities</text>
</a>
</g>
</g>
<!-- com.practicalddd.cargotracker.booking.domain.model.aggregates&#45;&gt;com.practicalddd.cargotracker.booking.domain.model.entities -->
<g id="edge1" class="edge">
<title>com.practicalddd.cargotracker.booking.domain.model.aggregates&#45;&gt;com.practicalddd.cargotracker.booking.domain.model.entities</title>
<path fill="none" stroke="black" d="M369.3,-180.65C349.43,-166.34 325.14,-147.21 319.75,-135.75 309.96,-114.93 318.73,-89.99 329.11,-71.16"/>
<polygon fill="black" stroke="black" points="332.05,-73.07 334.16,-62.69 326.03,-69.48 332.05,-73.07"/>
</g>
<!-- com.practicalddd.cargotracker.booking.domain.model.valueobjects -->
<g id="node4" class="node">
<title>com.practicalddd.cargotracker.booking.domain.model.valueobjects</title>
<g id="a_node4"><a xlink:href="./domain.html#com.practicalddd.cargotracker.booking.domain.model.valueobjects" xlink:title="値オブジェクト\nvalueobjects">
<polygon fill="#eedd82" stroke="black" points="465.12,-135.75 328.38,-135.75 328.38,-97 465.12,-97 465.12,-135.75"/>
<text text-anchor="middle" x="396.75" y="-118.45" font-family="Times New Roman,serif" font-size="14.00">値オブジェクト</text>
<text text-anchor="middle" x="396.75" y="-104.2" font-family="Times New Roman,serif" font-size="14.00">valueobjects</text>
</a>
</g>
</g>
<!-- com.practicalddd.cargotracker.booking.domain.model.aggregates&#45;&gt;com.practicalddd.cargotracker.booking.domain.model.valueobjects -->
<g id="edge2" class="edge">
<title>com.practicalddd.cargotracker.booking.domain.model.aggregates&#45;&gt;com.practicalddd.cargotracker.booking.domain.model.valueobjects</title>
<path fill="none" stroke="black" d="M396.75,-180.86C396.75,-171.06 396.75,-158.8 396.75,-147.68"/>
<polygon fill="black" stroke="black" points="400.25,-147.73 396.75,-137.73 393.25,-147.73 400.25,-147.73"/>
</g>
<!-- com.practicalddd.cargotracker.booking.domain.model.commands -->
<g id="node5" class="node">
<title>com.practicalddd.cargotracker.booking.domain.model.commands</title>
<g id="a_node5"><a xlink:href="./domain.html#com.practicalddd.cargotracker.booking.domain.model.commands" xlink:title="コマンド\ncommands">
<polygon fill="#eedd82" stroke="black" points="568.25,-135.75 483.25,-135.75 483.25,-97 568.25,-97 568.25,-135.75"/>
<text text-anchor="middle" x="525.75" y="-118.45" font-family="Times New Roman,serif" font-size="14.00">コマンド</text>
<text text-anchor="middle" x="525.75" y="-104.2" font-family="Times New Roman,serif" font-size="14.00">commands</text>
</a>
</g>
</g>
<!-- com.practicalddd.cargotracker.booking.domain.model.aggregates&#45;&gt;com.practicalddd.cargotracker.booking.domain.model.commands -->
<g id="edge3" class="edge">
<title>com.practicalddd.cargotracker.booking.domain.model.aggregates&#45;&gt;com.practicalddd.cargotracker.booking.domain.model.commands</title>
<path fill="none" stroke="black" d="M426.35,-180.66C444.29,-169.23 467.39,-154.53 486.81,-142.17"/>
<polygon fill="black" stroke="black" points="488.46,-145.26 495.02,-136.94 484.7,-139.36 488.46,-145.26"/>
</g>
<!-- com.practicalddd.cargotracker.booking.domain.model.valueobjects&#45;&gt;com.practicalddd.cargotracker.booking.domain.model.entities -->
<g id="edge4" class="edge">
<title>com.practicalddd.cargotracker.booking.domain.model.valueobjects&#45;&gt;com.practicalddd.cargotracker.booking.domain.model.entities</title>
<path fill="none" stroke="black" d="M384.39,-96.64C379.18,-88.75 373.01,-79.39 367.28,-70.71"/>
<polygon fill="black" stroke="black" points="370.33,-68.98 361.9,-62.56 364.49,-72.83 370.33,-68.98"/>
</g>
</g>
</svg>
