<?xml version="1.0" encoding="UTF-8" standalone="no"?>
<!DOCTYPE svg PUBLIC "-//W3C//DTD SVG 1.1//EN"
 "http://www.w3.org/Graphics/SVG/1.1/DTD/svg11.dtd">
<!-- Generated by graphviz version 12.1.2 (20240928.0832)
 -->
<!-- Title: パッケージ関連図 Pages: 1 -->
<svg width="541pt" height="233pt"
 viewBox="0.00 0.00 540.75 232.50" xmlns="http://www.w3.org/2000/svg" xmlns:xlink="http://www.w3.org/1999/xlink">
<g id="graph0" class="graph" transform="scale(1 1) rotate(0) translate(4 228.5)">
<title>パッケージ関連図</title>
<polygon fill="white" stroke="none" points="-4,4 -4,-228.5 536.75,-228.5 536.75,4 -4,4"/>
<text text-anchor="middle" x="266.38" y="-5.7" font-family="Times,serif" font-size="14.00">パッケージ関連図</text>
<!-- summary -->
<g id="node1" class="node">
<title>summary</title>
<polygon fill="none" stroke="black" points="335.5,-224.5 0,-224.5 0,-167 341.5,-167 341.5,-218.5 335.5,-224.5"/>
<polyline fill="none" stroke="black" points="335.5,-224.5 335.5,-218.5"/>
<polyline fill="none" stroke="black" points="341.5,-218.5 335.5,-218.5"/>
<text text-anchor="start" x="8" y="-207.2" font-family="Times,serif" font-size="14.00">root: com.practicalddd.cargotracker.booking.domain.model</text>
<text text-anchor="start" x="8" y="-190.7" font-family="Times,serif" font-size="14.00">パッケージ数: 4</text>
<text text-anchor="start" x="8" y="-174.2" font-family="Times,serif" font-size="14.00">関連数: 4</text>
</g>
<!-- com.practicalddd.cargotracker.booking.domain.model.aggregates -->
<g id="node2" class="node">
<title>com.practicalddd.cargotracker.booking.domain.model.aggregates</title>
<g id="a_node2"><a xlink:href="./domain.html#com.practicalddd.cargotracker.booking.domain.model.aggregates" xlink:title="aggregates">
<polygon fill="#eedd82" stroke="black" points="433.62,-213.75 359.88,-213.75 359.88,-177.75 433.62,-177.75 433.62,-213.75"/>
<text text-anchor="middle" x="396.75" y="-190.7" font-family="Times,serif" font-size="14.00">aggregates</text>
</a>
</g>
</g>
<!-- com.practicalddd.cargotracker.booking.domain.model.entities -->
<g id="node3" class="node">
<title>com.practicalddd.cargotracker.booking.domain.model.entities</title>
<g id="a_node3"><a xlink:href="./domain.html#com.practicalddd.cargotracker.booking.domain.model.entities" xlink:title="entities">
<polygon fill="#eedd82" stroke="black" points="389.25,-59 334.25,-59 334.25,-23 389.25,-23 389.25,-59"/>
<text text-anchor="middle" x="361.75" y="-35.95" font-family="Times,serif" font-size="14.00">entities</text>
</a>
</g>
</g>
<!-- com.practicalddd.cargotracker.booking.domain.model.aggregates&#45;&gt;com.practicalddd.cargotracker.booking.domain.model.entities -->
<g id="edge1" class="edge">
<title>com.practicalddd.cargotracker.booking.domain.model.aggregates&#45;&gt;com.practicalddd.cargotracker.booking.domain.model.entities</title>
<path fill="none" stroke="black" d="M377.32,-177.33C365.72,-165.55 352.04,-148.92 345.75,-131 338.81,-111.22 343.46,-87.86 349.5,-70.04"/>
<polygon fill="black" stroke="black" points="352.7,-71.49 352.93,-60.9 346.14,-69.03 352.7,-71.49"/>
</g>
<!-- com.practicalddd.cargotracker.booking.domain.model.valueobjects -->
<g id="node4" class="node">
<title>com.practicalddd.cargotracker.booking.domain.model.valueobjects</title>
<g id="a_node4"><a xlink:href="./domain.html#com.practicalddd.cargotracker.booking.domain.model.valueobjects" xlink:title="valueobjects">
<polygon fill="#eedd82" stroke="black" points="438.5,-131 355,-131 355,-95 438.5,-95 438.5,-131"/>
<text text-anchor="middle" x="396.75" y="-107.95" font-family="Times,serif" font-size="14.00">valueobjects</text>
</a>
</g>
</g>
<!-- com.practicalddd.cargotracker.booking.domain.model.aggregates&#45;&gt;com.practicalddd.cargotracker.booking.domain.model.valueobjects -->
<g id="edge2" class="edge">
<title>com.practicalddd.cargotracker.booking.domain.model.aggregates&#45;&gt;com.practicalddd.cargotracker.booking.domain.model.valueobjects</title>
<path fill="none" stroke="black" d="M396.75,-177.63C396.75,-167.52 396.75,-154.48 396.75,-142.83"/>
<polygon fill="black" stroke="black" points="400.25,-142.89 396.75,-132.89 393.25,-142.89 400.25,-142.89"/>
</g>
<!-- com.practicalddd.cargotracker.booking.domain.model.commands -->
<g id="node5" class="node">
<title>com.practicalddd.cargotracker.booking.domain.model.commands</title>
<g id="a_node5"><a xlink:href="./domain.html#com.practicalddd.cargotracker.booking.domain.model.commands" xlink:title="commands">
<polygon fill="#eedd82" stroke="black" points="532.75,-131 456.75,-131 456.75,-95 532.75,-95 532.75,-131"/>
<text text-anchor="middle" x="494.75" y="-107.95" font-family="Times,serif" font-size="14.00">commands</text>
</a>
</g>
</g>
<!-- com.practicalddd.cargotracker.booking.domain.model.aggregates&#45;&gt;com.practicalddd.cargotracker.booking.domain.model.commands -->
<g id="edge3" class="edge">
<title>com.practicalddd.cargotracker.booking.domain.model.aggregates&#45;&gt;com.practicalddd.cargotracker.booking.domain.model.commands</title>
<path fill="none" stroke="black" d="M417.53,-177.63C431.34,-166.25 449.69,-151.13 465.03,-138.49"/>
<polygon fill="black" stroke="black" points="467,-141.4 472.49,-132.34 462.55,-136 467,-141.4"/>
</g>
<!-- com.practicalddd.cargotracker.booking.domain.model.valueobjects&#45;&gt;com.practicalddd.cargotracker.booking.domain.model.entities -->
<g id="edge4" class="edge">
<title>com.practicalddd.cargotracker.booking.domain.model.valueobjects&#45;&gt;com.practicalddd.cargotracker.booking.domain.model.entities</title>
<path fill="none" stroke="black" d="M388.1,-94.7C384.28,-87.07 379.71,-77.92 375.45,-69.4"/>
<polygon fill="black" stroke="black" points="378.58,-67.84 370.98,-60.46 372.32,-70.97 378.58,-67.84"/>
</g>
</g>
</svg>
