<?xml version="1.0" encoding="UTF-8" standalone="no"?>
<!DOCTYPE svg PUBLIC "-//W3C//DTD SVG 1.1//EN"
 "http://www.w3.org/Graphics/SVG/1.1/DTD/svg11.dtd">
<!-- Generated by graphviz version 12.2.0 (20241103.1931)
 -->
<!-- Title: アーキテクチャ図 Pages: 1 -->
<svg width="314pt" height="314pt"
 viewBox="0.00 0.00 314.25 314.25" xmlns="http://www.w3.org/2000/svg" xmlns:xlink="http://www.w3.org/1999/xlink">
<g id="graph0" class="graph" transform="scale(1 1) rotate(0) translate(4 310.25)">
<title>アーキテクチャ図</title>
<polygon fill="white" stroke="none" points="-4,4 -4,-310.25 310.25,-310.25 310.25,4 -4,4"/>
<text text-anchor="middle" x="153.12" y="-4.95" font-family="Times New Roman,serif" font-size="14.00">アーキテクチャ図</text>
<g id="clust1" class="cluster">
<title>clusterArchitecture</title>
<polygon fill="lightyellow" stroke="#eedd82" points="8,-30.25 8,-298.25 186,-298.25 186,-30.25 8,-30.25"/>
</g>
<!-- com.practicalddd.cargotracker.tracking.application -->
<g id="node1" class="node">
<title>com.practicalddd.cargotracker.tracking.application</title>
<polygon fill="#eedd82" stroke="black" points="148.5,-218.25 45.5,-218.25 45.5,-214.25 41.5,-214.25 41.5,-210.25 45.5,-210.25 45.5,-190.25 41.5,-190.25 41.5,-186.25 45.5,-186.25 45.5,-182.25 148.5,-182.25 148.5,-218.25"/>
<polyline fill="none" stroke="black" points="45.5,-214.25 49.5,-214.25 49.5,-210.25 45.5,-210.25"/>
<polyline fill="none" stroke="black" points="45.5,-190.25 49.5,-190.25 49.5,-186.25 45.5,-186.25"/>
<text text-anchor="middle" x="97" y="-192.5" font-family="Times New Roman,serif" font-size="20.00">application</text>
</g>
<!-- com.practicalddd.cargotracker.tracking.domain -->
<g id="node2" class="node">
<title>com.practicalddd.cargotracker.tracking.domain</title>
<polygon fill="#eedd82" stroke="black" points="134.62,-74.25 59.38,-74.25 59.38,-70.25 55.38,-70.25 55.38,-66.25 59.38,-66.25 59.38,-46.25 55.38,-46.25 55.38,-42.25 59.38,-42.25 59.38,-38.25 134.62,-38.25 134.62,-74.25"/>
<polyline fill="none" stroke="black" points="59.38,-70.25 63.38,-70.25 63.38,-66.25 59.38,-66.25"/>
<polyline fill="none" stroke="black" points="59.38,-46.25 63.38,-46.25 63.38,-42.25 59.38,-42.25"/>
<text text-anchor="middle" x="97" y="-48.5" font-family="Times New Roman,serif" font-size="20.00">domain</text>
</g>
<!-- com.practicalddd.cargotracker.tracking.application&#45;&gt;com.practicalddd.cargotracker.tracking.domain -->
<g id="edge5" class="edge">
<title>com.practicalddd.cargotracker.tracking.application&#45;&gt;com.practicalddd.cargotracker.tracking.domain</title>
<path fill="none" stroke="black" d="M148.75,-194.25C157.11,-194.25 163.09,-194.25 163.09,-194.25 163.09,-194.25 163.09,-62.25 163.09,-62.25 163.09,-62.25 146.58,-62.25 146.58,-62.25"/>
<polygon fill="black" stroke="black" points="146.58,-58.75 136.58,-62.25 146.58,-65.75 146.58,-58.75"/>
</g>
<!-- com.practicalddd.cargotracker.tracking.infrastructure -->
<g id="node3" class="node">
<title>com.practicalddd.cargotracker.tracking.infrastructure</title>
<polygon fill="#eedd82" stroke="black" points="158.25,-146.25 35.75,-146.25 35.75,-142.25 31.75,-142.25 31.75,-138.25 35.75,-138.25 35.75,-118.25 31.75,-118.25 31.75,-114.25 35.75,-114.25 35.75,-110.25 158.25,-110.25 158.25,-146.25"/>
<polyline fill="none" stroke="black" points="35.75,-142.25 39.75,-142.25 39.75,-138.25 35.75,-138.25"/>
<polyline fill="none" stroke="black" points="35.75,-118.25 39.75,-118.25 39.75,-114.25 35.75,-114.25"/>
<text text-anchor="middle" x="97" y="-120.5" font-family="Times New Roman,serif" font-size="20.00">infrastructure</text>
</g>
<!-- com.practicalddd.cargotracker.tracking.application&#45;&gt;com.practicalddd.cargotracker.tracking.infrastructure -->
<g id="edge1" class="edge">
<title>com.practicalddd.cargotracker.tracking.application&#45;&gt;com.practicalddd.cargotracker.tracking.infrastructure</title>
<path fill="none" stroke="black" d="M97,-182.08C97,-182.08 97,-158.18 97,-158.18"/>
<polygon fill="black" stroke="black" points="100.5,-158.18 97,-148.18 93.5,-158.18 100.5,-158.18"/>
</g>
<!-- com.practicalddd.cargotracker.tracking.infrastructure&#45;&gt;com.practicalddd.cargotracker.tracking.domain -->
<g id="edge6" class="edge">
<title>com.practicalddd.cargotracker.tracking.infrastructure&#45;&gt;com.practicalddd.cargotracker.tracking.domain</title>
<path fill="none" stroke="black" d="M97,-110.08C97,-110.08 97,-86.18 97,-86.18"/>
<polygon fill="black" stroke="black" points="100.5,-86.18 97,-76.18 93.5,-86.18 100.5,-86.18"/>
</g>
<!-- com.practicalddd.cargotracker.tracking.interfaces -->
<g id="node4" class="node">
<title>com.practicalddd.cargotracker.tracking.interfaces</title>
<polygon fill="#eedd82" stroke="black" points="177.62,-290.25 84.38,-290.25 84.38,-286.25 80.38,-286.25 80.38,-282.25 84.38,-282.25 84.38,-262.25 80.38,-262.25 80.38,-258.25 84.38,-258.25 84.38,-254.25 177.62,-254.25 177.62,-290.25"/>
<polyline fill="none" stroke="black" points="84.38,-286.25 88.38,-286.25 88.38,-282.25 84.38,-282.25"/>
<polyline fill="none" stroke="black" points="84.38,-262.25 88.38,-262.25 88.38,-258.25 84.38,-258.25"/>
<text text-anchor="middle" x="131" y="-264.5" font-family="Times New Roman,serif" font-size="20.00">interfaces</text>
</g>
<!-- com.practicalddd.cargotracker.tracking.interfaces&#45;&gt;com.practicalddd.cargotracker.tracking.application -->
<g id="edge2" class="edge">
<title>com.practicalddd.cargotracker.tracking.interfaces&#45;&gt;com.practicalddd.cargotracker.tracking.application</title>
<path fill="none" stroke="black" d="M116.44,-254.08C116.44,-254.08 116.44,-230.18 116.44,-230.18"/>
<polygon fill="black" stroke="black" points="119.94,-230.18 116.44,-220.18 112.94,-230.18 119.94,-230.18"/>
</g>
<!-- com.practicalddd.cargotracker.tracking.interfaces&#45;&gt;com.practicalddd.cargotracker.tracking.domain -->
<g id="edge4" class="edge">
<title>com.practicalddd.cargotracker.tracking.interfaces&#45;&gt;com.practicalddd.cargotracker.tracking.domain</title>
<path fill="none" stroke="black" d="M167.94,-254.08C167.94,-201.06 167.94,-50.25 167.94,-50.25 167.94,-50.25 146.47,-50.25 146.47,-50.25"/>
<polygon fill="black" stroke="black" points="146.47,-46.75 136.47,-50.25 146.47,-53.75 146.47,-46.75"/>
</g>
<!-- com.practicalddd -->
<g id="node5" class="node">
<title>com.practicalddd</title>
<polygon fill="lightgrey" stroke="black" points="306.25,-218.25 195.75,-218.25 195.75,-214.25 191.75,-214.25 191.75,-210.25 195.75,-210.25 195.75,-190.25 191.75,-190.25 191.75,-186.25 195.75,-186.25 195.75,-182.25 306.25,-182.25 306.25,-218.25"/>
<polyline fill="none" stroke="black" points="195.75,-214.25 199.75,-214.25 199.75,-210.25 195.75,-210.25"/>
<polyline fill="none" stroke="black" points="195.75,-190.25 199.75,-190.25 199.75,-186.25 195.75,-186.25"/>
<text text-anchor="middle" x="251" y="-195.2" font-family="Times New Roman,serif" font-size="14.00">com.practicalddd</text>
</g>
<!-- com.practicalddd.cargotracker.tracking.interfaces&#45;&gt;com.practicalddd -->
<g id="edge3" class="edge">
<title>com.practicalddd.cargotracker.tracking.interfaces&#45;&gt;com.practicalddd</title>
<path fill="none" stroke="black" d="M172.78,-253.87C172.78,-234.34 172.78,-206.25 172.78,-206.25 172.78,-206.25 183.89,-206.25 183.89,-206.25"/>
<polygon fill="black" stroke="black" points="183.89,-209.75 193.89,-206.25 183.89,-202.75 183.89,-209.75"/>
</g>
</g>
</svg>
