<?xml version="1.0" encoding="UTF-8" standalone="no"?>
<!DOCTYPE svg PUBLIC "-//W3C//DTD SVG 1.1//EN"
 "http://www.w3.org/Graphics/SVG/1.1/DTD/svg11.dtd">
<!-- Generated by graphviz version 12.1.2 (20240928.0832)
 -->
<!-- Title: アーキテクチャ図 Pages: 1 -->
<svg width="314pt" height="315pt"
 viewBox="0.00 0.00 314.25 315.00" xmlns="http://www.w3.org/2000/svg" xmlns:xlink="http://www.w3.org/1999/xlink">
<g id="graph0" class="graph" transform="scale(1 1) rotate(0) translate(4 311)">
<title>アーキテクチャ図</title>
<polygon fill="white" stroke="none" points="-4,4 -4,-311 310.25,-311 310.25,4 -4,4"/>
<text text-anchor="middle" x="153.12" y="-5.7" font-family="Times,serif" font-size="14.00">アーキテクチャ図</text>
<g id="clust1" class="cluster">
<title>clusterArchitecture</title>
<polygon fill="lightyellow" stroke="#eedd82" points="8,-31 8,-299 186,-299 186,-31 8,-31"/>
</g>
<!-- com.practicalddd.cargotracker.tracking.application -->
<g id="node1" class="node">
<title>com.practicalddd.cargotracker.tracking.application</title>
<polygon fill="#eedd82" stroke="black" points="148.5,-219 45.5,-219 45.5,-215 41.5,-215 41.5,-211 45.5,-211 45.5,-191 41.5,-191 41.5,-187 45.5,-187 45.5,-183 148.5,-183 148.5,-219"/>
<polyline fill="none" stroke="black" points="45.5,-215 49.5,-215 49.5,-211 45.5,-211"/>
<polyline fill="none" stroke="black" points="45.5,-191 49.5,-191 49.5,-187 45.5,-187"/>
<text text-anchor="middle" x="97" y="-193.25" font-family="Times,serif" font-size="20.00">application</text>
</g>
<!-- com.practicalddd.cargotracker.tracking.domain -->
<g id="node2" class="node">
<title>com.practicalddd.cargotracker.tracking.domain</title>
<polygon fill="#eedd82" stroke="black" points="134.62,-75 59.38,-75 59.38,-71 55.38,-71 55.38,-67 59.38,-67 59.38,-47 55.38,-47 55.38,-43 59.38,-43 59.38,-39 134.62,-39 134.62,-75"/>
<polyline fill="none" stroke="black" points="59.38,-71 63.38,-71 63.38,-67 59.38,-67"/>
<polyline fill="none" stroke="black" points="59.38,-47 63.38,-47 63.38,-43 59.38,-43"/>
<text text-anchor="middle" x="97" y="-49.25" font-family="Times,serif" font-size="20.00">domain</text>
</g>
<!-- com.practicalddd.cargotracker.tracking.application&#45;&gt;com.practicalddd.cargotracker.tracking.domain -->
<g id="edge5" class="edge">
<title>com.practicalddd.cargotracker.tracking.application&#45;&gt;com.practicalddd.cargotracker.tracking.domain</title>
<path fill="none" stroke="black" d="M148.75,-195C157.11,-195 163.09,-195 163.09,-195 163.09,-195 163.09,-63 163.09,-63 163.09,-63 146.58,-63 146.58,-63"/>
<polygon fill="black" stroke="black" points="146.58,-59.5 136.58,-63 146.58,-66.5 146.58,-59.5"/>
</g>
<!-- com.practicalddd.cargotracker.tracking.infrastructure -->
<g id="node3" class="node">
<title>com.practicalddd.cargotracker.tracking.infrastructure</title>
<polygon fill="#eedd82" stroke="black" points="158.25,-147 35.75,-147 35.75,-143 31.75,-143 31.75,-139 35.75,-139 35.75,-119 31.75,-119 31.75,-115 35.75,-115 35.75,-111 158.25,-111 158.25,-147"/>
<polyline fill="none" stroke="black" points="35.75,-143 39.75,-143 39.75,-139 35.75,-139"/>
<polyline fill="none" stroke="black" points="35.75,-119 39.75,-119 39.75,-115 35.75,-115"/>
<text text-anchor="middle" x="97" y="-121.25" font-family="Times,serif" font-size="20.00">infrastructure</text>
</g>
<!-- com.practicalddd.cargotracker.tracking.application&#45;&gt;com.practicalddd.cargotracker.tracking.infrastructure -->
<g id="edge1" class="edge">
<title>com.practicalddd.cargotracker.tracking.application&#45;&gt;com.practicalddd.cargotracker.tracking.infrastructure</title>
<path fill="none" stroke="black" d="M97,-182.83C97,-182.83 97,-158.93 97,-158.93"/>
<polygon fill="black" stroke="black" points="100.5,-158.93 97,-148.93 93.5,-158.93 100.5,-158.93"/>
</g>
<!-- com.practicalddd.cargotracker.tracking.infrastructure&#45;&gt;com.practicalddd.cargotracker.tracking.domain -->
<g id="edge6" class="edge">
<title>com.practicalddd.cargotracker.tracking.infrastructure&#45;&gt;com.practicalddd.cargotracker.tracking.domain</title>
<path fill="none" stroke="black" d="M97,-110.83C97,-110.83 97,-86.93 97,-86.93"/>
<polygon fill="black" stroke="black" points="100.5,-86.93 97,-76.93 93.5,-86.93 100.5,-86.93"/>
</g>
<!-- com.practicalddd.cargotracker.tracking.interfaces -->
<g id="node4" class="node">
<title>com.practicalddd.cargotracker.tracking.interfaces</title>
<polygon fill="#eedd82" stroke="black" points="177.62,-291 84.38,-291 84.38,-287 80.38,-287 80.38,-283 84.38,-283 84.38,-263 80.38,-263 80.38,-259 84.38,-259 84.38,-255 177.62,-255 177.62,-291"/>
<polyline fill="none" stroke="black" points="84.38,-287 88.38,-287 88.38,-283 84.38,-283"/>
<polyline fill="none" stroke="black" points="84.38,-263 88.38,-263 88.38,-259 84.38,-259"/>
<text text-anchor="middle" x="131" y="-265.25" font-family="Times,serif" font-size="20.00">interfaces</text>
</g>
<!-- com.practicalddd.cargotracker.tracking.interfaces&#45;&gt;com.practicalddd.cargotracker.tracking.application -->
<g id="edge2" class="edge">
<title>com.practicalddd.cargotracker.tracking.interfaces&#45;&gt;com.practicalddd.cargotracker.tracking.application</title>
<path fill="none" stroke="black" d="M116.44,-254.83C116.44,-254.83 116.44,-230.93 116.44,-230.93"/>
<polygon fill="black" stroke="black" points="119.94,-230.93 116.44,-220.93 112.94,-230.93 119.94,-230.93"/>
</g>
<!-- com.practicalddd.cargotracker.tracking.interfaces&#45;&gt;com.practicalddd.cargotracker.tracking.domain -->
<g id="edge4" class="edge">
<title>com.practicalddd.cargotracker.tracking.interfaces&#45;&gt;com.practicalddd.cargotracker.tracking.domain</title>
<path fill="none" stroke="black" d="M167.94,-254.83C167.94,-201.81 167.94,-51 167.94,-51 167.94,-51 146.47,-51 146.47,-51"/>
<polygon fill="black" stroke="black" points="146.47,-47.5 136.47,-51 146.47,-54.5 146.47,-47.5"/>
</g>
<!-- com.practicalddd -->
<g id="node5" class="node">
<title>com.practicalddd</title>
<polygon fill="lightgrey" stroke="black" points="306.25,-219 195.75,-219 195.75,-215 191.75,-215 191.75,-211 195.75,-211 195.75,-191 191.75,-191 191.75,-187 195.75,-187 195.75,-183 306.25,-183 306.25,-219"/>
<polyline fill="none" stroke="black" points="195.75,-215 199.75,-215 199.75,-211 195.75,-211"/>
<polyline fill="none" stroke="black" points="195.75,-191 199.75,-191 199.75,-187 195.75,-187"/>
<text text-anchor="middle" x="251" y="-195.95" font-family="Times,serif" font-size="14.00">com.practicalddd</text>
</g>
<!-- com.practicalddd.cargotracker.tracking.interfaces&#45;&gt;com.practicalddd -->
<g id="edge3" class="edge">
<title>com.practicalddd.cargotracker.tracking.interfaces&#45;&gt;com.practicalddd</title>
<path fill="none" stroke="black" d="M172.78,-254.62C172.78,-235.09 172.78,-207 172.78,-207 172.78,-207 183.89,-207 183.89,-207"/>
<polygon fill="black" stroke="black" points="183.89,-210.5 193.89,-207 183.89,-203.5 183.89,-210.5"/>
</g>
</g>
</svg>
