<?xml version="1.0" encoding="UTF-8" standalone="no"?>
<!DOCTYPE svg PUBLIC "-//W3C//DTD SVG 1.1//EN"
 "http://www.w3.org/Graphics/SVG/1.1/DTD/svg11.dtd">
<!-- Generated by graphviz version 12.2.0 (20241103.1931)
 -->
<!-- Title: ビジネスルール関連図 Pages: 1 -->
<svg width="1484pt" height="369pt"
 viewBox="0.00 0.00 1484.00 369.00" xmlns="http://www.w3.org/2000/svg" xmlns:xlink="http://www.w3.org/1999/xlink">
<g id="graph0" class="graph" transform="scale(1 1) rotate(0) translate(4 365)">
<title>ビジネスルール関連図</title>
<polygon fill="white" stroke="none" points="-4,4 -4,-365 1480,-365 1480,4 -4,4"/>
<text text-anchor="middle" x="738" y="-4.95" font-family="Times New Roman,serif" font-size="14.00">ビジネスルール関連図</text>
<g id="clust1" class="cluster">
<title>cluster_com.practicalddd.cargotracker.tracking.domain.model.aggregates</title>
<polygon fill="lemonchiffon" stroke="#eedd82" stroke-width="2" points="8,-193.38 8,-353 381,-353 381,-193.38 8,-193.38"/>
<text text-anchor="middle" x="194.5" y="-335.7" font-family="Times New Roman,serif" font-size="14.00">com.practicalddd.cargotracker.tracking.domain.model.aggregates</text>
</g>
<g id="clust2" class="cluster">
<title>cluster_com.practicalddd.cargotracker.tracking.domain.model.commands</title>
<polygon fill="lemonchiffon" stroke="#eedd82" stroke-width="2" points="389,-193.38 389,-272.62 806,-272.62 806,-193.38 389,-193.38"/>
<text text-anchor="middle" x="597.5" y="-255.32" font-family="Times New Roman,serif" font-size="14.00">com.practicalddd.cargotracker.tracking.domain.model.commands</text>
</g>
<g id="clust3" class="cluster">
<title>cluster_com.practicalddd.cargotracker.tracking.domain.model.entities</title>
<polygon fill="lemonchiffon" stroke="#eedd82" stroke-width="2" points="814,-192.25 814,-273.75 1169,-273.75 1169,-192.25 814,-192.25"/>
<text text-anchor="middle" x="991.5" y="-256.45" font-family="Times New Roman,serif" font-size="14.00">com.practicalddd.cargotracker.tracking.domain.model.entities</text>
</g>
<g id="clust4" class="cluster">
<title>cluster_com.practicalddd.cargotracker.tracking.domain.model.valueobjects</title>
<polygon fill="lemonchiffon" stroke="#eedd82" stroke-width="2" points="981,-30.25 981,-184.25 1468,-184.25 1468,-30.25 981,-30.25"/>
<text text-anchor="middle" x="1224.5" y="-166.95" font-family="Times New Roman,serif" font-size="14.00">com.practicalddd.cargotracker.tracking.domain.model.valueobjects</text>
</g>
<!-- com.practicalddd.cargotracker.tracking.domain.model.aggregates.TrackingActivity -->
<g id="node1" class="node">
<title>com.practicalddd.cargotracker.tracking.domain.model.aggregates.TrackingActivity</title>
<g id="a_node1"><a xlink:href="./domain.html#com.practicalddd.cargotracker.tracking.domain.model.aggregates.TrackingActivity" xlink:title="追跡\nTrackingActivity">
<polygon fill="#eedd82" stroke="black" points="372.5,-320.5 263.5,-320.5 263.5,-281.75 372.5,-281.75 372.5,-320.5"/>
<text text-anchor="middle" x="318" y="-303.2" font-family="Times New Roman,serif" font-size="14.00">追跡</text>
<text text-anchor="middle" x="318" y="-288.95" font-family="Times New Roman,serif" font-size="14.00">TrackingActivity</text>
</a>
</g>
</g>
<!-- com.practicalddd.cargotracker.tracking.domain.model.aggregates.TrackingNumber -->
<g id="node2" class="node">
<title>com.practicalddd.cargotracker.tracking.domain.model.aggregates.TrackingNumber</title>
<g id="a_node2"><a xlink:href="./domain.html#com.practicalddd.cargotracker.tracking.domain.model.aggregates.TrackingNumber" xlink:title="追跡番号\nTrackingNumber">
<polygon fill="#eedd82" stroke="black" points="372.88,-240.12 263.12,-240.12 263.12,-201.38 372.88,-201.38 372.88,-240.12"/>
<text text-anchor="middle" x="318" y="-222.82" font-family="Times New Roman,serif" font-size="14.00">追跡番号</text>
<text text-anchor="middle" x="318" y="-208.57" font-family="Times New Roman,serif" font-size="14.00">TrackingNumber</text>
</a>
</g>
</g>
<!-- com.practicalddd.cargotracker.tracking.domain.model.aggregates.TrackingActivity&#45;&gt;com.practicalddd.cargotracker.tracking.domain.model.aggregates.TrackingNumber -->
<g id="edge1" class="edge">
<title>com.practicalddd.cargotracker.tracking.domain.model.aggregates.TrackingActivity&#45;&gt;com.practicalddd.cargotracker.tracking.domain.model.aggregates.TrackingNumber</title>
<path fill="none" stroke="black" d="M318,-281.55C318,-272.64 318,-261.73 318,-251.69"/>
<polygon fill="black" stroke="black" points="321.5,-251.98 318,-241.98 314.5,-251.98 321.5,-251.98"/>
</g>
<!-- com.practicalddd.cargotracker.tracking.domain.model.commands.AddTrackingEventCommand -->
<g id="node3" class="node">
<title>com.practicalddd.cargotracker.tracking.domain.model.commands.AddTrackingEventCommand</title>
<g id="a_node3"><a xlink:href="./domain.html#com.practicalddd.cargotracker.tracking.domain.model.commands.AddTrackingEventCommand" xlink:title="追跡追加\nAddTrackingEventCommand">
<polygon fill="#eedd82" stroke="black" points="574.62,-240.12 397.38,-240.12 397.38,-201.38 574.62,-201.38 574.62,-240.12"/>
<text text-anchor="middle" x="486" y="-222.82" font-family="Times New Roman,serif" font-size="14.00">追跡追加</text>
<text text-anchor="middle" x="486" y="-208.57" font-family="Times New Roman,serif" font-size="14.00">AddTrackingEventCommand</text>
</a>
</g>
</g>
<!-- com.practicalddd.cargotracker.tracking.domain.model.aggregates.TrackingActivity&#45;&gt;com.practicalddd.cargotracker.tracking.domain.model.commands.AddTrackingEventCommand -->
<g id="edge2" class="edge">
<title>com.practicalddd.cargotracker.tracking.domain.model.aggregates.TrackingActivity&#45;&gt;com.practicalddd.cargotracker.tracking.domain.model.commands.AddTrackingEventCommand</title>
<path fill="none" stroke="black" d="M367.27,-281.38C373.28,-278.91 379.31,-276.33 385,-273.75 403.92,-265.18 424.37,-254.86 441.89,-245.68"/>
<polygon fill="black" stroke="black" points="443.28,-248.9 450.49,-241.14 440.01,-242.71 443.28,-248.9"/>
</g>
<!-- com.practicalddd.cargotracker.tracking.domain.model.commands.AssignTrackingNumberCommand -->
<g id="node4" class="node">
<title>com.practicalddd.cargotracker.tracking.domain.model.commands.AssignTrackingNumberCommand</title>
<g id="a_node4"><a xlink:href="./domain.html#com.practicalddd.cargotracker.tracking.domain.model.commands.AssignTrackingNumberCommand" xlink:title="追跡番号割り当て\nAssignTrackingNumberCommand">
<polygon fill="#eedd82" stroke="black" points="797.5,-240.12 592.5,-240.12 592.5,-201.38 797.5,-201.38 797.5,-240.12"/>
<text text-anchor="middle" x="695" y="-222.82" font-family="Times New Roman,serif" font-size="14.00">追跡番号割り当て</text>
<text text-anchor="middle" x="695" y="-208.57" font-family="Times New Roman,serif" font-size="14.00">AssignTrackingNumberCommand</text>
</a>
</g>
</g>
<!-- com.practicalddd.cargotracker.tracking.domain.model.aggregates.TrackingActivity&#45;&gt;com.practicalddd.cargotracker.tracking.domain.model.commands.AssignTrackingNumberCommand -->
<g id="edge3" class="edge">
<title>com.practicalddd.cargotracker.tracking.domain.model.aggregates.TrackingActivity&#45;&gt;com.practicalddd.cargotracker.tracking.domain.model.commands.AssignTrackingNumberCommand</title>
<path fill="none" stroke="black" d="M372.99,-300.06C427.47,-298.76 512.86,-293.32 584,-273.75 607.59,-267.26 632.38,-256.11 652.53,-245.8"/>
<polygon fill="black" stroke="black" points="654.04,-248.96 661.27,-241.21 650.79,-242.76 654.04,-248.96"/>
</g>
<!-- com.practicalddd.cargotracker.tracking.domain.model.entities.TrackingActivityEvent -->
<g id="node5" class="node">
<title>com.practicalddd.cargotracker.tracking.domain.model.entities.TrackingActivityEvent</title>
<g id="a_node5"><a xlink:href="./domain.html#com.practicalddd.cargotracker.tracking.domain.model.entities.TrackingActivityEvent" xlink:title="追跡イベント\nTrackingActivityEvent">
<polygon fill="#eedd82" stroke="black" points="962.25,-240.12 821.75,-240.12 821.75,-201.38 962.25,-201.38 962.25,-240.12"/>
<text text-anchor="middle" x="892" y="-222.82" font-family="Times New Roman,serif" font-size="14.00">追跡イベント</text>
<text text-anchor="middle" x="892" y="-208.57" font-family="Times New Roman,serif" font-size="14.00">TrackingActivityEvent</text>
</a>
</g>
</g>
<!-- com.practicalddd.cargotracker.tracking.domain.model.aggregates.TrackingActivity&#45;&gt;com.practicalddd.cargotracker.tracking.domain.model.entities.TrackingActivityEvent -->
<g id="edge4" class="edge">
<title>com.practicalddd.cargotracker.tracking.domain.model.aggregates.TrackingActivity&#45;&gt;com.practicalddd.cargotracker.tracking.domain.model.entities.TrackingActivityEvent</title>
<path fill="none" stroke="black" d="M372.83,-300.66C483.54,-301.18 730.05,-299.3 810,-273.75 828.05,-267.98 846.05,-257.26 860.57,-247.04"/>
<polygon fill="black" stroke="black" points="862.35,-250.08 868.36,-241.35 858.22,-244.42 862.35,-250.08"/>
</g>
<!-- com.practicalddd.cargotracker.tracking.domain.model.entities.TrackingBookingId -->
<g id="node6" class="node">
<title>com.practicalddd.cargotracker.tracking.domain.model.entities.TrackingBookingId</title>
<g id="a_node6"><a xlink:href="./domain.html#com.practicalddd.cargotracker.tracking.domain.model.entities.TrackingBookingId" xlink:title="予約追跡ID\nTrackingBookingId">
<polygon fill="#eedd82" stroke="black" points="1103.25,-241.25 980.75,-241.25 980.75,-200.25 1103.25,-200.25 1103.25,-241.25"/>
<text text-anchor="middle" x="1042" y="-223.95" font-family="Times New Roman,serif" font-size="14.00">予約追跡ID</text>
<text text-anchor="middle" x="1042" y="-207.45" font-family="Times New Roman,serif" font-size="14.00">TrackingBookingId</text>
</a>
</g>
</g>
<!-- com.practicalddd.cargotracker.tracking.domain.model.aggregates.TrackingActivity&#45;&gt;com.practicalddd.cargotracker.tracking.domain.model.entities.TrackingBookingId -->
<g id="edge5" class="edge">
<title>com.practicalddd.cargotracker.tracking.domain.model.aggregates.TrackingActivity&#45;&gt;com.practicalddd.cargotracker.tracking.domain.model.entities.TrackingBookingId</title>
<path fill="none" stroke="black" d="M372.92,-299.74C519.98,-298.45 915.37,-293.19 971,-273.75 986.29,-268.41 1001.08,-258.58 1013.18,-248.89"/>
<polygon fill="black" stroke="black" points="1015.3,-251.67 1020.71,-242.56 1010.8,-246.32 1015.3,-251.67"/>
</g>
<!-- com.practicalddd.cargotracker.tracking.domain.model.valueobjects.TrackingEvent -->
<g id="node7" class="node">
<title>com.practicalddd.cargotracker.tracking.domain.model.valueobjects.TrackingEvent</title>
<g id="a_node7"><a xlink:href="./domain.html#com.practicalddd.cargotracker.tracking.domain.model.valueobjects.TrackingEvent" xlink:title="追跡イベント詳細\nTrackingEvent">
<polygon fill="#eedd82" stroke="black" points="1197,-151.75 1043,-151.75 1043,-113 1197,-113 1197,-151.75"/>
<text text-anchor="middle" x="1120" y="-134.45" font-family="Times New Roman,serif" font-size="14.00">追跡イベント詳細</text>
<text text-anchor="middle" x="1120" y="-120.2" font-family="Times New Roman,serif" font-size="14.00">TrackingEvent</text>
</a>
</g>
</g>
<!-- com.practicalddd.cargotracker.tracking.domain.model.aggregates.TrackingActivity&#45;&gt;com.practicalddd.cargotracker.tracking.domain.model.valueobjects.TrackingEvent -->
<g id="edge6" class="edge">
<title>com.practicalddd.cargotracker.tracking.domain.model.aggregates.TrackingActivity&#45;&gt;com.practicalddd.cargotracker.tracking.domain.model.valueobjects.TrackingEvent</title>
<path fill="none" stroke="black" d="M372.69,-300.51C556.95,-301.52 1145.12,-302.5 1173,-273.75 1198.22,-247.75 1185.98,-226.07 1173,-192.25 1168.4,-180.26 1160.1,-169.18 1151.41,-159.94"/>
<polygon fill="black" stroke="black" points="1154.06,-157.64 1144.49,-153.07 1149.12,-162.6 1154.06,-157.64"/>
</g>
<!-- com.practicalddd.cargotracker.tracking.domain.model.valueobjects.TrackingEventType -->
<g id="node8" class="node">
<title>com.practicalddd.cargotracker.tracking.domain.model.valueobjects.TrackingEventType</title>
<g id="a_node8"><a xlink:href="./domain.html#com.practicalddd.cargotracker.tracking.domain.model.valueobjects.TrackingEventType" xlink:title="追跡イベントタイプ\nTrackingEventType">
<polygon fill="#eedd82" stroke="black" points="1160.62,-77 989.38,-77 989.38,-38.25 1160.62,-38.25 1160.62,-77"/>
<text text-anchor="middle" x="1075" y="-59.7" font-family="Times New Roman,serif" font-size="14.00">追跡イベントタイプ</text>
<text text-anchor="middle" x="1075" y="-45.45" font-family="Times New Roman,serif" font-size="14.00">TrackingEventType</text>
</a>
</g>
</g>
<!-- com.practicalddd.cargotracker.tracking.domain.model.aggregates.TrackingActivity&#45;&gt;com.practicalddd.cargotracker.tracking.domain.model.valueobjects.TrackingEventType -->
<g id="edge7" class="edge">
<title>com.practicalddd.cargotracker.tracking.domain.model.aggregates.TrackingActivity&#45;&gt;com.practicalddd.cargotracker.tracking.domain.model.valueobjects.TrackingEventType</title>
<path fill="none" stroke="black" d="M372.92,-300.41C560.13,-301.12 1163.47,-301.28 1194,-273.75 1247.2,-225.77 1245.78,-172.58 1206,-113 1197.31,-99.98 1184.85,-90.08 1171.04,-82.54"/>
<polygon fill="black" stroke="black" points="1172.65,-79.43 1162.14,-78.13 1169.55,-85.7 1172.65,-79.43"/>
</g>
<!-- com.practicalddd.cargotracker.tracking.domain.model.valueobjects.TrackingLocation -->
<g id="node9" class="node">
<title>com.practicalddd.cargotracker.tracking.domain.model.valueobjects.TrackingLocation</title>
<g id="a_node9"><a xlink:href="./domain.html#com.practicalddd.cargotracker.tracking.domain.model.valueobjects.TrackingLocation" xlink:title="追跡位置\nTrackingLocation">
<polygon fill="#eedd82" stroke="black" points="1291.38,-77 1178.62,-77 1178.62,-38.25 1291.38,-38.25 1291.38,-77"/>
<text text-anchor="middle" x="1235" y="-59.7" font-family="Times New Roman,serif" font-size="14.00">追跡位置</text>
<text text-anchor="middle" x="1235" y="-45.45" font-family="Times New Roman,serif" font-size="14.00">TrackingLocation</text>
</a>
</g>
</g>
<!-- com.practicalddd.cargotracker.tracking.domain.model.aggregates.TrackingActivity&#45;&gt;com.practicalddd.cargotracker.tracking.domain.model.valueobjects.TrackingLocation -->
<g id="edge8" class="edge">
<title>com.practicalddd.cargotracker.tracking.domain.model.aggregates.TrackingActivity&#45;&gt;com.practicalddd.cargotracker.tracking.domain.model.valueobjects.TrackingLocation</title>
<path fill="none" stroke="black" d="M372.77,-300.55C564.74,-301.76 1197.12,-303.48 1228,-273.75 1277.76,-225.85 1259.31,-134.97 1245.21,-88.15"/>
<polygon fill="black" stroke="black" points="1248.57,-87.17 1242.22,-78.69 1241.9,-89.28 1248.57,-87.17"/>
</g>
<!-- com.practicalddd.cargotracker.tracking.domain.model.valueobjects.TrackingVoyageNumber -->
<g id="node10" class="node">
<title>com.practicalddd.cargotracker.tracking.domain.model.valueobjects.TrackingVoyageNumber</title>
<g id="a_node10"><a xlink:href="./domain.html#com.practicalddd.cargotracker.tracking.domain.model.valueobjects.TrackingVoyageNumber" xlink:title="追跡航海番号\nTrackingVoyageNumber">
<polygon fill="#eedd82" stroke="black" points="1460.12,-77 1309.88,-77 1309.88,-38.25 1460.12,-38.25 1460.12,-77"/>
<text text-anchor="middle" x="1385" y="-59.7" font-family="Times New Roman,serif" font-size="14.00">追跡航海番号</text>
<text text-anchor="middle" x="1385" y="-45.45" font-family="Times New Roman,serif" font-size="14.00">TrackingVoyageNumber</text>
</a>
</g>
</g>
<!-- com.practicalddd.cargotracker.tracking.domain.model.aggregates.TrackingActivity&#45;&gt;com.practicalddd.cargotracker.tracking.domain.model.valueobjects.TrackingVoyageNumber -->
<g id="edge9" class="edge">
<title>com.practicalddd.cargotracker.tracking.domain.model.aggregates.TrackingActivity&#45;&gt;com.practicalddd.cargotracker.tracking.domain.model.valueobjects.TrackingVoyageNumber</title>
<path fill="none" stroke="black" d="M372.79,-300.04C567.97,-299.57 1219.77,-296.29 1258,-273.75 1327.72,-232.64 1363.28,-137.15 1377.43,-88.41"/>
<polygon fill="black" stroke="black" points="1380.79,-89.39 1380.1,-78.82 1374.05,-87.52 1380.79,-89.39"/>
</g>
<!-- com.practicalddd.cargotracker.tracking.domain.model.entities.TrackingActivityEvent&#45;&gt;com.practicalddd.cargotracker.tracking.domain.model.valueobjects.TrackingEvent -->
<g id="edge10" class="edge">
<title>com.practicalddd.cargotracker.tracking.domain.model.entities.TrackingActivityEvent&#45;&gt;com.practicalddd.cargotracker.tracking.domain.model.valueobjects.TrackingEvent</title>
<path fill="none" stroke="black" d="M941.75,-200.9C976.46,-187.75 1022.95,-170.14 1059.76,-156.2"/>
<polygon fill="black" stroke="black" points="1060.83,-159.54 1068.94,-152.72 1058.35,-152.99 1060.83,-159.54"/>
</g>
<!-- com.practicalddd.cargotracker.tracking.domain.model.valueobjects.TrackingEvent&#45;&gt;com.practicalddd.cargotracker.tracking.domain.model.valueobjects.TrackingEventType -->
<g id="edge11" class="edge">
<title>com.practicalddd.cargotracker.tracking.domain.model.valueobjects.TrackingEvent&#45;&gt;com.practicalddd.cargotracker.tracking.domain.model.valueobjects.TrackingEventType</title>
<path fill="none" stroke="black" d="M1108.41,-112.64C1103.58,-104.83 1097.87,-95.6 1092.54,-86.99"/>
<polygon fill="black" stroke="black" points="1095.58,-85.25 1087.35,-78.58 1089.63,-88.93 1095.58,-85.25"/>
</g>
<!-- com.practicalddd.cargotracker.tracking.domain.model.valueobjects.TrackingEvent&#45;&gt;com.practicalddd.cargotracker.tracking.domain.model.valueobjects.TrackingLocation -->
<g id="edge12" class="edge">
<title>com.practicalddd.cargotracker.tracking.domain.model.valueobjects.TrackingEvent&#45;&gt;com.practicalddd.cargotracker.tracking.domain.model.valueobjects.TrackingLocation</title>
<path fill="none" stroke="black" d="M1149.62,-112.64C1163.7,-103.73 1180.73,-92.96 1195.86,-83.38"/>
<polygon fill="black" stroke="black" points="1197.63,-86.41 1204.21,-78.11 1193.88,-80.49 1197.63,-86.41"/>
</g>
<!-- com.practicalddd.cargotracker.tracking.domain.model.valueobjects.TrackingEvent&#45;&gt;com.practicalddd.cargotracker.tracking.domain.model.valueobjects.TrackingVoyageNumber -->
<g id="edge13" class="edge">
<title>com.practicalddd.cargotracker.tracking.domain.model.valueobjects.TrackingEvent&#45;&gt;com.practicalddd.cargotracker.tracking.domain.model.valueobjects.TrackingVoyageNumber</title>
<path fill="none" stroke="black" d="M1188.59,-112.55C1224.46,-102.7 1268.55,-90.59 1305.86,-80.35"/>
<polygon fill="black" stroke="black" points="1306.52,-83.8 1315.24,-77.78 1304.67,-77.05 1306.52,-83.8"/>
</g>
</g>
</svg>
