<?xml version="1.0" encoding="UTF-8" standalone="no"?>
<!DOCTYPE svg PUBLIC "-//W3C//DTD SVG 1.1//EN"
 "http://www.w3.org/Graphics/SVG/1.1/DTD/svg11.dtd">
<!-- Generated by graphviz version 12.2.0 (20241103.1931)
 -->
<!-- Title: ビジネスルール関連図 Pages: 1 -->
<svg width="1759pt" height="371pt"
 viewBox="0.00 0.00 1759.00 370.75" xmlns="http://www.w3.org/2000/svg" xmlns:xlink="http://www.w3.org/1999/xlink">
<g id="graph0" class="graph" transform="scale(1 1) rotate(0) translate(4 366.75)">
<title>ビジネスルール関連図</title>
<polygon fill="white" stroke="none" points="-4,4 -4,-366.75 1755,-366.75 1755,4 -4,4"/>
<text text-anchor="middle" x="875.5" y="-4.95" font-family="Times New Roman,serif" font-size="14.00">ビジネスルール関連図</text>
<g id="clust1" class="cluster">
<title>cluster_com.practicalddd.cargotracker.tracking.domain.model.aggregates</title>
<polygon fill="lemonchiffon" stroke="#eedd82" stroke-width="2" points="8,-199.25 8,-354.75 381,-354.75 381,-199.25 8,-199.25"/>
<text text-anchor="middle" x="194.5" y="-337.45" font-family="Times New Roman,serif" font-size="14.00">com.practicalddd.cargotracker.tracking.domain.model.aggregates</text>
</g>
<g id="clust2" class="cluster">
<title>cluster_com.practicalddd.cargotracker.tracking.domain.model.commands</title>
<polygon fill="lemonchiffon" stroke="#eedd82" stroke-width="2" points="389,-196.75 389,-278.25 857,-278.25 857,-196.75 389,-196.75"/>
<text text-anchor="middle" x="623" y="-260.95" font-family="Times New Roman,serif" font-size="14.00">com.practicalddd.cargotracker.tracking.domain.model.commands</text>
</g>
<g id="clust3" class="cluster">
<title>cluster_com.practicalddd.cargotracker.tracking.domain.model.entities</title>
<polygon fill="lemonchiffon" stroke="#eedd82" stroke-width="2" points="865,-196.75 865,-278.25 1301,-278.25 1301,-196.75 865,-196.75"/>
<text text-anchor="middle" x="1083" y="-260.95" font-family="Times New Roman,serif" font-size="14.00">com.practicalddd.cargotracker.tracking.domain.model.entities</text>
</g>
<g id="clust4" class="cluster">
<title>cluster_com.practicalddd.cargotracker.tracking.domain.model.valueobjects</title>
<polygon fill="lemonchiffon" stroke="#eedd82" stroke-width="2" points="941,-30.25 941,-188.75 1743,-188.75 1743,-30.25 941,-30.25"/>
<text text-anchor="middle" x="1342" y="-171.45" font-family="Times New Roman,serif" font-size="14.00">com.practicalddd.cargotracker.tracking.domain.model.valueobjects</text>
</g>
<!-- com.practicalddd.cargotracker.tracking.domain.model.aggregates.TrackingActivity -->
<g id="node1" class="node">
<title>com.practicalddd.cargotracker.tracking.domain.model.aggregates.TrackingActivity</title>
<g id="a_node1"><a xlink:href="./domain.html#com.practicalddd.cargotracker.tracking.domain.model.aggregates.TrackingActivity" xlink:title="TrackingActivity">
<polygon fill="#eedd82" stroke="black" points="372.5,-322.25 263.5,-322.25 263.5,-286.25 372.5,-286.25 372.5,-322.25"/>
<text text-anchor="middle" x="318" y="-299.2" font-family="Times New Roman,serif" font-size="14.00">TrackingActivity</text>
</a>
</g>
</g>
<!-- com.practicalddd.cargotracker.tracking.domain.model.aggregates.TrackingNumber -->
<g id="node2" class="node">
<title>com.practicalddd.cargotracker.tracking.domain.model.aggregates.TrackingNumber</title>
<g id="a_node2"><a xlink:href="./domain.html#com.practicalddd.cargotracker.tracking.domain.model.aggregates.TrackingNumber" xlink:title="TrackingNumber">
<polygon fill="#eedd82" stroke="black" points="372.88,-243.25 263.12,-243.25 263.12,-207.25 372.88,-207.25 372.88,-243.25"/>
<text text-anchor="middle" x="318" y="-220.2" font-family="Times New Roman,serif" font-size="14.00">TrackingNumber</text>
</a>
</g>
</g>
<!-- com.practicalddd.cargotracker.tracking.domain.model.aggregates.TrackingActivity&#45;&gt;com.practicalddd.cargotracker.tracking.domain.model.aggregates.TrackingNumber -->
<g id="edge1" class="edge">
<title>com.practicalddd.cargotracker.tracking.domain.model.aggregates.TrackingActivity&#45;&gt;com.practicalddd.cargotracker.tracking.domain.model.aggregates.TrackingNumber</title>
<path fill="none" stroke="black" d="M318,-285.78C318,-276.72 318,-265.42 318,-255.11"/>
<polygon fill="black" stroke="black" points="321.5,-255.17 318,-245.17 314.5,-255.17 321.5,-255.17"/>
</g>
<!-- com.practicalddd.cargotracker.tracking.domain.model.commands.AddTrackingEventCommand -->
<g id="node3" class="node">
<title>com.practicalddd.cargotracker.tracking.domain.model.commands.AddTrackingEventCommand</title>
<g id="a_node3"><a xlink:href="./domain.html#com.practicalddd.cargotracker.tracking.domain.model.commands.AddTrackingEventCommand" xlink:title="Add Tracking Event Command\nAddTrackingEventCommand">
<polygon fill="#eedd82" stroke="black" points="584.88,-245.75 397.12,-245.75 397.12,-204.75 584.88,-204.75 584.88,-245.75"/>
<text text-anchor="middle" x="491" y="-228.45" font-family="Times New Roman,serif" font-size="14.00">Add Tracking Event Command</text>
<text text-anchor="middle" x="491" y="-211.95" font-family="Times New Roman,serif" font-size="14.00">AddTrackingEventCommand</text>
</a>
</g>
</g>
<!-- com.practicalddd.cargotracker.tracking.domain.model.aggregates.TrackingActivity&#45;&gt;com.practicalddd.cargotracker.tracking.domain.model.commands.AddTrackingEventCommand -->
<g id="edge2" class="edge">
<title>com.practicalddd.cargotracker.tracking.domain.model.aggregates.TrackingActivity&#45;&gt;com.practicalddd.cargotracker.tracking.domain.model.commands.AddTrackingEventCommand</title>
<path fill="none" stroke="black" d="M366.53,-285.79C372.79,-283.35 379.07,-280.8 385,-278.25 404.04,-270.05 424.59,-260.21 442.47,-251.31"/>
<polygon fill="black" stroke="black" points="443.94,-254.49 451.31,-246.88 440.8,-248.23 443.94,-254.49"/>
</g>
<!-- com.practicalddd.cargotracker.tracking.domain.model.commands.AssignTrackingNumberCommand -->
<g id="node4" class="node">
<title>com.practicalddd.cargotracker.tracking.domain.model.commands.AssignTrackingNumberCommand</title>
<g id="a_node4"><a xlink:href="./domain.html#com.practicalddd.cargotracker.tracking.domain.model.commands.AssignTrackingNumberCommand" xlink:title="Assign Tracking Number Command class\nAssignTrackingNumberCommand">
<polygon fill="#eedd82" stroke="black" points="848.75,-245.75 603.25,-245.75 603.25,-204.75 848.75,-204.75 848.75,-245.75"/>
<text text-anchor="middle" x="726" y="-228.45" font-family="Times New Roman,serif" font-size="14.00">Assign Tracking Number Command class</text>
<text text-anchor="middle" x="726" y="-211.95" font-family="Times New Roman,serif" font-size="14.00">AssignTrackingNumberCommand</text>
</a>
</g>
</g>
<!-- com.practicalddd.cargotracker.tracking.domain.model.aggregates.TrackingActivity&#45;&gt;com.practicalddd.cargotracker.tracking.domain.model.commands.AssignTrackingNumberCommand -->
<g id="edge3" class="edge">
<title>com.practicalddd.cargotracker.tracking.domain.model.aggregates.TrackingActivity&#45;&gt;com.practicalddd.cargotracker.tracking.domain.model.commands.AssignTrackingNumberCommand</title>
<path fill="none" stroke="black" d="M372.94,-302.85C429.17,-301.39 518.74,-296.09 594,-278.25 621.24,-271.79 650.32,-260.81 674.23,-250.61"/>
<polygon fill="black" stroke="black" points="675.32,-253.95 683.1,-246.75 672.53,-247.53 675.32,-253.95"/>
</g>
<!-- com.practicalddd.cargotracker.tracking.domain.model.entities.TrackingActivityEvent -->
<g id="node5" class="node">
<title>com.practicalddd.cargotracker.tracking.domain.model.entities.TrackingActivityEvent</title>
<g id="a_node5"><a xlink:href="./domain.html#com.practicalddd.cargotracker.tracking.domain.model.entities.TrackingActivityEvent" xlink:title="TrackingActivityEvent">
<polygon fill="#eedd82" stroke="black" points="1013.25,-243.25 872.75,-243.25 872.75,-207.25 1013.25,-207.25 1013.25,-243.25"/>
<text text-anchor="middle" x="943" y="-220.2" font-family="Times New Roman,serif" font-size="14.00">TrackingActivityEvent</text>
</a>
</g>
</g>
<!-- com.practicalddd.cargotracker.tracking.domain.model.aggregates.TrackingActivity&#45;&gt;com.practicalddd.cargotracker.tracking.domain.model.entities.TrackingActivityEvent -->
<g id="edge4" class="edge">
<title>com.practicalddd.cargotracker.tracking.domain.model.aggregates.TrackingActivity&#45;&gt;com.practicalddd.cargotracker.tracking.domain.model.entities.TrackingActivityEvent</title>
<path fill="none" stroke="black" d="M372.79,-302.32C501.42,-299.92 815.38,-292.64 861,-278.25 879.73,-272.34 898.39,-261.05 913.17,-250.49"/>
<polygon fill="black" stroke="black" points="915.12,-253.39 921.07,-244.62 910.95,-247.77 915.12,-253.39"/>
</g>
<!-- com.practicalddd.cargotracker.tracking.domain.model.entities.TrackingBookingId -->
<g id="node6" class="node">
<title>com.practicalddd.cargotracker.tracking.domain.model.entities.TrackingBookingId</title>
<g id="a_node6"><a xlink:href="./domain.html#com.practicalddd.cargotracker.tracking.domain.model.entities.TrackingBookingId" xlink:title="Aggregate Identifier for the Cargo Aggregate\nTrackingBookingId">
<polygon fill="#eedd82" stroke="black" points="1293,-245.75 1031,-245.75 1031,-204.75 1293,-204.75 1293,-245.75"/>
<text text-anchor="middle" x="1162" y="-228.45" font-family="Times New Roman,serif" font-size="14.00">Aggregate Identifier for the Cargo Aggregate</text>
<text text-anchor="middle" x="1162" y="-211.95" font-family="Times New Roman,serif" font-size="14.00">TrackingBookingId</text>
</a>
</g>
</g>
<!-- com.practicalddd.cargotracker.tracking.domain.model.aggregates.TrackingActivity&#45;&gt;com.practicalddd.cargotracker.tracking.domain.model.entities.TrackingBookingId -->
<g id="edge5" class="edge">
<title>com.practicalddd.cargotracker.tracking.domain.model.aggregates.TrackingActivity&#45;&gt;com.practicalddd.cargotracker.tracking.domain.model.entities.TrackingBookingId</title>
<path fill="none" stroke="black" d="M372.89,-303.56C516.03,-304.01 898.13,-302.79 1022,-278.25 1051.49,-272.41 1082.98,-261.19 1108.61,-250.67"/>
<polygon fill="black" stroke="black" points="1109.96,-253.9 1117.82,-246.8 1107.25,-247.45 1109.96,-253.9"/>
</g>
<!-- com.practicalddd.cargotracker.tracking.domain.model.valueobjects.TrackingEvent -->
<g id="node7" class="node">
<title>com.practicalddd.cargotracker.tracking.domain.model.valueobjects.TrackingEvent</title>
<g id="a_node7"><a xlink:href="./domain.html#com.practicalddd.cargotracker.tracking.domain.model.valueobjects.TrackingEvent" xlink:title="Tracking Event Details\nTrackingEvent">
<polygon fill="#eedd82" stroke="black" points="1331,-156.25 1189,-156.25 1189,-115.25 1331,-115.25 1331,-156.25"/>
<text text-anchor="middle" x="1260" y="-138.95" font-family="Times New Roman,serif" font-size="14.00">Tracking Event Details</text>
<text text-anchor="middle" x="1260" y="-122.45" font-family="Times New Roman,serif" font-size="14.00">TrackingEvent</text>
</a>
</g>
</g>
<!-- com.practicalddd.cargotracker.tracking.domain.model.aggregates.TrackingActivity&#45;&gt;com.practicalddd.cargotracker.tracking.domain.model.valueobjects.TrackingEvent -->
<g id="edge6" class="edge">
<title>com.practicalddd.cargotracker.tracking.domain.model.aggregates.TrackingActivity&#45;&gt;com.practicalddd.cargotracker.tracking.domain.model.valueobjects.TrackingEvent</title>
<path fill="none" stroke="black" d="M372.87,-302.89C577.95,-301.4 1288.62,-295.05 1305,-278.25 1330.29,-252.31 1316.45,-231.11 1305,-196.75 1301.26,-185.54 1294.52,-174.74 1287.37,-165.46"/>
<polygon fill="black" stroke="black" points="1290.21,-163.4 1281.15,-157.91 1284.81,-167.85 1290.21,-163.4"/>
</g>
<!-- com.practicalddd.cargotracker.tracking.domain.model.valueobjects.TrackingEventType -->
<g id="node8" class="node">
<title>com.practicalddd.cargotracker.tracking.domain.model.valueobjects.TrackingEventType</title>
<g id="a_node8"><a xlink:href="./domain.html#com.practicalddd.cargotracker.tracking.domain.model.valueobjects.TrackingEventType" xlink:title="TrackingEventType">
<polygon fill="#eedd82" stroke="black" points="1072.62,-76.75 949.38,-76.75 949.38,-40.75 1072.62,-40.75 1072.62,-76.75"/>
<text text-anchor="middle" x="1011" y="-53.7" font-family="Times New Roman,serif" font-size="14.00">TrackingEventType</text>
</a>
</g>
</g>
<!-- com.practicalddd.cargotracker.tracking.domain.model.aggregates.TrackingActivity&#45;&gt;com.practicalddd.cargotracker.tracking.domain.model.valueobjects.TrackingEventType -->
<g id="edge7" class="edge">
<title>com.practicalddd.cargotracker.tracking.domain.model.aggregates.TrackingActivity&#45;&gt;com.practicalddd.cargotracker.tracking.domain.model.valueobjects.TrackingEventType</title>
<path fill="none" stroke="black" d="M372.88,-302.83C580.63,-301.14 1307.96,-294.08 1326,-278.25 1380.65,-230.29 1387.73,-170.1 1340,-115.25 1304,-73.88 1155.57,-89.07 1084.04,-79.15"/>
<polygon fill="black" stroke="black" points="1084.78,-75.72 1074.33,-77.5 1083.61,-82.62 1084.78,-75.72"/>
</g>
<!-- com.practicalddd.cargotracker.tracking.domain.model.valueobjects.TrackingLocation -->
<g id="node9" class="node">
<title>com.practicalddd.cargotracker.tracking.domain.model.valueobjects.TrackingLocation</title>
<g id="a_node9"><a xlink:href="./domain.html#com.practicalddd.cargotracker.tracking.domain.model.valueobjects.TrackingLocation" xlink:title="TrackingLocation class represented by a unique 5&#45;diigit UN TrackingLocation code.\nTrackingLocation">
<polygon fill="#eedd82" stroke="black" points="1566.88,-79.25 1091.12,-79.25 1091.12,-38.25 1566.88,-38.25 1566.88,-79.25"/>
<text text-anchor="middle" x="1329" y="-61.95" font-family="Times New Roman,serif" font-size="14.00">TrackingLocation class represented by a unique 5&#45;diigit UN TrackingLocation code.</text>
<text text-anchor="middle" x="1329" y="-45.45" font-family="Times New Roman,serif" font-size="14.00">TrackingLocation</text>
</a>
</g>
</g>
<!-- com.practicalddd.cargotracker.tracking.domain.model.aggregates.TrackingActivity&#45;&gt;com.practicalddd.cargotracker.tracking.domain.model.valueobjects.TrackingLocation -->
<g id="edge8" class="edge">
<title>com.practicalddd.cargotracker.tracking.domain.model.aggregates.TrackingActivity&#45;&gt;com.practicalddd.cargotracker.tracking.domain.model.valueobjects.TrackingLocation</title>
<path fill="none" stroke="black" d="M372.75,-302.93C585.28,-301.55 1344.87,-295.42 1363,-278.25 1415.64,-228.38 1392.68,-184.12 1370,-115.25 1366.88,-105.76 1361.44,-96.57 1355.52,-88.48"/>
<polygon fill="black" stroke="black" points="1358.35,-86.42 1349.41,-80.74 1352.86,-90.76 1358.35,-86.42"/>
</g>
<!-- com.practicalddd.cargotracker.tracking.domain.model.valueobjects.TrackingVoyageNumber -->
<g id="node10" class="node">
<title>com.practicalddd.cargotracker.tracking.domain.model.valueobjects.TrackingVoyageNumber</title>
<g id="a_node10"><a xlink:href="./domain.html#com.practicalddd.cargotracker.tracking.domain.model.valueobjects.TrackingVoyageNumber" xlink:title="TrackingVoyageNumber">
<polygon fill="#eedd82" stroke="black" points="1735.12,-76.75 1584.88,-76.75 1584.88,-40.75 1735.12,-40.75 1735.12,-76.75"/>
<text text-anchor="middle" x="1660" y="-53.7" font-family="Times New Roman,serif" font-size="14.00">TrackingVoyageNumber</text>
</a>
</g>
</g>
<!-- com.practicalddd.cargotracker.tracking.domain.model.aggregates.TrackingActivity&#45;&gt;com.practicalddd.cargotracker.tracking.domain.model.valueobjects.TrackingVoyageNumber -->
<g id="edge9" class="edge">
<title>com.practicalddd.cargotracker.tracking.domain.model.aggregates.TrackingActivity&#45;&gt;com.practicalddd.cargotracker.tracking.domain.model.valueobjects.TrackingVoyageNumber</title>
<path fill="none" stroke="black" d="M372.94,-302.96C585.54,-301.73 1344.86,-296.07 1393,-278.25 1501.18,-238.2 1597.7,-134.75 1638.88,-85.96"/>
<polygon fill="black" stroke="black" points="1641.47,-88.32 1645.17,-78.4 1636.09,-83.84 1641.47,-88.32"/>
</g>
<!-- com.practicalddd.cargotracker.tracking.domain.model.entities.TrackingActivityEvent&#45;&gt;com.practicalddd.cargotracker.tracking.domain.model.valueobjects.TrackingEvent -->
<g id="edge10" class="edge">
<title>com.practicalddd.cargotracker.tracking.domain.model.entities.TrackingActivityEvent&#45;&gt;com.practicalddd.cargotracker.tracking.domain.model.valueobjects.TrackingEvent</title>
<path fill="none" stroke="black" d="M990.82,-206.85C1001.06,-203.33 1011.84,-199.79 1022,-196.75 1073.29,-181.39 1131.56,-166.66 1177.61,-155.63"/>
<polygon fill="black" stroke="black" points="1178.35,-159.05 1187.26,-153.33 1176.73,-152.24 1178.35,-159.05"/>
</g>
<!-- com.practicalddd.cargotracker.tracking.domain.model.valueobjects.TrackingEvent&#45;&gt;com.practicalddd.cargotracker.tracking.domain.model.valueobjects.TrackingEventType -->
<g id="edge11" class="edge">
<title>com.practicalddd.cargotracker.tracking.domain.model.valueobjects.TrackingEvent&#45;&gt;com.practicalddd.cargotracker.tracking.domain.model.valueobjects.TrackingEventType</title>
<path fill="none" stroke="black" d="M1193.93,-114.85C1158.67,-104.23 1115.34,-91.18 1079.69,-80.44"/>
<polygon fill="black" stroke="black" points="1080.93,-77.16 1070.35,-77.63 1078.91,-83.86 1080.93,-77.16"/>
</g>
<!-- com.practicalddd.cargotracker.tracking.domain.model.valueobjects.TrackingEvent&#45;&gt;com.practicalddd.cargotracker.tracking.domain.model.valueobjects.TrackingLocation -->
<g id="edge12" class="edge">
<title>com.practicalddd.cargotracker.tracking.domain.model.valueobjects.TrackingEvent&#45;&gt;com.practicalddd.cargotracker.tracking.domain.model.valueobjects.TrackingLocation</title>
<path fill="none" stroke="black" d="M1278.13,-115.04C1285.75,-106.76 1294.77,-96.96 1303.07,-87.93"/>
<polygon fill="black" stroke="black" points="1305.53,-90.43 1309.73,-80.7 1300.38,-85.69 1305.53,-90.43"/>
</g>
<!-- com.practicalddd.cargotracker.tracking.domain.model.valueobjects.TrackingEvent&#45;&gt;com.practicalddd.cargotracker.tracking.domain.model.valueobjects.TrackingVoyageNumber -->
<g id="edge13" class="edge">
<title>com.practicalddd.cargotracker.tracking.domain.model.valueobjects.TrackingEvent&#45;&gt;com.practicalddd.cargotracker.tracking.domain.model.valueobjects.TrackingVoyageNumber</title>
<path fill="none" stroke="black" d="M1331.43,-123.34C1393.04,-113.24 1484.66,-97.6 1574.6,-79.48"/>
<polygon fill="black" stroke="black" points="1575.26,-82.91 1584.36,-77.5 1573.86,-76.05 1575.26,-82.91"/>
</g>
</g>
</svg>
