<?xml version="1.0" encoding="UTF-8" standalone="no"?>
<!DOCTYPE svg PUBLIC "-//W3C//DTD SVG 1.1//EN"
 "http://www.w3.org/Graphics/SVG/1.1/DTD/svg11.dtd">
<!-- Generated by graphviz version 12.1.2 (20240928.0832)
 -->
<!-- Title: ビジネスルール関連図 Pages: 1 -->
<svg width="1759pt" height="372pt"
 viewBox="0.00 0.00 1759.00 371.50" xmlns="http://www.w3.org/2000/svg" xmlns:xlink="http://www.w3.org/1999/xlink">
<g id="graph0" class="graph" transform="scale(1 1) rotate(0) translate(4 367.5)">
<title>ビジネスルール関連図</title>
<polygon fill="white" stroke="none" points="-4,4 -4,-367.5 1755,-367.5 1755,4 -4,4"/>
<text text-anchor="middle" x="875.5" y="-5.7" font-family="Times,serif" font-size="14.00">ビジネスルール関連図</text>
<g id="clust1" class="cluster">
<title>cluster_com.practicalddd.cargotracker.tracking.domain.model.aggregates</title>
<polygon fill="lemonchiffon" stroke="#eedd82" stroke-width="2" points="8,-200 8,-355.5 381,-355.5 381,-200 8,-200"/>
<text text-anchor="middle" x="194.5" y="-338.2" font-family="Times,serif" font-size="14.00">com.practicalddd.cargotracker.tracking.domain.model.aggregates</text>
</g>
<g id="clust2" class="cluster">
<title>cluster_com.practicalddd.cargotracker.tracking.domain.model.commands</title>
<polygon fill="lemonchiffon" stroke="#eedd82" stroke-width="2" points="389,-197.5 389,-279 857,-279 857,-197.5 389,-197.5"/>
<text text-anchor="middle" x="623" y="-261.7" font-family="Times,serif" font-size="14.00">com.practicalddd.cargotracker.tracking.domain.model.commands</text>
</g>
<g id="clust3" class="cluster">
<title>cluster_com.practicalddd.cargotracker.tracking.domain.model.entities</title>
<polygon fill="lemonchiffon" stroke="#eedd82" stroke-width="2" points="865,-197.5 865,-279 1301,-279 1301,-197.5 865,-197.5"/>
<text text-anchor="middle" x="1083" y="-261.7" font-family="Times,serif" font-size="14.00">com.practicalddd.cargotracker.tracking.domain.model.entities</text>
</g>
<g id="clust4" class="cluster">
<title>cluster_com.practicalddd.cargotracker.tracking.domain.model.valueobjects</title>
<polygon fill="lemonchiffon" stroke="#eedd82" stroke-width="2" points="941,-31 941,-189.5 1743,-189.5 1743,-31 941,-31"/>
<text text-anchor="middle" x="1342" y="-172.2" font-family="Times,serif" font-size="14.00">com.practicalddd.cargotracker.tracking.domain.model.valueobjects</text>
</g>
<!-- com.practicalddd.cargotracker.tracking.domain.model.aggregates.TrackingActivity -->
<g id="node1" class="node">
<title>com.practicalddd.cargotracker.tracking.domain.model.aggregates.TrackingActivity</title>
<g id="a_node1"><a xlink:href="./domain.html#com.practicalddd.cargotracker.tracking.domain.model.aggregates.TrackingActivity" xlink:title="TrackingActivity">
<polygon fill="#eedd82" stroke="black" points="372.5,-323 263.5,-323 263.5,-287 372.5,-287 372.5,-323"/>
<text text-anchor="middle" x="318" y="-299.95" font-family="Times,serif" font-size="14.00">TrackingActivity</text>
</a>
</g>
</g>
<!-- com.practicalddd.cargotracker.tracking.domain.model.aggregates.TrackingNumber -->
<g id="node2" class="node">
<title>com.practicalddd.cargotracker.tracking.domain.model.aggregates.TrackingNumber</title>
<g id="a_node2"><a xlink:href="./domain.html#com.practicalddd.cargotracker.tracking.domain.model.aggregates.TrackingNumber" xlink:title="TrackingNumber">
<polygon fill="#eedd82" stroke="black" points="372.88,-244 263.12,-244 263.12,-208 372.88,-208 372.88,-244"/>
<text text-anchor="middle" x="318" y="-220.95" font-family="Times,serif" font-size="14.00">TrackingNumber</text>
</a>
</g>
</g>
<!-- com.practicalddd.cargotracker.tracking.domain.model.aggregates.TrackingActivity&#45;&gt;com.practicalddd.cargotracker.tracking.domain.model.aggregates.TrackingNumber -->
<g id="edge1" class="edge">
<title>com.practicalddd.cargotracker.tracking.domain.model.aggregates.TrackingActivity&#45;&gt;com.practicalddd.cargotracker.tracking.domain.model.aggregates.TrackingNumber</title>
<path fill="none" stroke="black" d="M318,-286.53C318,-277.47 318,-266.17 318,-255.86"/>
<polygon fill="black" stroke="black" points="321.5,-255.92 318,-245.92 314.5,-255.92 321.5,-255.92"/>
</g>
<!-- com.practicalddd.cargotracker.tracking.domain.model.commands.AddTrackingEventCommand -->
<g id="node3" class="node">
<title>com.practicalddd.cargotracker.tracking.domain.model.commands.AddTrackingEventCommand</title>
<g id="a_node3"><a xlink:href="./domain.html#com.practicalddd.cargotracker.tracking.domain.model.commands.AddTrackingEventCommand" xlink:title="Add Tracking Event Command\nAddTrackingEventCommand">
<polygon fill="#eedd82" stroke="black" points="584.88,-246.5 397.12,-246.5 397.12,-205.5 584.88,-205.5 584.88,-246.5"/>
<text text-anchor="middle" x="491" y="-229.2" font-family="Times,serif" font-size="14.00">Add Tracking Event Command</text>
<text text-anchor="middle" x="491" y="-212.7" font-family="Times,serif" font-size="14.00">AddTrackingEventCommand</text>
</a>
</g>
</g>
<!-- com.practicalddd.cargotracker.tracking.domain.model.aggregates.TrackingActivity&#45;&gt;com.practicalddd.cargotracker.tracking.domain.model.commands.AddTrackingEventCommand -->
<g id="edge2" class="edge">
<title>com.practicalddd.cargotracker.tracking.domain.model.aggregates.TrackingActivity&#45;&gt;com.practicalddd.cargotracker.tracking.domain.model.commands.AddTrackingEventCommand</title>
<path fill="none" stroke="black" d="M366.53,-286.54C372.79,-284.1 379.07,-281.55 385,-279 404.04,-270.8 424.59,-260.96 442.47,-252.06"/>
<polygon fill="black" stroke="black" points="443.94,-255.24 451.31,-247.63 440.8,-248.98 443.94,-255.24"/>
</g>
<!-- com.practicalddd.cargotracker.tracking.domain.model.commands.AssignTrackingNumberCommand -->
<g id="node4" class="node">
<title>com.practicalddd.cargotracker.tracking.domain.model.commands.AssignTrackingNumberCommand</title>
<g id="a_node4"><a xlink:href="./domain.html#com.practicalddd.cargotracker.tracking.domain.model.commands.AssignTrackingNumberCommand" xlink:title="Assign Tracking Number Command class\nAssignTrackingNumberCommand">
<polygon fill="#eedd82" stroke="black" points="848.75,-246.5 603.25,-246.5 603.25,-205.5 848.75,-205.5 848.75,-246.5"/>
<text text-anchor="middle" x="726" y="-229.2" font-family="Times,serif" font-size="14.00">Assign Tracking Number Command class</text>
<text text-anchor="middle" x="726" y="-212.7" font-family="Times,serif" font-size="14.00">AssignTrackingNumberCommand</text>
</a>
</g>
</g>
<!-- com.practicalddd.cargotracker.tracking.domain.model.aggregates.TrackingActivity&#45;&gt;com.practicalddd.cargotracker.tracking.domain.model.commands.AssignTrackingNumberCommand -->
<g id="edge3" class="edge">
<title>com.practicalddd.cargotracker.tracking.domain.model.aggregates.TrackingActivity&#45;&gt;com.practicalddd.cargotracker.tracking.domain.model.commands.AssignTrackingNumberCommand</title>
<path fill="none" stroke="black" d="M372.94,-303.6C429.17,-302.14 518.74,-296.84 594,-279 621.24,-272.54 650.32,-261.56 674.23,-251.36"/>
<polygon fill="black" stroke="black" points="675.32,-254.7 683.1,-247.5 672.53,-248.28 675.32,-254.7"/>
</g>
<!-- com.practicalddd.cargotracker.tracking.domain.model.entities.TrackingActivityEvent -->
<g id="node5" class="node">
<title>com.practicalddd.cargotracker.tracking.domain.model.entities.TrackingActivityEvent</title>
<g id="a_node5"><a xlink:href="./domain.html#com.practicalddd.cargotracker.tracking.domain.model.entities.TrackingActivityEvent" xlink:title="TrackingActivityEvent">
<polygon fill="#eedd82" stroke="black" points="1013.25,-244 872.75,-244 872.75,-208 1013.25,-208 1013.25,-244"/>
<text text-anchor="middle" x="943" y="-220.95" font-family="Times,serif" font-size="14.00">TrackingActivityEvent</text>
</a>
</g>
</g>
<!-- com.practicalddd.cargotracker.tracking.domain.model.aggregates.TrackingActivity&#45;&gt;com.practicalddd.cargotracker.tracking.domain.model.entities.TrackingActivityEvent -->
<g id="edge4" class="edge">
<title>com.practicalddd.cargotracker.tracking.domain.model.aggregates.TrackingActivity&#45;&gt;com.practicalddd.cargotracker.tracking.domain.model.entities.TrackingActivityEvent</title>
<path fill="none" stroke="black" d="M372.79,-303.07C501.42,-300.67 815.38,-293.39 861,-279 879.73,-273.09 898.39,-261.8 913.17,-251.24"/>
<polygon fill="black" stroke="black" points="915.12,-254.14 921.07,-245.37 910.95,-248.52 915.12,-254.14"/>
</g>
<!-- com.practicalddd.cargotracker.tracking.domain.model.entities.TrackingBookingId -->
<g id="node6" class="node">
<title>com.practicalddd.cargotracker.tracking.domain.model.entities.TrackingBookingId</title>
<g id="a_node6"><a xlink:href="./domain.html#com.practicalddd.cargotracker.tracking.domain.model.entities.TrackingBookingId" xlink:title="Aggregate Identifier for the Cargo Aggregate\nTrackingBookingId">
<polygon fill="#eedd82" stroke="black" points="1293,-246.5 1031,-246.5 1031,-205.5 1293,-205.5 1293,-246.5"/>
<text text-anchor="middle" x="1162" y="-229.2" font-family="Times,serif" font-size="14.00">Aggregate Identifier for the Cargo Aggregate</text>
<text text-anchor="middle" x="1162" y="-212.7" font-family="Times,serif" font-size="14.00">TrackingBookingId</text>
</a>
</g>
</g>
<!-- com.practicalddd.cargotracker.tracking.domain.model.aggregates.TrackingActivity&#45;&gt;com.practicalddd.cargotracker.tracking.domain.model.entities.TrackingBookingId -->
<g id="edge5" class="edge">
<title>com.practicalddd.cargotracker.tracking.domain.model.aggregates.TrackingActivity&#45;&gt;com.practicalddd.cargotracker.tracking.domain.model.entities.TrackingBookingId</title>
<path fill="none" stroke="black" d="M372.89,-304.31C516.03,-304.76 898.13,-303.54 1022,-279 1051.49,-273.16 1082.98,-261.94 1108.61,-251.42"/>
<polygon fill="black" stroke="black" points="1109.96,-254.65 1117.82,-247.55 1107.25,-248.2 1109.96,-254.65"/>
</g>
<!-- com.practicalddd.cargotracker.tracking.domain.model.valueobjects.TrackingEvent -->
<g id="node7" class="node">
<title>com.practicalddd.cargotracker.tracking.domain.model.valueobjects.TrackingEvent</title>
<g id="a_node7"><a xlink:href="./domain.html#com.practicalddd.cargotracker.tracking.domain.model.valueobjects.TrackingEvent" xlink:title="Tracking Event Details\nTrackingEvent">
<polygon fill="#eedd82" stroke="black" points="1331,-157 1189,-157 1189,-116 1331,-116 1331,-157"/>
<text text-anchor="middle" x="1260" y="-139.7" font-family="Times,serif" font-size="14.00">Tracking Event Details</text>
<text text-anchor="middle" x="1260" y="-123.2" font-family="Times,serif" font-size="14.00">TrackingEvent</text>
</a>
</g>
</g>
<!-- com.practicalddd.cargotracker.tracking.domain.model.aggregates.TrackingActivity&#45;&gt;com.practicalddd.cargotracker.tracking.domain.model.valueobjects.TrackingEvent -->
<g id="edge6" class="edge">
<title>com.practicalddd.cargotracker.tracking.domain.model.aggregates.TrackingActivity&#45;&gt;com.practicalddd.cargotracker.tracking.domain.model.valueobjects.TrackingEvent</title>
<path fill="none" stroke="black" d="M372.87,-303.64C577.95,-302.15 1288.62,-295.8 1305,-279 1330.29,-253.06 1316.45,-231.86 1305,-197.5 1301.26,-186.29 1294.52,-175.49 1287.37,-166.21"/>
<polygon fill="black" stroke="black" points="1290.21,-164.15 1281.15,-158.66 1284.81,-168.6 1290.21,-164.15"/>
</g>
<!-- com.practicalddd.cargotracker.tracking.domain.model.valueobjects.TrackingEventType -->
<g id="node8" class="node">
<title>com.practicalddd.cargotracker.tracking.domain.model.valueobjects.TrackingEventType</title>
<g id="a_node8"><a xlink:href="./domain.html#com.practicalddd.cargotracker.tracking.domain.model.valueobjects.TrackingEventType" xlink:title="TrackingEventType">
<polygon fill="#eedd82" stroke="black" points="1073,-77.5 949,-77.5 949,-41.5 1073,-41.5 1073,-77.5"/>
<text text-anchor="middle" x="1011" y="-54.45" font-family="Times,serif" font-size="14.00">TrackingEventType</text>
</a>
</g>
</g>
<!-- com.practicalddd.cargotracker.tracking.domain.model.aggregates.TrackingActivity&#45;&gt;com.practicalddd.cargotracker.tracking.domain.model.valueobjects.TrackingEventType -->
<g id="edge7" class="edge">
<title>com.practicalddd.cargotracker.tracking.domain.model.aggregates.TrackingActivity&#45;&gt;com.practicalddd.cargotracker.tracking.domain.model.valueobjects.TrackingEventType</title>
<path fill="none" stroke="black" d="M372.88,-303.58C580.63,-301.89 1307.96,-294.83 1326,-279 1380.65,-231.04 1387.73,-170.85 1340,-116 1304,-74.63 1155.57,-89.82 1084.04,-79.9"/>
<polygon fill="black" stroke="black" points="1084.78,-76.47 1074.33,-78.25 1083.61,-83.37 1084.78,-76.47"/>
</g>
<!-- com.practicalddd.cargotracker.tracking.domain.model.valueobjects.TrackingLocation -->
<g id="node9" class="node">
<title>com.practicalddd.cargotracker.tracking.domain.model.valueobjects.TrackingLocation</title>
<g id="a_node9"><a xlink:href="./domain.html#com.practicalddd.cargotracker.tracking.domain.model.valueobjects.TrackingLocation" xlink:title="TrackingLocation class represented by a unique 5&#45;diigit UN TrackingLocation code.\nTrackingLocation">
<polygon fill="#eedd82" stroke="black" points="1566.88,-80 1091.12,-80 1091.12,-39 1566.88,-39 1566.88,-80"/>
<text text-anchor="middle" x="1329" y="-62.7" font-family="Times,serif" font-size="14.00">TrackingLocation class represented by a unique 5&#45;diigit UN TrackingLocation code.</text>
<text text-anchor="middle" x="1329" y="-46.2" font-family="Times,serif" font-size="14.00">TrackingLocation</text>
</a>
</g>
</g>
<!-- com.practicalddd.cargotracker.tracking.domain.model.aggregates.TrackingActivity&#45;&gt;com.practicalddd.cargotracker.tracking.domain.model.valueobjects.TrackingLocation -->
<g id="edge8" class="edge">
<title>com.practicalddd.cargotracker.tracking.domain.model.aggregates.TrackingActivity&#45;&gt;com.practicalddd.cargotracker.tracking.domain.model.valueobjects.TrackingLocation</title>
<path fill="none" stroke="black" d="M372.75,-303.68C585.28,-302.3 1344.87,-296.17 1363,-279 1415.64,-229.13 1392.68,-184.87 1370,-116 1366.88,-106.51 1361.44,-97.32 1355.52,-89.23"/>
<polygon fill="black" stroke="black" points="1358.35,-87.17 1349.41,-81.49 1352.86,-91.51 1358.35,-87.17"/>
</g>
<!-- com.practicalddd.cargotracker.tracking.domain.model.valueobjects.TrackingVoyageNumber -->
<g id="node10" class="node">
<title>com.practicalddd.cargotracker.tracking.domain.model.valueobjects.TrackingVoyageNumber</title>
<g id="a_node10"><a xlink:href="./domain.html#com.practicalddd.cargotracker.tracking.domain.model.valueobjects.TrackingVoyageNumber" xlink:title="TrackingVoyageNumber">
<polygon fill="#eedd82" stroke="black" points="1735.12,-77.5 1584.88,-77.5 1584.88,-41.5 1735.12,-41.5 1735.12,-77.5"/>
<text text-anchor="middle" x="1660" y="-54.45" font-family="Times,serif" font-size="14.00">TrackingVoyageNumber</text>
</a>
</g>
</g>
<!-- com.practicalddd.cargotracker.tracking.domain.model.aggregates.TrackingActivity&#45;&gt;com.practicalddd.cargotracker.tracking.domain.model.valueobjects.TrackingVoyageNumber -->
<g id="edge9" class="edge">
<title>com.practicalddd.cargotracker.tracking.domain.model.aggregates.TrackingActivity&#45;&gt;com.practicalddd.cargotracker.tracking.domain.model.valueobjects.TrackingVoyageNumber</title>
<path fill="none" stroke="black" d="M372.94,-303.71C585.54,-302.48 1344.86,-296.82 1393,-279 1501.18,-238.95 1597.7,-135.5 1638.88,-86.71"/>
<polygon fill="black" stroke="black" points="1641.47,-89.07 1645.17,-79.15 1636.09,-84.59 1641.47,-89.07"/>
</g>
<!-- com.practicalddd.cargotracker.tracking.domain.model.entities.TrackingActivityEvent&#45;&gt;com.practicalddd.cargotracker.tracking.domain.model.valueobjects.TrackingEvent -->
<g id="edge10" class="edge">
<title>com.practicalddd.cargotracker.tracking.domain.model.entities.TrackingActivityEvent&#45;&gt;com.practicalddd.cargotracker.tracking.domain.model.valueobjects.TrackingEvent</title>
<path fill="none" stroke="black" d="M990.82,-207.6C1001.06,-204.08 1011.84,-200.54 1022,-197.5 1073.29,-182.14 1131.56,-167.41 1177.61,-156.38"/>
<polygon fill="black" stroke="black" points="1178.35,-159.8 1187.26,-154.08 1176.73,-152.99 1178.35,-159.8"/>
</g>
<!-- com.practicalddd.cargotracker.tracking.domain.model.valueobjects.TrackingEvent&#45;&gt;com.practicalddd.cargotracker.tracking.domain.model.valueobjects.TrackingEventType -->
<g id="edge11" class="edge">
<title>com.practicalddd.cargotracker.tracking.domain.model.valueobjects.TrackingEvent&#45;&gt;com.practicalddd.cargotracker.tracking.domain.model.valueobjects.TrackingEventType</title>
<path fill="none" stroke="black" d="M1193.93,-115.6C1158.67,-104.98 1115.34,-91.93 1079.69,-81.19"/>
<polygon fill="black" stroke="black" points="1080.93,-77.91 1070.35,-78.38 1078.91,-84.61 1080.93,-77.91"/>
</g>
<!-- com.practicalddd.cargotracker.tracking.domain.model.valueobjects.TrackingEvent&#45;&gt;com.practicalddd.cargotracker.tracking.domain.model.valueobjects.TrackingLocation -->
<g id="edge12" class="edge">
<title>com.practicalddd.cargotracker.tracking.domain.model.valueobjects.TrackingEvent&#45;&gt;com.practicalddd.cargotracker.tracking.domain.model.valueobjects.TrackingLocation</title>
<path fill="none" stroke="black" d="M1278.13,-115.79C1285.75,-107.51 1294.77,-97.71 1303.07,-88.68"/>
<polygon fill="black" stroke="black" points="1305.53,-91.18 1309.73,-81.45 1300.38,-86.44 1305.53,-91.18"/>
</g>
<!-- com.practicalddd.cargotracker.tracking.domain.model.valueobjects.TrackingEvent&#45;&gt;com.practicalddd.cargotracker.tracking.domain.model.valueobjects.TrackingVoyageNumber -->
<g id="edge13" class="edge">
<title>com.practicalddd.cargotracker.tracking.domain.model.valueobjects.TrackingEvent&#45;&gt;com.practicalddd.cargotracker.tracking.domain.model.valueobjects.TrackingVoyageNumber</title>
<path fill="none" stroke="black" d="M1331.43,-124.09C1393.04,-113.99 1484.66,-98.35 1574.6,-80.23"/>
<polygon fill="black" stroke="black" points="1575.26,-83.66 1584.36,-78.25 1573.86,-76.8 1575.26,-83.66"/>
</g>
</g>
</svg>
