<?xml version="1.0" encoding="UTF-8" standalone="no"?>
<!DOCTYPE svg PUBLIC "-//W3C//DTD SVG 1.1//EN"
 "http://www.w3.org/Graphics/SVG/1.1/DTD/svg11.dtd">
<!-- Generated by graphviz version 12.2.0 (20241103.1931)
 -->
<!-- Title: パッケージ関連図 Pages: 1 -->
<svg width="518pt" height="237pt"
 viewBox="0.00 0.00 518.25 237.25" xmlns="http://www.w3.org/2000/svg" xmlns:xlink="http://www.w3.org/1999/xlink">
<g id="graph0" class="graph" transform="scale(1 1) rotate(0) translate(4 233.25)">
<title>パッケージ関連図</title>
<polygon fill="white" stroke="none" points="-4,4 -4,-233.25 514.25,-233.25 514.25,4 -4,4"/>
<text text-anchor="middle" x="255.12" y="-4.95" font-family="Times New Roman,serif" font-size="14.00">パッケージ関連図</text>
<!-- summary -->
<g id="node1" class="node">
<title>summary</title>
<polygon fill="none" stroke="black" points="335.5,-229.25 0,-229.25 0,-171.75 341.5,-171.75 341.5,-223.25 335.5,-229.25"/>
<polyline fill="none" stroke="black" points="335.5,-229.25 335.5,-223.25"/>
<polyline fill="none" stroke="black" points="341.5,-223.25 335.5,-223.25"/>
<text text-anchor="start" x="8" y="-211.95" font-family="Times New Roman,serif" font-size="14.00">root: com.practicalddd.cargotracker.tracking.domain.model</text>
<text text-anchor="start" x="8" y="-195.45" font-family="Times New Roman,serif" font-size="14.00">パッケージ数: 4</text>
<text text-anchor="start" x="8" y="-178.95" font-family="Times New Roman,serif" font-size="14.00">関連数: 4</text>
</g>
<!-- com.practicalddd.cargotracker.tracking.domain.model.entities -->
<g id="node2" class="node">
<title>com.practicalddd.cargotracker.tracking.domain.model.entities</title>
<g id="a_node2"><a xlink:href="./domain.html#com.practicalddd.cargotracker.tracking.domain.model.entities" xlink:title="コマンド\nentities">
<polygon fill="#eedd82" stroke="black" points="368.25,-135.75 283.25,-135.75 283.25,-97 368.25,-97 368.25,-135.75"/>
<text text-anchor="middle" x="325.75" y="-118.45" font-family="Times New Roman,serif" font-size="14.00">コマンド</text>
<text text-anchor="middle" x="325.75" y="-104.2" font-family="Times New Roman,serif" font-size="14.00">entities</text>
</a>
</g>
</g>
<!-- com.practicalddd.cargotracker.tracking.domain.model.valueobjects -->
<g id="node3" class="node">
<title>com.practicalddd.cargotracker.tracking.domain.model.valueobjects</title>
<g id="a_node3"><a xlink:href="./domain.html#com.practicalddd.cargotracker.tracking.domain.model.valueobjects" xlink:title="値オブジェクト\nvalueobjects">
<polygon fill="#eedd82" stroke="black" points="429.12,-61 292.38,-61 292.38,-22.25 429.12,-22.25 429.12,-61"/>
<text text-anchor="middle" x="360.75" y="-43.7" font-family="Times New Roman,serif" font-size="14.00">値オブジェクト</text>
<text text-anchor="middle" x="360.75" y="-29.45" font-family="Times New Roman,serif" font-size="14.00">valueobjects</text>
</a>
</g>
</g>
<!-- com.practicalddd.cargotracker.tracking.domain.model.entities&#45;&gt;com.practicalddd.cargotracker.tracking.domain.model.valueobjects -->
<g id="edge1" class="edge">
<title>com.practicalddd.cargotracker.tracking.domain.model.entities&#45;&gt;com.practicalddd.cargotracker.tracking.domain.model.valueobjects</title>
<path fill="none" stroke="black" d="M334.76,-96.64C338.44,-89 342.77,-80 346.83,-71.55"/>
<polygon fill="black" stroke="black" points="349.93,-73.19 351.11,-62.66 343.62,-70.15 349.93,-73.19"/>
</g>
<!-- com.practicalddd.cargotracker.tracking.domain.model.aggregates -->
<g id="node4" class="node">
<title>com.practicalddd.cargotracker.tracking.domain.model.aggregates</title>
<g id="a_node4"><a xlink:href="./domain.html#com.practicalddd.cargotracker.tracking.domain.model.aggregates" xlink:title="集約\naggregates">
<polygon fill="#eedd82" stroke="black" points="433.62,-219.88 359.88,-219.88 359.88,-181.12 433.62,-181.12 433.62,-219.88"/>
<text text-anchor="middle" x="396.75" y="-202.57" font-family="Times New Roman,serif" font-size="14.00">集約</text>
<text text-anchor="middle" x="396.75" y="-188.32" font-family="Times New Roman,serif" font-size="14.00">aggregates</text>
</a>
</g>
</g>
<!-- com.practicalddd.cargotracker.tracking.domain.model.aggregates&#45;&gt;com.practicalddd.cargotracker.tracking.domain.model.entities -->
<g id="edge2" class="edge">
<title>com.practicalddd.cargotracker.tracking.domain.model.aggregates&#45;&gt;com.practicalddd.cargotracker.tracking.domain.model.entities</title>
<path fill="none" stroke="black" d="M380.64,-180.86C371.44,-170.23 359.75,-156.7 349.52,-144.86"/>
<polygon fill="black" stroke="black" points="352.22,-142.64 343.03,-137.37 346.93,-147.22 352.22,-142.64"/>
</g>
<!-- com.practicalddd.cargotracker.tracking.domain.model.aggregates&#45;&gt;com.practicalddd.cargotracker.tracking.domain.model.valueobjects -->
<g id="edge3" class="edge">
<title>com.practicalddd.cargotracker.tracking.domain.model.aggregates&#45;&gt;com.practicalddd.cargotracker.tracking.domain.model.valueobjects</title>
<path fill="none" stroke="black" d="M393.98,-180.84C390.75,-160.19 384.94,-125.98 377.75,-97 375.71,-88.78 373.13,-79.97 370.61,-71.89"/>
<polygon fill="black" stroke="black" points="373.99,-70.98 367.59,-62.53 367.33,-73.12 373.99,-70.98"/>
</g>
<!-- com.practicalddd.cargotracker.tracking.domain.model.commands -->
<g id="node5" class="node">
<title>com.practicalddd.cargotracker.tracking.domain.model.commands</title>
<g id="a_node5"><a xlink:href="./domain.html#com.practicalddd.cargotracker.tracking.domain.model.commands" xlink:title="コマンド\ncommands">
<polygon fill="#eedd82" stroke="black" points="510.25,-135.75 425.25,-135.75 425.25,-97 510.25,-97 510.25,-135.75"/>
<text text-anchor="middle" x="467.75" y="-118.45" font-family="Times New Roman,serif" font-size="14.00">コマンド</text>
<text text-anchor="middle" x="467.75" y="-104.2" font-family="Times New Roman,serif" font-size="14.00">commands</text>
</a>
</g>
</g>
<!-- com.practicalddd.cargotracker.tracking.domain.model.aggregates&#45;&gt;com.practicalddd.cargotracker.tracking.domain.model.commands -->
<g id="edge4" class="edge">
<title>com.practicalddd.cargotracker.tracking.domain.model.aggregates&#45;&gt;com.practicalddd.cargotracker.tracking.domain.model.commands</title>
<path fill="none" stroke="black" d="M412.86,-180.86C422.06,-170.23 433.75,-156.7 443.98,-144.86"/>
<polygon fill="black" stroke="black" points="446.57,-147.22 450.47,-137.37 441.28,-142.64 446.57,-147.22"/>
</g>
</g>
</svg>
