<?xml version="1.0" encoding="UTF-8" standalone="no"?>
<!DOCTYPE svg PUBLIC "-//W3C//DTD SVG 1.1//EN"
 "http://www.w3.org/Graphics/SVG/1.1/DTD/svg11.dtd">
<!-- Generated by graphviz version 12.2.0 (20241103.1931)
 -->
<!-- Title: パッケージ関連図 Pages: 1 -->
<svg width="509pt" height="232pt"
 viewBox="0.00 0.00 508.75 231.75" xmlns="http://www.w3.org/2000/svg" xmlns:xlink="http://www.w3.org/1999/xlink">
<g id="graph0" class="graph" transform="scale(1 1) rotate(0) translate(4 227.75)">
<title>パッケージ関連図</title>
<polygon fill="white" stroke="none" points="-4,4 -4,-227.75 504.75,-227.75 504.75,4 -4,4"/>
<text text-anchor="middle" x="250.38" y="-4.95" font-family="Times New Roman,serif" font-size="14.00">パッケージ関連図</text>
<!-- summary -->
<g id="node1" class="node">
<title>summary</title>
<polygon fill="none" stroke="black" points="335.5,-223.75 0,-223.75 0,-166.25 341.5,-166.25 341.5,-217.75 335.5,-223.75"/>
<polyline fill="none" stroke="black" points="335.5,-223.75 335.5,-217.75"/>
<polyline fill="none" stroke="black" points="341.5,-217.75 335.5,-217.75"/>
<text text-anchor="start" x="8" y="-206.45" font-family="Times New Roman,serif" font-size="14.00">root: com.practicalddd.cargotracker.tracking.domain.model</text>
<text text-anchor="start" x="8" y="-189.95" font-family="Times New Roman,serif" font-size="14.00">パッケージ数: 4</text>
<text text-anchor="start" x="8" y="-173.45" font-family="Times New Roman,serif" font-size="14.00">関連数: 4</text>
</g>
<!-- com.practicalddd.cargotracker.tracking.domain.model.entities -->
<g id="node2" class="node">
<title>com.practicalddd.cargotracker.tracking.domain.model.entities</title>
<g id="a_node2"><a xlink:href="./domain.html#com.practicalddd.cargotracker.tracking.domain.model.entities" xlink:title="entities">
<polygon fill="#eedd82" stroke="black" points="368.25,-130.25 313.25,-130.25 313.25,-94.25 368.25,-94.25 368.25,-130.25"/>
<text text-anchor="middle" x="340.75" y="-107.2" font-family="Times New Roman,serif" font-size="14.00">entities</text>
</a>
</g>
</g>
<!-- com.practicalddd.cargotracker.tracking.domain.model.valueobjects -->
<g id="node3" class="node">
<title>com.practicalddd.cargotracker.tracking.domain.model.valueobjects</title>
<g id="a_node3"><a xlink:href="./domain.html#com.practicalddd.cargotracker.tracking.domain.model.valueobjects" xlink:title="valueobjects">
<polygon fill="#eedd82" stroke="black" points="410.5,-58.25 327,-58.25 327,-22.25 410.5,-22.25 410.5,-58.25"/>
<text text-anchor="middle" x="368.75" y="-35.2" font-family="Times New Roman,serif" font-size="14.00">valueobjects</text>
</a>
</g>
</g>
<!-- com.practicalddd.cargotracker.tracking.domain.model.entities&#45;&gt;com.practicalddd.cargotracker.tracking.domain.model.valueobjects -->
<g id="edge1" class="edge">
<title>com.practicalddd.cargotracker.tracking.domain.model.entities&#45;&gt;com.practicalddd.cargotracker.tracking.domain.model.valueobjects</title>
<path fill="none" stroke="black" d="M347.67,-93.95C350.69,-86.4 354.3,-77.37 357.68,-68.93"/>
<polygon fill="black" stroke="black" points="360.88,-70.34 361.35,-59.76 354.38,-67.74 360.88,-70.34"/>
</g>
<!-- com.practicalddd.cargotracker.tracking.domain.model.aggregates -->
<g id="node4" class="node">
<title>com.practicalddd.cargotracker.tracking.domain.model.aggregates</title>
<g id="a_node4"><a xlink:href="./domain.html#com.practicalddd.cargotracker.tracking.domain.model.aggregates" xlink:title="aggregates">
<polygon fill="#eedd82" stroke="black" points="433.62,-213 359.88,-213 359.88,-177 433.62,-177 433.62,-213"/>
<text text-anchor="middle" x="396.75" y="-189.95" font-family="Times New Roman,serif" font-size="14.00">aggregates</text>
</a>
</g>
</g>
<!-- com.practicalddd.cargotracker.tracking.domain.model.aggregates&#45;&gt;com.practicalddd.cargotracker.tracking.domain.model.entities -->
<g id="edge2" class="edge">
<title>com.practicalddd.cargotracker.tracking.domain.model.aggregates&#45;&gt;com.practicalddd.cargotracker.tracking.domain.model.entities</title>
<path fill="none" stroke="black" d="M384.87,-176.88C377.43,-166.14 367.67,-152.07 359.22,-139.89"/>
<polygon fill="black" stroke="black" points="362.24,-138.1 353.66,-131.87 356.49,-142.08 362.24,-138.1"/>
</g>
<!-- com.practicalddd.cargotracker.tracking.domain.model.aggregates&#45;&gt;com.practicalddd.cargotracker.tracking.domain.model.valueobjects -->
<g id="edge3" class="edge">
<title>com.practicalddd.cargotracker.tracking.domain.model.aggregates&#45;&gt;com.practicalddd.cargotracker.tracking.domain.model.valueobjects</title>
<path fill="none" stroke="black" d="M393.59,-176.77C388.82,-150.76 379.73,-101.16 373.97,-69.72"/>
<polygon fill="black" stroke="black" points="377.46,-69.34 372.21,-60.14 370.57,-70.6 377.46,-69.34"/>
</g>
<!-- com.practicalddd.cargotracker.tracking.domain.model.commands -->
<g id="node5" class="node">
<title>com.practicalddd.cargotracker.tracking.domain.model.commands</title>
<g id="a_node5"><a xlink:href="./domain.html#com.practicalddd.cargotracker.tracking.domain.model.commands" xlink:title="commands">
<polygon fill="#eedd82" stroke="black" points="500.75,-130.25 424.75,-130.25 424.75,-94.25 500.75,-94.25 500.75,-130.25"/>
<text text-anchor="middle" x="462.75" y="-107.2" font-family="Times New Roman,serif" font-size="14.00">commands</text>
</a>
</g>
</g>
<!-- com.practicalddd.cargotracker.tracking.domain.model.aggregates&#45;&gt;com.practicalddd.cargotracker.tracking.domain.model.commands -->
<g id="edge4" class="edge">
<title>com.practicalddd.cargotracker.tracking.domain.model.aggregates&#45;&gt;com.practicalddd.cargotracker.tracking.domain.model.commands</title>
<path fill="none" stroke="black" d="M410.75,-176.88C419.61,-166.03 431.25,-151.79 441.27,-139.53"/>
<polygon fill="black" stroke="black" points="443.97,-141.76 447.59,-131.8 438.55,-137.33 443.97,-141.76"/>
</g>
</g>
</svg>
