<?xml version="1.0" encoding="UTF-8" standalone="no"?>
<!DOCTYPE svg PUBLIC "-//W3C//DTD SVG 1.1//EN"
 "http://www.w3.org/Graphics/SVG/1.1/DTD/svg11.dtd">
<!-- Generated by graphviz version 12.1.2 (20240928.0832)
 -->
<!-- Title: パッケージ関連図 Pages: 1 -->
<svg width="509pt" height="233pt"
 viewBox="0.00 0.00 508.75 232.50" xmlns="http://www.w3.org/2000/svg" xmlns:xlink="http://www.w3.org/1999/xlink">
<g id="graph0" class="graph" transform="scale(1 1) rotate(0) translate(4 228.5)">
<title>パッケージ関連図</title>
<polygon fill="white" stroke="none" points="-4,4 -4,-228.5 504.75,-228.5 504.75,4 -4,4"/>
<text text-anchor="middle" x="250.38" y="-5.7" font-family="Times,serif" font-size="14.00">パッケージ関連図</text>
<!-- summary -->
<g id="node1" class="node">
<title>summary</title>
<polygon fill="none" stroke="black" points="335.5,-224.5 0,-224.5 0,-167 341.5,-167 341.5,-218.5 335.5,-224.5"/>
<polyline fill="none" stroke="black" points="335.5,-224.5 335.5,-218.5"/>
<polyline fill="none" stroke="black" points="341.5,-218.5 335.5,-218.5"/>
<text text-anchor="start" x="8" y="-207.2" font-family="Times,serif" font-size="14.00">root: com.practicalddd.cargotracker.tracking.domain.model</text>
<text text-anchor="start" x="8" y="-190.7" font-family="Times,serif" font-size="14.00">パッケージ数: 4</text>
<text text-anchor="start" x="8" y="-174.2" font-family="Times,serif" font-size="14.00">関連数: 4</text>
</g>
<!-- com.practicalddd.cargotracker.tracking.domain.model.entities -->
<g id="node2" class="node">
<title>com.practicalddd.cargotracker.tracking.domain.model.entities</title>
<g id="a_node2"><a xlink:href="./domain.html#com.practicalddd.cargotracker.tracking.domain.model.entities" xlink:title="entities">
<polygon fill="#eedd82" stroke="black" points="368.25,-131 313.25,-131 313.25,-95 368.25,-95 368.25,-131"/>
<text text-anchor="middle" x="340.75" y="-107.95" font-family="Times,serif" font-size="14.00">entities</text>
</a>
</g>
</g>
<!-- com.practicalddd.cargotracker.tracking.domain.model.valueobjects -->
<g id="node3" class="node">
<title>com.practicalddd.cargotracker.tracking.domain.model.valueobjects</title>
<g id="a_node3"><a xlink:href="./domain.html#com.practicalddd.cargotracker.tracking.domain.model.valueobjects" xlink:title="valueobjects">
<polygon fill="#eedd82" stroke="black" points="410.5,-59 327,-59 327,-23 410.5,-23 410.5,-59"/>
<text text-anchor="middle" x="368.75" y="-35.95" font-family="Times,serif" font-size="14.00">valueobjects</text>
</a>
</g>
</g>
<!-- com.practicalddd.cargotracker.tracking.domain.model.entities&#45;&gt;com.practicalddd.cargotracker.tracking.domain.model.valueobjects -->
<g id="edge1" class="edge">
<title>com.practicalddd.cargotracker.tracking.domain.model.entities&#45;&gt;com.practicalddd.cargotracker.tracking.domain.model.valueobjects</title>
<path fill="none" stroke="black" d="M347.67,-94.7C350.69,-87.15 354.3,-78.12 357.68,-69.68"/>
<polygon fill="black" stroke="black" points="360.88,-71.09 361.35,-60.51 354.38,-68.49 360.88,-71.09"/>
</g>
<!-- com.practicalddd.cargotracker.tracking.domain.model.aggregates -->
<g id="node4" class="node">
<title>com.practicalddd.cargotracker.tracking.domain.model.aggregates</title>
<g id="a_node4"><a xlink:href="./domain.html#com.practicalddd.cargotracker.tracking.domain.model.aggregates" xlink:title="aggregates">
<polygon fill="#eedd82" stroke="black" points="433.62,-213.75 359.88,-213.75 359.88,-177.75 433.62,-177.75 433.62,-213.75"/>
<text text-anchor="middle" x="396.75" y="-190.7" font-family="Times,serif" font-size="14.00">aggregates</text>
</a>
</g>
</g>
<!-- com.practicalddd.cargotracker.tracking.domain.model.aggregates&#45;&gt;com.practicalddd.cargotracker.tracking.domain.model.entities -->
<g id="edge2" class="edge">
<title>com.practicalddd.cargotracker.tracking.domain.model.aggregates&#45;&gt;com.practicalddd.cargotracker.tracking.domain.model.entities</title>
<path fill="none" stroke="black" d="M384.87,-177.63C377.43,-166.89 367.67,-152.82 359.22,-140.64"/>
<polygon fill="black" stroke="black" points="362.24,-138.85 353.66,-132.62 356.49,-142.83 362.24,-138.85"/>
</g>
<!-- com.practicalddd.cargotracker.tracking.domain.model.aggregates&#45;&gt;com.practicalddd.cargotracker.tracking.domain.model.valueobjects -->
<g id="edge3" class="edge">
<title>com.practicalddd.cargotracker.tracking.domain.model.aggregates&#45;&gt;com.practicalddd.cargotracker.tracking.domain.model.valueobjects</title>
<path fill="none" stroke="black" d="M393.59,-177.52C388.82,-151.51 379.73,-101.91 373.97,-70.47"/>
<polygon fill="black" stroke="black" points="377.46,-70.09 372.21,-60.89 370.57,-71.35 377.46,-70.09"/>
</g>
<!-- com.practicalddd.cargotracker.tracking.domain.model.commands -->
<g id="node5" class="node">
<title>com.practicalddd.cargotracker.tracking.domain.model.commands</title>
<g id="a_node5"><a xlink:href="./domain.html#com.practicalddd.cargotracker.tracking.domain.model.commands" xlink:title="commands">
<polygon fill="#eedd82" stroke="black" points="500.75,-131 424.75,-131 424.75,-95 500.75,-95 500.75,-131"/>
<text text-anchor="middle" x="462.75" y="-107.95" font-family="Times,serif" font-size="14.00">commands</text>
</a>
</g>
</g>
<!-- com.practicalddd.cargotracker.tracking.domain.model.aggregates&#45;&gt;com.practicalddd.cargotracker.tracking.domain.model.commands -->
<g id="edge4" class="edge">
<title>com.practicalddd.cargotracker.tracking.domain.model.aggregates&#45;&gt;com.practicalddd.cargotracker.tracking.domain.model.commands</title>
<path fill="none" stroke="black" d="M410.75,-177.63C419.61,-166.78 431.25,-152.54 441.27,-140.28"/>
<polygon fill="black" stroke="black" points="443.97,-142.51 447.59,-132.55 438.55,-138.08 443.97,-142.51"/>
</g>
</g>
</svg>
