<?xml version="1.0" encoding="UTF-8" standalone="no"?>
<!DOCTYPE svg PUBLIC "-//W3C//DTD SVG 1.1//EN"
 "http://www.w3.org/Graphics/SVG/1.1/DTD/svg11.dtd">
<!-- Generated by graphviz version 12.1.2 (20240928.0832)
 -->
<!-- Title: アーキテクチャ図 Pages: 1 -->
<svg width="314pt" height="315pt"
 viewBox="0.00 0.00 314.25 315.00" xmlns="http://www.w3.org/2000/svg" xmlns:xlink="http://www.w3.org/1999/xlink">
<g id="graph0" class="graph" transform="scale(1 1) rotate(0) translate(4 311)">
<title>アーキテクチャ図</title>
<polygon fill="white" stroke="none" points="-4,4 -4,-311 310.25,-311 310.25,4 -4,4"/>
<text text-anchor="middle" x="153.12" y="-5.7" font-family="Times,serif" font-size="14.00">アーキテクチャ図</text>
<g id="clust1" class="cluster">
<title>clusterArchitecture</title>
<polygon fill="lightyellow" stroke="#eedd82" points="8,-31 8,-299 186,-299 186,-31 8,-31"/>
</g>
<!-- com.practicalddd.cargotracker.handling.application -->
<g id="node1" class="node">
<title>com.practicalddd.cargotracker.handling.application</title>
<polygon fill="#eedd82" stroke="black" points="162.5,-219 59.5,-219 59.5,-215 55.5,-215 55.5,-211 59.5,-211 59.5,-191 55.5,-191 55.5,-187 59.5,-187 59.5,-183 162.5,-183 162.5,-219"/>
<polyline fill="none" stroke="black" points="59.5,-215 63.5,-215 63.5,-211 59.5,-211"/>
<polyline fill="none" stroke="black" points="59.5,-191 63.5,-191 63.5,-187 59.5,-187"/>
<text text-anchor="middle" x="111" y="-193.25" font-family="Times,serif" font-size="20.00">application</text>
</g>
<!-- com.practicalddd.cargotracker.handling.domain -->
<g id="node2" class="node">
<title>com.practicalddd.cargotracker.handling.domain</title>
<polygon fill="#eedd82" stroke="black" points="134.62,-75 59.38,-75 59.38,-71 55.38,-71 55.38,-67 59.38,-67 59.38,-47 55.38,-47 55.38,-43 59.38,-43 59.38,-39 134.62,-39 134.62,-75"/>
<polyline fill="none" stroke="black" points="59.38,-71 63.38,-71 63.38,-67 59.38,-67"/>
<polyline fill="none" stroke="black" points="59.38,-47 63.38,-47 63.38,-43 59.38,-43"/>
<text text-anchor="middle" x="97" y="-49.25" font-family="Times,serif" font-size="20.00">domain</text>
</g>
<!-- com.practicalddd.cargotracker.handling.application&#45;&gt;com.practicalddd.cargotracker.handling.domain -->
<g id="edge4" class="edge">
<title>com.practicalddd.cargotracker.handling.application&#45;&gt;com.practicalddd.cargotracker.handling.domain</title>
<path fill="none" stroke="black" d="M162.98,-195C172.3,-195 179.12,-195 179.12,-195 179.12,-195 179.12,-57 179.12,-57 179.12,-57 146.21,-57 146.21,-57"/>
<polygon fill="black" stroke="black" points="146.21,-53.5 136.21,-57 146.21,-60.5 146.21,-53.5"/>
</g>
<!-- com.practicalddd.cargotracker.handling.infrastructure -->
<g id="node3" class="node">
<title>com.practicalddd.cargotracker.handling.infrastructure</title>
<polygon fill="#eedd82" stroke="black" points="158.25,-147 35.75,-147 35.75,-143 31.75,-143 31.75,-139 35.75,-139 35.75,-119 31.75,-119 31.75,-115 35.75,-115 35.75,-111 158.25,-111 158.25,-147"/>
<polyline fill="none" stroke="black" points="35.75,-143 39.75,-143 39.75,-139 35.75,-139"/>
<polyline fill="none" stroke="black" points="35.75,-119 39.75,-119 39.75,-115 35.75,-115"/>
<text text-anchor="middle" x="97" y="-121.25" font-family="Times,serif" font-size="20.00">infrastructure</text>
</g>
<!-- com.practicalddd.cargotracker.handling.application&#45;&gt;com.practicalddd.cargotracker.handling.infrastructure -->
<g id="edge2" class="edge">
<title>com.practicalddd.cargotracker.handling.application&#45;&gt;com.practicalddd.cargotracker.handling.infrastructure</title>
<path fill="none" stroke="black" d="M108.88,-182.83C108.88,-182.83 108.88,-158.93 108.88,-158.93"/>
<polygon fill="black" stroke="black" points="112.38,-158.93 108.88,-148.93 105.38,-158.93 112.38,-158.93"/>
</g>
<!-- com.practicalddd -->
<g id="node5" class="node">
<title>com.practicalddd</title>
<polygon fill="lightgrey" stroke="black" points="306.25,-147 195.75,-147 195.75,-143 191.75,-143 191.75,-139 195.75,-139 195.75,-119 191.75,-119 191.75,-115 195.75,-115 195.75,-111 306.25,-111 306.25,-147"/>
<polyline fill="none" stroke="black" points="195.75,-143 199.75,-143 199.75,-139 195.75,-139"/>
<polyline fill="none" stroke="black" points="195.75,-119 199.75,-119 199.75,-115 195.75,-115"/>
<text text-anchor="middle" x="251" y="-123.95" font-family="Times,serif" font-size="14.00">com.practicalddd</text>
</g>
<!-- com.practicalddd.cargotracker.handling.application&#45;&gt;com.practicalddd -->
<g id="edge1" class="edge">
<title>com.practicalddd.cargotracker.handling.application&#45;&gt;com.practicalddd</title>
<path fill="none" stroke="black" d="M162.73,-207C202.61,-207 251,-207 251,-207 251,-207 251,-159 251,-159"/>
<polygon fill="black" stroke="black" points="254.5,-159 251,-149 247.5,-159 254.5,-159"/>
</g>
<!-- com.practicalddd.cargotracker.handling.infrastructure&#45;&gt;com.practicalddd.cargotracker.handling.domain -->
<g id="edge5" class="edge">
<title>com.practicalddd.cargotracker.handling.infrastructure&#45;&gt;com.practicalddd.cargotracker.handling.domain</title>
<path fill="none" stroke="black" d="M97,-110.83C97,-110.83 97,-86.93 97,-86.93"/>
<polygon fill="black" stroke="black" points="100.5,-86.93 97,-76.93 93.5,-86.93 100.5,-86.93"/>
</g>
<!-- com.practicalddd.cargotracker.handling.interfaces -->
<g id="node4" class="node">
<title>com.practicalddd.cargotracker.handling.interfaces</title>
<polygon fill="#eedd82" stroke="black" points="126.62,-291 33.38,-291 33.38,-287 29.38,-287 29.38,-283 33.38,-283 33.38,-263 29.38,-263 29.38,-259 33.38,-259 33.38,-255 126.62,-255 126.62,-291"/>
<polyline fill="none" stroke="black" points="33.38,-287 37.38,-287 37.38,-283 33.38,-283"/>
<polyline fill="none" stroke="black" points="33.38,-263 37.38,-263 37.38,-259 33.38,-259"/>
<text text-anchor="middle" x="80" y="-265.25" font-family="Times,serif" font-size="20.00">interfaces</text>
</g>
<!-- com.practicalddd.cargotracker.handling.interfaces&#45;&gt;com.practicalddd.cargotracker.handling.application -->
<g id="edge6" class="edge">
<title>com.practicalddd.cargotracker.handling.interfaces&#45;&gt;com.practicalddd.cargotracker.handling.application</title>
<path fill="none" stroke="black" d="M93.06,-254.83C93.06,-254.83 93.06,-230.93 93.06,-230.93"/>
<polygon fill="black" stroke="black" points="96.56,-230.93 93.06,-220.93 89.56,-230.93 96.56,-230.93"/>
</g>
<!-- com.practicalddd.cargotracker.handling.interfaces&#45;&gt;com.practicalddd.cargotracker.handling.domain -->
<g id="edge3" class="edge">
<title>com.practicalddd.cargotracker.handling.interfaces&#45;&gt;com.practicalddd.cargotracker.handling.domain</title>
<path fill="none" stroke="black" d="M33.03,-273C23.01,-273 15.38,-273 15.38,-273 15.38,-273 15.38,-57 15.38,-57 15.38,-57 47.54,-57 47.54,-57"/>
<polygon fill="black" stroke="black" points="47.54,-60.5 57.54,-57 47.54,-53.5 47.54,-60.5"/>
</g>
</g>
</svg>
