<?xml version="1.0" encoding="UTF-8" standalone="no"?>
<!DOCTYPE svg PUBLIC "-//W3C//DTD SVG 1.1//EN"
 "http://www.w3.org/Graphics/SVG/1.1/DTD/svg11.dtd">
<!-- Generated by graphviz version 12.2.0 (20241103.1931)
 -->
<!-- Title: アーキテクチャ図 Pages: 1 -->
<svg width="314pt" height="314pt"
 viewBox="0.00 0.00 314.25 314.25" xmlns="http://www.w3.org/2000/svg" xmlns:xlink="http://www.w3.org/1999/xlink">
<g id="graph0" class="graph" transform="scale(1 1) rotate(0) translate(4 310.25)">
<title>アーキテクチャ図</title>
<polygon fill="white" stroke="none" points="-4,4 -4,-310.25 310.25,-310.25 310.25,4 -4,4"/>
<text text-anchor="middle" x="153.12" y="-4.95" font-family="Times New Roman,serif" font-size="14.00">アーキテクチャ図</text>
<g id="clust1" class="cluster">
<title>clusterArchitecture</title>
<polygon fill="lightyellow" stroke="#eedd82" points="8,-30.25 8,-298.25 186,-298.25 186,-30.25 8,-30.25"/>
</g>
<!-- com.practicalddd.cargotracker.handling.application -->
<g id="node1" class="node">
<title>com.practicalddd.cargotracker.handling.application</title>
<polygon fill="#eedd82" stroke="black" points="162.5,-218.25 59.5,-218.25 59.5,-214.25 55.5,-214.25 55.5,-210.25 59.5,-210.25 59.5,-190.25 55.5,-190.25 55.5,-186.25 59.5,-186.25 59.5,-182.25 162.5,-182.25 162.5,-218.25"/>
<polyline fill="none" stroke="black" points="59.5,-214.25 63.5,-214.25 63.5,-210.25 59.5,-210.25"/>
<polyline fill="none" stroke="black" points="59.5,-190.25 63.5,-190.25 63.5,-186.25 59.5,-186.25"/>
<text text-anchor="middle" x="111" y="-192.5" font-family="Times New Roman,serif" font-size="20.00">application</text>
</g>
<!-- com.practicalddd.cargotracker.handling.domain -->
<g id="node2" class="node">
<title>com.practicalddd.cargotracker.handling.domain</title>
<polygon fill="#eedd82" stroke="black" points="134.62,-74.25 59.38,-74.25 59.38,-70.25 55.38,-70.25 55.38,-66.25 59.38,-66.25 59.38,-46.25 55.38,-46.25 55.38,-42.25 59.38,-42.25 59.38,-38.25 134.62,-38.25 134.62,-74.25"/>
<polyline fill="none" stroke="black" points="59.38,-70.25 63.38,-70.25 63.38,-66.25 59.38,-66.25"/>
<polyline fill="none" stroke="black" points="59.38,-46.25 63.38,-46.25 63.38,-42.25 59.38,-42.25"/>
<text text-anchor="middle" x="97" y="-48.5" font-family="Times New Roman,serif" font-size="20.00">domain</text>
</g>
<!-- com.practicalddd.cargotracker.handling.application&#45;&gt;com.practicalddd.cargotracker.handling.domain -->
<g id="edge4" class="edge">
<title>com.practicalddd.cargotracker.handling.application&#45;&gt;com.practicalddd.cargotracker.handling.domain</title>
<path fill="none" stroke="black" d="M162.98,-194.25C172.3,-194.25 179.12,-194.25 179.12,-194.25 179.12,-194.25 179.12,-56.25 179.12,-56.25 179.12,-56.25 146.21,-56.25 146.21,-56.25"/>
<polygon fill="black" stroke="black" points="146.21,-52.75 136.21,-56.25 146.21,-59.75 146.21,-52.75"/>
</g>
<!-- com.practicalddd.cargotracker.handling.infrastructure -->
<g id="node3" class="node">
<title>com.practicalddd.cargotracker.handling.infrastructure</title>
<polygon fill="#eedd82" stroke="black" points="158.25,-146.25 35.75,-146.25 35.75,-142.25 31.75,-142.25 31.75,-138.25 35.75,-138.25 35.75,-118.25 31.75,-118.25 31.75,-114.25 35.75,-114.25 35.75,-110.25 158.25,-110.25 158.25,-146.25"/>
<polyline fill="none" stroke="black" points="35.75,-142.25 39.75,-142.25 39.75,-138.25 35.75,-138.25"/>
<polyline fill="none" stroke="black" points="35.75,-118.25 39.75,-118.25 39.75,-114.25 35.75,-114.25"/>
<text text-anchor="middle" x="97" y="-120.5" font-family="Times New Roman,serif" font-size="20.00">infrastructure</text>
</g>
<!-- com.practicalddd.cargotracker.handling.application&#45;&gt;com.practicalddd.cargotracker.handling.infrastructure -->
<g id="edge2" class="edge">
<title>com.practicalddd.cargotracker.handling.application&#45;&gt;com.practicalddd.cargotracker.handling.infrastructure</title>
<path fill="none" stroke="black" d="M108.88,-182.08C108.88,-182.08 108.88,-158.18 108.88,-158.18"/>
<polygon fill="black" stroke="black" points="112.38,-158.18 108.88,-148.18 105.38,-158.18 112.38,-158.18"/>
</g>
<!-- com.practicalddd -->
<g id="node5" class="node">
<title>com.practicalddd</title>
<polygon fill="lightgrey" stroke="black" points="306.25,-146.25 195.75,-146.25 195.75,-142.25 191.75,-142.25 191.75,-138.25 195.75,-138.25 195.75,-118.25 191.75,-118.25 191.75,-114.25 195.75,-114.25 195.75,-110.25 306.25,-110.25 306.25,-146.25"/>
<polyline fill="none" stroke="black" points="195.75,-142.25 199.75,-142.25 199.75,-138.25 195.75,-138.25"/>
<polyline fill="none" stroke="black" points="195.75,-118.25 199.75,-118.25 199.75,-114.25 195.75,-114.25"/>
<text text-anchor="middle" x="251" y="-123.2" font-family="Times New Roman,serif" font-size="14.00">com.practicalddd</text>
</g>
<!-- com.practicalddd.cargotracker.handling.application&#45;&gt;com.practicalddd -->
<g id="edge1" class="edge">
<title>com.practicalddd.cargotracker.handling.application&#45;&gt;com.practicalddd</title>
<path fill="none" stroke="black" d="M162.73,-206.25C202.61,-206.25 251,-206.25 251,-206.25 251,-206.25 251,-158.25 251,-158.25"/>
<polygon fill="black" stroke="black" points="254.5,-158.25 251,-148.25 247.5,-158.25 254.5,-158.25"/>
</g>
<!-- com.practicalddd.cargotracker.handling.infrastructure&#45;&gt;com.practicalddd.cargotracker.handling.domain -->
<g id="edge5" class="edge">
<title>com.practicalddd.cargotracker.handling.infrastructure&#45;&gt;com.practicalddd.cargotracker.handling.domain</title>
<path fill="none" stroke="black" d="M97,-110.08C97,-110.08 97,-86.18 97,-86.18"/>
<polygon fill="black" stroke="black" points="100.5,-86.18 97,-76.18 93.5,-86.18 100.5,-86.18"/>
</g>
<!-- com.practicalddd.cargotracker.handling.interfaces -->
<g id="node4" class="node">
<title>com.practicalddd.cargotracker.handling.interfaces</title>
<polygon fill="#eedd82" stroke="black" points="126.62,-290.25 33.38,-290.25 33.38,-286.25 29.38,-286.25 29.38,-282.25 33.38,-282.25 33.38,-262.25 29.38,-262.25 29.38,-258.25 33.38,-258.25 33.38,-254.25 126.62,-254.25 126.62,-290.25"/>
<polyline fill="none" stroke="black" points="33.38,-286.25 37.38,-286.25 37.38,-282.25 33.38,-282.25"/>
<polyline fill="none" stroke="black" points="33.38,-262.25 37.38,-262.25 37.38,-258.25 33.38,-258.25"/>
<text text-anchor="middle" x="80" y="-264.5" font-family="Times New Roman,serif" font-size="20.00">interfaces</text>
</g>
<!-- com.practicalddd.cargotracker.handling.interfaces&#45;&gt;com.practicalddd.cargotracker.handling.application -->
<g id="edge6" class="edge">
<title>com.practicalddd.cargotracker.handling.interfaces&#45;&gt;com.practicalddd.cargotracker.handling.application</title>
<path fill="none" stroke="black" d="M93.06,-254.08C93.06,-254.08 93.06,-230.18 93.06,-230.18"/>
<polygon fill="black" stroke="black" points="96.56,-230.18 93.06,-220.18 89.56,-230.18 96.56,-230.18"/>
</g>
<!-- com.practicalddd.cargotracker.handling.interfaces&#45;&gt;com.practicalddd.cargotracker.handling.domain -->
<g id="edge3" class="edge">
<title>com.practicalddd.cargotracker.handling.interfaces&#45;&gt;com.practicalddd.cargotracker.handling.domain</title>
<path fill="none" stroke="black" d="M33.03,-272.25C23.01,-272.25 15.38,-272.25 15.38,-272.25 15.38,-272.25 15.38,-56.25 15.38,-56.25 15.38,-56.25 47.54,-56.25 47.54,-56.25"/>
<polygon fill="black" stroke="black" points="47.54,-59.75 57.54,-56.25 47.54,-52.75 47.54,-59.75"/>
</g>
</g>
</svg>
