<?xml version="1.0" encoding="UTF-8" standalone="no"?>
<!DOCTYPE svg PUBLIC "-//W3C//DTD SVG 1.1//EN"
 "http://www.w3.org/Graphics/SVG/1.1/DTD/svg11.dtd">
<!-- Generated by graphviz version 12.2.0 (20241103.1931)
 -->
<!-- Title: ビジネスルール関連図 Pages: 1 -->
<svg width="855pt" height="306pt"
 viewBox="0.00 0.00 855.00 305.50" xmlns="http://www.w3.org/2000/svg" xmlns:xlink="http://www.w3.org/1999/xlink">
<g id="graph0" class="graph" transform="scale(1 1) rotate(0) translate(4 301.5)">
<title>ビジネスルール関連図</title>
<polygon fill="white" stroke="none" points="-4,4 -4,-301.5 851,-301.5 851,4 -4,4"/>
<text text-anchor="middle" x="423.5" y="-4.95" font-family="Times New Roman,serif" font-size="14.00">ビジネスルール関連図</text>
<g id="clust1" class="cluster">
<title>cluster_com.practicalddd.cargotracker.handling.domain.model.aggregates</title>
<polygon fill="lemonchiffon" stroke="#eedd82" stroke-width="2" points="460,-107.25 460,-202.25 836,-202.25 836,-107.25 460,-107.25"/>
<text text-anchor="middle" x="648" y="-184.95" font-family="Times New Roman,serif" font-size="14.00">com.practicalddd.cargotracker.handling.domain.model.aggregates</text>
</g>
<g id="clust2" class="cluster">
<title>cluster_com.practicalddd.cargotracker.handling.domain.model.commands</title>
<polygon fill="lemonchiffon" stroke="#eedd82" stroke-width="2" points="460,-210.25 460,-289.5 839,-289.5 839,-210.25 460,-210.25"/>
<text text-anchor="middle" x="649.5" y="-272.2" font-family="Times New Roman,serif" font-size="14.00">com.practicalddd.cargotracker.handling.domain.model.commands</text>
</g>
<g id="clust3" class="cluster">
<title>cluster_com.practicalddd.cargotracker.handling.domain.model.valueobjects</title>
<polygon fill="lemonchiffon" stroke="#eedd82" stroke-width="2" points="8,-30.25 8,-289.5 452,-289.5 452,-30.25 8,-30.25"/>
<text text-anchor="middle" x="230" y="-272.2" font-family="Times New Roman,serif" font-size="14.00">com.practicalddd.cargotracker.handling.domain.model.valueobjects</text>
</g>
<!-- com.practicalddd.cargotracker.handling.domain.model.aggregates.HandlingActivity -->
<g id="node1" class="node">
<title>com.practicalddd.cargotracker.handling.domain.model.aggregates.HandlingActivity</title>
<g id="a_node1"><a xlink:href="./domain.html#com.practicalddd.cargotracker.handling.domain.model.aggregates.HandlingActivity" xlink:title="荷役&#13;\nHandlingActivity">
<polygon fill="#eedd82" stroke="black" points="578.25,-169.75 467.75,-169.75 467.75,-115.25 578.25,-115.25 578.25,-169.75"/>
<text text-anchor="middle" x="523" y="-152.45" font-family="Times New Roman,serif" font-size="14.00">荷役&#13;</text>
<text text-anchor="middle" x="523" y="-122.45" font-family="Times New Roman,serif" font-size="14.00">HandlingActivity</text>
</a>
</g>
</g>
<!-- com.practicalddd.cargotracker.handling.domain.model.valueobjects.CargoBookingId -->
<g id="node3" class="node">
<title>com.practicalddd.cargotracker.handling.domain.model.valueobjects.CargoBookingId</title>
<g id="a_node3"><a xlink:href="./domain.html#com.practicalddd.cargotracker.handling.domain.model.valueobjects.CargoBookingId" xlink:title="貨物予約ID\nCargoBookingId">
<polygon fill="#eedd82" stroke="black" points="122.38,-79.25 15.63,-79.25 15.63,-38.25 122.38,-38.25 122.38,-79.25"/>
<text text-anchor="middle" x="69" y="-61.95" font-family="Times New Roman,serif" font-size="14.00">貨物予約ID</text>
<text text-anchor="middle" x="69" y="-45.45" font-family="Times New Roman,serif" font-size="14.00">CargoBookingId</text>
</a>
</g>
</g>
<!-- com.practicalddd.cargotracker.handling.domain.model.aggregates.HandlingActivity&#45;&gt;com.practicalddd.cargotracker.handling.domain.model.valueobjects.CargoBookingId -->
<g id="edge1" class="edge">
<title>com.practicalddd.cargotracker.handling.domain.model.aggregates.HandlingActivity&#45;&gt;com.practicalddd.cargotracker.handling.domain.model.valueobjects.CargoBookingId</title>
<path fill="none" stroke="black" d="M482.16,-114.77C476.25,-111.8 470.1,-109.17 464,-107.25 325.79,-63.75 279.01,-105.77 133.68,-79.5"/>
<polygon fill="black" stroke="black" points="134.54,-76.1 124.07,-77.68 133.24,-82.98 134.54,-76.1"/>
</g>
<!-- com.practicalddd.cargotracker.handling.domain.model.valueobjects.Location -->
<g id="node5" class="node">
<title>com.practicalddd.cargotracker.handling.domain.model.valueobjects.Location</title>
<g id="a_node5"><a xlink:href="./domain.html#com.practicalddd.cargotracker.handling.domain.model.valueobjects.Location" xlink:title="位置\nLocation">
<polygon fill="#eedd82" stroke="black" points="204,-78.12 140,-78.12 140,-39.38 204,-39.38 204,-78.12"/>
<text text-anchor="middle" x="172" y="-60.83" font-family="Times New Roman,serif" font-size="14.00">位置</text>
<text text-anchor="middle" x="172" y="-46.58" font-family="Times New Roman,serif" font-size="14.00">Location</text>
</a>
</g>
</g>
<!-- com.practicalddd.cargotracker.handling.domain.model.aggregates.HandlingActivity&#45;&gt;com.practicalddd.cargotracker.handling.domain.model.valueobjects.Location -->
<g id="edge2" class="edge">
<title>com.practicalddd.cargotracker.handling.domain.model.aggregates.HandlingActivity&#45;&gt;com.practicalddd.cargotracker.handling.domain.model.valueobjects.Location</title>
<path fill="none" stroke="black" d="M481.79,-114.75C475.98,-111.84 469.96,-109.22 464,-107.25 360.83,-73.23 323.37,-107.64 215.33,-79.34"/>
<polygon fill="black" stroke="black" points="216.32,-75.99 205.75,-76.71 214.46,-82.74 216.32,-75.99"/>
</g>
<!-- com.practicalddd.cargotracker.handling.domain.model.valueobjects.Type -->
<g id="node6" class="node">
<title>com.practicalddd.cargotracker.handling.domain.model.valueobjects.Type</title>
<g id="a_node6"><a xlink:href="./domain.html#com.practicalddd.cargotracker.handling.domain.model.valueobjects.Type" xlink:title="荷役タイプ\nType">
<polygon fill="#eedd82" stroke="black" points="324.12,-78.12 221.88,-78.12 221.88,-39.38 324.12,-39.38 324.12,-78.12"/>
<text text-anchor="middle" x="273" y="-60.83" font-family="Times New Roman,serif" font-size="14.00">荷役タイプ</text>
<text text-anchor="middle" x="273" y="-46.58" font-family="Times New Roman,serif" font-size="14.00">Type</text>
</a>
</g>
</g>
<!-- com.practicalddd.cargotracker.handling.domain.model.aggregates.HandlingActivity&#45;&gt;com.practicalddd.cargotracker.handling.domain.model.valueobjects.Type -->
<g id="edge3" class="edge">
<title>com.practicalddd.cargotracker.handling.domain.model.aggregates.HandlingActivity&#45;&gt;com.practicalddd.cargotracker.handling.domain.model.valueobjects.Type</title>
<path fill="none" stroke="black" d="M480.61,-114.8C475.14,-111.99 469.52,-109.38 464,-107.25 411.71,-87.07 392.73,-93.76 335.71,-79.76"/>
<polygon fill="black" stroke="black" points="336.63,-76.39 326.07,-77.28 334.88,-83.16 336.63,-76.39"/>
</g>
<!-- com.practicalddd.cargotracker.handling.domain.model.valueobjects.VoyageNumber -->
<g id="node7" class="node">
<title>com.practicalddd.cargotracker.handling.domain.model.valueobjects.VoyageNumber</title>
<g id="a_node7"><a xlink:href="./domain.html#com.practicalddd.cargotracker.handling.domain.model.valueobjects.VoyageNumber" xlink:title="航海番号\nVoyageNumber">
<polygon fill="#eedd82" stroke="black" points="443.75,-78.12 342.25,-78.12 342.25,-39.38 443.75,-39.38 443.75,-78.12"/>
<text text-anchor="middle" x="393" y="-60.83" font-family="Times New Roman,serif" font-size="14.00">航海番号</text>
<text text-anchor="middle" x="393" y="-46.58" font-family="Times New Roman,serif" font-size="14.00">VoyageNumber</text>
</a>
</g>
</g>
<!-- com.practicalddd.cargotracker.handling.domain.model.aggregates.HandlingActivity&#45;&gt;com.practicalddd.cargotracker.handling.domain.model.valueobjects.VoyageNumber -->
<g id="edge4" class="edge">
<title>com.practicalddd.cargotracker.handling.domain.model.aggregates.HandlingActivity&#45;&gt;com.practicalddd.cargotracker.handling.domain.model.valueobjects.VoyageNumber</title>
<path fill="none" stroke="black" d="M480.79,-114.96C465.22,-105.17 447.66,-94.12 432.35,-84.5"/>
<polygon fill="black" stroke="black" points="434.27,-81.57 423.94,-79.21 430.55,-87.49 434.27,-81.57"/>
</g>
<!-- com.practicalddd.cargotracker.handling.domain.model.commands.HandlingActivityRegistrationCommand -->
<g id="node2" class="node">
<title>com.practicalddd.cargotracker.handling.domain.model.commands.HandlingActivityRegistrationCommand</title>
<g id="a_node2"><a xlink:href="./domain.html#com.practicalddd.cargotracker.handling.domain.model.commands.HandlingActivityRegistrationCommand" xlink:title="荷役登録\nHandlingActivityRegistrationCommand">
<polygon fill="#eedd82" stroke="red" points="766.12,-257 531.88,-257 531.88,-218.25 766.12,-218.25 766.12,-257"/>
<text text-anchor="middle" x="649" y="-239.7" font-family="Times New Roman,serif" font-size="14.00">荷役登録</text>
<text text-anchor="middle" x="649" y="-225.45" font-family="Times New Roman,serif" font-size="14.00">HandlingActivityRegistrationCommand</text>
</a>
</g>
</g>
<!-- com.practicalddd.cargotracker.handling.domain.model.valueobjects.HandlingActivityHistory -->
<g id="node4" class="node">
<title>com.practicalddd.cargotracker.handling.domain.model.valueobjects.HandlingActivityHistory</title>
<g id="a_node4"><a xlink:href="./domain.html#com.practicalddd.cargotracker.handling.domain.model.valueobjects.HandlingActivityHistory" xlink:title="荷役履歴\nHandlingActivityHistory">
<polygon fill="#eedd82" stroke="black" points="443.5,-257 292.5,-257 292.5,-218.25 443.5,-218.25 443.5,-257"/>
<text text-anchor="middle" x="368" y="-239.7" font-family="Times New Roman,serif" font-size="14.00">荷役履歴</text>
<text text-anchor="middle" x="368" y="-225.45" font-family="Times New Roman,serif" font-size="14.00">HandlingActivityHistory</text>
</a>
</g>
</g>
<!-- com.practicalddd.cargotracker.handling.domain.model.valueobjects.HandlingActivityHistory&#45;&gt;com.practicalddd.cargotracker.handling.domain.model.aggregates.HandlingActivity -->
<g id="edge5" class="edge">
<title>com.practicalddd.cargotracker.handling.domain.model.valueobjects.HandlingActivityHistory&#45;&gt;com.practicalddd.cargotracker.handling.domain.model.aggregates.HandlingActivity</title>
<path fill="none" stroke="black" d="M423.98,-217.83C434.63,-213.48 445.42,-208.3 455,-202.25 465.48,-195.63 475.56,-186.85 484.67,-178.11"/>
<polygon fill="black" stroke="black" points="487,-180.72 491.66,-171.21 482.09,-175.73 487,-180.72"/>
</g>
<!-- com.practicalddd.cargotracker.handling.domain.model.valueobjects.HandlingActivityHistory&#45;&gt;com.practicalddd.cargotracker.handling.domain.model.aggregates.HandlingActivity -->
<g id="edge6" class="edge">
<title>com.practicalddd.cargotracker.handling.domain.model.valueobjects.HandlingActivityHistory&#45;&gt;com.practicalddd.cargotracker.handling.domain.model.aggregates.HandlingActivity</title>
<path fill="none" stroke="black" d="M441.7,-217.83C452.63,-213.48 463.42,-208.3 473,-202.25 483.26,-195.76 493.15,-187.21 501.47,-178.64"/>
<polygon fill="black" stroke="black" points="504.05,-181 508.21,-171.26 498.88,-176.28 504.05,-181"/>
</g>
</g>
</svg>
