<?xml version="1.0" encoding="UTF-8" standalone="no"?>
<!DOCTYPE svg PUBLIC "-//W3C//DTD SVG 1.1//EN"
 "http://www.w3.org/Graphics/SVG/1.1/DTD/svg11.dtd">
<!-- Generated by graphviz version 12.2.0 (20241103.1931)
 -->
<!-- Title: 区分図 Pages: 1 -->
<svg width="114pt" height="186pt"
 viewBox="0.00 0.00 114.25 185.50" xmlns="http://www.w3.org/2000/svg" xmlns:xlink="http://www.w3.org/1999/xlink">
<g id="graph0" class="graph" transform="scale(1 1) rotate(0) translate(4 159.25)">
<title>区分図</title>
<polygon fill="white" stroke="none" points="-4,26.25 -4,-159.25 110.25,-159.25 110.25,26.25 -4,26.25"/>
<text text-anchor="middle" x="53.12" y="17.3" font-family="Times New Roman,serif" font-size="14.00">区分図</text>
<!-- com.practicalddd.cargotracker.handling.domain.model.valueobjects.Type -->
<g id="node1" class="node">
<title>com.practicalddd.cargotracker.handling.domain.model.valueobjects.Type</title>
<g id="a_node1"><a xlink:href="./enum.html#com.practicalddd.cargotracker.handling.domain.model.valueobjects.Type" xlink:title="&lt;TABLE&gt;">
<polygon fill="#eedd82" stroke="black" points="106.25,-155.25 0,-155.25 0,0 106.25,0 106.25,-155.25"/>
<text text-anchor="start" x="10" y="-135.95" font-family="Times New Roman,serif" font-size="14.00">荷役タイプ</text>
<text text-anchor="start" x="39.63" y="-119.45" font-family="Times New Roman,serif" font-size="14.00">Type</text>
<polygon fill="none" stroke="black" points="8,-94 8,-116.5 98.25,-116.5 98.25,-94 8,-94"/>
<text text-anchor="start" x="34.38" y="-100.2" font-family="Times New Roman,serif" font-size="14.00">LOAD</text>
<polygon fill="none" stroke="black" points="8,-71.5 8,-94 98.25,-94 98.25,-71.5 8,-71.5"/>
<text text-anchor="start" x="24.63" y="-77.7" font-family="Times New Roman,serif" font-size="14.00">UNLOAD</text>
<polygon fill="none" stroke="black" points="8,-49 8,-71.5 98.25,-71.5 98.25,-49 8,-49"/>
<text text-anchor="start" x="24.63" y="-55.2" font-family="Times New Roman,serif" font-size="14.00">RECEIVE</text>
<polygon fill="none" stroke="black" points="8,-26.5 8,-49 98.25,-49 98.25,-26.5 8,-26.5"/>
<text text-anchor="start" x="31" y="-32.7" font-family="Times New Roman,serif" font-size="14.00">CLAIM</text>
<polygon fill="none" stroke="black" points="8,-4 8,-26.5 98.25,-26.5 98.25,-4 8,-4"/>
<text text-anchor="start" x="20.88" y="-10.2" font-family="Times New Roman,serif" font-size="14.00">CUSTOMS</text>
</a>
</g>
</g>
</g>
</svg>
