<?xml version="1.0" encoding="UTF-8" standalone="no"?>
<!DOCTYPE svg PUBLIC "-//W3C//DTD SVG 1.1//EN"
 "http://www.w3.org/Graphics/SVG/1.1/DTD/svg11.dtd">
<!-- Generated by graphviz version 12.2.0 (20241103.1931)
 -->
<!-- Title: 区分使用図 Pages: 1 -->
<svg width="444pt" height="85pt"
 viewBox="0.00 0.00 443.75 84.75" xmlns="http://www.w3.org/2000/svg" xmlns:xlink="http://www.w3.org/1999/xlink">
<g id="graph0" class="graph" transform="scale(1 1) rotate(0) translate(4 80.75)">
<title>区分使用図</title>
<polygon fill="white" stroke="none" points="-4,4 -4,-80.75 439.75,-80.75 439.75,4 -4,4"/>
<text text-anchor="middle" x="217.88" y="-4.95" font-family="Times New Roman,serif" font-size="14.00">区分使用図</text>
<!-- com.practicalddd.cargotracker.handling.domain.model.valueobjects.Type -->
<g id="node1" class="node">
<title>com.practicalddd.cargotracker.handling.domain.model.valueobjects.Type</title>
<polygon fill="#eedd82" stroke="black" points="435.75,-68.88 337.5,-68.88 333.5,-64.88 333.5,-30.12 431.75,-30.12 435.75,-34.12 435.75,-68.88"/>
<polyline fill="none" stroke="black" points="431.75,-64.88 333.5,-64.88"/>
<polyline fill="none" stroke="black" points="431.75,-64.88 431.75,-30.12"/>
<polyline fill="none" stroke="black" points="431.75,-64.88 435.75,-68.88"/>
<text text-anchor="middle" x="384.62" y="-51.58" font-family="Times New Roman,serif" font-size="14.00">荷役タイプ</text>
<text text-anchor="middle" x="384.62" y="-37.33" font-family="Times New Roman,serif" font-size="14.00">Type</text>
</g>
<!-- com.practicalddd.cargotracker.handling.domain.model.aggregates.HandlingActivity -->
<g id="node2" class="node">
<title>com.practicalddd.cargotracker.handling.domain.model.aggregates.HandlingActivity</title>
<g id="a_node2"><a xlink:href="./domain.html#com.practicalddd.cargotracker.handling.domain.model.aggregates.HandlingActivity" xlink:title="荷役&#13;\nHandlingActivity">
<polygon fill="white" stroke="black" points="297.5,-76.75 187,-76.75 187,-22.25 297.5,-22.25 297.5,-76.75"/>
<text text-anchor="middle" x="242.25" y="-59.45" font-family="Times New Roman,serif" font-size="14.00">荷役&#13;</text>
<text text-anchor="middle" x="242.25" y="-29.45" font-family="Times New Roman,serif" font-size="14.00">HandlingActivity</text>
</a>
</g>
</g>
<!-- com.practicalddd.cargotracker.handling.domain.model.aggregates.HandlingActivity&#45;&gt;com.practicalddd.cargotracker.handling.domain.model.valueobjects.Type -->
<g id="edge2" class="edge">
<title>com.practicalddd.cargotracker.handling.domain.model.aggregates.HandlingActivity&#45;&gt;com.practicalddd.cargotracker.handling.domain.model.valueobjects.Type</title>
<path fill="none" stroke="black" d="M297.92,-49.5C305.88,-49.5 314.11,-49.5 322.19,-49.5"/>
<polygon fill="black" stroke="black" points="321.94,-53 331.94,-49.5 321.94,-46 321.94,-53"/>
</g>
<!-- com.practicalddd.cargotracker.handling.domain.model.valueobjects.HandlingActivityHistory -->
<g id="node3" class="node">
<title>com.practicalddd.cargotracker.handling.domain.model.valueobjects.HandlingActivityHistory</title>
<g id="a_node3"><a xlink:href="./domain.html#com.practicalddd.cargotracker.handling.domain.model.valueobjects.HandlingActivityHistory" xlink:title="荷役履歴\nHandlingActivityHistory">
<polygon fill="white" stroke="black" points="151,-68.88 0,-68.88 0,-30.12 151,-30.12 151,-68.88"/>
<text text-anchor="middle" x="75.5" y="-51.58" font-family="Times New Roman,serif" font-size="14.00">荷役履歴</text>
<text text-anchor="middle" x="75.5" y="-37.33" font-family="Times New Roman,serif" font-size="14.00">HandlingActivityHistory</text>
</a>
</g>
</g>
<!-- com.practicalddd.cargotracker.handling.domain.model.valueobjects.HandlingActivityHistory&#45;&gt;com.practicalddd.cargotracker.handling.domain.model.aggregates.HandlingActivity -->
<g id="edge1" class="edge">
<title>com.practicalddd.cargotracker.handling.domain.model.valueobjects.HandlingActivityHistory&#45;&gt;com.practicalddd.cargotracker.handling.domain.model.aggregates.HandlingActivity</title>
<path fill="none" stroke="black" d="M151.16,-49.5C159.17,-49.5 167.28,-49.5 175.18,-49.5"/>
<polygon fill="black" stroke="black" points="175.05,-53 185.05,-49.5 175.05,-46 175.05,-53"/>
</g>
</g>
</svg>
