<?xml version="1.0" encoding="UTF-8" standalone="no"?>
<!DOCTYPE svg PUBLIC "-//W3C//DTD SVG 1.1//EN"
 "http://www.w3.org/Graphics/SVG/1.1/DTD/svg11.dtd">
<!-- Generated by graphviz version 12.2.0 (20241103.1931)
 -->
<!-- Title: 区分図 Pages: 1 -->
<svg width="404pt" height="188pt"
 viewBox="0.00 0.00 403.75 187.75" xmlns="http://www.w3.org/2000/svg" xmlns:xlink="http://www.w3.org/1999/xlink">
<g id="graph0" class="graph" transform="scale(1 1) rotate(0) translate(4 161.5)">
<title>区分図</title>
<polygon fill="white" stroke="none" points="-4,26.25 -4,-161.5 399.75,-161.5 399.75,26.25 -4,26.25"/>
<text text-anchor="middle" x="197.88" y="17.3" font-family="Times New Roman,serif" font-size="14.00">区分図</text>
<!-- com.practicalddd.cargotracker.handling.domain.model.valueobjects.Type -->
<g id="node1" class="node">
<title>com.practicalddd.cargotracker.handling.domain.model.valueobjects.Type</title>
<g id="a_node1"><a xlink:href="./enum.html#com.practicalddd.cargotracker.handling.domain.model.valueobjects.Type" xlink:title="&lt;TABLE&gt;">
<polygon fill="#eedd82" stroke="black" points="395.75,-157.5 0,-157.5 0,0 395.75,0 395.75,-157.5"/>
<text text-anchor="start" x="10" y="-138.2" font-family="Times New Roman,serif" font-size="14.00">Handling event type. Either requires or prohibits a carrier movement</text>
<text text-anchor="start" x="184.38" y="-121.7" font-family="Times New Roman,serif" font-size="14.00">Type</text>
<polygon fill="none" stroke="black" points="8,-94 8,-116.5 387.75,-116.5 387.75,-94 8,-94"/>
<text text-anchor="start" x="179.12" y="-100.2" font-family="Times New Roman,serif" font-size="14.00">LOAD</text>
<polygon fill="none" stroke="black" points="8,-71.5 8,-94 387.75,-94 387.75,-71.5 8,-71.5"/>
<text text-anchor="start" x="169.38" y="-77.7" font-family="Times New Roman,serif" font-size="14.00">UNLOAD</text>
<polygon fill="none" stroke="black" points="8,-49 8,-71.5 387.75,-71.5 387.75,-49 8,-49"/>
<text text-anchor="start" x="169.38" y="-55.2" font-family="Times New Roman,serif" font-size="14.00">RECEIVE</text>
<polygon fill="none" stroke="black" points="8,-26.5 8,-49 387.75,-49 387.75,-26.5 8,-26.5"/>
<text text-anchor="start" x="175.75" y="-32.7" font-family="Times New Roman,serif" font-size="14.00">CLAIM</text>
<polygon fill="none" stroke="black" points="8,-4 8,-26.5 387.75,-26.5 387.75,-4 8,-4"/>
<text text-anchor="start" x="165.62" y="-10.2" font-family="Times New Roman,serif" font-size="14.00">CUSTOMS</text>
</a>
</g>
</g>
</g>
</svg>
