<?xml version="1.0" encoding="UTF-8" standalone="no"?>
<!DOCTYPE svg PUBLIC "-//W3C//DTD SVG 1.1//EN"
 "http://www.w3.org/Graphics/SVG/1.1/DTD/svg11.dtd">
<!-- Generated by graphviz version 12.2.0 (20241103.1931)
 -->
<!-- Title: 区分使用図 Pages: 1 -->
<svg width="917pt" height="87pt"
 viewBox="0.00 0.00 917.00 87.00" xmlns="http://www.w3.org/2000/svg" xmlns:xlink="http://www.w3.org/1999/xlink">
<g id="graph0" class="graph" transform="scale(1 1) rotate(0) translate(4 83)">
<title>区分使用図</title>
<polygon fill="white" stroke="none" points="-4,4 -4,-83 913,-83 913,4 -4,4"/>
<text text-anchor="middle" x="454.5" y="-4.95" font-family="Times New Roman,serif" font-size="14.00">区分使用図</text>
<!-- com.practicalddd.cargotracker.handling.domain.model.valueobjects.Type -->
<g id="node1" class="node">
<title>com.practicalddd.cargotracker.handling.domain.model.valueobjects.Type</title>
<polygon fill="#eedd82" stroke="black" points="909,-79 521.25,-79 517.25,-75 517.25,-22.25 905,-22.25 909,-26.25 909,-79"/>
<polyline fill="none" stroke="black" points="905,-75 517.25,-75"/>
<polyline fill="none" stroke="black" points="905,-75 905,-22.25"/>
<polyline fill="none" stroke="black" points="905,-75 909,-79"/>
<text text-anchor="middle" x="713.12" y="-61.7" font-family="Times New Roman,serif" font-size="14.00">Handling event type. Either requires or prohibits a carrier movement&#13;</text>
<text text-anchor="middle" x="713.12" y="-29.45" font-family="Times New Roman,serif" font-size="14.00">Type</text>
</g>
<!-- com.practicalddd.cargotracker.handling.domain.model.aggregates.HandlingActivity -->
<g id="node2" class="node">
<title>com.practicalddd.cargotracker.handling.domain.model.aggregates.HandlingActivity</title>
<g id="a_node2"><a xlink:href="./domain.html#com.practicalddd.cargotracker.handling.domain.model.aggregates.HandlingActivity" xlink:title="Root Aggregate for the Handling Bounded Context\nHandlingActivity">
<polygon fill="white" stroke="black" points="481.25,-71.12 187,-71.12 187,-30.12 481.25,-30.12 481.25,-71.12"/>
<text text-anchor="middle" x="334.12" y="-53.83" font-family="Times New Roman,serif" font-size="14.00">Root Aggregate for the Handling Bounded Context</text>
<text text-anchor="middle" x="334.12" y="-37.33" font-family="Times New Roman,serif" font-size="14.00">HandlingActivity</text>
</a>
</g>
</g>
<!-- com.practicalddd.cargotracker.handling.domain.model.aggregates.HandlingActivity&#45;&gt;com.practicalddd.cargotracker.handling.domain.model.valueobjects.Type -->
<g id="edge2" class="edge">
<title>com.practicalddd.cargotracker.handling.domain.model.aggregates.HandlingActivity&#45;&gt;com.practicalddd.cargotracker.handling.domain.model.valueobjects.Type</title>
<path fill="none" stroke="black" d="M481.69,-50.62C489.57,-50.62 497.54,-50.62 505.56,-50.62"/>
<polygon fill="black" stroke="black" points="505.41,-54.13 515.41,-50.63 505.41,-47.13 505.41,-54.13"/>
</g>
<!-- com.practicalddd.cargotracker.handling.domain.model.valueobjects.HandlingActivityHistory -->
<g id="node3" class="node">
<title>com.practicalddd.cargotracker.handling.domain.model.valueobjects.HandlingActivityHistory</title>
<g id="a_node3"><a xlink:href="./domain.html#com.practicalddd.cargotracker.handling.domain.model.valueobjects.HandlingActivityHistory" xlink:title="HandlingActivityHistory">
<polygon fill="white" stroke="black" points="151,-68.62 0,-68.62 0,-32.62 151,-32.62 151,-68.62"/>
<text text-anchor="middle" x="75.5" y="-45.58" font-family="Times New Roman,serif" font-size="14.00">HandlingActivityHistory</text>
</a>
</g>
</g>
<!-- com.practicalddd.cargotracker.handling.domain.model.valueobjects.HandlingActivityHistory&#45;&gt;com.practicalddd.cargotracker.handling.domain.model.aggregates.HandlingActivity -->
<g id="edge1" class="edge">
<title>com.practicalddd.cargotracker.handling.domain.model.valueobjects.HandlingActivityHistory&#45;&gt;com.practicalddd.cargotracker.handling.domain.model.aggregates.HandlingActivity</title>
<path fill="none" stroke="black" d="M151.42,-50.62C159.15,-50.62 167.19,-50.62 175.41,-50.62"/>
<polygon fill="black" stroke="black" points="175.19,-54.13 185.19,-50.63 175.19,-47.13 175.19,-54.13"/>
</g>
</g>
</svg>
