<?xml version="1.0" encoding="UTF-8" standalone="no"?>
<!DOCTYPE svg PUBLIC "-//W3C//DTD SVG 1.1//EN"
 "http://www.w3.org/Graphics/SVG/1.1/DTD/svg11.dtd">
<!-- Generated by graphviz version 12.1.2 (20240928.0832)
 -->
<!-- Title: 区分使用図 Pages: 1 -->
<svg width="917pt" height="72pt"
 viewBox="0.00 0.00 917.00 72.00" xmlns="http://www.w3.org/2000/svg" xmlns:xlink="http://www.w3.org/1999/xlink">
<g id="graph0" class="graph" transform="scale(1 1) rotate(0) translate(4 68)">
<title>区分使用図</title>
<polygon fill="white" stroke="none" points="-4,4 -4,-68 913,-68 913,4 -4,4"/>
<text text-anchor="middle" x="454.5" y="-5.7" font-family="Times,serif" font-size="14.00">区分使用図</text>
<!-- com.practicalddd.cargotracker.handling.domain.model.valueobjects.Type -->
<g id="node1" class="node">
<title>com.practicalddd.cargotracker.handling.domain.model.valueobjects.Type</title>
<polygon fill="#eedd82" stroke="black" points="909,-64 521.25,-64 517.25,-60 517.25,-23 905,-23 909,-27 909,-64"/>
<polyline fill="none" stroke="black" points="905,-60 517.25,-60"/>
<polyline fill="none" stroke="black" points="905,-60 905,-23"/>
<polyline fill="none" stroke="black" points="905,-60 909,-64"/>
<text text-anchor="middle" x="713.12" y="-46.7" font-family="Times,serif" font-size="14.00">Handling event type. Either requires or prohibits a carrier movement</text>
<text text-anchor="middle" x="713.12" y="-30.2" font-family="Times,serif" font-size="14.00">Type</text>
</g>
<!-- com.practicalddd.cargotracker.handling.domain.model.aggregates.HandlingActivity -->
<g id="node2" class="node">
<title>com.practicalddd.cargotracker.handling.domain.model.aggregates.HandlingActivity</title>
<g id="a_node2"><a xlink:href="./domain.html#com.practicalddd.cargotracker.handling.domain.model.aggregates.HandlingActivity" xlink:title="Root Aggregate for the Handling Bounded Context\nHandlingActivity">
<polygon fill="white" stroke="black" points="481.25,-64 187,-64 187,-23 481.25,-23 481.25,-64"/>
<text text-anchor="middle" x="334.12" y="-46.7" font-family="Times,serif" font-size="14.00">Root Aggregate for the Handling Bounded Context</text>
<text text-anchor="middle" x="334.12" y="-30.2" font-family="Times,serif" font-size="14.00">HandlingActivity</text>
</a>
</g>
</g>
<!-- com.practicalddd.cargotracker.handling.domain.model.aggregates.HandlingActivity&#45;&gt;com.practicalddd.cargotracker.handling.domain.model.valueobjects.Type -->
<g id="edge2" class="edge">
<title>com.practicalddd.cargotracker.handling.domain.model.aggregates.HandlingActivity&#45;&gt;com.practicalddd.cargotracker.handling.domain.model.valueobjects.Type</title>
<path fill="none" stroke="black" d="M481.69,-43.5C489.57,-43.5 497.54,-43.5 505.56,-43.5"/>
<polygon fill="black" stroke="black" points="505.41,-47 515.41,-43.5 505.41,-40 505.41,-47"/>
</g>
<!-- com.practicalddd.cargotracker.handling.domain.model.valueobjects.HandlingActivityHistory -->
<g id="node3" class="node">
<title>com.practicalddd.cargotracker.handling.domain.model.valueobjects.HandlingActivityHistory</title>
<g id="a_node3"><a xlink:href="./domain.html#com.practicalddd.cargotracker.handling.domain.model.valueobjects.HandlingActivityHistory" xlink:title="HandlingActivityHistory">
<polygon fill="white" stroke="black" points="151,-61.5 0,-61.5 0,-25.5 151,-25.5 151,-61.5"/>
<text text-anchor="middle" x="75.5" y="-38.45" font-family="Times,serif" font-size="14.00">HandlingActivityHistory</text>
</a>
</g>
</g>
<!-- com.practicalddd.cargotracker.handling.domain.model.valueobjects.HandlingActivityHistory&#45;&gt;com.practicalddd.cargotracker.handling.domain.model.aggregates.HandlingActivity -->
<g id="edge1" class="edge">
<title>com.practicalddd.cargotracker.handling.domain.model.valueobjects.HandlingActivityHistory&#45;&gt;com.practicalddd.cargotracker.handling.domain.model.aggregates.HandlingActivity</title>
<path fill="none" stroke="black" d="M151.42,-43.5C159.15,-43.5 167.19,-43.5 175.41,-43.5"/>
<polygon fill="black" stroke="black" points="175.19,-47 185.19,-43.5 175.19,-40 175.19,-47"/>
</g>
</g>
</svg>
