<?xml version="1.0" encoding="UTF-8" standalone="no"?>
<!DOCTYPE svg PUBLIC "-//W3C//DTD SVG 1.1//EN"
 "http://www.w3.org/Graphics/SVG/1.1/DTD/svg11.dtd">
<!-- Generated by graphviz version 12.1.2 (20240928.0832)
 -->
<!-- Title: パッケージ関連図 Pages: 1 -->
<svg width="538pt" height="161pt"
 viewBox="0.00 0.00 538.25 160.50" xmlns="http://www.w3.org/2000/svg" xmlns:xlink="http://www.w3.org/1999/xlink">
<g id="graph0" class="graph" transform="scale(1 1) rotate(0) translate(4 156.5)">
<title>パッケージ関連図</title>
<polygon fill="white" stroke="none" points="-4,4 -4,-156.5 534.25,-156.5 534.25,4 -4,4"/>
<text text-anchor="middle" x="265.12" y="-5.7" font-family="Times,serif" font-size="14.00">パッケージ関連図</text>
<!-- summary -->
<g id="node1" class="node">
<title>summary</title>
<polygon fill="none" stroke="black" points="338.5,-152.5 0,-152.5 0,-95 344.5,-95 344.5,-146.5 338.5,-152.5"/>
<polyline fill="none" stroke="black" points="338.5,-152.5 338.5,-146.5"/>
<polyline fill="none" stroke="black" points="344.5,-146.5 338.5,-146.5"/>
<text text-anchor="start" x="8" y="-135.2" font-family="Times,serif" font-size="14.00">root: com.practicalddd.cargotracker.handling.domain.model</text>
<text text-anchor="start" x="8" y="-118.7" font-family="Times,serif" font-size="14.00">パッケージ数: 3</text>
<text text-anchor="start" x="8" y="-102.2" font-family="Times,serif" font-size="14.00">関連数: 2</text>
</g>
<!-- com.practicalddd.cargotracker.handling.domain.model.aggregates -->
<g id="node2" class="node">
<title>com.practicalddd.cargotracker.handling.domain.model.aggregates</title>
<g id="a_node2"><a xlink:href="./domain.html#com.practicalddd.cargotracker.handling.domain.model.aggregates" xlink:title="aggregates">
<polygon fill="#eedd82" stroke="black" points="436.12,-141.75 362.38,-141.75 362.38,-105.75 436.12,-105.75 436.12,-141.75"/>
<text text-anchor="middle" x="399.25" y="-118.7" font-family="Times,serif" font-size="14.00">aggregates</text>
</a>
</g>
</g>
<!-- com.practicalddd.cargotracker.handling.domain.model.valueobjects -->
<g id="node3" class="node">
<title>com.practicalddd.cargotracker.handling.domain.model.valueobjects</title>
<g id="a_node3"><a xlink:href="./domain.html#com.practicalddd.cargotracker.handling.domain.model.valueobjects" xlink:title="valueobjects">
<polygon fill="#eedd82" stroke="black" points="441,-59 357.5,-59 357.5,-23 441,-23 441,-59"/>
<text text-anchor="middle" x="399.25" y="-35.95" font-family="Times,serif" font-size="14.00">valueobjects</text>
</a>
</g>
</g>
<!-- com.practicalddd.cargotracker.handling.domain.model.aggregates&#45;&gt;com.practicalddd.cargotracker.handling.domain.model.valueobjects -->
<g id="edge1" class="edge">
<title>com.practicalddd.cargotracker.handling.domain.model.aggregates&#45;&gt;com.practicalddd.cargotracker.handling.domain.model.valueobjects</title>
<path fill="none" stroke="red" stroke-width="2" d="M399.25,-94.21C399.25,-86.59 399.25,-78.34 399.25,-70.7"/>
<polygon fill="red" stroke="red" stroke-width="2" points="395.75,-92.6 399.25,-102.6 402.75,-92.6 395.75,-92.6"/>
<polygon fill="red" stroke="red" stroke-width="2" points="402.75,-72.41 399.25,-62.41 395.75,-72.41 402.75,-72.41"/>
</g>
<!-- com.practicalddd.cargotracker.handling.domain.model.commands -->
<g id="node4" class="node">
<title>com.practicalddd.cargotracker.handling.domain.model.commands</title>
<g id="a_node4"><a xlink:href="./domain.html#com.practicalddd.cargotracker.handling.domain.model.commands" xlink:title="commands">
<polygon fill="#eedd82" stroke="black" points="530.25,-141.75 454.25,-141.75 454.25,-105.75 530.25,-105.75 530.25,-141.75"/>
<text text-anchor="middle" x="492.25" y="-118.7" font-family="Times,serif" font-size="14.00">commands</text>
</a>
</g>
</g>
</g>
</svg>
