<?xml version="1.0" encoding="UTF-8" standalone="no"?>
<!DOCTYPE svg PUBLIC "-//W3C//DTD SVG 1.1//EN"
 "http://www.w3.org/Graphics/SVG/1.1/DTD/svg11.dtd">
<!-- Generated by graphviz version 12.2.0 (20241103.1931)
 -->
<!-- Title: パッケージ関連図 Pages: 1 -->
<svg width="547pt" height="163pt"
 viewBox="0.00 0.00 546.75 162.50" xmlns="http://www.w3.org/2000/svg" xmlns:xlink="http://www.w3.org/1999/xlink">
<g id="graph0" class="graph" transform="scale(1 1) rotate(0) translate(4 158.5)">
<title>パッケージ関連図</title>
<polygon fill="white" stroke="none" points="-4,4 -4,-158.5 542.75,-158.5 542.75,4 -4,4"/>
<text text-anchor="middle" x="269.38" y="-4.95" font-family="Times New Roman,serif" font-size="14.00">パッケージ関連図</text>
<!-- summary -->
<g id="node1" class="node">
<title>summary</title>
<polygon fill="none" stroke="black" points="338.5,-154.5 0,-154.5 0,-97 344.5,-97 344.5,-148.5 338.5,-154.5"/>
<polyline fill="none" stroke="black" points="338.5,-154.5 338.5,-148.5"/>
<polyline fill="none" stroke="black" points="344.5,-148.5 338.5,-148.5"/>
<text text-anchor="start" x="8" y="-137.2" font-family="Times New Roman,serif" font-size="14.00">root: com.practicalddd.cargotracker.handling.domain.model</text>
<text text-anchor="start" x="8" y="-120.7" font-family="Times New Roman,serif" font-size="14.00">パッケージ数: 3</text>
<text text-anchor="start" x="8" y="-104.2" font-family="Times New Roman,serif" font-size="14.00">関連数: 2</text>
</g>
<!-- com.practicalddd.cargotracker.handling.domain.model.aggregates -->
<g id="node2" class="node">
<title>com.practicalddd.cargotracker.handling.domain.model.aggregates</title>
<g id="a_node2"><a xlink:href="./domain.html#com.practicalddd.cargotracker.handling.domain.model.aggregates" xlink:title="集約\naggregates">
<polygon fill="#eedd82" stroke="black" points="436.12,-145.12 362.38,-145.12 362.38,-106.38 436.12,-106.38 436.12,-145.12"/>
<text text-anchor="middle" x="399.25" y="-127.83" font-family="Times New Roman,serif" font-size="14.00">集約</text>
<text text-anchor="middle" x="399.25" y="-113.58" font-family="Times New Roman,serif" font-size="14.00">aggregates</text>
</a>
</g>
</g>
<!-- com.practicalddd.cargotracker.handling.domain.model.valueobjects -->
<g id="node3" class="node">
<title>com.practicalddd.cargotracker.handling.domain.model.valueobjects</title>
<g id="a_node3"><a xlink:href="./domain.html#com.practicalddd.cargotracker.handling.domain.model.valueobjects" xlink:title="値オブジェクト\nvalueobjects">
<polygon fill="#eedd82" stroke="black" points="467.62,-61 330.88,-61 330.88,-22.25 467.62,-22.25 467.62,-61"/>
<text text-anchor="middle" x="399.25" y="-43.7" font-family="Times New Roman,serif" font-size="14.00">値オブジェクト</text>
<text text-anchor="middle" x="399.25" y="-29.45" font-family="Times New Roman,serif" font-size="14.00">valueobjects</text>
</a>
</g>
</g>
<!-- com.practicalddd.cargotracker.handling.domain.model.aggregates&#45;&gt;com.practicalddd.cargotracker.handling.domain.model.valueobjects -->
<g id="edge1" class="edge">
<title>com.practicalddd.cargotracker.handling.domain.model.aggregates&#45;&gt;com.practicalddd.cargotracker.handling.domain.model.valueobjects</title>
<path fill="none" stroke="red" stroke-width="2" d="M399.25,-94.68C399.25,-87.57 399.25,-79.98 399.25,-72.85"/>
<polygon fill="red" stroke="red" stroke-width="2" points="395.75,-93.09 399.25,-103.09 402.75,-93.09 395.75,-93.09"/>
<polygon fill="red" stroke="red" stroke-width="2" points="402.75,-74.5 399.25,-64.5 395.75,-74.5 402.75,-74.5"/>
</g>
<!-- com.practicalddd.cargotracker.handling.domain.model.commands -->
<g id="node4" class="node">
<title>com.practicalddd.cargotracker.handling.domain.model.commands</title>
<g id="a_node4"><a xlink:href="./domain.html#com.practicalddd.cargotracker.handling.domain.model.commands" xlink:title="コマンド\ncommands">
<polygon fill="#eedd82" stroke="black" points="538.75,-145.12 453.75,-145.12 453.75,-106.38 538.75,-106.38 538.75,-145.12"/>
<text text-anchor="middle" x="496.25" y="-127.83" font-family="Times New Roman,serif" font-size="14.00">コマンド</text>
<text text-anchor="middle" x="496.25" y="-113.58" font-family="Times New Roman,serif" font-size="14.00">commands</text>
</a>
</g>
</g>
</g>
</svg>
