<?xml version="1.0" encoding="UTF-8" standalone="no"?>
<!DOCTYPE svg PUBLIC "-//W3C//DTD SVG 1.1//EN"
 "http://www.w3.org/Graphics/SVG/1.1/DTD/svg11.dtd">
<!-- Generated by graphviz version 12.2.0 (20241103.1931)
 -->
<!-- Title: パッケージ関連図 Pages: 1 -->
<svg width="538pt" height="160pt"
 viewBox="0.00 0.00 538.25 159.75" xmlns="http://www.w3.org/2000/svg" xmlns:xlink="http://www.w3.org/1999/xlink">
<g id="graph0" class="graph" transform="scale(1 1) rotate(0) translate(4 155.75)">
<title>パッケージ関連図</title>
<polygon fill="white" stroke="none" points="-4,4 -4,-155.75 534.25,-155.75 534.25,4 -4,4"/>
<text text-anchor="middle" x="265.12" y="-4.95" font-family="Times New Roman,serif" font-size="14.00">パッケージ関連図</text>
<!-- summary -->
<g id="node1" class="node">
<title>summary</title>
<polygon fill="none" stroke="black" points="338.5,-151.75 0,-151.75 0,-94.25 344.5,-94.25 344.5,-145.75 338.5,-151.75"/>
<polyline fill="none" stroke="black" points="338.5,-151.75 338.5,-145.75"/>
<polyline fill="none" stroke="black" points="344.5,-145.75 338.5,-145.75"/>
<text text-anchor="start" x="8" y="-134.45" font-family="Times New Roman,serif" font-size="14.00">root: com.practicalddd.cargotracker.handling.domain.model</text>
<text text-anchor="start" x="8" y="-117.95" font-family="Times New Roman,serif" font-size="14.00">パッケージ数: 3</text>
<text text-anchor="start" x="8" y="-101.45" font-family="Times New Roman,serif" font-size="14.00">関連数: 2</text>
</g>
<!-- com.practicalddd.cargotracker.handling.domain.model.aggregates -->
<g id="node2" class="node">
<title>com.practicalddd.cargotracker.handling.domain.model.aggregates</title>
<g id="a_node2"><a xlink:href="./domain.html#com.practicalddd.cargotracker.handling.domain.model.aggregates" xlink:title="aggregates">
<polygon fill="#eedd82" stroke="black" points="436.12,-141 362.38,-141 362.38,-105 436.12,-105 436.12,-141"/>
<text text-anchor="middle" x="399.25" y="-117.95" font-family="Times New Roman,serif" font-size="14.00">aggregates</text>
</a>
</g>
</g>
<!-- com.practicalddd.cargotracker.handling.domain.model.valueobjects -->
<g id="node3" class="node">
<title>com.practicalddd.cargotracker.handling.domain.model.valueobjects</title>
<g id="a_node3"><a xlink:href="./domain.html#com.practicalddd.cargotracker.handling.domain.model.valueobjects" xlink:title="valueobjects">
<polygon fill="#eedd82" stroke="black" points="441,-58.25 357.5,-58.25 357.5,-22.25 441,-22.25 441,-58.25"/>
<text text-anchor="middle" x="399.25" y="-35.2" font-family="Times New Roman,serif" font-size="14.00">valueobjects</text>
</a>
</g>
</g>
<!-- com.practicalddd.cargotracker.handling.domain.model.aggregates&#45;&gt;com.practicalddd.cargotracker.handling.domain.model.valueobjects -->
<g id="edge1" class="edge">
<title>com.practicalddd.cargotracker.handling.domain.model.aggregates&#45;&gt;com.practicalddd.cargotracker.handling.domain.model.valueobjects</title>
<path fill="none" stroke="red" stroke-width="2" d="M399.25,-93.46C399.25,-85.84 399.25,-77.59 399.25,-69.95"/>
<polygon fill="red" stroke="red" stroke-width="2" points="395.75,-91.85 399.25,-101.85 402.75,-91.85 395.75,-91.85"/>
<polygon fill="red" stroke="red" stroke-width="2" points="402.75,-71.66 399.25,-61.66 395.75,-71.66 402.75,-71.66"/>
</g>
<!-- com.practicalddd.cargotracker.handling.domain.model.commands -->
<g id="node4" class="node">
<title>com.practicalddd.cargotracker.handling.domain.model.commands</title>
<g id="a_node4"><a xlink:href="./domain.html#com.practicalddd.cargotracker.handling.domain.model.commands" xlink:title="commands">
<polygon fill="#eedd82" stroke="black" points="530.25,-141 454.25,-141 454.25,-105 530.25,-105 530.25,-141"/>
<text text-anchor="middle" x="492.25" y="-117.95" font-family="Times New Roman,serif" font-size="14.00">commands</text>
</a>
</g>
</g>
</g>
</svg>
