<?xml version="1.0" encoding="UTF-8" standalone="no"?>
<!DOCTYPE svg PUBLIC "-//W3C//DTD SVG 1.1//EN"
 "http://www.w3.org/Graphics/SVG/1.1/DTD/svg11.dtd">
<!-- Generated by graphviz version 12.1.2 (20240928.0832)
 -->
<!-- Title: ビジネスルール関連図 Pages: 1 -->
<svg width="777pt" height="367pt"
 viewBox="0.00 0.00 777.00 366.50" xmlns="http://www.w3.org/2000/svg" xmlns:xlink="http://www.w3.org/1999/xlink">
<g id="graph0" class="graph" transform="scale(1 1) rotate(0) translate(4 362.5)">
<title>ビジネスルール関連図</title>
<polygon fill="white" stroke="none" points="-4,4 -4,-362.5 773,-362.5 773,4 -4,4"/>
<text text-anchor="middle" x="384.5" y="-5.7" font-family="Times,serif" font-size="14.00">ビジネスルール関連図</text>
<g id="clust1" class="cluster">
<title>cluster_com.practicalddd.cargotracker.routing.domain.model.aggregates</title>
<polygon fill="lemonchiffon" stroke="#eedd82" stroke-width="2" points="158,-274 158,-350.5 526,-350.5 526,-274 158,-274"/>
<text text-anchor="middle" x="342" y="-333.2" font-family="Times,serif" font-size="14.00">com.practicalddd.cargotracker.routing.domain.model.aggregates</text>
</g>
<g id="clust2" class="cluster">
<title>cluster_com.practicalddd.cargotracker.routing.domain.model.entities</title>
<polygon fill="lemonchiffon" stroke="#eedd82" stroke-width="2" points="412,-108 412,-184.5 761,-184.5 761,-108 412,-108"/>
<text text-anchor="middle" x="586.5" y="-167.2" font-family="Times,serif" font-size="14.00">com.practicalddd.cargotracker.routing.domain.model.entities</text>
</g>
<g id="clust3" class="cluster">
<title>cluster_com.practicalddd.cargotracker.routing.domain.model.valueobjects</title>
<polygon fill="lemonchiffon" stroke="#eedd82" stroke-width="2" points="8,-31 8,-266 404,-266 404,-31 8,-31"/>
<text text-anchor="middle" x="206" y="-248.7" font-family="Times,serif" font-size="14.00">com.practicalddd.cargotracker.routing.domain.model.valueobjects</text>
</g>
<!-- com.practicalddd.cargotracker.routing.domain.model.aggregates.Voyage -->
<g id="node1" class="node">
<title>com.practicalddd.cargotracker.routing.domain.model.aggregates.Voyage</title>
<g id="a_node1"><a xlink:href="./domain.html#com.practicalddd.cargotracker.routing.domain.model.aggregates.Voyage" xlink:title="Voyage">
<polygon fill="#eedd82" stroke="black" points="308.25,-318 251.75,-318 251.75,-282 308.25,-282 308.25,-318"/>
<text text-anchor="middle" x="280" y="-294.95" font-family="Times,serif" font-size="14.00">Voyage</text>
</a>
</g>
</g>
<!-- com.practicalddd.cargotracker.routing.domain.model.valueobjects.Schedule -->
<g id="node4" class="node">
<title>com.practicalddd.cargotracker.routing.domain.model.valueobjects.Schedule</title>
<g id="a_node4"><a xlink:href="./domain.html#com.practicalddd.cargotracker.routing.domain.model.valueobjects.Schedule" xlink:title="A Voyage schedule\nSchedule">
<polygon fill="#eedd82" stroke="black" points="276.12,-233.5 155.88,-233.5 155.88,-192.5 276.12,-192.5 276.12,-233.5"/>
<text text-anchor="middle" x="216" y="-216.2" font-family="Times,serif" font-size="14.00">A Voyage schedule</text>
<text text-anchor="middle" x="216" y="-199.7" font-family="Times,serif" font-size="14.00">Schedule</text>
</a>
</g>
</g>
<!-- com.practicalddd.cargotracker.routing.domain.model.aggregates.Voyage&#45;&gt;com.practicalddd.cargotracker.routing.domain.model.valueobjects.Schedule -->
<g id="edge1" class="edge">
<title>com.practicalddd.cargotracker.routing.domain.model.aggregates.Voyage&#45;&gt;com.practicalddd.cargotracker.routing.domain.model.valueobjects.Schedule</title>
<path fill="none" stroke="black" d="M267.05,-281.8C258.64,-270.63 247.48,-255.81 237.74,-242.87"/>
<polygon fill="black" stroke="black" points="240.67,-240.95 231.86,-235.07 235.08,-245.16 240.67,-240.95"/>
</g>
<!-- com.practicalddd.cargotracker.routing.domain.model.valueobjects.VoyageNumber -->
<g id="node5" class="node">
<title>com.practicalddd.cargotracker.routing.domain.model.valueobjects.VoyageNumber</title>
<g id="a_node5"><a xlink:href="./domain.html#com.practicalddd.cargotracker.routing.domain.model.valueobjects.VoyageNumber" xlink:title="VoyageNumber">
<polygon fill="#eedd82" stroke="black" points="395.75,-231 294.25,-231 294.25,-195 395.75,-195 395.75,-231"/>
<text text-anchor="middle" x="345" y="-207.95" font-family="Times,serif" font-size="14.00">VoyageNumber</text>
</a>
</g>
</g>
<!-- com.practicalddd.cargotracker.routing.domain.model.aggregates.Voyage&#45;&gt;com.practicalddd.cargotracker.routing.domain.model.valueobjects.VoyageNumber -->
<g id="edge2" class="edge">
<title>com.practicalddd.cargotracker.routing.domain.model.aggregates.Voyage&#45;&gt;com.practicalddd.cargotracker.routing.domain.model.valueobjects.VoyageNumber</title>
<path fill="none" stroke="black" d="M293.15,-281.8C302.26,-269.9 314.54,-253.83 324.87,-240.32"/>
<polygon fill="black" stroke="black" points="327.43,-242.74 330.72,-232.67 321.87,-238.49 327.43,-242.74"/>
</g>
<!-- com.practicalddd.cargotracker.routing.domain.model.entities.CarrierMovement -->
<g id="node2" class="node">
<title>com.practicalddd.cargotracker.routing.domain.model.entities.CarrierMovement</title>
<g id="a_node2"><a xlink:href="./domain.html#com.practicalddd.cargotracker.routing.domain.model.entities.CarrierMovement" xlink:title="CarrierMovement">
<polygon fill="#eedd82" stroke="black" points="534.12,-152 419.88,-152 419.88,-116 534.12,-116 534.12,-152"/>
<text text-anchor="middle" x="477" y="-128.95" font-family="Times,serif" font-size="14.00">CarrierMovement</text>
</a>
</g>
</g>
<!-- com.practicalddd.cargotracker.routing.domain.model.valueobjects.Location -->
<g id="node3" class="node">
<title>com.practicalddd.cargotracker.routing.domain.model.valueobjects.Location</title>
<g id="a_node3"><a xlink:href="./domain.html#com.practicalddd.cargotracker.routing.domain.model.valueobjects.Location" xlink:title="Location class represented by a unique 5&#45;diigit UN Location code.\nLocation">
<polygon fill="#eedd82" stroke="black" points="395.5,-80 16.5,-80 16.5,-39 395.5,-39 395.5,-80"/>
<text text-anchor="middle" x="206" y="-62.7" font-family="Times,serif" font-size="14.00">Location class represented by a unique 5&#45;diigit UN Location code.</text>
<text text-anchor="middle" x="206" y="-46.2" font-family="Times,serif" font-size="14.00">Location</text>
</a>
</g>
</g>
<!-- com.practicalddd.cargotracker.routing.domain.model.entities.CarrierMovement&#45;&gt;com.practicalddd.cargotracker.routing.domain.model.valueobjects.Location -->
<g id="edge3" class="edge">
<title>com.practicalddd.cargotracker.routing.domain.model.entities.CarrierMovement&#45;&gt;com.practicalddd.cargotracker.routing.domain.model.valueobjects.Location</title>
<path fill="none" stroke="black" d="M437.32,-115.63C430.29,-112.87 422.99,-110.2 416,-108 385.63,-98.41 352.21,-89.95 321.14,-82.92"/>
<polygon fill="black" stroke="black" points="322.26,-79.58 311.73,-80.82 320.73,-86.41 322.26,-79.58"/>
</g>
<!-- com.practicalddd.cargotracker.routing.domain.model.valueobjects.Schedule&#45;&gt;com.practicalddd.cargotracker.routing.domain.model.entities.CarrierMovement -->
<g id="edge4" class="edge">
<title>com.practicalddd.cargotracker.routing.domain.model.valueobjects.Schedule&#45;&gt;com.practicalddd.cargotracker.routing.domain.model.entities.CarrierMovement</title>
<path fill="none" stroke="black" d="M276.41,-194.14C279.3,-193.53 282.18,-192.98 285,-192.5 313.75,-187.62 388.82,-195.08 416,-184.5 429.9,-179.09 443.06,-169.26 453.57,-159.79"/>
<polygon fill="black" stroke="black" points="455.81,-162.49 460.64,-153.06 450.98,-157.42 455.81,-162.49"/>
</g>
</g>
</svg>
