<?xml version="1.0" encoding="UTF-8" standalone="no"?>
<!DOCTYPE svg PUBLIC "-//W3C//DTD SVG 1.1//EN"
 "http://www.w3.org/Graphics/SVG/1.1/DTD/svg11.dtd">
<!-- Generated by graphviz version 12.2.0 (20241103.1931)
 -->
<!-- Title: ビジネスルール関連図 Pages: 1 -->
<svg width="759pt" height="367pt"
 viewBox="0.00 0.00 759.00 366.75" xmlns="http://www.w3.org/2000/svg" xmlns:xlink="http://www.w3.org/1999/xlink">
<g id="graph0" class="graph" transform="scale(1 1) rotate(0) translate(4 362.75)">
<title>ビジネスルール関連図</title>
<polygon fill="white" stroke="none" points="-4,4 -4,-362.75 755,-362.75 755,4 -4,4"/>
<text text-anchor="middle" x="375.5" y="-4.95" font-family="Times New Roman,serif" font-size="14.00">ビジネスルール関連図</text>
<g id="clust1" class="cluster">
<title>cluster_com.practicalddd.cargotracker.routing.domain.model.aggregates</title>
<polygon fill="lemonchiffon" stroke="#eedd82" stroke-width="2" points="149,-271.5 149,-350.75 517,-350.75 517,-271.5 149,-271.5"/>
<text text-anchor="middle" x="333" y="-333.45" font-family="Times New Roman,serif" font-size="14.00">com.practicalddd.cargotracker.routing.domain.model.aggregates</text>
</g>
<g id="clust2" class="cluster">
<title>cluster_com.practicalddd.cargotracker.routing.domain.model.entities</title>
<polygon fill="lemonchiffon" stroke="#eedd82" stroke-width="2" points="394,-105 394,-184.25 743,-184.25 743,-105 394,-105"/>
<text text-anchor="middle" x="568.5" y="-166.95" font-family="Times New Roman,serif" font-size="14.00">com.practicalddd.cargotracker.routing.domain.model.entities</text>
</g>
<g id="clust3" class="cluster">
<title>cluster_com.practicalddd.cargotracker.routing.domain.model.valueobjects</title>
<polygon fill="lemonchiffon" stroke="#eedd82" stroke-width="2" points="8,-30.25 8,-263.5 386,-263.5 386,-30.25 8,-30.25"/>
<text text-anchor="middle" x="197" y="-246.2" font-family="Times New Roman,serif" font-size="14.00">com.practicalddd.cargotracker.routing.domain.model.valueobjects</text>
</g>
<!-- com.practicalddd.cargotracker.routing.domain.model.aggregates.Voyage -->
<g id="node1" class="node">
<title>com.practicalddd.cargotracker.routing.domain.model.aggregates.Voyage</title>
<g id="a_node1"><a xlink:href="./domain.html#com.practicalddd.cargotracker.routing.domain.model.aggregates.Voyage" xlink:title="航海\nVoyage">
<polygon fill="#eedd82" stroke="black" points="299.25,-318.25 242.75,-318.25 242.75,-279.5 299.25,-279.5 299.25,-318.25"/>
<text text-anchor="middle" x="271" y="-300.95" font-family="Times New Roman,serif" font-size="14.00">航海</text>
<text text-anchor="middle" x="271" y="-286.7" font-family="Times New Roman,serif" font-size="14.00">Voyage</text>
</a>
</g>
</g>
<!-- com.practicalddd.cargotracker.routing.domain.model.valueobjects.Schedule -->
<g id="node4" class="node">
<title>com.practicalddd.cargotracker.routing.domain.model.valueobjects.Schedule</title>
<g id="a_node4"><a xlink:href="./domain.html#com.practicalddd.cargotracker.routing.domain.model.valueobjects.Schedule" xlink:title="航海予定\nSchedule">
<polygon fill="#eedd82" stroke="black" points="258.5,-231 173.5,-231 173.5,-192.25 258.5,-192.25 258.5,-231"/>
<text text-anchor="middle" x="216" y="-213.7" font-family="Times New Roman,serif" font-size="14.00">航海予定</text>
<text text-anchor="middle" x="216" y="-199.45" font-family="Times New Roman,serif" font-size="14.00">Schedule</text>
</a>
</g>
</g>
<!-- com.practicalddd.cargotracker.routing.domain.model.aggregates.Voyage&#45;&gt;com.practicalddd.cargotracker.routing.domain.model.valueobjects.Schedule -->
<g id="edge1" class="edge">
<title>com.practicalddd.cargotracker.routing.domain.model.aggregates.Voyage&#45;&gt;com.practicalddd.cargotracker.routing.domain.model.valueobjects.Schedule</title>
<path fill="none" stroke="black" d="M259.07,-279.38C251.84,-268.17 242.47,-253.65 234.31,-241.01"/>
<polygon fill="black" stroke="black" points="237.28,-239.16 228.92,-232.65 231.4,-242.95 237.28,-239.16"/>
</g>
<!-- com.practicalddd.cargotracker.routing.domain.model.valueobjects.VoyageNumber -->
<g id="node5" class="node">
<title>com.practicalddd.cargotracker.routing.domain.model.valueobjects.VoyageNumber</title>
<g id="a_node5"><a xlink:href="./domain.html#com.practicalddd.cargotracker.routing.domain.model.valueobjects.VoyageNumber" xlink:title="航海番号\nVoyageNumber">
<polygon fill="#eedd82" stroke="black" points="377.75,-231 276.25,-231 276.25,-192.25 377.75,-192.25 377.75,-231"/>
<text text-anchor="middle" x="327" y="-213.7" font-family="Times New Roman,serif" font-size="14.00">航海番号</text>
<text text-anchor="middle" x="327" y="-199.45" font-family="Times New Roman,serif" font-size="14.00">VoyageNumber</text>
</a>
</g>
</g>
<!-- com.practicalddd.cargotracker.routing.domain.model.aggregates.Voyage&#45;&gt;com.practicalddd.cargotracker.routing.domain.model.valueobjects.VoyageNumber -->
<g id="edge2" class="edge">
<title>com.practicalddd.cargotracker.routing.domain.model.aggregates.Voyage&#45;&gt;com.practicalddd.cargotracker.routing.domain.model.valueobjects.VoyageNumber</title>
<path fill="none" stroke="black" d="M283.15,-279.38C290.59,-268.06 300.24,-253.36 308.6,-240.64"/>
<polygon fill="black" stroke="black" points="311.28,-242.93 313.85,-232.65 305.43,-239.08 311.28,-242.93"/>
</g>
<!-- com.practicalddd.cargotracker.routing.domain.model.entities.CarrierMovement -->
<g id="node2" class="node">
<title>com.practicalddd.cargotracker.routing.domain.model.entities.CarrierMovement</title>
<g id="a_node2"><a xlink:href="./domain.html#com.practicalddd.cargotracker.routing.domain.model.entities.CarrierMovement" xlink:title="移動機器\nCarrierMovement">
<polygon fill="#eedd82" stroke="black" points="516.12,-151.75 401.88,-151.75 401.88,-113 516.12,-113 516.12,-151.75"/>
<text text-anchor="middle" x="459" y="-134.45" font-family="Times New Roman,serif" font-size="14.00">移動機器</text>
<text text-anchor="middle" x="459" y="-120.2" font-family="Times New Roman,serif" font-size="14.00">CarrierMovement</text>
</a>
</g>
</g>
<!-- com.practicalddd.cargotracker.routing.domain.model.valueobjects.Location -->
<g id="node3" class="node">
<title>com.practicalddd.cargotracker.routing.domain.model.valueobjects.Location</title>
<g id="a_node3"><a xlink:href="./domain.html#com.practicalddd.cargotracker.routing.domain.model.valueobjects.Location" xlink:title="位置\nLocation">
<polygon fill="#eedd82" stroke="black" points="378,-77 314,-77 314,-38.25 378,-38.25 378,-77"/>
<text text-anchor="middle" x="346" y="-59.7" font-family="Times New Roman,serif" font-size="14.00">位置</text>
<text text-anchor="middle" x="346" y="-45.45" font-family="Times New Roman,serif" font-size="14.00">Location</text>
</a>
</g>
</g>
<!-- com.practicalddd.cargotracker.routing.domain.model.entities.CarrierMovement&#45;&gt;com.practicalddd.cargotracker.routing.domain.model.valueobjects.Location -->
<g id="edge3" class="edge">
<title>com.practicalddd.cargotracker.routing.domain.model.entities.CarrierMovement&#45;&gt;com.practicalddd.cargotracker.routing.domain.model.valueobjects.Location</title>
<path fill="none" stroke="black" d="M429.9,-112.64C416.06,-103.73 399.33,-92.96 384.46,-83.38"/>
<polygon fill="black" stroke="black" points="386.58,-80.59 376.27,-78.12 382.79,-86.47 386.58,-80.59"/>
</g>
<!-- com.practicalddd.cargotracker.routing.domain.model.valueobjects.Schedule&#45;&gt;com.practicalddd.cargotracker.routing.domain.model.entities.CarrierMovement -->
<g id="edge4" class="edge">
<title>com.practicalddd.cargotracker.routing.domain.model.valueobjects.Schedule&#45;&gt;com.practicalddd.cargotracker.routing.domain.model.entities.CarrierMovement</title>
<path fill="none" stroke="black" d="M258.88,-194.2C261.61,-193.46 264.33,-192.8 267,-192.25 295.56,-186.36 370.89,-195.02 398,-184.25 411.52,-178.88 424.25,-169.3 434.55,-159.89"/>
<polygon fill="black" stroke="black" points="436.74,-162.64 441.51,-153.17 431.88,-157.6 436.74,-162.64"/>
</g>
</g>
</svg>
