<?xml version="1.0" encoding="UTF-8" standalone="no"?>
<!DOCTYPE svg PUBLIC "-//W3C//DTD SVG 1.1//EN"
 "http://www.w3.org/Graphics/SVG/1.1/DTD/svg11.dtd">
<!-- Generated by graphviz version 12.2.0 (20241103.1931)
 -->
<!-- Title: ビジネスルール関連図 Pages: 1 -->
<svg width="777pt" height="366pt"
 viewBox="0.00 0.00 777.00 365.75" xmlns="http://www.w3.org/2000/svg" xmlns:xlink="http://www.w3.org/1999/xlink">
<g id="graph0" class="graph" transform="scale(1 1) rotate(0) translate(4 361.75)">
<title>ビジネスルール関連図</title>
<polygon fill="white" stroke="none" points="-4,4 -4,-361.75 773,-361.75 773,4 -4,4"/>
<text text-anchor="middle" x="384.5" y="-4.95" font-family="Times New Roman,serif" font-size="14.00">ビジネスルール関連図</text>
<g id="clust1" class="cluster">
<title>cluster_com.practicalddd.cargotracker.routing.domain.model.aggregates</title>
<polygon fill="lemonchiffon" stroke="#eedd82" stroke-width="2" points="158,-273.25 158,-349.75 526,-349.75 526,-273.25 158,-273.25"/>
<text text-anchor="middle" x="342" y="-332.45" font-family="Times New Roman,serif" font-size="14.00">com.practicalddd.cargotracker.routing.domain.model.aggregates</text>
</g>
<g id="clust2" class="cluster">
<title>cluster_com.practicalddd.cargotracker.routing.domain.model.entities</title>
<polygon fill="lemonchiffon" stroke="#eedd82" stroke-width="2" points="412,-107.25 412,-183.75 761,-183.75 761,-107.25 412,-107.25"/>
<text text-anchor="middle" x="586.5" y="-166.45" font-family="Times New Roman,serif" font-size="14.00">com.practicalddd.cargotracker.routing.domain.model.entities</text>
</g>
<g id="clust3" class="cluster">
<title>cluster_com.practicalddd.cargotracker.routing.domain.model.valueobjects</title>
<polygon fill="lemonchiffon" stroke="#eedd82" stroke-width="2" points="8,-30.25 8,-265.25 404,-265.25 404,-30.25 8,-30.25"/>
<text text-anchor="middle" x="206" y="-247.95" font-family="Times New Roman,serif" font-size="14.00">com.practicalddd.cargotracker.routing.domain.model.valueobjects</text>
</g>
<!-- com.practicalddd.cargotracker.routing.domain.model.aggregates.Voyage -->
<g id="node1" class="node">
<title>com.practicalddd.cargotracker.routing.domain.model.aggregates.Voyage</title>
<g id="a_node1"><a xlink:href="./domain.html#com.practicalddd.cargotracker.routing.domain.model.aggregates.Voyage" xlink:title="Voyage">
<polygon fill="#eedd82" stroke="black" points="308.25,-317.25 251.75,-317.25 251.75,-281.25 308.25,-281.25 308.25,-317.25"/>
<text text-anchor="middle" x="280" y="-294.2" font-family="Times New Roman,serif" font-size="14.00">Voyage</text>
</a>
</g>
</g>
<!-- com.practicalddd.cargotracker.routing.domain.model.valueobjects.Schedule -->
<g id="node4" class="node">
<title>com.practicalddd.cargotracker.routing.domain.model.valueobjects.Schedule</title>
<g id="a_node4"><a xlink:href="./domain.html#com.practicalddd.cargotracker.routing.domain.model.valueobjects.Schedule" xlink:title="A Voyage schedule\nSchedule">
<polygon fill="#eedd82" stroke="black" points="275.75,-232.75 156.25,-232.75 156.25,-191.75 275.75,-191.75 275.75,-232.75"/>
<text text-anchor="middle" x="216" y="-215.45" font-family="Times New Roman,serif" font-size="14.00">A Voyage schedule</text>
<text text-anchor="middle" x="216" y="-198.95" font-family="Times New Roman,serif" font-size="14.00">Schedule</text>
</a>
</g>
</g>
<!-- com.practicalddd.cargotracker.routing.domain.model.aggregates.Voyage&#45;&gt;com.practicalddd.cargotracker.routing.domain.model.valueobjects.Schedule -->
<g id="edge1" class="edge">
<title>com.practicalddd.cargotracker.routing.domain.model.aggregates.Voyage&#45;&gt;com.practicalddd.cargotracker.routing.domain.model.valueobjects.Schedule</title>
<path fill="none" stroke="black" d="M267.05,-281.05C258.64,-269.88 247.48,-255.06 237.74,-242.12"/>
<polygon fill="black" stroke="black" points="240.67,-240.2 231.86,-234.32 235.08,-244.41 240.67,-240.2"/>
</g>
<!-- com.practicalddd.cargotracker.routing.domain.model.valueobjects.VoyageNumber -->
<g id="node5" class="node">
<title>com.practicalddd.cargotracker.routing.domain.model.valueobjects.VoyageNumber</title>
<g id="a_node5"><a xlink:href="./domain.html#com.practicalddd.cargotracker.routing.domain.model.valueobjects.VoyageNumber" xlink:title="VoyageNumber">
<polygon fill="#eedd82" stroke="black" points="395.75,-230.25 294.25,-230.25 294.25,-194.25 395.75,-194.25 395.75,-230.25"/>
<text text-anchor="middle" x="345" y="-207.2" font-family="Times New Roman,serif" font-size="14.00">VoyageNumber</text>
</a>
</g>
</g>
<!-- com.practicalddd.cargotracker.routing.domain.model.aggregates.Voyage&#45;&gt;com.practicalddd.cargotracker.routing.domain.model.valueobjects.VoyageNumber -->
<g id="edge2" class="edge">
<title>com.practicalddd.cargotracker.routing.domain.model.aggregates.Voyage&#45;&gt;com.practicalddd.cargotracker.routing.domain.model.valueobjects.VoyageNumber</title>
<path fill="none" stroke="black" d="M293.15,-281.05C302.26,-269.15 314.54,-253.08 324.87,-239.57"/>
<polygon fill="black" stroke="black" points="327.43,-241.99 330.72,-231.92 321.87,-237.74 327.43,-241.99"/>
</g>
<!-- com.practicalddd.cargotracker.routing.domain.model.entities.CarrierMovement -->
<g id="node2" class="node">
<title>com.practicalddd.cargotracker.routing.domain.model.entities.CarrierMovement</title>
<g id="a_node2"><a xlink:href="./domain.html#com.practicalddd.cargotracker.routing.domain.model.entities.CarrierMovement" xlink:title="CarrierMovement">
<polygon fill="#eedd82" stroke="black" points="534.12,-151.25 419.88,-151.25 419.88,-115.25 534.12,-115.25 534.12,-151.25"/>
<text text-anchor="middle" x="477" y="-128.2" font-family="Times New Roman,serif" font-size="14.00">CarrierMovement</text>
</a>
</g>
</g>
<!-- com.practicalddd.cargotracker.routing.domain.model.valueobjects.Location -->
<g id="node3" class="node">
<title>com.practicalddd.cargotracker.routing.domain.model.valueobjects.Location</title>
<g id="a_node3"><a xlink:href="./domain.html#com.practicalddd.cargotracker.routing.domain.model.valueobjects.Location" xlink:title="Location class represented by a unique 5&#45;diigit UN Location code.\nLocation">
<polygon fill="#eedd82" stroke="black" points="395.5,-79.25 16.5,-79.25 16.5,-38.25 395.5,-38.25 395.5,-79.25"/>
<text text-anchor="middle" x="206" y="-61.95" font-family="Times New Roman,serif" font-size="14.00">Location class represented by a unique 5&#45;diigit UN Location code.</text>
<text text-anchor="middle" x="206" y="-45.45" font-family="Times New Roman,serif" font-size="14.00">Location</text>
</a>
</g>
</g>
<!-- com.practicalddd.cargotracker.routing.domain.model.entities.CarrierMovement&#45;&gt;com.practicalddd.cargotracker.routing.domain.model.valueobjects.Location -->
<g id="edge3" class="edge">
<title>com.practicalddd.cargotracker.routing.domain.model.entities.CarrierMovement&#45;&gt;com.practicalddd.cargotracker.routing.domain.model.valueobjects.Location</title>
<path fill="none" stroke="black" d="M437.32,-114.88C430.29,-112.12 422.99,-109.45 416,-107.25 385.63,-97.66 352.21,-89.2 321.14,-82.17"/>
<polygon fill="black" stroke="black" points="322.26,-78.83 311.73,-80.07 320.73,-85.66 322.26,-78.83"/>
</g>
<!-- com.practicalddd.cargotracker.routing.domain.model.valueobjects.Schedule&#45;&gt;com.practicalddd.cargotracker.routing.domain.model.entities.CarrierMovement -->
<g id="edge4" class="edge">
<title>com.practicalddd.cargotracker.routing.domain.model.valueobjects.Schedule&#45;&gt;com.practicalddd.cargotracker.routing.domain.model.entities.CarrierMovement</title>
<path fill="none" stroke="black" d="M276.04,-193.46C279.05,-192.83 282.05,-192.25 285,-191.75 313.75,-186.87 388.82,-194.33 416,-183.75 429.9,-178.34 443.06,-168.51 453.57,-159.04"/>
<polygon fill="black" stroke="black" points="455.81,-161.74 460.64,-152.31 450.98,-156.67 455.81,-161.74"/>
</g>
</g>
</svg>
