<?xml version="1.0" encoding="UTF-8" standalone="no"?>
<!DOCTYPE svg PUBLIC "-//W3C//DTD SVG 1.1//EN"
 "http://www.w3.org/Graphics/SVG/1.1/DTD/svg11.dtd">
<!-- Generated by graphviz version 12.2.0 (20241103.1931)
 -->
<!-- Title: パッケージ関連図 Pages: 1 -->
<svg width="468pt" height="237pt"
 viewBox="0.00 0.00 467.50 237.25" xmlns="http://www.w3.org/2000/svg" xmlns:xlink="http://www.w3.org/1999/xlink">
<g id="graph0" class="graph" transform="scale(1 1) rotate(0) translate(4 233.25)">
<title>パッケージ関連図</title>
<polygon fill="white" stroke="none" points="-4,4 -4,-233.25 463.5,-233.25 463.5,4 -4,4"/>
<text text-anchor="middle" x="229.75" y="-4.95" font-family="Times New Roman,serif" font-size="14.00">パッケージ関連図</text>
<!-- summary -->
<g id="node1" class="node">
<title>summary</title>
<polygon fill="none" stroke="black" points="330.25,-229.25 0,-229.25 0,-171.75 336.25,-171.75 336.25,-223.25 330.25,-229.25"/>
<polyline fill="none" stroke="black" points="330.25,-229.25 330.25,-223.25"/>
<polyline fill="none" stroke="black" points="336.25,-223.25 330.25,-223.25"/>
<text text-anchor="start" x="8" y="-211.95" font-family="Times New Roman,serif" font-size="14.00">root: com.practicalddd.cargotracker.routing.domain.model</text>
<text text-anchor="start" x="8" y="-195.45" font-family="Times New Roman,serif" font-size="14.00">パッケージ数: 3</text>
<text text-anchor="start" x="8" y="-178.95" font-family="Times New Roman,serif" font-size="14.00">関連数: 3</text>
</g>
<!-- com.practicalddd.cargotracker.routing.domain.model.aggregates -->
<g id="node2" class="node">
<title>com.practicalddd.cargotracker.routing.domain.model.aggregates</title>
<g id="a_node2"><a xlink:href="./domain.html#com.practicalddd.cargotracker.routing.domain.model.aggregates" xlink:title="集約\naggregates">
<polygon fill="#eedd82" stroke="black" points="428,-219.88 354.25,-219.88 354.25,-181.12 428,-181.12 428,-219.88"/>
<text text-anchor="middle" x="391.12" y="-202.57" font-family="Times New Roman,serif" font-size="14.00">集約</text>
<text text-anchor="middle" x="391.12" y="-188.32" font-family="Times New Roman,serif" font-size="14.00">aggregates</text>
</a>
</g>
</g>
<!-- com.practicalddd.cargotracker.routing.domain.model.valueobjects -->
<g id="node3" class="node">
<title>com.practicalddd.cargotracker.routing.domain.model.valueobjects</title>
<g id="a_node3"><a xlink:href="./domain.html#com.practicalddd.cargotracker.routing.domain.model.valueobjects" xlink:title="値オブジェクト\nvalueobjects">
<polygon fill="#eedd82" stroke="black" points="459.5,-135.75 322.75,-135.75 322.75,-97 459.5,-97 459.5,-135.75"/>
<text text-anchor="middle" x="391.12" y="-118.45" font-family="Times New Roman,serif" font-size="14.00">値オブジェクト</text>
<text text-anchor="middle" x="391.12" y="-104.2" font-family="Times New Roman,serif" font-size="14.00">valueobjects</text>
</a>
</g>
</g>
<!-- com.practicalddd.cargotracker.routing.domain.model.aggregates&#45;&gt;com.practicalddd.cargotracker.routing.domain.model.valueobjects -->
<g id="edge1" class="edge">
<title>com.practicalddd.cargotracker.routing.domain.model.aggregates&#45;&gt;com.practicalddd.cargotracker.routing.domain.model.valueobjects</title>
<path fill="none" stroke="black" d="M391.12,-180.86C391.12,-171.06 391.12,-158.8 391.12,-147.68"/>
<polygon fill="black" stroke="black" points="394.63,-147.73 391.13,-137.73 387.63,-147.73 394.63,-147.73"/>
</g>
<!-- com.practicalddd.cargotracker.routing.domain.model.entities -->
<g id="node4" class="node">
<title>com.practicalddd.cargotracker.routing.domain.model.entities</title>
<g id="a_node4"><a xlink:href="./domain.html#com.practicalddd.cargotracker.routing.domain.model.entities" xlink:title="コマンド\nentities">
<polygon fill="#eedd82" stroke="black" points="433.62,-61 348.62,-61 348.62,-22.25 433.62,-22.25 433.62,-61"/>
<text text-anchor="middle" x="391.12" y="-43.7" font-family="Times New Roman,serif" font-size="14.00">コマンド</text>
<text text-anchor="middle" x="391.12" y="-29.45" font-family="Times New Roman,serif" font-size="14.00">entities</text>
</a>
</g>
</g>
<!-- com.practicalddd.cargotracker.routing.domain.model.valueobjects&#45;&gt;com.practicalddd.cargotracker.routing.domain.model.entities -->
<g id="edge2" class="edge">
<title>com.practicalddd.cargotracker.routing.domain.model.valueobjects&#45;&gt;com.practicalddd.cargotracker.routing.domain.model.entities</title>
<path fill="none" stroke="red" stroke-width="2" d="M391.12,-85.25C391.12,-81.06 391.12,-76.76 391.12,-72.58"/>
<polygon fill="red" stroke="red" stroke-width="2" points="387.63,-83.61 391.13,-93.61 394.63,-83.61 387.63,-83.61"/>
<polygon fill="red" stroke="red" stroke-width="2" points="394.63,-74.32 391.13,-64.32 387.63,-74.32 394.63,-74.32"/>
</g>
</g>
</svg>
