<?xml version="1.0" encoding="UTF-8" standalone="no"?>
<!DOCTYPE svg PUBLIC "-//W3C//DTD SVG 1.1//EN"
 "http://www.w3.org/Graphics/SVG/1.1/DTD/svg11.dtd">
<!-- Generated by graphviz version 12.2.0 (20241103.1931)
 -->
<!-- Title: パッケージ関連図 Pages: 1 -->
<svg width="441pt" height="232pt"
 viewBox="0.00 0.00 440.88 231.75" xmlns="http://www.w3.org/2000/svg" xmlns:xlink="http://www.w3.org/1999/xlink">
<g id="graph0" class="graph" transform="scale(1 1) rotate(0) translate(4 227.75)">
<title>パッケージ関連図</title>
<polygon fill="white" stroke="none" points="-4,4 -4,-227.75 436.88,-227.75 436.88,4 -4,4"/>
<text text-anchor="middle" x="216.44" y="-4.95" font-family="Times New Roman,serif" font-size="14.00">パッケージ関連図</text>
<!-- summary -->
<g id="node1" class="node">
<title>summary</title>
<polygon fill="none" stroke="black" points="330.25,-223.75 0,-223.75 0,-166.25 336.25,-166.25 336.25,-217.75 330.25,-223.75"/>
<polyline fill="none" stroke="black" points="330.25,-223.75 330.25,-217.75"/>
<polyline fill="none" stroke="black" points="336.25,-217.75 330.25,-217.75"/>
<text text-anchor="start" x="8" y="-206.45" font-family="Times New Roman,serif" font-size="14.00">root: com.practicalddd.cargotracker.routing.domain.model</text>
<text text-anchor="start" x="8" y="-189.95" font-family="Times New Roman,serif" font-size="14.00">パッケージ数: 3</text>
<text text-anchor="start" x="8" y="-173.45" font-family="Times New Roman,serif" font-size="14.00">関連数: 3</text>
</g>
<!-- com.practicalddd.cargotracker.routing.domain.model.aggregates -->
<g id="node2" class="node">
<title>com.practicalddd.cargotracker.routing.domain.model.aggregates</title>
<g id="a_node2"><a xlink:href="./domain.html#com.practicalddd.cargotracker.routing.domain.model.aggregates" xlink:title="aggregates">
<polygon fill="#eedd82" stroke="black" points="428,-213 354.25,-213 354.25,-177 428,-177 428,-213"/>
<text text-anchor="middle" x="391.12" y="-189.95" font-family="Times New Roman,serif" font-size="14.00">aggregates</text>
</a>
</g>
</g>
<!-- com.practicalddd.cargotracker.routing.domain.model.valueobjects -->
<g id="node3" class="node">
<title>com.practicalddd.cargotracker.routing.domain.model.valueobjects</title>
<g id="a_node3"><a xlink:href="./domain.html#com.practicalddd.cargotracker.routing.domain.model.valueobjects" xlink:title="valueobjects">
<polygon fill="#eedd82" stroke="black" points="432.88,-130.25 349.38,-130.25 349.38,-94.25 432.88,-94.25 432.88,-130.25"/>
<text text-anchor="middle" x="391.12" y="-107.2" font-family="Times New Roman,serif" font-size="14.00">valueobjects</text>
</a>
</g>
</g>
<!-- com.practicalddd.cargotracker.routing.domain.model.aggregates&#45;&gt;com.practicalddd.cargotracker.routing.domain.model.valueobjects -->
<g id="edge1" class="edge">
<title>com.practicalddd.cargotracker.routing.domain.model.aggregates&#45;&gt;com.practicalddd.cargotracker.routing.domain.model.valueobjects</title>
<path fill="none" stroke="black" d="M391.12,-176.88C391.12,-166.77 391.12,-153.73 391.12,-142.08"/>
<polygon fill="black" stroke="black" points="394.63,-142.14 391.13,-132.14 387.63,-142.14 394.63,-142.14"/>
</g>
<!-- com.practicalddd.cargotracker.routing.domain.model.entities -->
<g id="node4" class="node">
<title>com.practicalddd.cargotracker.routing.domain.model.entities</title>
<g id="a_node4"><a xlink:href="./domain.html#com.practicalddd.cargotracker.routing.domain.model.entities" xlink:title="entities">
<polygon fill="#eedd82" stroke="black" points="418.62,-58.25 363.62,-58.25 363.62,-22.25 418.62,-22.25 418.62,-58.25"/>
<text text-anchor="middle" x="391.12" y="-35.2" font-family="Times New Roman,serif" font-size="14.00">entities</text>
</a>
</g>
</g>
<!-- com.practicalddd.cargotracker.routing.domain.model.valueobjects&#45;&gt;com.practicalddd.cargotracker.routing.domain.model.entities -->
<g id="edge2" class="edge">
<title>com.practicalddd.cargotracker.routing.domain.model.valueobjects&#45;&gt;com.practicalddd.cargotracker.routing.domain.model.entities</title>
<path fill="none" stroke="red" stroke-width="2" d="M391.12,-82.49C391.12,-78.26 391.12,-73.91 391.12,-69.69"/>
<polygon fill="red" stroke="red" stroke-width="2" points="387.63,-80.92 391.13,-90.92 394.63,-80.92 387.63,-80.92"/>
<polygon fill="red" stroke="red" stroke-width="2" points="394.63,-71.38 391.13,-61.38 387.63,-71.38 394.63,-71.38"/>
</g>
</g>
</svg>
