<?xml version="1.0" encoding="UTF-8" standalone="no"?>
<!DOCTYPE svg PUBLIC "-//W3C//DTD SVG 1.1//EN"
 "http://www.w3.org/Graphics/SVG/1.1/DTD/svg11.dtd">
<!-- Generated by graphviz version 12.1.2 (20240928.0832)
 -->
<!-- Title: パッケージ関連図 Pages: 1 -->
<svg width="441pt" height="233pt"
 viewBox="0.00 0.00 440.88 232.50" xmlns="http://www.w3.org/2000/svg" xmlns:xlink="http://www.w3.org/1999/xlink">
<g id="graph0" class="graph" transform="scale(1 1) rotate(0) translate(4 228.5)">
<title>パッケージ関連図</title>
<polygon fill="white" stroke="none" points="-4,4 -4,-228.5 436.88,-228.5 436.88,4 -4,4"/>
<text text-anchor="middle" x="216.44" y="-5.7" font-family="Times,serif" font-size="14.00">パッケージ関連図</text>
<!-- summary -->
<g id="node1" class="node">
<title>summary</title>
<polygon fill="none" stroke="black" points="330.25,-224.5 0,-224.5 0,-167 336.25,-167 336.25,-218.5 330.25,-224.5"/>
<polyline fill="none" stroke="black" points="330.25,-224.5 330.25,-218.5"/>
<polyline fill="none" stroke="black" points="336.25,-218.5 330.25,-218.5"/>
<text text-anchor="start" x="8" y="-207.2" font-family="Times,serif" font-size="14.00">root: com.practicalddd.cargotracker.routing.domain.model</text>
<text text-anchor="start" x="8" y="-190.7" font-family="Times,serif" font-size="14.00">パッケージ数: 3</text>
<text text-anchor="start" x="8" y="-174.2" font-family="Times,serif" font-size="14.00">関連数: 3</text>
</g>
<!-- com.practicalddd.cargotracker.routing.domain.model.aggregates -->
<g id="node2" class="node">
<title>com.practicalddd.cargotracker.routing.domain.model.aggregates</title>
<g id="a_node2"><a xlink:href="./domain.html#com.practicalddd.cargotracker.routing.domain.model.aggregates" xlink:title="aggregates">
<polygon fill="#eedd82" stroke="black" points="428,-213.75 354.25,-213.75 354.25,-177.75 428,-177.75 428,-213.75"/>
<text text-anchor="middle" x="391.12" y="-190.7" font-family="Times,serif" font-size="14.00">aggregates</text>
</a>
</g>
</g>
<!-- com.practicalddd.cargotracker.routing.domain.model.valueobjects -->
<g id="node3" class="node">
<title>com.practicalddd.cargotracker.routing.domain.model.valueobjects</title>
<g id="a_node3"><a xlink:href="./domain.html#com.practicalddd.cargotracker.routing.domain.model.valueobjects" xlink:title="valueobjects">
<polygon fill="#eedd82" stroke="black" points="432.88,-131 349.38,-131 349.38,-95 432.88,-95 432.88,-131"/>
<text text-anchor="middle" x="391.12" y="-107.95" font-family="Times,serif" font-size="14.00">valueobjects</text>
</a>
</g>
</g>
<!-- com.practicalddd.cargotracker.routing.domain.model.aggregates&#45;&gt;com.practicalddd.cargotracker.routing.domain.model.valueobjects -->
<g id="edge1" class="edge">
<title>com.practicalddd.cargotracker.routing.domain.model.aggregates&#45;&gt;com.practicalddd.cargotracker.routing.domain.model.valueobjects</title>
<path fill="none" stroke="black" d="M391.12,-177.63C391.12,-167.52 391.12,-154.48 391.12,-142.83"/>
<polygon fill="black" stroke="black" points="394.63,-142.89 391.13,-132.89 387.63,-142.89 394.63,-142.89"/>
</g>
<!-- com.practicalddd.cargotracker.routing.domain.model.entities -->
<g id="node4" class="node">
<title>com.practicalddd.cargotracker.routing.domain.model.entities</title>
<g id="a_node4"><a xlink:href="./domain.html#com.practicalddd.cargotracker.routing.domain.model.entities" xlink:title="entities">
<polygon fill="#eedd82" stroke="black" points="418.62,-59 363.62,-59 363.62,-23 418.62,-23 418.62,-59"/>
<text text-anchor="middle" x="391.12" y="-35.95" font-family="Times,serif" font-size="14.00">entities</text>
</a>
</g>
</g>
<!-- com.practicalddd.cargotracker.routing.domain.model.valueobjects&#45;&gt;com.practicalddd.cargotracker.routing.domain.model.entities -->
<g id="edge2" class="edge">
<title>com.practicalddd.cargotracker.routing.domain.model.valueobjects&#45;&gt;com.practicalddd.cargotracker.routing.domain.model.entities</title>
<path fill="none" stroke="red" stroke-width="2" d="M391.12,-83.24C391.12,-79.01 391.12,-74.66 391.12,-70.44"/>
<polygon fill="red" stroke="red" stroke-width="2" points="387.63,-81.67 391.13,-91.67 394.63,-81.67 387.63,-81.67"/>
<polygon fill="red" stroke="red" stroke-width="2" points="394.63,-72.13 391.13,-62.13 387.63,-72.13 394.63,-72.13"/>
</g>
</g>
</svg>
